<svg width="16" height="16" viewBox="0 0 16 16" fill="none" xmlns="http://www.w3.org/2000/svg">
<path d="M8.98115 12C8.37982 12 7.89582 11.8203 7.52915 11.461C7.16982 11.1017 6.99015 10.6287 6.99015 10.042V5.213H4.99915V3.97H8.36515V10.009C8.36515 10.2363 8.42748 10.4197 8.55215 10.559C8.68415 10.691 8.86015 10.757 9.08015 10.757H10.8511V12H8.98115Z" fill="white"/>
<circle cx="8" cy="8" r="6.5" fill="#2A7DEB"/>
<path d="M5.08715 12L7.11115 3.97H8.88215L10.9171 12H9.50915L9.06915 10.053H6.93515L6.49515 12H5.08715ZM7.18815 8.931H8.81615L8.33215 6.775C8.25148 6.41567 8.18182 6.093 8.12315 5.807C8.06448 5.51367 8.02415 5.301 8.00215 5.169C7.98015 5.301 7.93982 5.51367 7.88115 5.807C7.82248 6.093 7.75282 6.412 7.67215 6.764L7.18815 8.931Z" fill="white"/>
</svg>
