<svg width="16" height="16" viewBox="0 0 16 16" fill="none" xmlns="http://www.w3.org/2000/svg">
<circle cx="8" cy="8" r="6.5" fill="#E59408"/>
<path d="M7.45215 12.11C6.86548 12.11 6.38882 11.901 6.02215 11.483C5.65548 11.065 5.47215 10.504 5.47215 9.8V8.161C5.47215 7.44967 5.65182 6.885 6.01115 6.467C6.37782 6.049 6.85815 5.84 7.45215 5.84C7.87015 5.84 8.22215 5.94633 8.50815 6.159C8.79415 6.36433 8.99215 6.65767 9.10215 7.039H9.12415L9.08015 5.664V3.97H10.4551V12H9.11315V10.911H9.10215C8.99215 11.2923 8.79415 11.5893 8.50815 11.802C8.22948 12.0073 7.87748 12.11 7.45215 12.11ZM7.96915 10.922C8.32115 10.922 8.59248 10.8157 8.78315 10.603C8.98115 10.3903 9.08015 10.0897 9.08015 9.701V8.249C9.08015 7.86033 8.98115 7.55967 8.78315 7.347C8.59248 7.13433 8.32115 7.028 7.96915 7.028C7.61715 7.028 7.34215 7.13067 7.14415 7.336C6.94615 7.54133 6.84715 7.83467 6.84715 8.216V9.734C6.84715 10.1153 6.94615 10.4087 7.14415 10.614C7.34215 10.8193 7.61715 10.922 7.96915 10.922Z" fill="white"/>
</svg>
