<svg width="16" height="16" viewBox="0 0 16 16" fill="none" xmlns="http://www.w3.org/2000/svg">
<circle cx="8" cy="8" r="6.5" fill="#2A7DEB"/>
<path d="M5.53815 12V10.757H7.60615V7.193H5.75815V5.95H8.98115V10.757H10.8401V12H5.53815ZM8.20015 4.938C7.92148 4.938 7.70148 4.86833 7.54015 4.729C7.37882 4.58233 7.29815 4.388 7.29815 4.146C7.29815 3.904 7.37882 3.71333 7.54015 3.574C7.70148 3.42733 7.92148 3.354 8.20015 3.354C8.47882 3.354 8.69882 3.42733 8.86015 3.574C9.02148 3.71333 9.10215 3.904 9.10215 4.146C9.10215 4.388 9.02148 4.58233 8.86015 4.729C8.69882 4.86833 8.47882 4.938 8.20015 4.938Z" fill="white"/>
</svg>
