<svg width="16" height="16" viewBox="0 0 16 16" fill="none" xmlns="http://www.w3.org/2000/svg">
<path d="M8.98115 12C8.37982 12 7.89582 11.8203 7.52915 11.461C7.16982 11.1017 6.99015 10.6287 6.99015 10.042V5.213H4.99915V3.97H8.36515V10.009C8.36515 10.2363 8.42748 10.4197 8.55215 10.559C8.68415 10.691 8.86015 10.757 9.08015 10.757H10.8511V12H8.98115Z" fill="white"/>
<circle cx="8" cy="8" r="6.5" fill="#169068"/>
<path d="M5.54915 12.98V4.95H6.89115V6.039H6.91315C7.02315 5.65767 7.21748 5.36433 7.49615 5.159C7.78215 4.94633 8.13415 4.84 8.55215 4.84C9.14615 4.84 9.62282 5.049 9.98215 5.467C10.3488 5.885 10.5321 6.446 10.5321 7.15V8.789C10.5321 9.50033 10.3488 10.065 9.98215 10.483C9.62282 10.901 9.14615 11.11 8.55215 11.11C8.14148 11.11 7.79315 11.0073 7.50715 10.802C7.22115 10.5893 7.02315 10.2923 6.91315 9.911H6.89115L6.92415 11.286V12.98H5.54915ZM8.04615 9.922C8.39815 9.922 8.66948 9.81933 8.86015 9.614C9.05815 9.40867 9.15715 9.11533 9.15715 8.734V7.216C9.15715 6.83467 9.05815 6.54133 8.86015 6.336C8.66948 6.13067 8.39815 6.028 8.04615 6.028C7.69415 6.028 7.41915 6.13433 7.22115 6.347C7.02315 6.55967 6.92415 6.86033 6.92415 7.249V8.701C6.92415 9.08967 7.02315 9.39033 7.22115 9.603C7.41915 9.81567 7.69415 9.922 8.04615 9.922Z" fill="white"/>
</svg>
