<svg width="32" height="32" viewBox="0 0 32 32" fill="none" xmlns="http://www.w3.org/2000/svg">
<path d="M23.1908 16.7678C22.3664 16.6447 21.7046 16.0235 21.5296 15.2078C21.3548 14.3929 21.7038 13.5545 22.4056 13.1043C23.8354 12.1875 24.6896 10.6306 24.6896 8.94118C24.6896 6.21648 22.4732 4 19.7485 4C17.8756 4 16.1847 5.04236 15.3353 6.72C15.0216 7.3404 14.4083 7.75294 13.715 7.8102C13.6593 7.8149 13.6044 7.81726 13.5495 7.81726C12.9166 7.81726 12.3166 7.51686 11.9378 7.00156C11.206 6.00628 10.0359 5.41176 8.8069 5.41176C6.66658 5.41176 4.92468 7.15372 4.92468 9.29412C4.92468 10.4408 5.43132 11.5247 6.31444 12.2675C6.79284 12.6698 7.05638 13.2729 7.02578 13.8973C6.9952 14.5216 6.67442 15.0965 6.15836 15.4494C4.80704 16.3749 4 17.9004 4 19.5294C4 22.2542 6.2164 24.4706 8.94102 24.4706C10.6178 24.4706 12.1668 23.6266 13.086 22.2134C13.4601 21.6376 14.0961 21.3028 14.7636 21.3028C14.9126 21.3028 15.0632 21.3192 15.213 21.3538C16.0318 21.542 16.6459 22.2228 16.7494 23.0564C17.1007 25.8746 19.5093 28 22.3532 28C25.4668 28 28 25.4666 28 22.353C28 19.578 25.9318 17.1765 23.1908 16.7678Z" fill="url(#paint0_linear_11388_103909)"/>
<defs>
<linearGradient id="paint0_linear_11388_103909" x1="16" y1="4" x2="16" y2="28" gradientUnits="userSpaceOnUse">
<stop stop-color="#EAEAEA"/>
<stop offset="1" stop-color="#848484"/>
</linearGradient>
</defs>
</svg>
