<svg width="32" height="32" viewBox="0 0 32 32" fill="none" xmlns="http://www.w3.org/2000/svg">
<path d="M28.0877 7.29433C27.2989 6.50546 26.2345 6.05382 25.1191 6.0347C24.0037 6.01558 22.9245 6.43046 22.1091 7.19182C22.0683 7.23069 22.0357 7.27746 22.0135 7.32928C21.9912 7.38111 21.9798 7.43692 21.9798 7.49332C21.9798 7.54971 21.9912 7.60552 22.0135 7.65735C22.0357 7.70918 22.0683 7.75594 22.1091 7.79481L22.6277 8.32543C22.6978 8.39513 22.7906 8.43717 22.8893 8.44382C22.9879 8.45046 23.0856 8.42127 23.1643 8.36161C23.6616 7.96439 24.2932 7.7748 24.9271 7.8325C25.5609 7.89019 26.1479 8.1907 26.5653 8.67118C26.9827 9.15165 27.1982 9.7749 27.1667 10.4106C27.1352 11.0463 26.8592 11.6452 26.3963 12.082C22.9804 15.4949 18.4219 5.92556 8.07466 10.858C7.90003 10.9419 7.74467 11.061 7.6184 11.208C7.49213 11.3549 7.39769 11.5264 7.34103 11.7117C7.28437 11.897 7.26673 12.092 7.28922 12.2844C7.3117 12.4768 7.37383 12.6625 7.47168 12.8297L9.24747 15.8959C9.43133 16.2157 9.73408 16.45 10.0898 16.5476C10.4455 16.6453 10.8255 16.5985 11.1469 16.4175L11.1891 16.3934L11.1559 16.4175L11.9338 15.9833C12.8108 15.4388 13.6399 14.8205 14.412 14.1352C14.4885 14.0655 14.5872 14.0254 14.6906 14.0221C14.7939 14.0188 14.8951 14.0525 14.9758 14.1171C15.0195 14.1537 15.0549 14.1991 15.0797 14.2504C15.1046 14.3017 15.1183 14.3576 15.12 14.4145C15.1217 14.4715 15.1114 14.5281 15.0897 14.5808C15.0679 14.6335 15.0353 14.6809 14.9939 14.7201C14.1813 15.4521 13.3055 16.1109 12.377 16.6888H12.3498L11.5629 17.129C11.2306 17.3156 10.8557 17.4132 10.4745 17.4124C10.0798 17.4138 9.69162 17.3112 9.34917 17.1148C9.00671 16.9184 8.72206 16.6353 8.52389 16.2939L6.84458 13.3965C3.63369 15.6818 1.66193 20.0716 2.72921 25.6311C2.74673 25.7248 2.79635 25.8094 2.86953 25.8705C2.94271 25.9316 3.03488 25.9653 3.13019 25.9657H5.02356C5.12787 25.9685 5.22929 25.9313 5.30715 25.8618C5.38501 25.7924 5.43347 25.6958 5.44264 25.5919C5.5316 24.9184 5.86227 24.3003 6.3731 23.8525C6.88392 23.4047 7.54008 23.1578 8.21938 23.1578C8.89869 23.1578 9.55484 23.4047 10.0657 23.8525C10.5765 24.3003 10.9072 24.9184 10.9961 25.5919C11.0079 25.6908 11.0556 25.7819 11.13 25.848C11.2045 25.9141 11.3006 25.9506 11.4001 25.9507H13.2513C13.3507 25.95 13.4464 25.9132 13.5207 25.8472C13.595 25.7812 13.6429 25.6905 13.6553 25.5919C13.7442 24.9184 14.0749 24.3003 14.5857 23.8525C15.0966 23.4047 15.7527 23.1578 16.432 23.1578C17.1113 23.1578 17.7675 23.4047 18.2783 23.8525C18.7891 24.3003 19.1198 24.9184 19.2088 25.5919C19.2212 25.6905 19.269 25.7812 19.3433 25.8472C19.4176 25.9132 19.5134 25.95 19.6128 25.9507H21.4519C21.5596 25.9507 21.663 25.9083 21.7397 25.8327C21.8164 25.7571 21.8603 25.6544 21.8619 25.5467C21.9041 22.9538 22.6036 19.9751 24.5964 18.4827C31.5006 13.3181 29.6856 8.89224 28.0877 7.29433ZM21.0479 15.0939L19.7303 14.4337C19.7302 14.2926 19.7662 14.1539 19.8349 14.0306C19.9036 13.9074 20.0027 13.8039 20.1228 13.7298C20.2429 13.6558 20.3799 13.6137 20.5208 13.6076C20.6618 13.6015 20.8019 13.6316 20.9279 13.6951C21.0539 13.7585 21.1616 13.8531 21.2406 13.97C21.3197 14.0868 21.3675 14.2219 21.3795 14.3625C21.3915 14.503 21.3674 14.6443 21.3093 14.7729C21.2513 14.9015 21.1613 15.013 21.0479 15.097V15.0939Z" fill="#13A4CD"/>
</svg>
