<svg width="32" height="32" viewBox="0 0 32 32" fill="none" xmlns="http://www.w3.org/2000/svg">
<path d="M15.0211 6.76758C16.234 6.79362 17.1913 7.13558 17.9007 7.73212C18.3831 8.1378 18.7283 8.6423 18.9623 9.19868C20.8306 7.69558 22.6161 6.75797 25.3564 6.75797C26.367 6.75797 27.2079 6.97096 27.8837 7.3686C28.5621 7.76773 29.0435 8.33505 29.3596 8.99226C29.9822 10.2871 29.9619 11.9208 29.6237 13.3982L29.6232 13.4003L27.2182 24.2942C26.9766 25.3885 25.8685 26.0493 24.7773 25.8308C23.6794 25.611 22.9329 24.5671 23.1764 23.4634L25.4438 13.1619L25.445 13.1568C25.7741 11.7271 25.2069 10.5916 23.6487 10.5858C22.2233 10.5805 20.3714 11.4309 19.2729 12.9051L16.7317 24.3022C16.4899 25.3962 15.3819 26.0573 14.2908 25.8388C13.1799 25.6163 12.4129 24.5768 12.6588 23.4631L14.9351 13.1544L14.9366 13.1479C15.2243 11.9165 14.8608 10.7826 13.4909 10.6112C12.0469 10.4585 9.9772 11.3129 8.78473 12.9154L6.23221 24.3146C5.98811 25.4083 4.87857 26.0667 3.78785 25.8459C2.69022 25.6237 1.94613 24.578 2.19236 23.4748L5.50584 8.62841C5.74993 7.53472 6.85947 6.87627 7.95019 7.09707C8.77839 7.26473 9.27909 7.81618 9.47371 8.46555C11.0734 7.385 12.9253 6.65491 15.0211 6.76758Z" fill="#2A7DEB"/>
</svg>
