<svg width="32" height="32" viewBox="0 0 32 32" fill="none" xmlns="http://www.w3.org/2000/svg">
<path opacity="0.5" d="M27.4285 26.8572H21.7143C21.3987 26.8572 21.1428 27.113 21.1428 27.4286C21.1428 27.7442 21.3987 28 21.7143 28H27.4285C27.7441 28 28 27.7442 28 27.4286C28 27.113 27.7441 26.8572 27.4285 26.8572Z" fill="#4D616E"/>
<path opacity="0.5" d="M19.4286 26.8572H12.5714C12.2558 26.8572 12 27.113 12 27.4286C12 27.7442 12.2558 28 12.5714 28H19.4286C19.7442 28 20 27.7442 20 27.4286C20 27.113 19.7442 26.8572 19.4286 26.8572Z" fill="#4D616E"/>
<path d="M10.2857 26.8571H4.57143C4.25584 26.8571 4 27.113 4 27.4286C4 27.7442 4.25584 28 4.57143 28H10.2857C10.6013 28 10.8571 27.7442 10.8571 27.4286C10.8571 27.113 10.6013 26.8571 10.2857 26.8571Z" fill="#EA5E5E"/>
<path opacity="0.5" d="M27.4286 24.5714H22.8572C22.5416 24.5714 22.2858 24.8273 22.2858 25.1429C22.2858 25.4584 22.5416 25.7143 22.8572 25.7143H27.4286C27.7442 25.7143 28.0001 25.4584 28.0001 25.1429C28.0001 24.8273 27.7442 24.5714 27.4286 24.5714Z" fill="#4D616E"/>
<path opacity="0.5" d="M20.5713 24.5714H19.4285C19.1129 24.5714 18.8571 24.8273 18.8571 25.1429C18.8571 25.4584 19.1129 25.7143 19.4285 25.7143H20.5713C20.8869 25.7143 21.1428 25.4584 21.1428 25.1429C21.1428 24.8273 20.8869 24.5714 20.5713 24.5714Z" fill="#4D616E"/>
<path opacity="0.5" d="M17.1429 24.5714H12.5714C12.2558 24.5714 12 24.8273 12 25.1429C12 25.4584 12.2558 25.7143 12.5714 25.7143H17.1429C17.4584 25.7143 17.7143 25.4584 17.7143 25.1429C17.7143 24.8273 17.4584 24.5714 17.1429 24.5714Z" fill="#4D616E"/>
<path d="M10.2857 24.5714H9.14284C8.82725 24.5714 8.57141 24.8273 8.57141 25.1429C8.57141 25.4584 8.82725 25.7143 9.14284 25.7143H10.2857C10.6013 25.7143 10.8571 25.4584 10.8571 25.1429C10.8571 24.8273 10.6013 24.5714 10.2857 24.5714Z" fill="#F7B93E"/>
<path d="M6.85714 24.5714H4.57143C4.25584 24.5714 4 24.8272 4 25.1428C4 25.4584 4.25584 25.7143 4.57143 25.7143H6.85714C7.17273 25.7143 7.42857 25.4584 7.42857 25.1428C7.42857 24.8272 7.17273 24.5714 6.85714 24.5714Z" fill="#56B3B4"/>
<path opacity="0.5" d="M27.4286 22.2857H17.1428C16.8272 22.2857 16.5714 22.5415 16.5714 22.8571C16.5714 23.1727 16.8272 23.4286 17.1428 23.4286H27.4286C27.7441 23.4286 28 23.1727 28 22.8571C28 22.5415 27.7441 22.2857 27.4286 22.2857Z" fill="#4D616E"/>
<path opacity="0.5" d="M14.8571 22.2857H12.5714C12.2558 22.2857 12 22.5415 12 22.8571C12 23.1727 12.2558 23.4286 12.5714 23.4286H14.8571C15.1727 23.4286 15.4286 23.1727 15.4286 22.8571C15.4286 22.5415 15.1727 22.2857 14.8571 22.2857Z" fill="#4D616E"/>
<path d="M10.2857 22.2857H4.57143C4.25584 22.2857 4 22.5415 4 22.8571C4 23.1727 4.25584 23.4286 4.57143 23.4286H10.2857C10.6013 23.4286 10.8571 23.1727 10.8571 22.8571C10.8571 22.5415 10.6013 22.2857 10.2857 22.2857Z" fill="#BF85BF"/>
<path opacity="0.5" d="M27.4286 20H25.1428C24.8272 20 24.5714 20.2558 24.5714 20.5714C24.5714 20.887 24.8272 21.1429 25.1428 21.1429H27.4286C27.7441 21.1429 28 20.887 28 20.5714C28 20.2558 27.7441 20 27.4286 20Z" fill="#4D616E"/>
<path opacity="0.5" d="M22.8571 20H20.5714C20.2558 20 20 20.2558 20 20.5714C20 20.887 20.2558 21.1429 20.5714 21.1429H22.8571C23.1727 21.1429 23.4286 20.887 23.4286 20.5714C23.4286 20.2558 23.1727 20 22.8571 20Z" fill="#4D616E"/>
<path d="M18.2857 20H8.00002C7.68443 20 7.42859 20.2558 7.42859 20.5714C7.42859 20.887 7.68443 21.1429 8.00002 21.1429H18.2857C18.6013 21.1429 18.8572 20.887 18.8572 20.5714C18.8572 20.2558 18.6013 20 18.2857 20Z" fill="#F7B93E"/>
<path d="M5.71429 20H4.57143C4.25584 20 4 20.2558 4 20.5714C4 20.887 4.25584 21.1429 4.57143 21.1429H5.71429C6.02988 21.1429 6.28571 20.887 6.28571 20.5714C6.28571 20.2558 6.02988 20 5.71429 20Z" fill="#BF85BF"/>
<path opacity="0.5" d="M27.4286 17.7143H24C23.6844 17.7143 23.4286 17.9701 23.4286 18.2857C23.4286 18.6013 23.6844 18.8571 24 18.8571H27.4286C27.7442 18.8571 28 18.6013 28 18.2857C28 17.9701 27.7442 17.7143 27.4286 17.7143Z" fill="#4D616E"/>
<path d="M21.7142 17.7143H18.2857C17.9701 17.7143 17.7142 17.9701 17.7142 18.2857C17.7142 18.6013 17.9701 18.8571 18.2857 18.8571H21.7142C22.0298 18.8571 22.2857 18.6013 22.2857 18.2857C22.2857 17.9701 22.0298 17.7143 21.7142 17.7143Z" fill="#BF85BF"/>
<path d="M16 17.7143H11.4286C11.113 17.7143 10.8572 17.9701 10.8572 18.2857C10.8572 18.6013 11.113 18.8571 11.4286 18.8571H16C16.3156 18.8571 16.5715 18.6013 16.5715 18.2857C16.5715 17.9701 16.3156 17.7143 16 17.7143Z" fill="#EA5E5E"/>
<path d="M9.14286 17.7143H4.57143C4.25584 17.7143 4 17.9701 4 18.2857C4 18.6013 4.25584 18.8571 4.57143 18.8571H9.14286C9.45845 18.8571 9.71429 18.6013 9.71429 18.2857C9.71429 17.9701 9.45845 17.7143 9.14286 17.7143Z" fill="#56B3B4"/>
<path opacity="0.5" d="M27.4286 15.4286H25.1428C24.8272 15.4286 24.5714 15.6844 24.5714 16C24.5714 16.3156 24.8272 16.5714 25.1428 16.5714H27.4286C27.7441 16.5714 28 16.3156 28 16C28 15.6844 27.7441 15.4286 27.4286 15.4286Z" fill="#4D616E"/>
<path d="M22.8572 15.4286H13.7144C13.3988 15.4286 13.1429 15.6844 13.1429 16C13.1429 16.3156 13.3988 16.5714 13.7144 16.5714H22.8572C23.1728 16.5714 23.4287 16.3156 23.4287 16C23.4287 15.6844 23.1728 15.4286 22.8572 15.4286Z" fill="#56B3B4"/>
<path d="M11.4286 15.4286H8.00002C7.68443 15.4286 7.42859 15.6844 7.42859 16C7.42859 16.3156 7.68443 16.5714 8.00002 16.5714H11.4286C11.7442 16.5714 12 16.3156 12 16C12 15.6844 11.7442 15.4286 11.4286 15.4286Z" fill="#F7B93E"/>
<path d="M5.71429 15.4286H4.57143C4.25584 15.4286 4 15.6844 4 16C4 16.3156 4.25584 16.5714 4.57143 16.5714H5.71429C6.02988 16.5714 6.28571 16.3156 6.28571 16C6.28571 15.6844 6.02988 15.4286 5.71429 15.4286Z" fill="#EA5E5E"/>
<path opacity="0.5" d="M27.4286 13.1429H26.2858C25.9702 13.1429 25.7144 13.3987 25.7144 13.7143C25.7144 14.0299 25.9702 14.2857 26.2858 14.2857H27.4286C27.7442 14.2857 28.0001 14.0299 28.0001 13.7143C28.0001 13.3987 27.7442 13.1429 27.4286 13.1429Z" fill="#4D616E"/>
<path d="M23.9999 13.1429H18.2857C17.9701 13.1429 17.7142 13.3987 17.7142 13.7143C17.7142 14.0299 17.9701 14.2857 18.2857 14.2857H23.9999C24.3155 14.2857 24.5714 14.0299 24.5714 13.7143C24.5714 13.3987 24.3155 13.1429 23.9999 13.1429Z" fill="#F7B93E"/>
<path opacity="0.5" d="M16 13.1429H12.5714C12.2558 13.1429 12 13.3987 12 13.7143C12 14.0299 12.2558 14.2857 12.5714 14.2857H16C16.3156 14.2857 16.5714 14.0299 16.5714 13.7143C16.5714 13.3987 16.3156 13.1429 16 13.1429Z" fill="#4D616E"/>
<path d="M10.2857 13.1429H4.57143C4.25584 13.1429 4 13.3987 4 13.7143C4 14.0299 4.25584 14.2857 4.57143 14.2857H10.2857C10.6013 14.2857 10.8571 14.0299 10.8571 13.7143C10.8571 13.3987 10.6013 13.1429 10.2857 13.1429Z" fill="#BF85BF"/>
<path opacity="0.5" d="M27.4286 10.8571H26.2858C25.9702 10.8571 25.7144 11.113 25.7144 11.4286C25.7144 11.7442 25.9702 12 26.2858 12H27.4286C27.7442 12 28.0001 11.7442 28.0001 11.4286C28.0001 11.113 27.7442 10.8571 27.4286 10.8571Z" fill="#4D616E"/>
<path d="M23.9999 10.8571H18.2857C17.9701 10.8571 17.7142 11.113 17.7142 11.4286C17.7142 11.7442 17.9701 12 18.2857 12H23.9999C24.3155 12 24.5714 11.7442 24.5714 11.4286C24.5714 11.113 24.3155 10.8571 23.9999 10.8571Z" fill="#EA5E5E"/>
<path opacity="0.5" d="M16 10.8571H12.5714C12.2558 10.8571 12 11.113 12 11.4286C12 11.7442 12.2558 12 12.5714 12H16C16.3156 12 16.5714 11.7442 16.5714 11.4286C16.5714 11.113 16.3156 10.8571 16 10.8571Z" fill="#4D616E"/>
<path d="M10.2857 10.8571H9.14284C8.82725 10.8571 8.57141 11.113 8.57141 11.4286C8.57141 11.7442 8.82725 12 9.14284 12H10.2857C10.6013 12 10.8571 11.7442 10.8571 11.4286C10.8571 11.113 10.6013 10.8571 10.2857 10.8571Z" fill="#56B3B4"/>
<path d="M6.85714 10.8571H4.57143C4.25584 10.8571 4 11.113 4 11.4286C4 11.7442 4.25584 12 4.57143 12H6.85714C7.17273 12 7.42857 11.7442 7.42857 11.4286C7.42857 11.113 7.17273 10.8571 6.85714 10.8571Z" fill="#F7B93E"/>
<path opacity="0.5" d="M27.4286 8.57143H25.1428C24.8272 8.57143 24.5714 8.82726 24.5714 9.14285C24.5714 9.45845 24.8272 9.71428 25.1428 9.71428H27.4286C27.7441 9.71428 28 9.45845 28 9.14285C28 8.82726 27.7441 8.57143 27.4286 8.57143Z" fill="#4D616E"/>
<path d="M22.8571 8.57143H21.7143C21.3987 8.57143 21.1428 8.82726 21.1428 9.14285C21.1428 9.45845 21.3987 9.71428 21.7143 9.71428H22.8571C23.1727 9.71428 23.4285 9.45845 23.4285 9.14285C23.4285 8.82726 23.1727 8.57143 22.8571 8.57143Z" fill="#56B3B4"/>
<path d="M19.4286 8.57143H14.8572C14.5416 8.57143 14.2858 8.82726 14.2858 9.14285C14.2858 9.45845 14.5416 9.71428 14.8572 9.71428H19.4286C19.7442 9.71428 20.0001 9.45845 20.0001 9.14285C20.0001 8.82726 19.7442 8.57143 19.4286 8.57143Z" fill="#BF85BF"/>
<path d="M12.5714 8.57143H4.57143C4.25584 8.57143 4 8.82726 4 9.14285C4 9.45845 4.25584 9.71428 4.57143 9.71428H12.5714C12.887 9.71428 13.1429 9.45845 13.1429 9.14285C13.1429 8.82726 12.887 8.57143 12.5714 8.57143Z" fill="#56B3B4"/>
<path opacity="0.5" d="M27.4286 6.28572H24C23.6844 6.28572 23.4286 6.54156 23.4286 6.85715C23.4286 7.17274 23.6844 7.42858 24 7.42858H27.4286C27.7442 7.42858 28 7.17274 28 6.85715C28 6.54156 27.7442 6.28572 27.4286 6.28572Z" fill="#4D616E"/>
<path d="M21.7142 6.28572H10.2857C9.97007 6.28572 9.71423 6.54156 9.71423 6.85715C9.71423 7.17274 9.97007 7.42858 10.2857 7.42858H21.7142C22.0298 7.42858 22.2857 7.17274 22.2857 6.85715C22.2857 6.54156 22.0298 6.28572 21.7142 6.28572Z" fill="#F7B93E"/>
<path d="M8 6.28572H4.57143C4.25584 6.28572 4 6.54156 4 6.85715C4 7.17274 4.25584 7.42858 4.57143 7.42858H8C8.31559 7.42858 8.57143 7.17274 8.57143 6.85715C8.57143 6.54156 8.31559 6.28572 8 6.28572Z" fill="#EA5E5E"/>
<path opacity="0.5" d="M27.4286 4H20.5714C20.2558 4 20 4.25584 20 4.57143C20 4.88702 20.2558 5.14286 20.5714 5.14286H27.4286C27.7442 5.14286 28 4.88702 28 4.57143C28 4.25584 27.7442 4 27.4286 4Z" fill="#4D616E"/>
<path d="M18.2857 4H4.57143C4.25584 4 4 4.25584 4 4.57143C4 4.88702 4.25584 5.14286 4.57143 5.14286H18.2857C18.6013 5.14286 18.8571 4.88702 18.8571 4.57143C18.8571 4.25584 18.6013 4 18.2857 4Z" fill="#56B3B4"/>
</svg>
