<svg width="32" height="32" viewBox="0 0 32 32" fill="none" xmlns="http://www.w3.org/2000/svg">
<path d="M29.3213 15.7567C29.3673 12.916 28.7273 9.53801 27.394 5.57468L26.3486 2.46667L24.9286 5.42201C24.8526 5.58001 24.766 5.73468 24.6753 5.88734C22.3426 3.88468 19.316 2.66667 16 2.66667C8.63596 2.66667 2.66663 8.63601 2.66663 16C2.66663 23.364 8.63596 29.3333 16 29.3333C23.364 29.3333 29.3333 23.364 29.3333 16C29.3333 15.918 29.3226 15.8387 29.3213 15.7567Z" fill="#8BC34A"/>
<path d="M26.2567 21.7053C24.1747 24.5733 20.4893 24.7273 17.0207 24.6667H12.5H11.208C14.16 23.6047 15.9167 23.352 17.7107 22.4C21.0893 20.6233 24.4293 16.736 25.1247 12.692C23.838 16.5827 19.9387 19.9253 16.3853 21.2847C13.9507 22.2133 9.55334 23.1147 9.55334 23.1147L9.37534 23.018C6.38201 21.512 6.29134 14.8093 11.7333 12.6453C14.116 11.6967 16.3953 12.218 18.9693 11.5833C21.7173 10.9087 24.896 8.778 26.1893 6C27.6373 10.4447 29.38 17.404 26.2567 21.7053ZM10.4453 25.63C10.2573 25.8633 9.97001 26 9.67001 26C9.12134 26 8.67334 25.5487 8.67334 25C8.67334 24.4513 9.12467 24 9.67001 24C9.89734 24 10.1213 24.0787 10.2973 24.224C10.724 24.57 10.7907 25.2033 10.4453 25.63Z" fill="white"/>
</svg>
