<svg width="32" height="32" viewBox="0 0 32 32" fill="none" xmlns="http://www.w3.org/2000/svg">
<g clip-path="url(#clip0_2780_101456)">
<path d="M26.0079 5.83937C23.4561 2.16384 18.3759 1.08693 14.7238 3.40462L8.28574 7.52496C6.52992 8.62528 5.31254 10.4279 4.96138 12.4647C4.65703 14.1737 4.91456 15.9295 5.73394 17.4512C5.17208 18.294 4.7975 19.2305 4.63362 20.2137C4.25905 22.2973 4.75068 24.4511 5.96805 26.1601C8.54326 29.8357 13.6 30.9126 17.2522 28.5949L23.6902 24.4979C25.446 23.3976 26.6634 21.595 27.0146 19.5582C27.3189 17.8492 27.0614 16.0934 26.242 14.5717C26.8039 13.7289 27.1784 12.7924 27.3423 11.8092C27.7403 9.70218 27.2487 7.54837 26.0079 5.83937Z" fill="#FF3E00"/>
<path d="M14.092 26.5116C12.0084 27.05 9.83116 26.2306 8.61378 24.4748C7.86463 23.4447 7.5837 22.1571 7.7944 20.8929C7.84122 20.6822 7.88804 20.4949 7.93486 20.2842L8.05192 19.9096L8.37967 20.1438C9.15224 20.7056 9.99503 21.127 10.9081 21.408L11.1422 21.4782L11.1188 21.7123C11.0954 22.0401 11.189 22.3912 11.3763 22.6721C11.7509 23.2106 12.4064 23.4681 13.0385 23.3042C13.1789 23.2574 13.3194 23.2106 13.4365 23.1404L19.8511 19.0434C20.1788 18.8327 20.3895 18.5284 20.4598 18.1538C20.53 17.7792 20.4363 17.3813 20.2256 17.0769C19.8511 16.5385 19.1956 16.3044 18.5635 16.4682C18.423 16.5151 18.2825 16.5619 18.1655 16.6321L15.7073 18.2006C15.3093 18.4582 14.8645 18.6455 14.3963 18.7625C12.3127 19.301 10.1355 18.4816 8.91813 16.7258C8.19238 15.6957 7.88804 14.4081 8.12215 13.1439C8.33285 11.9265 9.082 10.8262 10.1355 10.1707L16.5735 6.07374C16.9715 5.81622 17.4163 5.62893 17.8845 5.48846C19.9681 4.95001 22.1454 5.7694 23.3627 7.52522C24.1119 8.55531 24.3928 9.84291 24.1821 11.1071C24.1353 11.3178 24.0885 11.5051 24.0182 11.7158L23.9012 12.0904L23.5734 11.8563C22.8009 11.2944 21.9581 10.873 21.045 10.5921L20.8109 10.5218L20.8343 10.2877C20.8577 9.95997 20.7641 9.6088 20.5768 9.32787C20.2022 8.78942 19.5467 8.55531 18.9146 8.71918C18.7742 8.76601 18.6337 8.81283 18.5166 8.88306L12.102 12.98C11.7743 13.1907 11.5636 13.495 11.4933 13.8696C11.4231 14.2442 11.5167 14.6422 11.7274 14.9465C12.102 15.485 12.7575 15.7191 13.3896 15.5552C13.5301 15.5084 13.6706 15.4616 13.7876 15.3913L16.2458 13.8228C16.6438 13.5653 17.0886 13.378 17.5568 13.2375C19.6404 12.6991 21.8176 13.5184 23.035 15.2743C23.7841 16.3044 24.0651 17.592 23.8544 18.8562C23.6437 20.0735 22.8945 21.1738 21.841 21.8294L15.403 25.9263C15.005 26.1838 14.5602 26.3711 14.092 26.5116Z" fill="white"/>
</g>
<defs>
<clipPath id="clip0_2780_101456">
<rect width="32" height="32" fill="white"/>
</clipPath>
</defs>
</svg>
