<svg width="32" height="32" viewBox="0 0 32 32" fill="none" xmlns="http://www.w3.org/2000/svg">
<path d="M16.1143 3.84326L3.93036 16.028L16.0635 28.1619L28.2474 15.9772L16.1143 3.84326Z" fill="#019833" stroke="black" stroke-width="0.0711205"/>
<path d="M16.0636 3.89426V2.82809L2.8136 16.079H3.93046L16.0636 3.89426Z" fill="#66FE98" stroke="black" stroke-width="0.0711205"/>
<path d="M16.033 3.89411V2.82794L29.2829 16.0788H28.1661L16.033 3.89411Z" fill="#45FE02" stroke="black" stroke-width="0.0711205"/>
<path d="M16.0633 28.233V29.2992L2.81329 16.0483H3.93015L16.0633 28.233Z" fill="#017D17" stroke="black" stroke-width="0.0711205"/>
<path d="M5.27158 4.17352H13.8151L14.3356 4.69407V6.2916L13.9228 6.79419H12.9895V14.728L21.0304 6.79419H19.7022L19.2356 6.2916V4.60432L19.6663 4.20942H28.3176L28.7483 4.64022V6.2198L9.18438 26.2877H6.95875L6.31454 25.9157V6.72239H5.23569L4.84082 6.3275V4.64022L5.27158 4.17352Z" stroke="black" stroke-width="1.42241"/>
<path d="M16.033 28.233V29.2992L29.2829 16.0483H28.1661L16.033 28.233Z" fill="#005D04" stroke="black" stroke-width="0.0711205"/>
<path d="M16.0277 2.72968L2.72784 16.0304L15.9723 29.2757L29.2721 15.975L16.0277 2.72968Z" stroke="black" stroke-width="0.426723"/>
<path d="M13.9059 4.98552L14.3882 4.73167L13.8933 4.23666H5.27569L4.83783 4.67455V6.33091L5.32328 6.8164L5.5549 6.33091L5.25031 6.02629V4.85859L5.47875 4.65551H13.7029L13.9059 4.98552Z" fill="#FEFEFE" stroke="black" stroke-width="0.0711205"/>
<path d="M19.9985 4.60437L19.6942 4.90867V6.02592L19.9607 6.29246H21.3689V7.37195L12.0539 16.8142V6.30579H13.6019L13.9195 5.98816V4.85758L13.6264 4.63102H5.47966L5.21313 4.89757V6.05258L5.4841 6.32356H6.90111V25.6744L7.16763 25.941H8.77788L28.2984 5.79714V4.90867L27.9942 4.60437H19.9985Z" stroke="black" stroke-width="0.0711205"/>
<path d="M6.88702 6.29166V25.6774L7.1383 25.9646L6.94125 26.3402L6.38446 25.7851V6.79425L6.88702 6.29166Z" fill="#FEFEFE" stroke="black" stroke-width="0.0711205"/>
<path d="M5.49481 6.29166L5.3512 6.75903H6.3924L6.96686 6.29166H5.49481Z" fill="#808080" stroke="black" stroke-width="0.0711205"/>
<path d="M19.7948 6.8158L20.0233 6.34618L19.6933 6.04156V5.00078L20.074 4.62001H28.019L28.3236 5.02617L28.7551 4.72155L28.3109 4.27731H19.7694L19.3443 4.70251V6.37156L19.7853 6.78724M12.8827 14.8016L12.053 16.8149L21.4193 7.4225V6.30556L12.8827 14.8016Z" fill="#FEFEFE"/>
<path d="M19.7948 6.8158L20.0233 6.34618L19.6933 6.04156V5.00078L20.074 4.62001H28.019L28.3236 5.02617L28.7551 4.72155L28.3109 4.27731H19.7694L19.3443 4.70251V6.37156L19.7853 6.78724M12.8827 14.8016L12.053 16.8149L21.4193 7.4225V6.30556L12.8827 14.8016Z" stroke="black" stroke-width="0.0711205"/>
<path d="M13.8869 4.92748L14.2997 4.65823V6.29166L13.8241 6.76733H12.8997V14.8178L12.0562 16.8102V6.29166H13.5997L13.8869 6.05832V4.92748Z" fill="#808080" stroke="black" stroke-width="0.0711205"/>
<path d="M19.9985 4.60437L19.6942 4.90867V6.02592L19.9607 6.29246H21.3689V7.37195L12.0539 16.8142V6.30579H13.6019L13.9195 5.98816V4.85758L13.6264 4.63102H5.47966L5.21313 4.89757V6.05258L5.4841 6.32356H6.90111V25.6744L7.16763 25.941H8.77788L28.2984 5.79714V4.90867L27.9942 4.60437H19.9985Z" fill="#CCCCCC" stroke="black" stroke-width="0.0711205"/>
<path d="M28.3235 4.9348L28.757 4.68448V6.25482L9.09295 26.3498H7.00525L7.20471 25.9535H8.80385L28.2981 5.82327L28.3235 4.9348Z" fill="#808080" stroke="black" stroke-width="0.0711205"/>
<path d="M21.3806 6.31854L20.9408 6.77693H19.7919L20.0611 6.31854C20.0701 6.31854 21.3806 6.31854 21.3806 6.31854Z" fill="#808080" stroke="black" stroke-width="0.0711205"/>
<path d="M16.6913 17.6481C16.6765 17.6512 16.6627 17.6581 16.6514 17.6681L16.2738 17.9924C16.2625 18.0027 16.2541 18.0157 16.2494 18.0302L15.8718 19.0874C15.8662 19.103 15.8651 19.1198 15.8687 19.1359C15.8722 19.152 15.8802 19.1668 15.8918 19.1785L16.1805 19.4673C16.1972 19.4833 16.2196 19.4921 16.2427 19.4917H17.4087C17.4319 19.4921 17.4542 19.4833 17.4709 19.4673L17.7752 19.1607C17.7857 19.1502 17.7933 19.1373 17.7974 19.123L18.1217 18.0102C18.1261 17.9951 18.1264 17.9791 18.1225 17.9638C18.1186 17.9486 18.1106 17.9347 18.0995 17.9236L17.8485 17.6726C17.8318 17.6565 17.8095 17.6477 17.7863 17.6481H16.7091C16.7032 17.6475 16.6973 17.6475 16.6913 17.6481ZM14.5547 20.6289C14.5387 20.6324 14.524 20.6402 14.5122 20.6516C14.5004 20.663 14.4921 20.6775 14.4881 20.6934L14.3437 21.2664C14.3405 21.2793 14.3403 21.2927 14.343 21.3057C14.3457 21.3187 14.3514 21.3308 14.3595 21.3413C14.3676 21.3518 14.378 21.3603 14.3899 21.3662C14.4018 21.3721 14.4149 21.3752 14.4281 21.3753H15.1144L13.4131 26.233C13.4087 26.2461 13.4075 26.26 13.4095 26.2737C13.4116 26.2874 13.4168 26.3004 13.4248 26.3116C13.4328 26.3229 13.4434 26.3321 13.4556 26.3385C13.4679 26.3449 13.4815 26.3483 13.4953 26.3485H15.9717C15.9904 26.3487 16.0086 26.3431 16.0237 26.3323C16.0389 26.3215 16.0503 26.3062 16.0561 26.2885L16.2183 25.7665C16.2223 25.7534 16.2232 25.7395 16.2208 25.7259C16.2185 25.7123 16.213 25.6995 16.2047 25.6885C16.1965 25.6775 16.1858 25.6685 16.1735 25.6624C16.1612 25.6563 16.1476 25.6531 16.1339 25.6532H15.5742L17.2577 20.7444C17.2621 20.7313 17.2633 20.7174 17.2613 20.7037C17.2593 20.69 17.254 20.677 17.246 20.6658C17.238 20.6545 17.2274 20.6453 17.2152 20.6389C17.2029 20.6325 17.1894 20.6291 17.1755 20.6289H14.5725C14.5666 20.6283 14.5606 20.6283 14.5547 20.6289ZM22.4349 20.6467C22.4159 20.6506 22.3987 20.6608 22.3861 20.6756L21.8708 21.2575H21.0512L20.5048 20.6911C20.4968 20.6828 20.4871 20.6761 20.4764 20.6716C20.4658 20.667 20.4543 20.6646 20.4427 20.6645H18.4859C18.468 20.6645 18.4505 20.6701 18.4358 20.6804C18.4211 20.6907 18.4099 20.7053 18.4038 20.7222L18.2239 21.2598C18.2195 21.2729 18.2182 21.2868 18.2203 21.3005C18.2223 21.3142 18.2275 21.3272 18.2355 21.3384C18.2436 21.3497 18.2541 21.3589 18.2664 21.3653C18.2786 21.3717 18.2922 21.3751 18.306 21.3753H18.8302L17.2 26.1797C17.1956 26.1928 17.1943 26.2067 17.1964 26.2204C17.1984 26.2341 17.2036 26.2471 17.2116 26.2583C17.2197 26.2696 17.2302 26.2788 17.2425 26.2852C17.2547 26.2916 17.2683 26.295 17.2821 26.2952H19.3655C19.3834 26.2951 19.4009 26.2896 19.4156 26.2792C19.4303 26.2689 19.4415 26.2543 19.4476 26.2374L19.6076 25.7687C19.6119 25.7556 19.6132 25.7417 19.6112 25.728C19.6091 25.7143 19.6039 25.7013 19.5959 25.6901C19.5879 25.6788 19.5773 25.6696 19.565 25.6632C19.5528 25.6568 19.5392 25.6534 19.5254 25.6532H19.1611L20.2006 22.3814H22.0818L20.8957 26.1819C20.8917 26.195 20.8908 26.2089 20.8932 26.2225C20.8955 26.236 20.9011 26.2489 20.9093 26.2599C20.9175 26.2709 20.9282 26.2799 20.9405 26.286C20.9528 26.2921 20.9664 26.2953 20.9801 26.2952H22.9902C23.0072 26.295 23.0239 26.2899 23.0381 26.2804C23.0523 26.271 23.0634 26.2576 23.0701 26.2419L23.25 25.8109C23.2553 25.7978 23.2572 25.7835 23.2557 25.7694C23.2542 25.7553 23.2493 25.7418 23.2415 25.73C23.2336 25.7182 23.223 25.7085 23.2106 25.7017C23.1981 25.6949 23.1842 25.6912 23.1701 25.691H22.8058L23.863 22.3637H25.6532L24.4494 26.1819C24.4454 26.195 24.4445 26.2089 24.4468 26.2225C24.4492 26.236 24.4547 26.2489 24.4629 26.2599C24.4711 26.2709 24.4818 26.2799 24.4941 26.286C24.5064 26.2921 24.52 26.2953 24.5338 26.2952H26.7415C26.7592 26.2953 26.7765 26.2901 26.7912 26.2801C26.8058 26.2702 26.8172 26.2561 26.8237 26.2396L27.0036 25.771C27.0084 25.7577 27.01 25.7435 27.0081 25.7296C27.0063 25.7156 27.0012 25.7023 26.9931 25.6907C26.985 25.6792 26.9743 25.6697 26.9618 25.6632C26.9493 25.6567 26.9355 25.6533 26.9214 25.6532H26.4838L27.8142 21.3331C27.8186 21.3196 27.8197 21.3054 27.8174 21.2914C27.815 21.2775 27.8094 21.2644 27.8009 21.2531L27.3878 20.6978C27.3794 20.6871 27.3685 20.6785 27.3562 20.6727C27.3439 20.667 27.3303 20.6641 27.3167 20.6645H25.7376C25.7256 20.6643 25.7137 20.6665 25.7026 20.6711C25.6915 20.6757 25.6815 20.6825 25.6732 20.6911L25.1757 21.2375H24.305L23.7897 20.6734C23.7814 20.6648 23.7714 20.6579 23.7603 20.6534C23.7492 20.6488 23.7373 20.6465 23.7253 20.6467H22.4527C22.4468 20.6461 22.4408 20.6461 22.4349 20.6467Z" fill="#CCCCCC" stroke="black" stroke-width="0.568964" stroke-miterlimit="10"/>
<path d="M16.7092 17.7348L16.3317 18.0591L15.9541 19.1164L16.2428 19.4051H17.4089L17.7131 19.0986L18.0374 17.9858L17.7864 17.7348H16.7092ZM14.5726 20.7156L14.4283 21.2887H15.2367L13.4954 26.2619H15.9719L16.134 25.7399H15.4521L17.1757 20.7156H14.5726ZM22.4528 20.7334L21.9131 21.3442H21.0158L20.4428 20.7512H18.4861L18.3062 21.2887H18.9525L17.2823 26.2086H19.3656L19.5255 25.7399H19.0413L20.1363 22.2949H22.2018L20.9803 26.2086H22.9903L23.1702 25.7777H22.686L23.7987 22.2771H25.7732L24.5339 26.2086H26.7416L26.9215 25.7399H26.364L27.73 21.3065L27.3168 20.7512H25.7377L25.2158 21.3242H24.2652L23.7255 20.7334H22.4528Z" fill="#CCCCCC" stroke="black" stroke-width="0.0711205" stroke-miterlimit="10"/>
</svg>
