<svg width="32" height="32" viewBox="0 0 32 32" fill="none" xmlns="http://www.w3.org/2000/svg">
<path d="M14.9696 4L10.2876 11.0205V15.471H7.41793V11.0205L2.94568 4H6.17103L9.01485 8.52038L11.882 4H14.9696Z" fill="#E0E1E4"/>
<path d="M19.7887 12.9469H14.5945L13.538 15.4979H11.2379L16.1017 4.02689H18.4544L23.1208 15.4979H20.6629L19.7887 12.9469H19.7887ZM18.9259 10.6568L17.3336 6.44725L15.5571 10.6568H18.9259Z" fill="#CB171E"/>
<path d="M7.41791 16.7574V28H9.83006V20.245L12.3545 25.4575H14.2532L16.8639 20.0618V27.9977H19.1779V16.7574H16.0184L13.2149 21.8418L10.5448 16.7574H7.41791Z" fill="#E0E1E4"/>
<path d="M29.0544 25.5568H23.1207V16.7548H20.663V27.949H29.0544V25.5569V25.5568Z" fill="#E0E1E4"/>
</svg>
