<svg width="16" height="16" viewBox="0 0 16 16" fill="none" xmlns="http://www.w3.org/2000/svg">
<path fill-rule="evenodd" clip-rule="evenodd" d="M3.5 1C2.11929 1 1 2.11929 1 3.5V9.5C1 10.8807 2.11929 12 3.5 12H8V11H3.5C2.67157 11 2 10.3284 2 9.5V3.5C2 2.67157 2.67157 2 3.5 2H12.5C13.3284 2 14 2.67157 14 3.5V5H15V3.5C15 2.11929 13.8807 1 12.5 1H3.5ZM4 4H12V5H4V4ZM4 7H8V8H4V7ZM14 12.4648C13.4117 12.8052 12.7286 13 12 13C11.2714 13 10.5883 12.8052 10 12.4648V16L11.85 14.6125C11.9389 14.5458 12.0611 14.5458 12.15 14.6125L14 16V12.4648ZM14 9C14 10.1046 13.1046 11 12 11C10.8954 11 10 10.1046 10 9C10 7.89543 10.8954 7 12 7C13.1046 7 14 7.89543 14 9ZM15 9C15 10.6569 13.6569 12 12 12C10.3431 12 9 10.6569 9 9C9 7.34315 10.3431 6 12 6C13.6569 6 15 7.34315 15 9Z" fill="#E0E1E4"/>
</svg>
