<svg width="16" height="16" viewBox="0 0 16 16" fill="none" xmlns="http://www.w3.org/2000/svg">
<path fill-rule="evenodd" clip-rule="evenodd" d="M3 2H13C13.5523 2 14 2.44772 14 3V13C14 13.2912 13.8755 13.5533 13.6769 13.7361L5.4289 7L2 10.5V3C2 2.44772 2.44772 2 3 2ZM1 3C1 1.89543 1.89543 1 3 1H13C14.1046 1 15 1.89543 15 3V13C15 14.1046 14.1046 15 13 15H3C1.89543 15 1 14.1046 1 13V3ZM12.5 5C12.5 5.82843 11.8284 6.5 11 6.5C10.1716 6.5 9.5 5.82843 9.5 5C9.5 4.17157 10.1716 3.5 11 3.5C11.8284 3.5 12.5 4.17157 12.5 5Z" fill="#090909"/>
</svg>
