<svg width="16" height="16" viewBox="0 0 16 16" fill="none" xmlns="http://www.w3.org/2000/svg">
<path fill-rule="evenodd" clip-rule="evenodd" d="M5.17863 1.5L5.20003 1.5H10.8L10.8214 1.5C11.3633 1.5 11.8004 1.49999 12.1543 1.52891C12.5188 1.55868 12.8389 1.62159 13.135 1.77248C13.6054 2.01217 13.9879 2.39462 14.2275 2.86502C14.3784 3.16117 14.4413 3.48126 14.4711 3.84569C14.5 4.19962 14.5 4.6367 14.5 5.17858V5.2V8.8V8.82142C14.5 9.3633 14.5 9.80037 14.4711 10.1543C14.4413 10.5187 14.3784 10.8388 14.2275 11.135C13.9879 11.6054 13.6054 11.9878 13.135 12.2275C12.8389 12.3784 12.5188 12.4413 12.1543 12.4711C11.8004 12.5 11.3633 12.5 10.8214 12.5H10.8H9.12253C8.68647 12.5 8.53777 12.5024 8.40003 12.5306C8.26764 12.5578 8.13952 12.6027 8.01917 12.6642C7.89396 12.7282 7.77637 12.8192 7.43586 13.0917L5.84555 14.3639L5.83015 14.3762C5.70485 14.4765 5.5855 14.572 5.4823 14.6402C5.3826 14.7061 5.21401 14.8062 5.00093 14.8065C4.74715 14.8067 4.50707 14.6913 4.34875 14.493C4.21582 14.3265 4.18866 14.1323 4.17785 14.0133C4.16666 13.8901 4.16668 13.7372 4.1667 13.5768L4.1667 13.557V12.4982C3.83849 12.4935 3.58208 12.4762 3.35299 12.4148C2.49026 12.1836 1.81639 11.5098 1.58522 10.647C1.49971 10.3279 1.49984 9.95584 1.50002 9.41053C1.50002 9.38518 1.50003 9.35945 1.50003 9.33333V5.2L1.50003 5.1786C1.50003 4.6367 1.50002 4.19963 1.52894 3.84569C1.55872 3.48126 1.62162 3.16117 1.77252 2.86502C2.0122 2.39462 2.39465 2.01217 2.86506 1.77248C3.1612 1.62159 3.4813 1.55868 3.84572 1.52891C4.19966 1.49999 4.63674 1.5 5.17863 1.5ZM3.92715 2.52559C3.62457 2.55031 3.45072 2.5964 3.31905 2.66349C3.0368 2.8073 2.80733 3.03677 2.66352 3.31901C2.59643 3.45069 2.55034 3.62454 2.52562 3.92712C2.50042 4.23554 2.50003 4.6317 2.50003 5.2V9.33333C2.50003 9.98551 2.50433 10.2135 2.55114 10.3882C2.68984 10.9059 3.09417 11.3102 3.6118 11.4489C3.78653 11.4957 4.01453 11.5 4.6667 11.5C4.94284 11.5 5.1667 11.7239 5.1667 12V13.557C5.1667 13.5814 5.16671 13.6045 5.16674 13.6263C5.18376 13.6127 5.20177 13.5983 5.22086 13.583L6.81116 12.3108C6.82387 12.3006 6.83641 12.2906 6.84879 12.2807C7.13748 12.0496 7.33739 11.8896 7.56421 11.7737C7.76481 11.6712 7.97833 11.5963 8.19899 11.551C8.4485 11.4998 8.70456 11.4999 9.07434 11.5C9.09019 11.5 9.10625 11.5 9.12253 11.5H10.8C11.3683 11.5 11.7645 11.4996 12.0729 11.4744C12.3755 11.4497 12.5493 11.4036 12.681 11.3365C12.9633 11.1927 13.1927 10.9632 13.3365 10.681C13.4036 10.5493 13.4497 10.3755 13.4744 10.0729C13.4996 9.76446 13.5 9.3683 13.5 8.8V5.2C13.5 4.6317 13.4996 4.23554 13.4744 3.92712C13.4497 3.62454 13.4036 3.45069 13.3365 3.31901C13.1927 3.03677 12.9633 2.8073 12.681 2.66349C12.5493 2.5964 12.3755 2.55031 12.0729 2.52559C11.7645 2.50039 11.3683 2.5 10.8 2.5H5.20003C4.63173 2.5 4.23557 2.50039 3.92715 2.52559ZM4.1667 5.66667C4.1667 5.39052 4.39056 5.16667 4.6667 5.16667H8.00003C8.27618 5.16667 8.50003 5.39052 8.50003 5.66667C8.50003 5.94281 8.27618 6.16667 8.00003 6.16667H4.6667C4.39056 6.16667 4.1667 5.94281 4.1667 5.66667ZM4.1667 8C4.1667 7.72386 4.39056 7.5 4.6667 7.5H10C10.2762 7.5 10.5 7.72386 10.5 8C10.5 8.27614 10.2762 8.5 10 8.5H4.6667C4.39056 8.5 4.1667 8.27614 4.1667 8Z" fill="#E0E1E4"/>
</svg>
