<svg width="16" height="16" viewBox="0 0 16 16" fill="none" xmlns="http://www.w3.org/2000/svg">
<path fill-rule="evenodd" clip-rule="evenodd" d="M3.63478 6.23652C4.12467 4.2813 5.89284 2.83337 8.00004 2.83337C10.1072 2.83337 11.8754 4.2813 12.3653 6.23652C13.9638 6.56045 15.1667 7.97285 15.1667 9.66671C15.1667 11.5997 13.5997 13.1667 11.6667 13.1667H11.6496H11.6325H11.6154H11.5983H11.5813H11.5643H11.5473H11.5303H11.5134H11.4965H11.4796H11.4627H11.4458H11.429H11.4122H11.3955H11.3787H11.362H11.3453H11.3286H11.3119H11.2953H11.2787H11.2621H11.2455H11.229H11.2125H11.196H11.1795H11.1631H11.1466H11.1302H11.1138H11.0975H11.0811H11.0648H11.0485H11.0322H11.016H10.9997H10.9835H10.9673H10.9512H10.935H10.9189H10.9028H10.8867H10.8707H10.8546H10.8386H10.8226H10.8066H10.7907H10.7747H10.7588H10.7429H10.727H10.7112H10.6953H10.6795H10.6637H10.6479H10.6322H10.6165H10.6007H10.585H10.5694H10.5537H10.5381H10.5224H10.5068H10.4913H10.4757H10.4601H10.4446H10.4291H10.4136H10.3982H10.3827H10.3673H10.3519H10.3365H10.3211H10.3057H10.2904H10.275H10.2597H10.2445H10.2292H10.2139H10.1987H10.1835H10.1683H10.1531H10.1379H10.1228H10.1076H10.0925H10.0774H10.0623H10.0473H10.0322H10.0172H10.0022H9.98718H9.9722H9.95723H9.94228H9.92735H9.91243H9.89753H9.88264H9.86777H9.85291H9.83808H9.82325H9.80844H9.79365H9.77887H9.76411H9.74936H9.73463H9.71991H9.70521H9.69052H9.67585H9.66119H9.64654H9.63191H9.6173H9.6027H9.58811H9.57354H9.55898H9.54443H9.5299H9.51539H9.50088H9.48639H9.47192H9.45746H9.44301H9.42857H9.41415H9.39974H9.38534H9.37096H9.35659H9.34223H9.32789H9.31356H9.29924H9.28493H9.27064H9.25635H9.24208H9.22783H9.21358H9.19935H9.18513H9.17092H9.15672H9.14254H9.12836H9.1142H9.10005H9.08591H9.07178H9.05766H9.04356H9.02946H9.01538H9.00131H8.98724H8.97319H8.95915H8.94512H8.9311H8.91709H8.9031H8.88911H8.87513H8.86116H8.8472H8.83325H8.81932H8.80539H8.79147H8.77756H8.76366H8.74977H8.73589H8.72202H8.70816H8.6943H8.68046H8.66663H8.6528H8.63898H8.62518H8.61138H8.59759H8.5838H8.57003H8.55626H8.54251H8.52876H8.51502H8.50128H8.48756H8.47384H8.46013H8.44643H8.43273H8.41905H8.40537H8.3917H8.37803H8.36438H8.35073H8.33708H8.32345H8.30982H8.2962H8.28258H8.26897H8.25537H8.24177H8.22818H8.2146H8.20103H8.18745H8.17389H8.16033H8.14678H8.13323H8.11969H8.10616H8.09263H8.0791H8.06558H8.05207H8.03856H8.02506H8.01156H7.99807H7.98458H7.9711H7.95762H7.94415H7.93068H7.91722H7.90376H7.8903H7.87685H7.86341H7.84997H7.83653H7.82309H7.80966H7.79624H7.78281H7.7694H7.75598H7.74257H7.72916H7.71576H7.70235H7.68896H7.67556H7.66217H7.64878H7.63539H7.62201H7.60863H7.59525H7.58187H7.5685H7.55513H7.54176H7.5284H7.51503H7.50167H7.48831H7.47495H7.4616H7.44824H7.43489H7.42154H7.40819H7.39484H7.38149H7.36815H7.3548H7.34146H7.32812H7.31478H7.30143H7.2881H7.27476H7.26142H7.24808H7.23474H7.22141H7.20807H7.19473H7.1814H7.16806H7.15472H7.14139H7.12805H7.11472H7.10138H7.08804H7.0747H7.06136H7.04803H7.03469H7.02134H7.008H6.99466H6.98132H6.96797H6.95463H6.94128H6.92793H6.91458H6.90123H6.88787H6.87452H6.86116H6.8478H6.83444H6.82108H6.80772H6.79435H6.78098H6.76761H6.75423H6.74086H6.72748H6.7141H6.70071H6.68733H6.67393H6.66054H6.64715H6.63375H6.62034H6.60694H6.59353H6.58012H6.5667H6.55328H6.53986H6.52643H6.513H6.49956H6.48612H6.47268H6.45923H6.44578H6.43232H6.41886H6.4054H6.39193H6.37845H6.36497H6.35149H6.338H6.3245H6.31101H6.2975H6.28399H6.27048H6.25696H6.24343H6.2299H6.21636H6.20282H6.18927H6.17572H6.16216H6.14859H6.13502H6.12144H6.10785H6.09426H6.08066H6.06706H6.05345H6.03983H6.02621H6.01257H5.99894H5.98529H5.97164H5.95798H5.94431H5.93064H5.91696H5.90327H5.88957H5.87587H5.86215H5.84843H5.83471H5.82097H5.80723H5.79347H5.77971H5.76595H5.75217H5.73838H5.72459H5.71079H5.69698H5.68316H5.66933H5.65549H5.64164H5.62779H5.61392H5.60005H5.58616H5.57227H5.55837H5.54446H5.53053H5.5166H5.50266H5.48871H5.47475H5.46078H5.4468H5.4328H5.4188H5.40479H5.39077H5.37673H5.36269H5.34863H5.33457H5.32049H5.3064H5.29231H5.2782H5.26408H5.24994H5.2358H5.22165H5.20748H5.1933H5.17911H5.16491H5.1507H5.13647H5.12223H5.10798H5.09372H5.07945H5.06516H5.05087H5.03655H5.02223H5.00789H4.99355H4.97918H4.96481H4.95042H4.93602H4.92161H4.90718H4.89274H4.87829H4.86382H4.84934H4.83485H4.82034H4.80582H4.79128H4.77673H4.76217H4.74759H4.733H4.71839H4.70377H4.68914H4.67449H4.65983H4.64515H4.63045H4.61575H4.60102H4.58629H4.57153H4.55676H4.54198H4.52718H4.51237H4.49754H4.4827H4.46783H4.45296H4.43807H4.42316H4.40823H4.3933H4.37834H4.36337H4.34838H4.33337C2.40038 13.1667 0.833374 11.5997 0.833374 9.66671C0.833374 7.97285 2.03632 6.56045 3.63478 6.23652ZM8.00004 3.83337C6.26234 3.83337 4.81956 5.10023 4.54658 6.76073C4.50967 6.98523 4.32586 7.15651 4.09931 7.17749C2.8286 7.29518 1.83337 8.36501 1.83337 9.66671C1.83337 11.0474 2.95266 12.1667 4.33337 12.1667H4.34838H4.36337H4.37834H4.3933H4.40823H4.42316H4.43807H4.45296H4.46783H4.4827H4.49754H4.51237H4.52718H4.54198H4.55676H4.57153H4.58629H4.60102H4.61575H4.63045H4.64515H4.65983H4.67449H4.68914H4.70377H4.71839H4.733H4.74759H4.76217H4.77673H4.79128H4.80582H4.82034H4.83485H4.84934H4.86382H4.87829H4.89274H4.90718H4.92161H4.93602H4.95042H4.96481H4.97918H4.99355H5.00789H5.02223H5.03655H5.05087H5.06516H5.07945H5.09372H5.10798H5.12223H5.13647H5.1507H5.16491H5.17911H5.1933H5.20748H5.22165H5.2358H5.24994H5.26408H5.2782H5.29231H5.3064H5.32049H5.33457H5.34863H5.36269H5.37673H5.39077H5.40479H5.4188H5.4328H5.4468H5.46078H5.47475H5.48871H5.50266H5.5166H5.53053H5.54446H5.55837H5.57227H5.58616H5.60005H5.61392H5.62779H5.64164H5.65549H5.66933H5.68316H5.69698H5.71079H5.72459H5.73838H5.75217H5.76595H5.77971H5.79347H5.80723H5.82097H5.83471H5.84843H5.86215H5.87587H5.88957H5.90327H5.91696H5.93064H5.94431H5.95798H5.97164H5.98529H5.99894H6.01257H6.02621H6.03983H6.05345H6.06706H6.08066H6.09426H6.10785H6.12144H6.13502H6.14859H6.16216H6.17572H6.18927H6.20282H6.21636H6.2299H6.24343H6.25696H6.27048H6.28399H6.2975H6.31101H6.3245H6.338H6.35149H6.36497H6.37845H6.39193H6.4054H6.41886H6.43232H6.44578H6.45923H6.47268H6.48612H6.49956H6.513H6.52643H6.53986H6.55328H6.5667H6.58012H6.59353H6.60694H6.62034H6.63375H6.64715H6.66054H6.67393H6.68733H6.70071H6.7141H6.72748H6.74086H6.75423H6.76761H6.78098H6.79435H6.80772H6.82108H6.83444H6.8478H6.86116H6.87452H6.88787H6.90123H6.91458H6.92793H6.94128H6.95463H6.96797H6.98132H6.99466H7.008H7.02134H7.03469H7.04803H7.06136H7.0747H7.08804H7.10138H7.11472H7.12805H7.14139H7.15472H7.16806H7.1814H7.19473H7.20807H7.22141H7.23474H7.24808H7.26142H7.27476H7.2881H7.30143H7.31478H7.32812H7.34146H7.3548H7.36815H7.38149H7.39484H7.40819H7.42154H7.43489H7.44824H7.4616H7.47495H7.48831H7.50167H7.51503H7.5284H7.54176H7.55513H7.5685H7.58187H7.59525H7.60863H7.62201H7.63539H7.64878H7.66217H7.67556H7.68896H7.70235H7.71576H7.72916H7.74257H7.75598H7.7694H7.78281H7.79624H7.80966H7.82309H7.83653H7.84997H7.86341H7.87685H7.8903H7.90376H7.91722H7.93068H7.94415H7.95762H7.9711H7.98458H7.99807H8.01156H8.02506H8.03856H8.05207H8.06558H8.0791H8.09263H8.10616H8.11969H8.13323H8.14678H8.16033H8.17389H8.18745H8.20103H8.2146H8.22818H8.24177H8.25537H8.26897H8.28258H8.2962H8.30982H8.32345H8.33708H8.35073H8.36438H8.37803H8.3917H8.40537H8.41905H8.43273H8.44643H8.46013H8.47384H8.48756H8.50128H8.51502H8.52876H8.54251H8.55626H8.57003H8.5838H8.59759H8.61138H8.62518H8.63898H8.6528H8.66663H8.68046H8.6943H8.70816H8.72202H8.73589H8.74977H8.76366H8.77756H8.79147H8.80539H8.81932H8.83325H8.8472H8.86116H8.87513H8.88911H8.9031H8.91709H8.9311H8.94512H8.95915H8.97319H8.98724H9.00131H9.01538H9.02946H9.04356H9.05766H9.07178H9.08591H9.10005H9.1142H9.12836H9.14254H9.15672H9.17092H9.18513H9.19935H9.21358H9.22783H9.24208H9.25635H9.27064H9.28493H9.29924H9.31356H9.32789H9.34223H9.35659H9.37096H9.38534H9.39974H9.41415H9.42857H9.44301H9.45746H9.47192H9.48639H9.50088H9.51539H9.5299H9.54443H9.55898H9.57354H9.58811H9.6027H9.6173H9.63191H9.64654H9.66119H9.67585H9.69052H9.70521H9.71991H9.73463H9.74936H9.76411H9.77887H9.79365H9.80844H9.82325H9.83808H9.85291H9.86777H9.88264H9.89753H9.91243H9.92735H9.94228H9.95723H9.9722H9.98718H10.0022H10.0172H10.0322H10.0473H10.0623H10.0774H10.0925H10.1076H10.1228H10.1379H10.1531H10.1683H10.1835H10.1987H10.2139H10.2292H10.2445H10.2597H10.275H10.2904H10.3057H10.3211H10.3365H10.3519H10.3673H10.3827H10.3982H10.4136H10.4291H10.4446H10.4601H10.4757H10.4913H10.5068H10.5224H10.5381H10.5537H10.5694H10.585H10.6007H10.6165H10.6322H10.6479H10.6637H10.6795H10.6953H10.7112H10.727H10.7429H10.7588H10.7747H10.7907H10.8066H10.8226H10.8386H10.8546H10.8707H10.8867H10.9028H10.9189H10.935H10.9512H10.9673H10.9835H10.9997H11.016H11.0322H11.0485H11.0648H11.0811H11.0975H11.1138H11.1302H11.1466H11.1631H11.1795H11.196H11.2125H11.229H11.2455H11.2621H11.2787H11.2953H11.3119H11.3286H11.3453H11.362H11.3787H11.3955H11.4122H11.429H11.4458H11.4627H11.4796H11.4965H11.5134H11.5303H11.5473H11.5643H11.5813H11.5983H11.6154H11.6325H11.6496H11.6667C13.0474 12.1667 14.1667 11.0474 14.1667 9.66671C14.1667 8.36501 13.1715 7.29518 11.9008 7.17749C11.6742 7.15651 11.4904 6.98523 11.4535 6.76073C11.1805 5.10023 9.73774 3.83337 8.00004 3.83337Z" fill="#E0E1E4"/>
</svg>
