<svg width="16" height="16" viewBox="0 0 16 16" fill="none" xmlns="http://www.w3.org/2000/svg">
<path fill-rule="evenodd" clip-rule="evenodd" d="M12.098 2.66978C11.3821 1.95382 10.2213 1.95382 9.5053 2.66978L3.49489 8.68019C2.32332 9.85176 2.32332 11.7513 3.49489 12.9228C4.66646 14.0944 6.56596 14.0944 7.73753 12.9228L13.7479 6.91242L14.1015 6.55887L14.8086 7.26598L14.455 7.61953L8.44464 13.6299C6.88254 15.192 4.34988 15.192 2.78778 13.6299C1.22569 12.0678 1.22569 9.53518 2.78778 7.97308L8.79819 1.96268C9.90468 0.856191 11.6986 0.856191 12.8051 1.96268C13.9116 3.06916 13.9116 4.86313 12.8051 5.96961L7.03042 11.7443C6.37955 12.3952 5.32428 12.3952 4.6734 11.7443C4.02253 11.0934 4.02253 10.0382 4.6734 9.3873L9.741 4.3197L10.0946 3.96615L10.8017 4.67325L10.4481 5.02681L5.38051 10.0944C5.12016 10.3548 5.12016 10.7769 5.38051 11.0372C5.64086 11.2976 6.06297 11.2976 6.32332 11.0372L12.098 5.26251C12.814 4.54655 12.814 3.38574 12.098 2.66978Z" fill="#E0E1E4"/>
</svg>
