<svg width="16" height="16" viewBox="0 0 16 16" fill="none" xmlns="http://www.w3.org/2000/svg">
<path d="M8.44315 15.1364C7.28406 15.1364 6.25944 14.9773 5.36928 14.6591C4.47913 14.3447 3.73103 13.8807 3.12497 13.2671C2.51891 12.6534 2.06057 11.9015 1.74997 11.0114C1.43936 10.1212 1.28406 9.10228 1.28406 7.95456C1.28406 6.84471 1.44125 5.85228 1.75565 4.97728C2.07383 4.10228 2.53406 3.35986 3.13633 2.75001C3.74239 2.13637 4.47724 1.66857 5.34088 1.3466C6.2083 1.02463 7.18936 0.863647 8.28406 0.863647C9.34845 0.863647 10.2803 1.03789 11.0795 1.38637C11.8825 1.73107 12.553 2.19888 13.0909 2.78978C13.6325 3.37691 14.0378 4.03789 14.3068 4.77274C14.5795 5.50759 14.7159 6.26516 14.7159 7.04547C14.7159 7.59471 14.6894 8.15153 14.6363 8.71592C14.5833 9.28031 14.4716 9.79925 14.3011 10.2727C14.1306 10.7424 13.8674 11.1212 13.5113 11.4091C13.1591 11.697 12.6818 11.8409 12.0795 11.8409C11.8144 11.8409 11.5227 11.7993 11.2045 11.7159C10.8863 11.6326 10.6041 11.4943 10.3579 11.3011C10.1117 11.108 9.96588 10.8485 9.92042 10.5227H9.85224C9.76133 10.7424 9.62118 10.9508 9.43179 11.1477C9.24618 11.3447 9.00186 11.5019 8.69883 11.6193C8.39959 11.7368 8.03406 11.7879 7.60224 11.7727C7.10982 11.7538 6.6761 11.644 6.3011 11.4432C5.9261 11.2386 5.61171 10.9621 5.35792 10.6136C5.10792 10.2614 4.91853 9.85418 4.78974 9.39206C4.66474 8.92615 4.60224 8.42425 4.60224 7.88638C4.60224 7.37501 4.678 6.90721 4.82951 6.48297C4.98103 6.05872 5.19125 5.68751 5.46019 5.36933C5.73292 5.05115 6.0511 4.79736 6.41474 4.60797C6.78216 4.41478 7.178 4.29547 7.60224 4.25001C7.98103 4.21213 8.32572 4.22918 8.63633 4.30115C8.94694 4.36933 9.20262 4.4735 9.40338 4.61365C9.60413 4.75001 9.73103 4.90153 9.78406 5.06819H9.85224V4.43183H11.0568V9.56819C11.0568 9.88638 11.1458 10.1667 11.3238 10.4091C11.5019 10.6515 11.7613 10.7727 12.1022 10.7727C12.4886 10.7727 12.7841 10.6402 12.9886 10.375C13.1969 10.1099 13.339 9.70077 13.4147 9.14774C13.4943 8.59471 13.5341 7.88638 13.5341 7.02274C13.5341 6.51516 13.464 6.01516 13.3238 5.52274C13.1875 5.02653 12.9791 4.56251 12.6988 4.13069C12.4223 3.69887 12.0719 3.31819 11.6477 2.98865C11.2235 2.6591 10.7253 2.40153 10.1534 2.21592C9.58519 2.02653 8.93936 1.93183 8.21588 1.93183C7.32572 1.93183 6.52838 2.07009 5.82383 2.3466C5.12307 2.61933 4.52648 3.01895 4.03406 3.54547C3.54542 4.06819 3.17232 4.70456 2.91474 5.45456C2.66095 6.20077 2.53406 7.04925 2.53406 8.00001C2.53406 8.96592 2.66095 9.82388 2.91474 10.5739C3.17232 11.3239 3.5511 11.9565 4.0511 12.4716C4.55489 12.9868 5.178 13.3769 5.92042 13.6421C6.66285 13.911 7.51891 14.0455 8.4886 14.0455C8.90527 14.0455 9.31626 14.0057 9.72156 13.9261C10.1269 13.8466 10.4848 13.7595 10.7954 13.6648C11.106 13.5701 11.3295 13.5 11.4659 13.4546L11.7841 14.5C11.5492 14.5985 11.2424 14.697 10.8636 14.7955C10.4886 14.894 10.0871 14.9754 9.65906 15.0398C9.23482 15.1042 8.82951 15.1364 8.44315 15.1364ZM7.78406 10.6136C8.29163 10.6136 8.70262 10.5114 9.01701 10.3068C9.33141 10.1023 9.56057 9.79357 9.70451 9.38069C9.84845 8.96781 9.92042 8.44698 9.92042 7.81819C9.92042 7.18183 9.84088 6.68562 9.68179 6.32956C9.52269 5.9735 9.28785 5.7235 8.97724 5.57956C8.66663 5.43562 8.28406 5.36365 7.82951 5.36365C7.39769 5.36365 7.02838 5.47728 6.72156 5.70456C6.41853 5.92804 6.18557 6.22728 6.02269 6.60228C5.8636 6.9735 5.78406 7.3788 5.78406 7.81819C5.78406 8.30304 5.84845 8.75948 5.97724 9.18751C6.10603 9.61175 6.31625 9.95645 6.60792 10.2216C6.89959 10.483 7.29163 10.6136 7.78406 10.6136Z" fill="#E0E1E4"/>
</svg>
