<svg width="16" height="16" viewBox="0 0 16 16" fill="none" xmlns="http://www.w3.org/2000/svg">
<path fill-rule="evenodd" clip-rule="evenodd" d="M7.765 0.95324C7.92006 0.921348 8.07999 0.921348 8.23505 0.95324C8.4131 0.989859 8.57337 1.07937 8.72336 1.16315C8.73594 1.17017 8.74844 1.17715 8.76087 1.18406L13.6942 3.9248C13.7074 3.93211 13.7206 3.93944 13.734 3.94681C13.8926 4.03443 14.062 4.12801 14.1913 4.26834C14.3038 4.39048 14.389 4.53524 14.4411 4.69294C14.501 4.87413 14.5005 5.06765 14.5001 5.24887C14.5001 5.26411 14.5 5.27926 14.5 5.29431V10.7057C14.5 10.7208 14.5001 10.7359 14.5001 10.7512C14.5005 10.9324 14.501 11.1259 14.4411 11.3071C14.389 11.4648 14.3038 11.6096 14.1913 11.7317C14.062 11.872 13.8926 11.9656 13.734 12.0532C13.7206 12.0606 13.7074 12.0679 13.6942 12.0752L8.76087 14.816C8.74844 14.8229 8.73594 14.8299 8.72337 14.8369C8.57337 14.9207 8.4131 15.0102 8.23505 15.0468C8.07999 15.0787 7.92006 15.0787 7.765 15.0468C7.58695 15.0102 7.42668 14.9207 7.27668 14.8369C7.26411 14.8299 7.25161 14.8229 7.23918 14.816L2.30585 12.0752C2.29269 12.0679 2.27943 12.0606 2.26609 12.0532C2.10747 11.9656 1.93808 11.872 1.80876 11.7317C1.69621 11.6096 1.61103 11.4648 1.55892 11.3071C1.49906 11.1259 1.49952 10.9324 1.49995 10.7512C1.49999 10.7359 1.50002 10.7208 1.50002 10.7057V5.29431C1.50002 5.27926 1.49999 5.2641 1.49995 5.24886C1.49952 5.06765 1.49906 4.87413 1.55892 4.69294C1.61103 4.53524 1.69621 4.39048 1.80876 4.26834C1.93808 4.12801 2.10747 4.03444 2.26608 3.94681C2.27942 3.93944 2.29269 3.93211 2.30585 3.9248L7.23918 1.18406C7.25161 1.17715 7.26411 1.17017 7.27668 1.16315C7.42668 1.07937 7.58695 0.989859 7.765 0.95324ZM8.03336 1.93269C8.01136 1.9282 7.98869 1.9282 7.96669 1.93269C7.96347 1.93364 7.95148 1.93771 7.92443 1.95075C7.88064 1.97187 7.82423 2.00299 7.72483 2.05822L3.02959 4.66668L8 7.42802L12.9704 4.66667L8.27522 2.05822C8.17582 2.00299 8.11941 1.97187 8.07562 1.95075C8.04858 1.93771 8.03658 1.93364 8.03336 1.93269ZM13.5 5.51641V10.7057C13.5 10.8258 13.4998 10.894 13.4967 10.9454C13.494 10.991 13.49 10.9982 13.4916 10.9934C13.4842 11.0158 13.4721 11.0364 13.4561 11.0538C13.4535 11.0562 13.4432 11.0647 13.4164 11.0818C13.373 11.1095 13.3135 11.1428 13.2086 11.2011L8.50002 13.8169L8.5 8.2942L13.5 5.51641ZM7.5 8.2942L2.50002 5.51643V10.7057C2.50002 10.8258 2.50023 10.894 2.50333 10.9454C2.50523 10.977 2.50773 10.9902 2.50854 10.9937C2.51596 11.016 2.52802 11.0365 2.54391 11.0538C2.54656 11.0562 2.55687 11.0648 2.5836 11.0818C2.627 11.1095 2.68656 11.1428 2.79149 11.2011L7.50002 13.8169L7.5 8.2942Z" fill="#E0E1E4"/>
</svg>
