<svg width="16" height="16" viewBox="0 0 16 16" fill="none" xmlns="http://www.w3.org/2000/svg">
<g clip-path="url(#clip0_11784_8443)">
<path d="M1.33337 8.00004H14.6667M1.33337 8.00004C1.33337 11.6819 4.31814 14.6667 8.00004 14.6667M1.33337 8.00004C1.33337 4.31814 4.31814 1.33337 8.00004 1.33337M14.6667 8.00004C14.6667 11.6819 11.6819 14.6667 8.00004 14.6667M14.6667 8.00004C14.6667 4.31814 11.6819 1.33337 8.00004 1.33337M8.00004 1.33337C9.66756 3.15894 10.6152 5.52806 10.6667 8.00004C10.6152 10.472 9.66756 12.8411 8.00004 14.6667M8.00004 1.33337C6.33252 3.15894 5.38487 5.52806 5.33337 8.00004C5.38487 10.472 6.33252 12.8411 8.00004 14.6667" stroke="#E0E1E4" stroke-linecap="round" stroke-linejoin="round"/>
</g>
<defs>
<clipPath id="clip0_11784_8443">
<rect width="16" height="16" fill="white"/>
</clipPath>
</defs>
</svg>
