<svg width="16" height="16" viewBox="0 0 16 16" fill="none" xmlns="http://www.w3.org/2000/svg">
<path fill-rule="evenodd" clip-rule="evenodd" d="M3.63466 6.23652C4.12455 4.2813 5.89271 2.83337 7.99992 2.83337C10.1071 2.83337 11.8753 4.2813 12.3652 6.23652C13.9636 6.56045 15.1666 7.97285 15.1666 9.66671C15.1666 11.5997 13.5996 13.1667 11.6666 13.1667H11.6495H11.6323H11.6153H11.5982H11.5812H11.5641H11.5472H11.5302H11.5132H11.4963H11.4794H11.4626H11.4457H11.4289H11.4121H11.3953H11.3786H11.3619H11.3452H11.3285H11.3118H11.2952H11.2786H11.262H11.2454H11.2289H11.2124H11.1959H11.1794H11.1629H11.1465H11.1301H11.1137H11.0973H11.081H11.0647H11.0484H11.0321H11.0159H10.9996H10.9834H10.9672H10.9511H10.9349H10.9188H10.9027H10.8866H10.8705H10.8545H10.8385H10.8225H10.8065H10.7905H10.7746H10.7587H10.7428H10.7269H10.7111H10.6952H10.6794H10.6636H10.6478H10.6321H10.6163H10.6006H10.5849H10.5692H10.5536H10.5379H10.5223H10.5067H10.4911H10.4756H10.46H10.4445H10.429H10.4135H10.398H10.3826H10.3671H10.3517H10.3363H10.321H10.3056H10.2903H10.2749H10.2596H10.2443H10.2291H10.2138H10.1986H10.1834H10.1681H10.153H10.1378H10.1227H10.1075H10.0924H10.0773H10.0622H10.0472H10.0321H10.0171H10.0021H9.98706H9.97208H9.95711H9.94216H9.92723H9.91231H9.89741H9.88252H9.86765H9.85279H9.83795H9.82313H9.80832H9.79353H9.77875H9.76399H9.74924H9.73451H9.71979H9.70508H9.6904H9.67572H9.66107H9.64642H9.63179H9.61718H9.60257H9.58799H9.57341H9.55886H9.54431H9.52978H9.51526H9.50076H9.48627H9.4718H9.45733H9.44288H9.42845H9.41403H9.39962H9.38522H9.37084H9.35647H9.34211H9.32777H9.31343H9.29911H9.28481H9.27051H9.25623H9.24196H9.22771H9.21346H9.19923H9.18501H9.1708H9.1566H9.14241H9.12824H9.11408H9.09993H9.08579H9.07166H9.05754H9.04344H9.02934H9.01526H9.00118H8.98712H8.97307H8.95903H8.945H8.93098H8.91697H8.90297H8.88898H8.87501H8.86104H8.84708H8.83313H8.81919H8.80527H8.79135H8.77744H8.76354H8.74965H8.73577H8.7219H8.70804H8.69418H8.68034H8.6665H8.65268H8.63886H8.62505H8.61125H8.59746H8.58368H8.56991H8.55614H8.54238H8.52863H8.51489H8.50116H8.48744H8.47372H8.46001H8.44631H8.43261H8.41893H8.40525H8.39158H8.37791H8.36425H8.3506H8.33696H8.32333H8.3097H8.29607H8.28246H8.26885H8.25525H8.24165H8.22806H8.21448H8.2009H8.18733H8.17377H8.16021H8.14666H8.13311H8.11957H8.10603H8.09251H8.07898H8.06546H8.05195H8.03844H8.02494H8.01144H7.99795H7.98446H7.97098H7.9575H7.94403H7.93056H7.9171H7.90364H7.89018H7.87673H7.86329H7.84984H7.83641H7.82297H7.80954H7.79611H7.78269H7.76927H7.75586H7.74245H7.72904H7.71563H7.70223H7.68883H7.67544H7.66205H7.64866H7.63527H7.62189H7.60851H7.59513H7.58175H7.56838H7.55501H7.54164H7.52827H7.51491H7.50155H7.48819H7.47483H7.46147H7.44812H7.43477H7.42142H7.40807H7.39472H7.38137H7.36802H7.35468H7.34134H7.32799H7.31465H7.30131H7.28797H7.27463H7.2613H7.24796H7.23462H7.22128H7.20795H7.19461H7.18127H7.16794H7.1546H7.14127H7.12793H7.11459H7.10126H7.08792H7.07458H7.06124H7.0479H7.03456H7.02122H7.00788H6.99454H6.98119H6.96785H6.9545H6.94116H6.92781H6.91446H6.90111H6.88775H6.8744H6.86104H6.84768H6.83432H6.82096H6.80759H6.79423H6.78086H6.76749H6.75411H6.74074H6.72736H6.71397H6.70059H6.6872H6.67381H6.66042H6.64702H6.63362H6.62022H6.60682H6.59341H6.57999H6.56658H6.55316H6.53973H6.52631H6.51287H6.49944H6.486H6.47256H6.45911H6.44566H6.4322H6.41874H6.40527H6.3918H6.37833H6.36485H6.35137H6.33788H6.32438H6.31088H6.29738H6.28387H6.27035H6.25683H6.24331H6.22978H6.21624H6.2027H6.18915H6.17559H6.16203H6.14847H6.13489H6.12132H6.10773H6.09414H6.08054H6.06694H6.05333H6.03971H6.02608H6.01245H5.99881H5.98517H5.97152H5.95786H5.94419H5.93052H5.91683H5.90314H5.88945H5.87574H5.86203H5.84831H5.83458H5.82085H5.8071H5.79335H5.77959H5.76582H5.75205H5.73826H5.72447H5.71067H5.69685H5.68303H5.66921H5.65537H5.64152H5.62767H5.6138H5.59993H5.58604H5.57215H5.55825H5.54433H5.53041H5.51648H5.50254H5.48859H5.47463H5.46066H5.44667H5.43268H5.41868H5.40467H5.39064H5.37661H5.36257H5.34851H5.33445H5.32037H5.30628H5.29218H5.27807H5.26395H5.24982H5.23568H5.22152H5.20736H5.19318H5.17899H5.16479H5.15057H5.13635H5.12211H5.10786H5.0936H5.07933H5.06504H5.05074H5.03643H5.02211H5.00777H4.99342H4.97906H4.96469H4.9503H4.9359H4.92149H4.90706H4.89262H4.87817H4.8637H4.84922H4.83472H4.82022H4.80569H4.79116H4.77661H4.76205H4.74747H4.73288H4.71827H4.70365H4.68902H4.67437H4.6597H4.64503H4.63033H4.61562H4.6009H4.58616H4.57141H4.55664H4.54186H4.52706H4.51225H4.49742H4.48257H4.46771H4.45284H4.43794H4.42304H4.40811H4.39317H4.37822H4.36325H4.34826H4.33325C2.40026 13.1667 0.833252 11.5997 0.833252 9.66671C0.833252 7.97285 2.0362 6.56045 3.63466 6.23652ZM7.99992 3.83337C6.26222 3.83337 4.81944 5.10023 4.54646 6.76073C4.50955 6.98523 4.32573 7.15651 4.09919 7.17749C2.82848 7.29518 1.83325 8.36501 1.83325 9.66671C1.83325 11.0474 2.95254 12.1667 4.33325 12.1667H4.34826H4.36325H4.37822H4.39317H4.40811H4.42304H4.43794H4.45284H4.46771H4.48257H4.49742H4.51225H4.52706H4.54186H4.55664H4.57141H4.58616H4.6009H4.61562H4.63033H4.64503H4.6597H4.67437H4.68902H4.70365H4.71827H4.73288H4.74747H4.76205H4.77661H4.79116H4.80569H4.82022H4.83472H4.84922H4.8637H4.87817H4.89262H4.90706H4.92149H4.9359H4.9503H4.96469H4.97906H4.99342H5.00777H5.02211H5.03643H5.05074H5.06504H5.07933H5.0936H5.10786H5.12211H5.13635H5.15057H5.16479H5.17899H5.19318H5.20736H5.22152H5.23568H5.24982H5.26395H5.27807H5.29218H5.30628H5.32037H5.33445H5.34851H5.36257H5.37661H5.39064H5.40467H5.41868H5.43268H5.44667H5.46066H5.47463H5.48859H5.50254H5.51648H5.53041H5.54433H5.55825H5.57215H5.58604H5.59993H5.6138H5.62767H5.64152H5.65537H5.66921H5.68303H5.69685H5.71067H5.72447H5.73826H5.75205H5.76582H5.77959H5.79335H5.8071H5.82085H5.83458H5.84831H5.86203H5.87574H5.88945H5.90314H5.91683H5.93052H5.94419H5.95786H5.97152H5.98517H5.99881H6.01245H6.02608H6.03971H6.05333H6.06694H6.08054H6.09414H6.10773H6.12132H6.13489H6.14847H6.16203H6.17559H6.18915H6.2027H6.21624H6.22978H6.24331H6.25683H6.27035H6.28387H6.29738H6.31088H6.32438H6.33788H6.35137H6.36485H6.37833H6.3918H6.40527H6.41874H6.4322H6.44566H6.45911H6.47256H6.486H6.49944H6.51287H6.52631H6.53973H6.55316H6.56658H6.57999H6.59341H6.60682H6.62022H6.63362H6.64702H6.66042H6.67381H6.6872H6.70059H6.71397H6.72736H6.74074H6.75411H6.76749H6.78086H6.79423H6.80759H6.82096H6.83432H6.84768H6.86104H6.8744H6.88775H6.90111H6.91446H6.92781H6.94116H6.9545H6.96785H6.98119H6.99454H7.00788H7.02122H7.03456H7.0479H7.06124H7.07458H7.08792H7.10126H7.11459H7.12793H7.14127H7.1546H7.16794H7.18127H7.19461H7.20795H7.22128H7.23462H7.24796H7.2613H7.27463H7.28797H7.30131H7.31465H7.32799H7.34134H7.35468H7.36802H7.38137H7.39472H7.40807H7.42142H7.43477H7.44812H7.46147H7.47483H7.48819H7.50155H7.51491H7.52827H7.54164H7.55501H7.56838H7.58175H7.59513H7.60851H7.62189H7.63527H7.64866H7.66205H7.67544H7.68883H7.70223H7.71563H7.72904H7.74245H7.75586H7.76927H7.78269H7.79611H7.80954H7.82297H7.83641H7.84984H7.86329H7.87673H7.89018H7.90364H7.9171H7.93056H7.94403H7.9575H7.97098H7.98446H7.99795H8.01144H8.02494H8.03844H8.05195H8.06546H8.07898H8.09251H8.10603H8.11957H8.13311H8.14666H8.16021H8.17377H8.18733H8.2009H8.21448H8.22806H8.24165H8.25525H8.26885H8.28246H8.29607H8.3097H8.32333H8.33696H8.3506H8.36425H8.37791H8.39158H8.40525H8.41893H8.43261H8.44631H8.46001H8.47372H8.48744H8.50116H8.51489H8.52863H8.54238H8.55614H8.56991H8.58368H8.59746H8.61125H8.62505H8.63886H8.65268H8.6665H8.68034H8.69418H8.70804H8.7219H8.73577H8.74965H8.76354H8.77744H8.79135H8.80527H8.81919H8.83313H8.84708H8.86104H8.87501H8.88898H8.90297H8.91697H8.93098H8.945H8.95903H8.97307H8.98712H9.00118H9.01526H9.02934H9.04344H9.05754H9.07166H9.08579H9.09993H9.11408H9.12824H9.14241H9.1566H9.1708H9.18501H9.19923H9.21346H9.22771H9.24196H9.25623H9.27051H9.28481H9.29911H9.31343H9.32777H9.34211H9.35647H9.37084H9.38522H9.39962H9.41403H9.42845H9.44288H9.45733H9.4718H9.48627H9.50076H9.51526H9.52978H9.54431H9.55886H9.57341H9.58799H9.60257H9.61718H9.63179H9.64642H9.66107H9.67572H9.6904H9.70508H9.71979H9.73451H9.74924H9.76399H9.77875H9.79353H9.80832H9.82313H9.83795H9.85279H9.86765H9.88252H9.89741H9.91231H9.92723H9.94216H9.95711H9.97208H9.98706H10.0021H10.0171H10.0321H10.0472H10.0622H10.0773H10.0924H10.1075H10.1227H10.1378H10.153H10.1681H10.1834H10.1986H10.2138H10.2291H10.2443H10.2596H10.2749H10.2903H10.3056H10.321H10.3363H10.3517H10.3671H10.3826H10.398H10.4135H10.429H10.4445H10.46H10.4756H10.4911H10.5067H10.5223H10.5379H10.5536H10.5692H10.5849H10.6006H10.6163H10.6321H10.6478H10.6636H10.6794H10.6952H10.7111H10.7269H10.7428H10.7587H10.7746H10.7905H10.8065H10.8225H10.8385H10.8545H10.8705H10.8866H10.9027H10.9188H10.9349H10.9511H10.9672H10.9834H10.9996H11.0159H11.0321H11.0484H11.0647H11.081H11.0973H11.1137H11.1301H11.1465H11.1629H11.1794H11.1959H11.2124H11.2289H11.2454H11.262H11.2786H11.2952H11.3118H11.3285H11.3452H11.3619H11.3786H11.3953H11.4121H11.4289H11.4457H11.4626H11.4794H11.4963H11.5132H11.5302H11.5472H11.5641H11.5812H11.5982H11.6153H11.6323H11.6495H11.6666C13.0473 12.1667 14.1666 11.0474 14.1666 9.66671C14.1666 8.36501 13.1714 7.29518 11.9006 7.17749C11.6741 7.15651 11.4903 6.98523 11.4534 6.76073C11.1804 5.10023 9.73762 3.83337 7.99992 3.83337Z" fill="#090909"/>
</svg>
