<svg width="16" height="16" viewBox="0 0 16 16" fill="none" xmlns="http://www.w3.org/2000/svg">
<path d="M1.62378 7.78342L7.26692 2.14028C8.04609 1.36112 9.30936 1.36112 10.0885 2.14028C10.8677 2.91942 10.8677 4.18269 10.0885 4.96185L5.82674 9.2236" stroke="#090909" stroke-width="0.997576" stroke-linecap="round"/>
<path d="M5.8855 9.16503L10.0884 4.96205C10.8676 4.1829 12.1309 4.1829 12.9101 4.96205L12.9394 4.99144C13.7186 5.7706 13.7186 7.03386 12.9394 7.81301L7.83573 12.9168C7.57601 13.1765 7.57601 13.5975 7.83573 13.8572L8.8837 14.9053" stroke="#090909" stroke-width="0.997576" stroke-linecap="round"/>
<path d="M8.67788 3.55127L4.50429 7.72485C3.72513 8.50398 3.72513 9.76724 4.50429 10.5464C5.28345 11.3255 6.5467 11.3255 7.32586 10.5464L11.4994 6.37284" stroke="#090909" stroke-width="0.997576" stroke-linecap="round"/>
</svg>
