<svg width="16" height="16" viewBox="0 0 16 16" fill="none" xmlns="http://www.w3.org/2000/svg">
<path fill-rule="evenodd" clip-rule="evenodd" d="M11.8123 2.10962L14.3123 4.10962L14.8004 4.50005L14.3123 4.89049L11.8123 6.89049L11.1877 6.10962L12.5746 5.00005H11.1606C10.6224 5.00005 10.1253 5.28848 9.85828 5.75585L9.57698 6.24812L8.70874 5.75198L8.99004 5.25971C9.43514 4.48077 10.2635 4.00005 11.1606 4.00005H12.5746L11.1877 2.89049L11.8123 2.10962ZM2 11.0001H4.83935C5.37764 11.0001 5.87466 10.7116 6.14172 10.2443L6.42302 9.75198L7.29126 10.2481L7.00996 10.7404C6.56486 11.5193 5.7365 12.0001 4.83935 12.0001H2V11.0001ZM2 5.00005H4.83935C5.37764 5.00005 5.87466 5.28848 6.14172 5.75585L8.99004 10.7404C9.43514 11.5193 10.2635 12.0001 11.1606 12.0001H12.5746L11.1877 13.1096L11.8123 13.8905L14.3123 11.8905L14.8004 11.5001L14.3123 11.1096L11.8123 9.10962L11.1877 9.89049L12.5746 11.0001H11.1606C10.6224 11.0001 10.1253 10.7116 9.85828 10.2443L7.00996 5.25971C6.56486 4.48077 5.7365 4.00005 4.83935 4.00005H2V5.00005Z" fill="white" fill-opacity="0.44"/>
</svg>
