<svg width="16" height="16" viewBox="0 0 16 16" fill="none" xmlns="http://www.w3.org/2000/svg">
<path fill-rule="evenodd" clip-rule="evenodd" d="M11.0001 11.0002L11 10.5002L11.0001 11.0002H11C9.73795 11.0001 8.81194 10.8239 8.22328 10.2803C7.6178 9.72117 7.5 8.89804 7.5 8.00023V6.00022C7.5 5.15726 7.36927 4.72577 7.09568 4.46949C6.80773 4.19976 6.23196 4.00011 4.99998 4H4.99996H4.99992H4.99966H4.99865H4.99462H4.9788L4.91771 4L4.69109 4L3.92624 4L2.00001 4L2 3L3.92624 3H4.69109L4.91772 3L4.9788 3L4.99462 3L4.99865 3L4.99966 3L4.99992 3L4.99998 3L5 3.5L5 3L5.00005 3C6.26806 3.00011 7.19228 3.18976 7.77933 3.73968C8.38074 4.30305 8.5 5.12156 8.5 6.00022V8.00023C8.5 8.87002 8.6322 9.29677 8.90172 9.54566C9.18807 9.8101 9.76206 10.0001 11 10.0002H11.0003H11.0013L11.0052 10.0002L11.0208 10.0002L11.0808 10.0002L11.3039 10.0002L12.0606 10.0001L13.2929 10L11.6464 8.35355L11.2929 8L12 7.29289L12.3536 7.64645L14.8536 10.1464L15.2071 10.5L14.8536 10.8536L12.3536 13.3536L12 13.7071L11.2929 13L11.6464 12.6464L13.2928 11L12.0607 11.0001L11.3041 11.0002L11.0809 11.0002L11.0209 11.0002L11.0053 11.0002H11.0014H11.0004H11.0001H11.0001ZM11 3H14V4H11V3Z" fill="#E0E1E4"/>
</svg>
