<svg width="16" height="16" viewBox="0 0 16 16" fill="none" xmlns="http://www.w3.org/2000/svg">
<path d="M0.130273 11L1.74127 4.43H3.45127L5.08027 11H3.70327L3.38827 9.515H1.82227L1.50727 11H0.130273ZM2.04727 8.435H3.15427L2.83927 6.851C2.79727 6.623 2.75227 6.398 2.70427 6.176C2.66227 5.948 2.62927 5.771 2.60527 5.645C2.58127 5.771 2.54827 5.945 2.50627 6.167C2.47027 6.389 2.42827 6.614 2.38027 6.842L2.04727 8.435ZM8.01976 11.09C7.55776 11.09 7.15276 11.009 6.80476 10.847C6.46276 10.685 6.19576 10.457 6.00376 10.163C5.81776 9.863 5.72476 9.512 5.72476 9.11H7.03876C7.03876 9.356 7.12576 9.554 7.29976 9.704C7.47976 9.848 7.71976 9.92 8.01976 9.92C8.31376 9.92 8.54176 9.851 8.70376 9.713C8.87176 9.569 8.95576 9.38 8.95576 9.146C8.95576 8.96 8.90176 8.795 8.79376 8.651C8.68576 8.501 8.52676 8.402 8.31676 8.354L7.51576 8.165C6.99976 8.045 6.58876 7.814 6.28276 7.472C5.98276 7.124 5.83276 6.71 5.83276 6.23C5.83276 5.84 5.91676 5.504 6.08476 5.222C6.25876 4.94 6.50476 4.724 6.82276 4.574C7.14676 4.418 7.52776 4.34 7.96576 4.34C8.40976 4.34 8.79076 4.418 9.10876 4.574C9.43276 4.724 9.68176 4.94 9.85576 5.222C10.0358 5.504 10.1258 5.837 10.1258 6.221H8.81176C8.81176 5.993 8.73676 5.816 8.58676 5.69C8.43676 5.558 8.22976 5.492 7.96576 5.492C7.70776 5.492 7.50676 5.555 7.36276 5.681C7.21876 5.807 7.14676 5.975 7.14676 6.185C7.14676 6.359 7.20076 6.5 7.30876 6.608C7.41676 6.716 7.56976 6.794 7.76776 6.842L8.59576 7.031C9.11176 7.145 9.51976 7.394 9.81976 7.778C10.1258 8.156 10.2788 8.612 10.2788 9.146C10.2788 9.536 10.1858 9.878 9.99976 10.172C9.81976 10.466 9.55876 10.694 9.21676 10.856C8.88076 11.012 8.48176 11.09 8.01976 11.09ZM11.0762 11V4.43H12.7232L13.3892 7.238L14.0552 4.43H15.7202V11H14.4872V8.48C14.4872 8.042 14.4992 7.613 14.5232 7.193C14.5532 6.773 14.5892 6.374 14.6312 5.996C14.6732 5.618 14.7122 5.276 14.7482 4.97L13.9202 8.21H12.8402L12.0302 5.051C12.0722 5.309 12.1142 5.618 12.1562 5.978C12.1982 6.338 12.2342 6.731 12.2642 7.157C12.2942 7.577 12.3092 8.018 12.3092 8.48V11H11.0762Z" fill="#169068"/>
</svg>
