<svg width="16" height="16" viewBox="0 0 16 16" fill="none" xmlns="http://www.w3.org/2000/svg">
<path fill-rule="evenodd" clip-rule="evenodd" d="M5.5 5.5H3C2.44772 5.5 2 5.94772 2 6.5V9.5C2 10.0523 2.44772 10.5 3 10.5H5.5L8 13.5V2.5L5.5 5.5ZM10 12C10.908 12 11.7926 11.5947 12.4547 10.8498C13.1186 10.1029 13.5 9.07863 13.5 8C13.5 6.92137 13.1186 5.89705 12.4547 5.1502C11.7926 4.40527 10.908 4 10 4V3C11.2138 3 12.364 3.54294 13.2021 4.48584C14.0386 5.42681 14.5 6.69169 14.5 8C14.5 9.30831 14.0386 10.5732 13.2021 11.5142C12.364 12.4571 11.2138 13 10 13V12ZM10.6607 9.11421C10.4547 9.38879 10.2112 9.5 10 9.5V10.5C10.5845 10.5 11.104 10.1898 11.4607 9.71421C11.8153 9.2414 12 8.62374 12 8C12 7.37626 11.8153 6.7586 11.4607 6.28579C11.104 5.81022 10.5845 5.5 10 5.5V6.5C10.2112 6.5 10.4547 6.61121 10.6607 6.88579C10.8687 7.16312 11 7.56287 11 8C11 8.43713 10.8687 8.83688 10.6607 9.11421Z" fill="#A660D4"/>
</svg>
