<svg width="16" height="16" viewBox="0 0 16 16" fill="none" xmlns="http://www.w3.org/2000/svg">
<g clip-path="url(#clip0_8519_10142)">
<path d="M8.0001 0L1.1001 4V12L8.0001 16L14.9001 12V4L8.0001 0Z" fill="url(#paint0_linear_8519_10142)"/>
<g opacity="0.7">
<path d="M14.85 4.03748V11.975L8 15.9375V7.99998L14.85 4.03748Z" fill="#156AB3" stroke="#0078D4" stroke-width="0.0625" stroke-miterlimit="10" stroke-linejoin="round"/>
<path d="M14.8499 4.0375L7.9999 8L1.1499 4.0375L7.9999 0.0625L14.8499 4.0375Z" fill="#1D4A79" stroke="#0078D4" stroke-width="0.0625" stroke-miterlimit="10" stroke-linejoin="round"/>
<path d="M7.9999 7.99998V15.9375L1.1499 11.975V4.03748L7.9999 7.99998Z" fill="#185A97" stroke="#0078D4" stroke-width="0.0625" stroke-miterlimit="10" stroke-linejoin="round"/>
<path d="M1.1499 11.975L7.9999 8V15.9375L1.1499 11.975Z" fill="#1D4A79" stroke="#0078D4" stroke-width="0.0625" stroke-miterlimit="10" stroke-linejoin="round"/>
<path d="M14.85 11.975L8 8V15.9375L14.85 11.975Z" fill="#185A97" stroke="#0078D4" stroke-width="0.0625" stroke-miterlimit="10" stroke-linejoin="round"/>
</g>
<path d="M10.9375 8.26252C10.875 8.25002 10.8125 8.25002 10.75 8.25002H6.8625L8 5.38752C8.0125 5.38752 8.075 5.41252 8.125 5.41252C8.15 5.41252 8.175 5.41252 8.2 5.40002L9.4 5.01252C9.4375 5.00002 9.475 4.97502 9.5125 4.93752L10.3 4.06252L10.275 3.71252L10.0875 3.55002L9.175 4.56252L8.175 4.88752L7.45 4.23752L7.6625 3.21252L8.575 2.20002L8.3875 2.02502L8.0375 2.05002L7.25 2.92502C7.225 2.96252 7.2 3.00002 7.1875 3.03752L6.925 4.26252C6.9125 4.35002 6.9375 4.43752 7 4.50002C7 4.50002 6.875 4.53752 6.85 4.57502L3.7625 8.56252C3.35 8.85002 3.05 9.31252 3.0125 9.85002C2.975 10.3125 3.125 10.7625 3.425 11.125C3.7125 11.4625 4.1 11.6625 4.5375 11.725L10.4125 12.7125V12.7C10.475 12.7125 10.525 12.725 10.5875 12.7375C10.65 12.7375 10.7125 12.75 10.775 12.75C11.9375 12.75 12.9125 11.8625 13.0125 10.6875C13.1 9.45002 12.175 8.36252 10.9375 8.26252Z" fill="#1D4A79"/>
<path opacity="0.3" d="M4.75005 11.6C4.75005 11.6 3.23755 11.175 3.23755 9.82504C3.23755 8.67504 4.80005 8.41254 4.80005 8.41254L10.8625 8.50004C10.8625 8.50004 12.8 8.72504 12.8 10.5C12.8 12.25 10.8625 12.4875 10.8625 12.4875L4.75005 11.6Z" fill="white"/>
<path opacity="0.3" d="M4.75 11.5001C5.57843 11.5001 6.25 10.8285 6.25 10.0001C6.25 9.17163 5.57843 8.50006 4.75 8.50006C3.92157 8.50006 3.25 9.17163 3.25 10.0001C3.25 10.8285 3.92157 11.5001 4.75 11.5001Z" fill="white"/>
<path opacity="0.2" d="M7.35005 4.36255L8.05005 4.81255L6.57505 8.55005L4.23755 8.50005L7.35005 4.36255Z" fill="white"/>
<path opacity="0.3" d="M10.2499 11.5001H11.2499C11.2999 11.5001 11.3374 11.4751 11.3624 11.4376L11.8624 10.5626C11.8874 10.5251 11.8874 10.4751 11.8624 10.4376L11.3624 9.56256C11.3374 9.52506 11.2999 9.50006 11.2499 9.50006H10.2499C10.1999 9.50006 10.1624 9.52506 10.1374 9.56256L9.6374 10.4376C9.6124 10.4751 9.6124 10.5251 9.6374 10.5626L10.1374 11.4376C10.1624 11.4751 10.1999 11.5001 10.2499 11.5001Z" fill="white"/>
<path d="M4.75 11.5C5.57843 11.5 6.25 10.8284 6.25 10C6.25 9.17157 5.57843 8.5 4.75 8.5C3.92157 8.5 3.25 9.17157 3.25 10C3.25 10.8284 3.92157 11.5 4.75 11.5Z" stroke="white" stroke-width="0.5" stroke-miterlimit="10" stroke-linejoin="round"/>
<path d="M4.50005 10.5H5.00005C5.02505 10.5 5.03755 10.4875 5.05005 10.4625L5.30005 10.025C5.31255 10 5.31255 9.9875 5.30005 9.9625L5.05005 9.525C5.05005 9.5125 5.02505 9.5 5.00005 9.5H4.50005C4.47505 9.5 4.46255 9.5125 4.45005 9.5375L4.20005 9.975C4.18755 10 4.18755 10.0125 4.20005 10.0375L4.45005 10.475C4.45005 10.4875 4.47505 10.5 4.50005 10.5Z" fill="white"/>
<path d="M10.75 8.75C10.8 8.75 10.85 8.75 10.9 8.75C11.3625 8.7875 11.7875 9 12.0875 9.3625C12.3875 9.725 12.5375 10.175 12.5 10.6375C12.425 11.55 11.65 12.25 10.75 12.25C10.7 12.25 10.65 12.25 10.6 12.25C10.1375 12.2125 9.71253 12 9.41253 11.6375C9.11253 11.275 8.96253 10.825 9.00003 10.3625C9.07503 9.45 9.85003 8.75 10.75 8.75ZM10.75 8.25C9.58753 8.25 8.61253 9.1375 8.51253 10.3125C8.41253 11.55 9.33753 12.6375 10.575 12.7375C10.6375 12.7375 10.7 12.75 10.7625 12.75C11.925 12.75 12.9 11.8625 13 10.6875C13.1 9.45 12.175 8.3625 10.9375 8.2625C10.875 8.25 10.8125 8.25 10.75 8.25Z" fill="white"/>
<path d="M11.1874 9.75L11.6249 10.5L11.1874 11.25H10.3249L9.8874 10.5L10.3249 9.75H11.1874ZM11.2499 9.5H10.2499C10.1999 9.5 10.1624 9.525 10.1374 9.5625L9.6374 10.4375C9.6124 10.475 9.6124 10.525 9.6374 10.5625L10.1374 11.4375C10.1624 11.475 10.1999 11.5 10.2499 11.5H11.2499C11.2999 11.5 11.3374 11.475 11.3624 11.4375L11.8624 10.5625C11.8874 10.525 11.8874 10.475 11.8624 10.4375L11.3624 9.5625C11.3374 9.525 11.2999 9.5 11.2499 9.5Z" fill="white"/>
<path d="M4.5625 11.4875L10.4375 12.475" stroke="white" stroke-width="0.5" stroke-miterlimit="10"/>
<path d="M10.75 8.5H4.75" stroke="white" stroke-width="0.5" stroke-miterlimit="10"/>
<path d="M3.94995 8.72502L7.06245 4.73752C7.18745 4.58752 7.41245 4.56252 7.56245 4.68752L7.71245 4.82502C7.82495 4.91252 7.84995 5.06252 7.79995 5.20002L6.49995 8.50002" stroke="white" stroke-width="0.5" stroke-miterlimit="10" stroke-linejoin="round"/>
<path d="M10.3126 3.6875L10.1251 3.5125L9.2126 4.525L8.2126 4.85L7.5001 4.2L7.7126 3.175L8.6251 2.1625L8.4251 2L8.0751 2.025L7.2876 2.9C7.2626 2.9375 7.2376 2.975 7.2251 3.0125L6.9626 4.2375C6.9501 4.325 6.9751 4.4125 7.0376 4.475L7.9751 5.3125C8.0251 5.35 8.0751 5.375 8.1376 5.375C8.1626 5.375 8.1876 5.375 8.2126 5.3625L9.4126 4.975C9.4501 4.9625 9.4876 4.9375 9.5251 4.9L10.3126 4.025V3.6875Z" fill="white" stroke="white" stroke-width="0.125" stroke-miterlimit="10"/>
</g>
<defs>
<linearGradient id="paint0_linear_8519_10142" x1="8.0001" y1="16" x2="8.0001" y2="0" gradientUnits="userSpaceOnUse">
<stop stop-color="#1D4A79"/>
<stop offset="1" stop-color="#45CAF2"/>
</linearGradient>
<clipPath id="clip0_8519_10142">
<rect width="16" height="16" fill="white"/>
</clipPath>
</defs>
</svg>
