<svg width="16" height="16" viewBox="0 0 16 16" fill="none" xmlns="http://www.w3.org/2000/svg">
<path d="M8.11473 13.14C7.4614 13.14 6.8874 13.0187 6.39273 12.776C5.9074 12.524 5.5294 12.174 5.25873 11.726C4.9974 11.2687 4.86673 10.732 4.86673 10.116V5.664C4.86673 5.03867 4.9974 4.502 5.25873 4.054C5.5294 3.606 5.9074 3.26067 6.39273 3.018C6.8874 2.766 7.4614 2.64 8.11473 2.64C8.7774 2.64 9.34673 2.766 9.82273 3.018C10.3081 3.26067 10.6861 3.61067 10.9567 4.068C11.2274 4.516 11.3627 5.048 11.3627 5.664H9.59873C9.59873 5.17867 9.46807 4.81 9.20673 4.558C8.95473 4.306 8.59073 4.18 8.11473 4.18C7.63873 4.18 7.27007 4.306 7.00873 4.558C6.7474 4.81 6.61673 5.17867 6.61673 5.664V10.116C6.61673 10.592 6.7474 10.9607 7.00873 11.222C7.27007 11.474 7.63873 11.6 8.11473 11.6C8.59073 11.6 8.95473 11.474 9.20673 11.222C9.46807 10.9607 9.59873 10.592 9.59873 10.116H11.3627C11.3627 10.7227 11.2274 11.2547 10.9567 11.712C10.6861 12.1693 10.3081 12.524 9.82273 12.776C9.34673 13.0187 8.7774 13.14 8.11473 13.14Z" fill="#2A7DEB"/>
</svg>
