<svg width="16" height="16" viewBox="0 0 16 16" fill="none" xmlns="http://www.w3.org/2000/svg">
<path fill-rule="evenodd" clip-rule="evenodd" d="M3.7 2H12.3C13.2389 2 14 2.76112 14 3.7V12.3C14 13.2389 13.2389 14 12.3 14H3.7C2.76112 14 2 13.2389 2 12.3V3.7C2 2.76112 2.76112 2 3.7 2ZM7.45671 3.88403H8.78293V10.0227C8.1026 10.1519 7.6031 10.2035 7.0606 10.2035C5.4416 10.2035 4.59766 9.47164 4.59766 8.06781C4.59766 6.71581 5.49332 5.83742 6.87977 5.83742C7.09505 5.83742 7.25866 5.8547 7.45677 5.90626L7.45671 3.88403ZM7.45671 6.97403C7.30171 6.92242 7.17255 6.9052 7.00893 6.9052C6.33721 6.9052 5.94966 7.31859 5.94966 8.04187C5.94966 8.74814 6.31999 9.13564 7.00032 9.13564C7.14666 9.13564 7.26727 9.12703 7.45671 9.10131V6.97403ZM10.8927 5.93206V9.00656C10.8927 10.0657 10.8152 10.5738 10.5827 11.0131C10.3674 11.4351 10.0832 11.7019 9.49761 11.9947L8.26611 11.4091C8.85172 11.1336 9.13589 10.8926 9.31672 10.5221C9.50622 10.1433 9.56656 9.70395 9.56656 8.55V5.93206H10.8927ZM9.56656 3.89111H10.8927V5.25184H9.56656V3.89111Z" fill="#092E20"/>
</svg>
