<svg width="16" height="16" viewBox="0 0 16 16" fill="none" xmlns="http://www.w3.org/2000/svg">
<path fill-rule="evenodd" clip-rule="evenodd" d="M5.4606 13.0896C4.90173 12.6501 4.30558 12.2286 3.8982 11.6352C3.04101 10.5886 2.38101 9.37699 1.92981 8.10368C1.65709 7.27572 1.56369 6.38804 1.21211 5.59207C0.844333 5.01395 1.27514 4.38198 1.90839 4.19821C2.19033 4.1441 2.68607 3.87817 2.08766 4.06824C1.55118 4.46185 1.49926 3.71095 2.04938 3.6634C2.42482 3.6135 2.56302 3.30616 2.43463 3.02948C2.03163 2.76667 3.41187 2.47784 2.71739 2.08569C1.99392 1.30515 3.72936 1.1549 3.3012 2.04135C3.19872 2.723 4.51386 1.91642 4.20871 2.70357C4.51886 3.08159 5.37013 2.78961 5.34901 3.31993C5.80081 3.35099 5.95587 3.73113 6.37999 3.76032C6.81955 3.95882 7.6164 4.11525 7.76597 4.61058C7.32988 4.95583 6.32004 3.89742 6.27153 4.85312C6.40327 6.26491 6.3697 7.71924 6.88624 9.06369C7.13056 9.87776 7.72284 10.5186 8.25774 11.1526C8.76953 11.7736 9.46277 12.2107 10.1694 12.5788C10.7892 12.8711 11.4574 13.065 12.1329 13.1866C12.4069 12.9771 12.8906 12.198 13.318 12.5265C13.3383 12.8956 12.4697 13.2982 13.2772 13.2574C13.7513 13.1143 14.0802 13.6241 14.4706 13.1643C14.8303 13.5904 15.9657 12.892 15.7098 13.763C15.3637 13.9863 14.8589 13.8513 14.5123 14.1585C13.9407 13.873 13.4857 14.414 12.8529 14.3455C12.1502 14.4714 11.4353 14.5222 10.7229 14.5233C9.55413 14.431 8.3606 14.392 7.24872 13.9851C6.62236 13.8031 6.01111 13.4465 5.4606 13.0896ZM6.44769 13.5173C7.05931 13.7818 7.65737 14.0606 8.32766 14.1447C9.39109 14.2926 10.4893 14.5201 11.5565 14.3126C11.0735 14.0945 10.5741 14.3975 10.0929 14.1566C9.51579 14.2808 8.89645 14.125 8.30973 14.0483C7.64252 13.7511 6.92248 13.5467 6.29767 13.1609C5.51694 12.8758 6.70145 13.5266 6.91229 13.5793C7.40035 13.8564 6.37559 13.4373 6.23112 13.3222C5.82234 13.0929 5.77025 13.1408 6.19064 13.3737C6.27531 13.4232 6.35898 13.4751 6.44769 13.5173ZM5.28389 12.6949C5.87657 12.9144 5.28127 12.2781 5.00969 12.3151C4.88936 12.1063 4.54997 11.9744 4.78937 11.8623C4.35872 12.0118 4.33825 11.2938 4.13582 11.3963C3.68023 11.2525 3.9585 10.7429 3.41581 10.4299C3.36627 10.1001 2.87663 9.81413 2.72045 9.31672C2.65147 9.06205 2.16725 8.33073 2.46471 9.01134C2.71798 9.66654 3.16359 10.2276 3.53442 10.7881C3.82237 11.3217 4.16238 11.8794 4.68679 12.2123C4.86357 12.3819 5.03425 12.6417 5.28389 12.6949ZM7.89496 13.7972C8.13768 13.9504 9.31239 14.1329 8.57681 13.86C8.45373 13.886 7.21286 13.509 7.89496 13.7972ZM5.21188 11.6188C5.4967 11.8372 6.36056 11.6468 5.64807 11.4884C5.32379 11.3155 4.59293 11.1972 5.0911 11.5926L5.21188 11.6188ZM6.59068 12.3493C7.28715 12.5464 6.00501 11.9089 6.41884 12.2768L6.51056 12.3183L6.59068 12.3493ZM7.79737 13.0643C7.2016 12.9458 8.45697 13.0725 7.79737 13.0643V13.0643ZM6.59659 11.9803C7.10255 12.0455 5.99458 11.6362 6.48558 11.9437L6.59659 11.9803ZM8.35503 13.0615C8.8274 12.7791 8.67166 13.7228 9.15643 13.1412C9.63461 12.7921 8.74348 13.5729 9.33282 13.2035C9.75902 12.9184 10.3885 13.3386 10.7862 13.4757C11.0722 13.4617 11.3503 13.723 11.6434 13.564C12.2078 13.412 10.5398 13.3385 10.977 13.0688C10.4606 13.2191 10.0791 12.8897 9.82495 12.5589C9.24568 12.4251 8.5759 12.1289 8.2868 11.6163C8.16893 11.4238 8.45708 11.6434 8.18505 11.3288C7.83599 11.0183 7.66169 10.6659 7.42737 10.2885C7.14744 10.1392 7.11483 9.69962 7.08653 10.2738C7.08875 9.91142 6.74855 9.66752 6.66552 9.7689C6.66403 9.41993 7.02959 9.59486 6.77369 9.33666C6.71861 8.97496 6.53725 8.59807 6.48274 8.18969C6.39804 7.99284 6.47081 7.57124 6.19367 8.01686C6.0927 8.48782 6.16016 7.43811 6.31718 7.78427C6.52327 7.43105 6.24319 7.47259 6.23171 7.52164C6.36596 7.22362 6.31668 6.80089 6.19668 6.96216C6.26822 6.64629 6.3097 5.79967 6.08962 5.9497C6.22302 5.6194 6.34262 4.4383 5.76348 4.88861C5.52877 4.89191 5.12232 4.97381 4.93019 5.06936C5.5326 5.40142 4.8696 5.18928 4.62438 5.1365C4.59243 5.44376 4.34955 5.31087 4.04611 5.31389C4.53077 5.37385 3.8101 5.80957 3.53206 5.64032C3.17097 5.8129 3.84369 6.24368 3.53931 6.37688C3.57672 6.57769 2.98612 6.30436 3.0325 6.7681C2.68196 6.62063 2.98423 7.3182 3.15961 7.08227C3.75583 7.24364 3.57933 7.61153 3.59452 7.96099C3.49737 8.16462 3.1149 7.48234 3.50934 7.51394C3.19816 7.00845 3.16512 7.33123 2.90654 7.56606C2.84639 7.58311 3.56611 7.90018 3.11445 8.05697C3.51182 8.11828 3.52313 8.46602 3.60402 8.68607C3.84286 8.93483 3.79398 8.41138 4.07976 8.71034C3.89892 8.444 3.12186 7.9599 3.74749 8.11516C3.74415 7.8471 3.63434 7.63094 3.82602 7.63619C4.01584 7.29243 3.62722 8.48375 4.05508 8.04686C4.17352 7.99515 4.20286 7.70267 4.41574 8.07448C4.72495 8.37867 4.52743 8.59909 4.09126 8.32056C4.16929 8.58529 4.67475 8.67989 4.57976 9.09387C4.68046 9.45798 4.82134 9.32387 4.94414 9.30282C5.04047 9.65659 5.09518 9.39646 5.09975 9.22811C5.54082 9.32253 5.43751 9.58326 5.57552 9.76542C5.87946 9.90261 5.14048 8.8355 5.66229 9.44455C6.21128 9.94021 5.86818 10.1471 5.37551 10.0677C5.68733 10.0425 5.78789 10.4893 6.17792 10.4736C6.5336 10.6428 6.77441 11.2927 6.16133 11.0221C5.9487 10.8304 5.19622 10.5939 5.81082 10.9586C6.37846 11.2214 6.8293 11.3787 7.37677 11.7086C7.76858 11.9883 7.93785 12.3087 8.08636 12.3721C7.75706 12.5294 7.09399 12.2465 7.58636 12.1598C7.27925 12.1039 6.93383 11.9486 7.22799 12.3312C7.47812 12.5401 8.11416 12.518 8.22818 12.5416C8.13154 12.7546 7.96566 12.7715 8.23214 12.788C7.93486 12.9465 8.32748 12.971 8.35503 13.0615ZM7.7471 11.3447C7.56622 11.1556 7.51946 10.8013 7.71498 11.1096C7.81524 11.1498 8.03617 11.6886 7.7471 11.3447ZM6.5879 9.43568C6.37236 8.95278 6.7405 9.17191 6.63559 9.51482L6.5879 9.43568ZM4.60367 8.11239C4.5073 7.95397 4.3479 7.48913 4.39922 7.34722C4.44565 7.57833 4.89068 8.34179 4.61753 7.66348C4.31566 7.09488 4.97836 7.84804 5.04653 7.98987C5.07827 8.13095 4.86029 7.95132 5.00799 8.28213C4.73863 7.90549 4.84898 8.49017 4.60367 8.11239ZM3.60272 7.27148C3.37441 7.04461 3.2092 6.83547 3.61341 7.13068C3.76916 7.13675 3.26737 6.65509 3.65092 6.97772C4.05423 7.05126 3.85007 7.63901 3.60272 7.27148ZM3.73939 6.92368C3.07568 6.33302 4.5734 7.23254 3.84783 7.03319L3.73939 6.92368ZM5.64104 8.02858C5.35383 7.85637 5.56493 6.81622 5.66288 7.52761C5.9421 7.43728 5.64746 7.895 5.85572 7.89077C5.8229 8.17956 5.72973 8.28339 5.64104 8.02858ZM3.86959 6.72959C3.4432 6.1413 5.10881 7.32468 4.14269 6.8788C4.04174 6.8524 3.92027 6.84297 3.86959 6.72959ZM5.23198 7.44772C5.1794 6.95237 5.34942 7.52983 5.23198 7.44772V7.44772ZM3.93491 6.50507C4.18833 6.45086 4.98513 6.95014 4.25342 6.64768C4.17211 6.55768 3.9988 6.59857 3.93491 6.50507ZM6.11156 7.5897C6.14685 7.08319 6.30869 7.28715 6.11278 7.66221L6.11156 7.5897ZM4.12356 6.32882C4.22681 6.17735 3.84945 5.64402 4.17795 6.13751C4.31989 6.25029 4.58892 6.32645 4.35139 6.3739C4.72497 6.70345 4.26028 6.4632 4.12356 6.32882ZM5.58944 6.36929C5.54744 6.17358 5.73216 6.61517 5.58944 6.36929V6.36929ZM5.77531 6.05744C5.64357 5.82528 5.94168 5.03436 5.97494 5.52488C5.83589 5.90709 5.93483 6.1209 6.03183 5.60825C6.21096 5.2048 5.99314 6.4044 5.77531 6.05744ZM6.32147 11.7118C6.69874 11.8086 6.69682 11.6531 6.35584 11.6069C6.17243 11.4363 5.59373 11.2553 6.1117 11.5857C6.146 11.6726 6.2544 11.6706 6.32147 11.7118ZM4.98196 10.8221C5.1898 10.9771 5.76485 11.2614 5.27806 10.8811C5.44218 10.6904 4.96392 10.5889 5.12257 10.4614C4.71903 10.2145 4.80423 10.2364 5.08695 10.2442C4.60197 10.0274 5.15695 10.0436 5.13082 9.93255C4.94382 9.89562 4.20198 9.60281 4.6384 9.95661C4.19475 9.7304 4.53268 10.0409 4.39858 10.008C3.94492 9.88435 4.80259 10.3536 4.32653 10.2371C4.5868 10.4433 5.02708 10.7654 4.43657 10.4554C4.35876 10.5673 4.85914 10.7371 4.98196 10.8221ZM9.69581 13.5865C9.8948 13.3937 9.70394 13.8937 10.0255 13.5393C10.029 13.2857 10.0156 13.1358 9.65597 13.444C9.55682 13.499 9.51256 13.7328 9.69581 13.5865ZM6.43709 11.4943C6.65845 11.6909 7.45376 11.6386 6.70595 11.5185C6.59519 11.3548 6.00265 11.3942 6.43709 11.4943ZM10.2635 13.7777C9.89794 13.8013 10.6408 13.3779 10.2635 13.7777V13.7777ZM2.79105 9.0452C2.4695 8.5864 2.59116 8.38018 2.28107 8.00556C2.22237 7.71909 1.74911 7.06903 2.03629 7.75772C2.29934 8.1605 2.3775 8.78412 2.79105 9.0452ZM10.5644 13.7164C10.9009 13.4995 10.4868 13.5328 10.5034 13.7364L10.5644 13.7164ZM11.1044 13.8631C11.5356 13.5521 10.843 13.8035 11.0139 13.922L11.1044 13.8631ZM3.86942 9.25198C4.18552 9.3228 5.13265 10.0305 4.57389 9.30092C4.28771 9.21621 4.45934 8.51667 4.16743 8.64048C4.36336 8.96778 4.32863 9.1071 3.91727 8.90075C3.40026 8.64837 3.62673 9.02582 3.72777 9.12984C3.59008 9.16113 3.9099 9.24935 3.86942 9.25198ZM2.42924 8.11461C2.48584 7.88055 1.90816 6.82693 2.15646 7.58668C2.24609 7.74582 2.23697 8.04744 2.42924 8.11461ZM8.94697 12.0505C8.68509 12.0454 8.88072 11.8298 8.94697 12.0505V12.0505ZM12.3182 13.5733C12.6311 13.5099 13.344 13.7325 13.4592 13.4903C13.0793 13.4811 12.1448 13.2223 12.1006 13.5521L12.1838 13.5652L12.3182 13.5733ZM2.57346 6.76989C2.88892 6.64597 1.99886 6.51358 2.509 6.74648L2.57346 6.76989ZM1.5883 5.66775C1.53129 5.34089 1.53909 4.76715 2.08447 4.96105C1.35647 5.10558 2.58832 5.86587 2.43276 5.2656C2.73886 5.28058 3.03157 5.08469 2.87093 5.38197C3.47404 5.31536 3.89217 4.79237 4.47474 4.86566C4.92853 4.80561 5.4247 4.76006 5.91371 4.5774C6.31578 4.54843 6.70283 4.11555 6.48244 3.85897C5.93414 3.81257 5.36018 3.88117 4.75415 4.00163C4.0826 4.14124 3.4726 4.40648 2.79502 4.52034C2.13457 4.60906 2.92786 4.76478 2.73868 4.79947C2.39405 4.91905 3.14969 4.99969 2.694 5.12574C2.41258 5.07224 2.11966 4.97554 2.23987 4.67898C1.60722 4.76107 1.05129 5.02364 1.55113 5.66745L1.5883 5.66775ZM3.11277 4.89135C3.26111 4.34489 3.90748 5.34101 3.3559 4.96393C3.29002 4.91462 3.18167 4.8744 3.11277 4.89135ZM3.41348 4.63072C3.4328 4.37927 4.03578 4.76384 3.5129 4.72124L3.41348 4.63072ZM3.88046 4.41751C4.10658 4.14582 5.16099 4.24411 4.3892 4.39102C4.18233 4.23528 4.02376 4.48285 3.88046 4.41751ZM5.64693 4.20326C5.78967 3.82922 6.20087 4.05317 5.71298 4.1281C5.72358 4.1679 5.69868 4.3212 5.64693 4.20326ZM2.49574 6.18689C2.04295 5.9603 2.92225 5.92571 2.49574 6.18689V6.18689ZM14.8277 13.578C15.1684 13.5792 15.8601 13.4722 15.1187 13.4725C15.0024 13.4907 14.4408 13.4868 14.8277 13.578ZM3.08849 6.12124C3.36426 6.1023 3.51994 5.81706 3.03516 5.83346C2.28384 5.75567 3.69804 6.09071 2.93878 5.99491C2.83676 6.06247 3.08257 6.13994 3.08849 6.12124ZM2.70235 3.94298C3.1945 3.77556 3.86751 3.58742 4.09988 4.02542C3.86339 3.74078 4.00444 3.46057 4.22781 3.87674C4.54366 4.29781 4.70178 3.68522 4.49635 3.54399C4.73045 3.83487 4.99672 3.97232 4.65309 3.56237C5.02651 3.11319 3.9054 3.62119 3.65058 3.61608C3.52797 3.67111 2.38479 3.90762 2.70235 3.94298ZM2.99078 3.39059C3.27145 3.17875 3.96151 3.51661 3.5187 3.18005C3.47541 3.14181 2.54896 3.43527 2.99078 3.39059ZM4.01404 3.43284C4.34254 3.44122 3.87235 2.99154 4.26379 3.1953C4.1995 2.98528 3.80804 2.94596 3.61666 2.86205C3.50842 3.05407 3.83699 3.43542 4.01404 3.43284ZM3.58843 2.60407C4.1178 2.53386 3.45349 2.3761 3.48176 2.59843L3.58843 2.60407ZM2.80752 1.99303C2.43478 1.50645 3.5085 2.07482 3.1298 1.56536C2.81106 1.31155 2.50477 1.85098 2.80752 1.99303ZM7.59099 4.56954C7.76195 4.26648 6.88518 4.16103 7.47581 4.46213C7.53019 4.4803 7.51788 4.5905 7.59099 4.56954Z" fill="#090909"/>
</svg>
