<svg width="16" height="16" viewBox="0 0 16 16" fill="none" xmlns="http://www.w3.org/2000/svg">
<path d="M4.45269 12.12C3.89269 12.12 3.40069 12.016 2.97669 11.808C2.56069 11.592 2.23669 11.292 2.00469 10.908C1.78069 10.516 1.66869 10.056 1.66869 9.528V5.712C1.66869 5.176 1.78069 4.716 2.00469 4.332C2.23669 3.948 2.56069 3.652 2.97669 3.444C3.40069 3.228 3.89269 3.12 4.45269 3.12C5.02069 3.12 5.50869 3.228 5.91669 3.444C6.33269 3.652 6.65669 3.948 6.88869 4.332C7.12069 4.716 7.23669 5.176 7.23669 5.712H5.72469C5.72469 5.296 5.61269 4.98 5.38869 4.764C5.17269 4.548 4.86069 4.44 4.45269 4.44C4.04469 4.44 3.72869 4.548 3.50469 4.764C3.28069 4.98 3.16869 5.292 3.16869 5.7V9.528C3.16869 9.936 3.28069 10.252 3.50469 10.476C3.72869 10.7 4.04469 10.812 4.45269 10.812C4.86069 10.812 5.17269 10.7 5.38869 10.476C5.61269 10.252 5.72469 9.936 5.72469 9.528V8.556H4.23669V7.26H7.23669V9.528C7.23669 10.056 7.12069 10.516 6.88869 10.908C6.65669 11.292 6.33269 11.592 5.91669 11.808C5.50869 12.016 5.02069 12.12 4.45269 12.12ZM8.924 12V3.24H11.684C12.268 3.24 12.772 3.348 13.196 3.564C13.628 3.78 13.964 4.084 14.204 4.476C14.444 4.86 14.564 5.316 14.564 5.844C14.564 6.42 14.42 6.928 14.132 7.368C13.844 7.808 13.456 8.12 12.968 8.304L14.684 12H13.04L11.504 8.52H10.412V12H8.924ZM10.412 7.2H11.684C12.108 7.2 12.44 7.084 12.68 6.852C12.92 6.62 13.04 6.3 13.04 5.892C13.04 5.476 12.92 5.152 12.68 4.92C12.44 4.68 12.108 4.56 11.684 4.56H10.412V7.2Z" fill="#169068"/>
</svg>
