<svg width="16" height="16" viewBox="0 0 16 16" fill="none" xmlns="http://www.w3.org/2000/svg">
<path fill-rule="evenodd" clip-rule="evenodd" d="M10.75 5.75C10.75 7.26878 9.51878 8.5 8 8.5C6.48122 8.5 5.25 7.26878 5.25 5.75C5.25 4.23122 6.48122 3 8 3C9.51878 3 10.75 4.23122 10.75 5.75ZM8.5 9.46696C10.3347 9.22251 11.75 7.65154 11.75 5.75C11.75 3.67893 10.0711 2 8 2C5.92893 2 4.25 3.67893 4.25 5.75C4.25 7.65154 5.66532 9.22251 7.5 9.46696V11V12V13V14V14.5V15H8.5V14.5V14H10.5H11V13H10.5H8.5V12H10.5H11V11H10.5H8.5V9.46696Z" fill="#2A7DEB"/>
</svg>
