<svg width="16" height="16" viewBox="0 0 16 16" fill="none" xmlns="http://www.w3.org/2000/svg">
<path fill-rule="evenodd" clip-rule="evenodd" d="M1 11V4H3.241C3.703 4 4.105 4.087 4.447 4.261C4.795 4.435 5.062 4.678 5.248 4.99C5.44 5.302 5.536 5.668 5.536 6.088C5.536 6.502 5.44 6.868 5.248 7.186C5.056 7.498 4.789 7.741 4.447 7.915C4.105 8.089 3.703 8.176 3.241 8.176H2.35V11H1ZM2.35 7.006H3.241C3.529 7.006 3.757 6.919 3.925 6.745C4.099 6.571 4.186 6.352 4.186 6.088C4.186 5.824 4.099 5.605 3.925 5.431C3.757 5.257 3.529 5.17 3.241 5.17H2.35V7.006ZM6 11V4H8.133C8.589 4 8.985 4.087 9.321 4.261C9.663 4.435 9.927 4.681 10.113 4.999C10.305 5.311 10.401 5.68 10.401 6.106V8.885C10.401 9.305 10.305 9.674 10.113 9.992C9.927 10.31 9.663 10.559 9.321 10.739C8.985 10.913 8.589 11 8.133 11H6ZM7.35 9.785H8.133C8.403 9.785 8.622 9.701 8.79 9.533C8.964 9.365 9.051 9.149 9.051 8.885V6.106C9.051 5.842 8.964 5.629 8.79 5.467C8.622 5.299 8.403 5.215 8.133 5.215H7.35V9.785ZM11 4V11H12.35V7.978H14.996V6.718H12.332V5.26H15.23V4H11Z" fill="#E1465E"/>
</svg>
