<svg width="16" height="16" viewBox="0 0 16 16" fill="none" xmlns="http://www.w3.org/2000/svg">
<path fill-rule="evenodd" clip-rule="evenodd" d="M14.1935 3H4.09506C3.7804 3 3.46665 3.2567 3.39415 3.5733L1.36756 12.4267C1.29517 12.7434 1.49142 13 1.80608 13H11.9044C12.219 13 12.5328 12.7434 12.6053 12.4267L14.6319 3.57318C14.7044 3.2567 14.508 3 14.1935 3Z" fill="#2A7DEB"/>
<path fill-rule="evenodd" clip-rule="evenodd" d="M9.49876 8.16533C9.45649 8.25045 9.36876 8.34431 9.21365 8.45329L4.65535 11.727C4.40649 11.9078 4.04922 11.8408 3.85751 11.5772C3.66581 11.3135 3.71206 10.9533 3.96092 10.7724L8.07149 7.79579V7.73465L5.48876 4.98715C5.27808 4.76306 5.30001 4.40068 5.53774 4.17761C5.77547 3.95465 6.13887 3.95556 6.34956 4.17965L9.44853 7.47647C9.62444 7.66363 9.63751 7.94704 9.49876 8.16533Z" fill="white"/>
<path fill-rule="evenodd" clip-rule="evenodd" d="M7.94966 10.6138H10.4057C10.6913 10.6138 10.9227 10.8427 10.9227 11.1251C10.9227 11.4075 10.6913 11.6365 10.4057 11.6365H7.94966C7.66409 11.6365 7.43262 11.4075 7.43262 11.1251C7.43262 10.8427 7.66409 10.6138 7.94966 10.6138Z" fill="white"/>
</svg>
