<svg width="16" height="16" viewBox="0 0 16 16" fill="none" xmlns="http://www.w3.org/2000/svg">
<path d="M9.37255 2C9.37255 2.02118 9.37255 2.04235 9.37255 2.06471C9.37255 2.82471 8.75647 3.44059 7.99667 3.44059C7.23667 3.44059 6.62078 2.82451 6.62078 2.06471C6.62078 2.04235 6.62078 2.02118 6.62078 2H2V14H14V2H9.37255Z" fill="#654FF0"/>
<path d="M4 8H4.87934L5.47966 11.4028H5.4905L6.21201 8H7.03454L7.68624 11.4446H7.69903L8.38325 8H9.24568L8.12505 13H7.25243L6.60615 9.59721H6.58924L5.89743 13H5.00855L4 8ZM10.2371 8H11.6233L13 13H12.0929L11.7935 11.8874H10.2143L9.98323 13H9.09978L10.2371 8ZM10.7648 9.23241L10.3813 11.0668H11.575L11.1347 9.23241H10.7648Z" fill="white"/>
</svg>
