<svg width="16" height="16" viewBox="0 0 16 16" fill="none" xmlns="http://www.w3.org/2000/svg">
<path d="M13.6308 4.39857L8.23752 1.34435V3.71957L11.599 5.57069L13.6308 4.39857ZM14 4.73161V11.1137L12.0275 9.97516V5.87017L14 4.73161ZM2.36919 4.39857L7.76248 1.34693V3.72215L4.40103 5.57069L2.36919 4.39857ZM2 4.73161V11.1137L3.97246 9.97516V5.87017L2 4.73161ZM2.22978 11.5268L7.76248 14.6559V12.3581L4.21773 10.4089L4.18933 10.3934L2.22978 11.5268ZM13.7676 11.5268L8.23752 14.6559V12.3581L11.7797 10.4063L11.8081 10.3908L13.7676 11.5268Z" fill="#8ED6FB"/>
<path d="M7.76224 4.26187L4.44727 6.08717V9.69904L7.76224 7.78596V4.26187ZM8.23728 4.26187L11.5523 6.08459V9.69904L8.23728 7.78596V4.26187ZM4.6693 10.1173L7.99976 11.9478L11.3276 10.1173L7.99976 8.19646L4.6693 10.1173Z" fill="#1C78C0"/>
</svg>
