<svg width="16" height="16" viewBox="0 0 16 16" fill="none" xmlns="http://www.w3.org/2000/svg">
<path fill-rule="evenodd" clip-rule="evenodd" d="M14.7255 1.59473L7.44431 10.2876H11.6144L11.6143 10.2876L11.6144 10.2876L9.87587 12.3007L9.87584 12.3006L9.87582 12.3007H5.75807L1.27454 14.4052L8.56999 5.62086H4.38562L6.12418 3.60779H10.2419L14.7255 1.59473ZM5.20915 3.60779L5.2091 3.60783L5.20924 3.60779L3.56218 5.62086L3.56213 5.62078L3.56209 5.62086H3.01307V10.2875H3.8366L3.83443 10.2885L3.83668 10.2876L2.09811 12.3007L2.09805 12.3006L2.09804 12.3006H1V3.60779H5.20915ZM12.1636 5.71216L13.9017 3.60812L13.902 3.60779H13.902H15V12.3006H10.6997L10.6995 12.3007L10.6995 12.3006H10.6993L10.7 12.3L12.4376 10.288L12.4379 10.2875H12.9869V5.71236H12.1635H12.1634L12.1636 5.71216Z" fill="#F7A41D"/>
</svg>
