<svg width="16" height="16" viewBox="0 0 16 16" fill="none" xmlns="http://www.w3.org/2000/svg">
  <g id="android-studio" clip-path="url(#clip0_13184_20654)">
    <g id="Group">
      <path id="Vector" d="M6.2219 15.4412C5.97465 15.3826 5.76765 15.2455 5.47803 14.9484C4.99428 14.452 4.60153 14.2454 3.91915 14.1279C3.21115 14.006 2.89665 13.7429 2.70753 13.1144C2.47403 12.3386 2.23003 11.9671 1.6939 11.5711C1.08565 11.1219 0.929651 10.7256 1.07803 10.0077C1.21553 9.34287 1.1629 8.87012 0.883651 8.26224C0.550401 7.53712 0.591527 7.14962 1.06478 6.55537C1.49865 6.01075 1.63478 5.65062 1.69978 4.87649C1.76528 4.09512 1.98265 3.77462 2.6229 3.51525C3.15715 3.29875 3.61428 2.92287 3.86765 2.49175C4.16065 1.99312 4.2034 1.936 4.38503 1.8005C4.67803 1.58187 4.9149 1.52137 5.36603 1.54962C6.14978 1.59875 6.56978 1.50462 7.09603 1.162C7.78215 0.71537 8.19828 0.71537 8.8844 1.162C9.41078 1.50462 9.83078 1.59875 10.6144 1.54962C11.3555 1.50312 11.6639 1.69762 12.1157 2.49675C12.3395 2.89262 12.797 3.278 13.2979 3.49237C14.0112 3.79762 14.2184 4.07625 14.271 4.80025C14.328 5.58437 14.4888 6.02274 14.9147 6.55537C15.3889 7.14849 15.4303 7.53637 15.0968 8.26224C14.8177 8.87012 14.7649 9.34287 14.9024 10.0077C15.0509 10.7256 14.8948 11.1219 14.2867 11.5711C13.7505 11.9671 13.5065 12.3386 13.273 13.1144C13.0839 13.7429 12.7693 14.006 12.0614 14.1279C11.3774 14.2456 10.9844 14.4529 10.5024 14.95C9.96815 15.5009 9.58515 15.5919 8.83828 15.3449C8.2274 15.143 7.75703 15.1421 7.14865 15.3419C6.7224 15.4817 6.49528 15.5061 6.2219 15.4412Z" fill="black" fill-opacity="0.2"/>
      <path id="Vector_2" d="M6.2219 15.2949C5.97465 15.2361 5.76765 15.099 5.47803 14.8019C4.99428 14.3056 4.60153 14.0989 3.91915 13.9815C3.21115 13.8596 2.89665 13.5964 2.70753 12.968C2.47403 12.1921 2.23003 11.8206 1.6939 11.4246C1.08565 10.9754 0.929651 10.5793 1.07803 9.86126C1.21553 9.19639 1.1629 8.72364 0.883651 8.11576C0.550401 7.39064 0.591527 7.00314 1.06478 6.40901C1.49865 5.86426 1.63478 5.50426 1.69978 4.73001C1.76528 3.94864 1.98265 3.62814 2.6229 3.36876C3.15715 3.15226 3.61428 2.77639 3.86765 2.34526C4.16065 1.84664 4.2034 1.78951 4.38503 1.65401C4.67803 1.43539 4.9149 1.37489 5.36603 1.40314C6.14978 1.45226 6.56978 1.35814 7.09603 1.01551C7.78215 0.568886 8.19828 0.568886 8.8844 1.01551C9.41078 1.35814 9.83078 1.45226 10.6144 1.40314C11.3555 1.35664 11.6639 1.55114 12.1157 2.35026C12.3395 2.74614 12.797 3.13151 13.2979 3.34589C14.0112 3.65114 14.2184 3.92976 14.271 4.65376C14.328 5.43789 14.4888 5.87626 14.9147 6.40901C15.3889 7.00201 15.4303 7.38989 15.0968 8.11576C14.8177 8.72364 14.7649 9.19639 14.9024 9.86126C15.0509 10.5793 14.8948 10.9754 14.2867 11.4246C13.7505 11.8206 13.5065 12.1921 13.273 12.968C13.0839 13.5964 12.7693 13.8596 12.0614 13.9815C11.3774 14.0991 10.9844 14.3065 10.5024 14.8035C9.96815 15.3545 9.58515 15.4454 8.83828 15.1985C8.2274 14.9965 7.75703 14.9956 7.14865 15.1954C6.7224 15.3353 6.49528 15.3596 6.2219 15.2949Z" fill="white"/>
      <path id="Vector_3" d="M10.6159 7.38352C10.5697 7.28927 10.6092 7.17639 10.7034 7.13027C10.7975 7.08414 10.9105 7.12364 10.9566 7.21777C11.0027 7.31189 10.9632 7.42489 10.8691 7.47102C10.775 7.51714 10.662 7.47764 10.6159 7.38352ZM11.5317 9.26602C11.4856 9.17189 11.5251 9.05889 11.6192 9.01277C11.7134 8.96664 11.8264 9.00627 11.8725 9.10039C11.9186 9.19452 11.8791 9.30739 11.785 9.35352C11.6909 9.39964 11.5779 9.36014 11.5317 9.26602ZM11.6117 6.82339C11.0094 6.39327 10.2234 6.28214 9.49573 6.56364L11.4846 10.6534C12.1549 10.2553 12.5521 9.56727 12.586 8.82827L13.3409 8.88202C13.3512 8.88275 13.3616 8.88143 13.3714 8.87812C13.3812 8.87481 13.3903 8.86959 13.3981 8.86275C13.4059 8.85592 13.4122 8.8476 13.4168 8.83829C13.4213 8.82899 13.424 8.81886 13.4246 8.80852C13.4254 8.79819 13.424 8.78781 13.4208 8.77799C13.4175 8.76817 13.4122 8.7591 13.4054 8.7513C13.3986 8.74351 13.3903 8.73716 13.381 8.7326C13.3717 8.72804 13.3616 8.72538 13.3512 8.72477L12.5869 8.67014C12.5794 8.34827 12.5022 8.01977 12.3487 7.70352C12.1954 7.38814 11.9845 7.12464 11.736 6.91939L12.1652 6.28402C12.1765 6.26679 12.1806 6.24582 12.1766 6.22562C12.1726 6.20541 12.1608 6.1876 12.1437 6.176C12.1267 6.1644 12.1058 6.15995 12.0856 6.1636C12.0653 6.16725 12.0473 6.17871 12.0354 6.19552L11.6117 6.82252" fill="#3DDC84"/>
      <path id="Vector_4" d="M9.77811 8.36321C9.21711 8.63434 8.61374 8.77171 7.98499 8.77171C7.29988 8.77222 6.62542 8.60212 6.0225 8.27676C5.41957 7.9514 4.90715 7.48103 4.53149 6.90809C4.47224 6.81771 4.34986 6.79609 4.26236 6.86009L3.54036 7.39184C3.45849 7.45209 3.43961 7.56696 3.49699 7.65171C3.99091 8.38856 4.65879 8.99234 5.44158 9.40966C6.22436 9.82697 7.09792 10.045 7.98499 10.0443C8.80674 10.0443 9.59649 9.86459 10.3316 9.50971L9.77811 8.36321ZM7.58786 3.83859H8.36911V2.97546C8.36911 2.75984 8.19399 2.58484 7.97849 2.58484C7.76286 2.58484 7.58786 2.75984 7.58786 2.97546V3.83859Z" fill="#4285F4"/>
      <path id="Vector_5" d="M6.96189 5.52346L4.27639 11.0506C4.21834 11.1698 4.18687 11.3002 4.18414 11.4327L4.16814 12.1566C4.16439 12.344 4.38089 12.4493 4.52589 12.3307L5.08501 11.8713C5.18763 11.7873 5.27079 11.682 5.32876 11.5627L7.97564 6.11359L6.96276 5.52434L6.96189 5.52346ZM11.7736 11.4318C11.7709 11.2991 11.7389 11.1692 11.6814 11.0497L8.99601 5.52246L7.98314 6.11359L10.63 11.5607C10.6882 11.6799 10.7713 11.7852 10.8738 11.8695L11.4329 12.3288C11.5779 12.4475 11.7953 12.342 11.7906 12.1547L11.7746 11.4308L11.7736 11.4318Z" fill="#4285F4"/>
      <path id="Vector_6" d="M7.97839 3.7699C7.33177 3.7699 6.80652 4.29615 6.80652 4.94177C6.80652 5.58752 7.33277 6.11365 7.97839 6.11365C8.62414 6.11365 9.15027 5.58752 9.15027 4.94177C9.15027 4.29615 8.62414 3.7699 7.97839 3.7699ZM7.97839 5.58652C7.62364 5.58652 7.33364 5.29765 7.33364 4.94177C7.33364 4.58602 7.62264 4.29702 7.97839 4.29702C8.33427 4.29702 8.62327 4.58602 8.62327 4.94177C8.62327 5.29765 8.33427 5.58652 7.97839 5.58652Z" fill="#073042"/>
    </g>
  </g>
  <defs>
    <clipPath id="clip0_13184_20654">
      <rect width="16" height="16" fill="white"/>
    </clipPath>
  </defs>
</svg>
