<svg width="16" height="16" viewBox="0 0 16 16" fill="none" xmlns="http://www.w3.org/2000/svg">
<path d="M6.9597 9.84835V9.72109C6.9597 9.16966 7.00848 8.73912 7.10604 8.42947C7.20785 8.11558 7.35207 7.86743 7.53871 7.68504C7.72959 7.50264 7.96076 7.32873 8.23224 7.1633C8.51644 6.98514 8.75398 6.78154 8.94486 6.55248C9.13998 6.32343 9.23754 6.04559 9.23754 5.71897C9.23754 5.48143 9.18028 5.27571 9.06575 5.10179C8.95546 4.92788 8.80488 4.79214 8.614 4.69458C8.42736 4.59702 8.21739 4.54824 7.98409 4.54824C7.76776 4.54824 7.56204 4.5949 7.36691 4.68822C7.17179 4.78154 7.0106 4.92152 6.88335 5.10816C6.76034 5.29055 6.69035 5.52385 6.67338 5.80805H5C5.01273 5.2142 5.15483 4.72003 5.4263 4.32555C5.69777 3.93106 6.0562 3.63626 6.50159 3.44114C6.95122 3.24177 7.44751 3.14209 7.99046 3.14209C8.58431 3.14209 9.10604 3.24601 9.55567 3.45386C10.0095 3.65747 10.3637 3.95015 10.6182 4.33191C10.8727 4.71367 11 5.16542 11 5.68716C11 6.22162 10.8749 6.67125 10.6246 7.03605C10.3786 7.3966 10.0414 7.70413 9.61294 7.95863C9.36267 8.11134 9.15695 8.26192 8.99576 8.41038C8.83457 8.5546 8.7158 8.72852 8.63945 8.93212C8.5631 9.13148 8.52492 9.39448 8.52492 9.72109V9.84835H6.9597ZM7.75504 12.8579C7.44539 12.8579 7.19088 12.7625 6.99152 12.5716C6.79215 12.3807 6.69247 12.1368 6.69247 11.8399C6.69247 11.5429 6.79215 11.299 6.99152 11.1082C7.19088 10.913 7.44539 10.8155 7.75504 10.8155C8.06469 10.8155 8.31707 10.913 8.5122 11.1082C8.71156 11.299 8.81124 11.5429 8.81124 11.8399C8.81124 12.1368 8.71156 12.3807 8.5122 12.5716C8.31707 12.7625 8.06469 12.8579 7.75504 12.8579Z" fill="#169068"/>
</svg>
