<svg width="16" height="16" viewBox="0 0 16 16" fill="none" xmlns="http://www.w3.org/2000/svg">
<path fill-rule="evenodd" clip-rule="evenodd" d="M12 10C12 10.5523 11.5523 11 11 11C10.4477 11 10 10.5523 10 10C10 9.44772 10.4477 9 11 9C11.5523 9 12 9.44772 12 10ZM11.0864 11.9982C11.0578 11.9994 11.029 12 11 12C10.9711 12 10.9423 11.9994 10.9137 11.9982L10.2713 13.0293C10.5188 13.3418 10.6667 13.737 10.6667 14.1667C10.6667 15.1792 9.84586 16 8.83333 16C7.82081 16 7 15.1792 7 14.1667C7 13.1541 7.82081 12.3333 8.83333 12.3333C9.05289 12.3333 9.26343 12.3719 9.45854 12.4427L9.92821 11.6889C9.37022 11.334 9 10.7102 9 10C9 8.89543 9.89543 8 11 8C12.1046 8 13 8.89543 13 10C13 10.7102 12.6298 11.3339 12.0719 11.6888L12.5416 12.4426C12.7366 12.3719 12.9471 12.3333 13.1666 12.3333C14.1791 12.3333 14.9999 13.1541 14.9999 14.1667C14.9999 15.1792 14.1791 16 13.1666 16C12.1541 16 11.3333 15.1792 11.3333 14.1667C11.3333 13.7369 11.4811 13.3417 11.7288 13.0291L11.0864 11.9982ZM9.66667 14.1667C9.66667 14.6269 9.29357 15 8.83333 15C8.3731 15 8 14.6269 8 14.1667C8 13.7064 8.3731 13.3333 8.83333 13.3333C9.29357 13.3333 9.66667 13.7064 9.66667 14.1667ZM13.1666 15C13.6268 15 13.9999 14.6269 13.9999 14.1667C13.9999 13.7064 13.6268 13.3333 13.1666 13.3333C12.7063 13.3333 12.3333 13.7064 12.3333 14.1667C12.3333 14.6269 12.7063 15 13.1666 15Z" fill="#090909"/>
<path fill-rule="evenodd" clip-rule="evenodd" d="M7.14251 5.0145L7.43381 5.5H8H14V11.5H15V5.5V4.5H14H8L6.5 2H2H1V3V12C1 13.1046 1.89543 14 3 14H6V13H3C2.44772 13 2 12.5523 2 12V3H5.93381L7.14251 5.0145Z" fill="#090909"/>
</svg>
