<svg width="16" height="16" viewBox="0 0 16 16" fill="none" xmlns="http://www.w3.org/2000/svg">
<path fill-rule="evenodd" clip-rule="evenodd" d="M7.14251 5.0145L7.43381 5.5H8H14V8H15V5.5V4.5H14H8L6.5 2H2H1V3V12C1 13.1046 1.89543 14 3 14H8V13H3C2.44772 13 2 12.5523 2 12V3H5.93381L7.14251 5.0145Z" fill="#E0E1E4"/>
<path fill-rule="evenodd" clip-rule="evenodd" d="M13.6646 15.2528C12.8507 15.2528 12.1909 14.593 12.1909 13.7792C12.1909 12.9657 12.8507 12.3055 13.6646 12.3055C14.4784 12.3055 15.1383 12.9657 15.1383 13.7792C15.1383 14.593 14.4784 15.2528 13.6646 15.2528ZM10.7249 11.8752C10.2162 11.8752 9.80389 11.4625 9.80389 10.9541C9.80389 10.4453 10.2162 10.0331 10.7249 10.0331C11.2337 10.0331 11.646 10.4453 11.646 10.9541C11.646 11.4625 11.2337 11.8752 10.7249 11.8752ZM13.7298 9H11.2702C10.0168 9 9 10.0168 9 11.2706V13.7298C9 14.9839 10.0168 16 11.2702 16H13.7298C14.9839 16 16 14.9839 16 13.7298V11.2706C16 10.0168 14.9839 9 13.7298 9Z" fill="#2A7DEB"/>
</svg>
