<svg width="16" height="16" viewBox="0 0 16 16" fill="none" xmlns="http://www.w3.org/2000/svg">
<g clip-path="url(#clip0_2780_105508)">
<path fill-rule="evenodd" clip-rule="evenodd" d="M13 3H3C2.44772 3 2 3.44772 2 4V5H14V4C14 3.44772 13.5523 3 13 3ZM2 12V6H7H14H15V4C15 2.89543 14.1046 2 13 2H3C1.89543 2 1 2.89543 1 4V12C1 13.1046 1.89543 14 3 14H7V13H3C2.44772 13 2 12.5523 2 12Z" fill="#2A7DEB"/>
<path d="M9.27834 16L9.63834 13.9H8.82234V12.7H9.84234L10.1903 10.54H9.24234V9.34H10.3943L10.7663 7.24H11.9663L11.5943 9.34H13.1543L13.5263 7.24H14.7263L14.3543 9.34H15.1823V10.54H14.1503L13.8023 12.7H14.7623V13.9H13.5983L13.2383 16H12.0383L12.3983 13.9H10.8383L10.4783 16H9.27834ZM11.0423 12.7H12.6023L12.9503 10.54H11.3903L11.0423 12.7Z" fill="#169068"/>
</g>
<defs>
<clipPath id="clip0_2780_105508">
<rect width="16" height="16" fill="white"/>
</clipPath>
</defs>
</svg>
