<svg width="16" height="16" viewBox="0 0 16 16" fill="none" xmlns="http://www.w3.org/2000/svg">
<path d="M11.5 5.5L13.6464 3.35355C13.9614 3.03857 14.5 3.26165 14.5 3.70711V7V9.25V9.5C14.5 11.1569 13.1569 12.5 11.5 12.5H8.5C6.84315 12.5 5.5 11.1569 5.5 9.5V3.70711C5.5 3.26165 6.03857 3.03857 6.35355 3.35355L8.5 5.5H11.5Z" stroke="#090909" stroke-linecap="round"/>
<path d="M10.1889 10.2818C10.0892 10.3969 9.91057 10.3969 9.81088 10.2818L9.05906 9.41366C8.91885 9.25175 9.03386 9 9.24805 9H10.7517C10.9659 9 11.0809 9.25175 10.9407 9.41366L10.1889 10.2818Z" fill="#090909"/>
<path d="M7.75 8.5C8.16421 8.5 8.5 8.16421 8.5 7.75C8.5 7.33579 8.16421 7 7.75 7C7.33579 7 7 7.33579 7 7.75C7 8.16421 7.33579 8.5 7.75 8.5Z" fill="#090909"/>
<path d="M12.25 8.5C12.6642 8.5 13 8.16421 13 7.75C13 7.33579 12.6642 7 12.25 7C11.8358 7 11.5 7.33579 11.5 7.75C11.5 8.16421 11.8358 8.5 12.25 8.5Z" fill="#090909"/>
<path d="M1.5 5.5H5.5" stroke="#090909" stroke-linecap="square"/>
<path d="M2.5 8.5H5.5" stroke="#090909" stroke-linecap="square"/>
<path d="M2.5 11.5H6" stroke="#090909" stroke-linecap="square"/>
</svg>
