<svg width="16" height="16" viewBox="0 0 16 16" fill="none" xmlns="http://www.w3.org/2000/svg">
<g clip-path="url(#clip0_966_4800)">
<path d="M16 14.9819V6.48979C16 6.08252 15.7572 5.71437 15.383 5.55394L6.01033 1.53692C5.88364 1.48266 5.74705 1.45459 5.60916 1.45459H1.01818C0.455855 1.45459 0 1.91044 0 2.47277V6.96426C0 7.16543 0.0596364 7.36208 0.171345 7.5295L5.52218 15.5467C5.71098 15.8297 6.0288 15.9996 6.36902 15.9996L14.9818 16C15.5441 16 16 15.5442 16 14.9819Z" fill="url(#paint0_linear_966_4800)"/>
<path d="M14.5455 3.62982V1.01818C14.5455 0.455855 14.0896 0 13.5273 0H10.2541C10.206 0 10.1578 0.00349091 10.1101 0.0101818L0.874182 1.3296C0.372509 1.40116 0 1.83084 0 2.33745V6.25571C0 6.81818 0.456 7.27404 1.01847 7.27389L5.65309 7.27273C5.76247 7.27273 5.87113 7.25513 5.97484 7.22051L13.8493 4.59564C14.265 4.45702 14.5455 4.06793 14.5455 3.62967V3.62982Z" fill="url(#paint1_linear_966_4800)"/>
<path d="M14.5439 3.98691L14.5435 1.01804C14.5435 0.455854 14.0876 0 13.5253 0H10.6486C10.3515 0 10.069 0.129891 9.87552 0.355491L1.69822 9.89586C1.54011 10.0804 1.45312 10.3155 1.45312 10.5585V13.5274C1.45312 14.0897 1.90898 14.5456 2.47131 14.5456H5.3484C5.64556 14.5456 5.92803 14.4157 6.12149 14.1901L14.2988 4.64975C14.4571 4.46516 14.5439 4.23011 14.5439 3.98691Z" fill="#FF318C"/>
<path d="M13 3H3V13H13V3Z" fill="black"/>
<path d="M8 11H4.5V11.5H8V11Z" fill="white"/>
<path d="M6.05768 8.23128C5.70039 8.23128 5.37682 8.14757 5.08696 7.98057C4.79725 7.81157 4.56968 7.58057 4.40425 7.28728C4.23896 6.99228 4.15625 6.66328 4.15625 6.30057C4.15625 5.93785 4.23896 5.60985 4.40425 5.31657C4.56954 5.02157 4.79711 4.79028 5.08696 4.62328C5.37668 4.45428 5.70025 4.37 6.05768 4.37C6.35982 4.37 6.63725 4.426 6.88968 4.538C7.14211 4.65 7.35182 4.80728 7.51896 5.01C7.68782 5.211 7.80068 5.442 7.85768 5.70328H7.09496C7.04511 5.56828 6.97054 5.45 6.87096 5.34857C6.77311 5.24557 6.65496 5.16628 6.51625 5.11128C6.37754 5.05628 6.22639 5.02857 6.06296 5.02857C5.84254 5.02857 5.64339 5.08357 5.46568 5.19385C5.28796 5.30414 5.14839 5.45614 5.04696 5.64985C4.94739 5.84185 4.89768 6.05885 4.89768 6.30057C4.89768 6.54228 4.94739 6.76028 5.04696 6.95385C5.14825 7.14585 5.28782 7.29685 5.46568 7.40714C5.64339 7.51742 5.84254 7.57242 6.06296 7.57242C6.22654 7.57242 6.37768 7.54471 6.51625 7.48971C6.65496 7.43471 6.77311 7.35642 6.87096 7.255C6.97054 7.152 7.04511 7.03271 7.09496 6.89771H7.85768C7.80082 7.15899 7.68782 7.391 7.51896 7.59371C7.35182 7.79471 7.14211 7.951 6.88968 8.063C6.63725 8.175 6.35982 8.231 6.05768 8.231V8.23128ZM9.10639 4.43385V7.51114H10.8771V8.16714H8.38111V4.43385H9.10639Z" fill="white"/>
</g>
<defs>
<linearGradient id="paint0_linear_966_4800" x1="0.995346" y1="1.05561" x2="15.6717" y2="15.7318" gradientUnits="userSpaceOnUse">
<stop offset="0.29" stop-color="#009AE5"/>
<stop offset="0.7" stop-color="#00D980"/>
</linearGradient>
<linearGradient id="paint1_linear_966_4800" x1="14.0947" y1="-0.179345" x2="0.688146" y2="6.03636" gradientUnits="userSpaceOnUse">
<stop offset="0.3" stop-color="#FF318C"/>
<stop offset="0.54" stop-color="#009AE5"/>
</linearGradient>
<clipPath id="clip0_966_4800">
<rect width="16" height="16" fill="white"/>
</clipPath>
</defs>
</svg>
