<svg width="64" height="64" viewBox="0 0 64 64" fill="none" xmlns="http://www.w3.org/2000/svg">
<g clip-path="url(#clip0_4372_12084)">
<path d="M64 59.9275V25.9592C64 24.3301 63.0289 22.8575 61.5319 22.2157L24.0413 6.14767C23.5345 5.93065 22.9882 5.81836 22.4367 5.81836H4.07273C1.82342 5.81836 0 7.64178 0 9.89109V27.8571C0 28.6617 0.238545 29.4483 0.685382 30.118L22.0887 62.1866C22.8439 63.3189 24.1152 63.9984 25.4761 63.9984L59.9273 64.0002C62.1766 64.0002 64 62.1768 64 59.9275Z" fill="url(#paint0_linear_4372_12084)"/>
<path d="M58.1818 14.5193V4.07273C58.1818 1.82342 56.3584 0 54.1091 0H41.0164C40.8239 0 40.6313 0.0139636 40.4404 0.0407273L3.49673 5.3184C1.49062 5.60465 0 7.32334 0 9.34982V25.0228C0 27.2727 1.824 29.0961 4.07389 29.0956L22.6124 29.0909C23.0499 29.0909 23.4845 29.0205 23.8993 28.882L55.3972 18.3825C57.0601 17.8281 58.1818 16.2717 58.1818 14.5187V14.5193Z" fill="url(#paint1_linear_4372_12084)"/>
<path d="M58.182 15.9476L58.1802 4.07215C58.1797 1.82342 56.3563 0 54.1075 0H42.6009C41.4123 0 40.2824 0.519564 39.5085 1.42196L6.79872 39.5834C6.16629 40.3217 5.81836 41.262 5.81836 42.2342V54.1097C5.81836 56.359 7.64178 58.1824 9.89109 58.1824H21.3994C22.5881 58.1824 23.718 57.6628 24.4918 56.7604L57.2016 18.599C57.8347 17.8607 58.182 16.9204 58.182 15.9476Z" fill="#F0EB18"/>
<path d="M52 12H12V52H52V12Z" fill="black"/>
<path d="M17.1001 16.965H22.8145C24.2366 16.965 25.5088 17.2866 26.6312 17.9299C27.7604 18.5732 28.6432 19.4709 29.2796 20.6105C29.9154 21.7495 30.2336 23.0361 30.2336 24.4702C30.2336 25.9044 29.9154 27.191 29.2796 28.3432C28.6432 29.4822 27.7604 30.3667 26.6312 31.01C25.5088 31.6533 24.2366 31.9749 22.8145 31.9749H17.1001V16.965ZM22.7823 29.4426C23.676 29.4426 24.4583 29.2415 25.1303 28.8395C25.8024 28.4506 26.3204 27.8745 26.6852 27.1238C27.0499 26.3731 27.232 25.4886 27.232 24.4702C27.232 23.4519 27.0499 22.5674 26.6852 21.8167C26.3204 21.066 25.8024 20.4899 25.1303 20.101C24.4583 19.699 23.6755 19.4979 22.7823 19.4979H20.0271V29.442H22.7823V29.4426ZM37.2604 32.23C36.1743 32.23 35.2094 32.0421 34.3656 31.6401C33.5293 31.2518 32.8717 30.7021 32.3927 29.9917C31.9211 29.2812 31.6781 28.4638 31.6638 27.5523H34.6017C34.6017 27.9814 34.716 28.3696 34.9446 28.6913C35.1732 29.0261 35.4914 29.2812 35.8986 29.4684C36.3058 29.6562 36.7745 29.7498 37.3029 29.7498C37.8313 29.7498 38.2535 29.6562 38.6326 29.4954C39.0186 29.3214 39.3155 29.0933 39.5223 28.7849C39.7365 28.4903 39.8439 28.1416 39.8439 27.7665C39.8439 27.2841 39.6975 26.882 39.4045 26.5736C39.1185 26.2519 38.7222 26.0377 38.2144 25.9171L35.566 25.3272C34.8515 25.1664 34.2295 24.8982 33.7005 24.5231C33.1715 24.1342 32.7608 23.6656 32.4673 23.1027C32.1744 22.5266 32.0279 21.8965 32.0279 21.186C32.0279 20.3285 32.2496 19.564 32.6925 18.8811C33.1359 18.1976 33.7539 17.6617 34.5471 17.2861C35.3403 16.8972 36.2409 16.71 37.2489 16.71C38.257 16.71 39.1823 16.8972 39.9829 17.2591C40.7836 17.6341 41.4056 18.1568 41.8485 18.8139C42.2988 19.4704 42.5274 20.2343 42.5348 21.0924H39.6079C39.6079 20.7305 39.5114 20.4089 39.3184 20.1142C39.1254 19.8196 38.8503 19.6048 38.493 19.444C38.1427 19.2831 37.7389 19.1895 37.2817 19.1895C36.8245 19.1895 36.4207 19.2699 36.0703 19.4307C35.7274 19.5784 35.4592 19.7926 35.2662 20.074C35.0732 20.3423 34.9767 20.6639 34.9767 21.0258C34.9767 21.441 35.1088 21.7897 35.3736 22.0579C35.6453 22.3261 36.0135 22.5272 36.4781 22.634L39.0301 23.1969C39.7664 23.3445 40.4206 23.6259 40.9921 24.0544C41.5711 24.4697 42.0214 24.9791 42.343 25.5954C42.6647 26.1985 42.8255 26.8688 42.8255 27.5925C42.8255 28.477 42.5894 29.2679 42.1179 29.9779C41.6532 30.6746 40.9996 31.2375 40.1558 31.6263C39.3126 32.0284 38.3477 32.2294 37.261 32.2294L37.2604 32.23Z" fill="white"/>
<path d="M33 44H17V47H33V44Z" fill="white"/>
</g>
<defs>
<linearGradient id="paint0_linear_4372_12084" x1="3.98196" y1="4.22243" x2="62.6868" y2="62.9273" gradientUnits="userSpaceOnUse">
<stop offset="0.28" stop-color="#007DFE"/>
<stop offset="0.73" stop-color="#00D980"/>
</linearGradient>
<linearGradient id="paint1_linear_4372_12084" x1="56.3788" y1="-0.717381" x2="1.93862" y2="24.5231" gradientUnits="userSpaceOnUse">
<stop offset="0.32" stop-color="#F0EB18"/>
<stop offset="0.55" stop-color="#007DFE"/>
</linearGradient>
<clipPath id="clip0_4372_12084">
<rect width="64" height="64" fill="white"/>
</clipPath>
</defs>
</svg>
