<svg width="16" height="16" viewBox="0 0 16 16" fill="none" xmlns="http://www.w3.org/2000/svg">
<g clip-path="url(#clip0_966_4809)">
<path d="M1.45312 12.0131L1.45356 14.982C1.45356 15.5443 1.90942 16 2.47174 16H5.3484C5.64556 16 5.92803 15.8701 6.12149 15.6445L14.2989 6.10415C14.457 5.91957 14.544 5.68452 14.544 5.44146V2.47259C14.544 1.91026 14.0882 1.45441 13.5258 1.45441H10.6488C10.3516 1.45441 10.0691 1.5843 9.87567 1.8099L1.69822 11.3503C1.53996 11.5348 1.45312 11.7699 1.45312 12.0131Z" fill="#00D886"/>
<path d="M1.45312 12.3701V14.9818C1.45312 15.5441 1.90898 16 2.47131 16H5.74447C5.79261 16 5.84076 15.9965 5.88847 15.9898L15.1244 14.6705C15.6261 14.5988 15.9986 14.1693 15.9986 13.6625V9.74426C15.9986 9.18178 15.5426 8.72593 14.9801 8.72607L10.3455 8.72724C10.2361 8.72724 10.1274 8.74484 10.0237 8.77946L2.14927 11.4043C1.73356 11.5429 1.45312 11.932 1.45312 12.3703V12.3701Z" fill="url(#paint0_linear_966_4809)"/>
<path d="M0 1.01818V9.51025C0 9.91753 0.242764 10.2857 0.617018 10.4461L9.98967 14.4631C10.1164 14.5174 10.2529 14.5455 10.3908 14.5455H14.9818C15.5441 14.5455 16 14.0896 16 13.5273V9.03578C16 8.83462 15.9404 8.63796 15.8287 8.47054L10.4778 0.453382C10.289 0.170327 9.97134 0.000436364 9.63098 0.000436364L1.01818 0C0.455854 0 0 0.455854 0 1.01818Z" fill="url(#paint1_linear_966_4809)"/>
<path d="M13 3H3V13H13V3Z" fill="black"/>
<path d="M11.1109 8.3L10.2061 6.77785C10.2665 6.75865 10.3306 6.74469 10.3862 6.71896C10.5925 6.61717 10.7508 6.47801 10.8612 6.29829C10.9733 6.11841 11.0294 5.9115 11.0294 5.6739C11.0294 5.4363 10.9742 5.23621 10.8638 5.05983C10.7552 4.88345 10.5996 4.74429 10.3969 4.64585C10.1942 4.5474 9.95996 4.5 9.69386 4.5H8.0625V8.3H8.80351V6.8648H9.44302L10.2611 8.3H11.1107H11.1109ZM8.8038 5.11756H9.64529C9.77019 5.11756 9.87867 5.14126 9.97101 5.18546C10.0651 5.23287 10.1375 5.29743 10.1881 5.38235C10.2387 5.46712 10.2642 5.56556 10.2642 5.68088C10.2642 5.79619 10.2389 5.89463 10.1881 5.98289C10.1374 6.06767 10.0651 6.13223 9.97101 6.17963C9.87867 6.22718 9.77019 6.24754 9.64529 6.24754H8.8038V5.1177V5.11756Z" fill="white"/>
<path d="M5.2099 6.8648H5.84942L6.66749 8.3H7.51713L6.61238 6.77785C6.67273 6.75865 6.73686 6.74469 6.7924 6.71896C6.99874 6.61717 7.15695 6.47801 7.26746 6.29829C7.37957 6.11841 7.4357 5.9115 7.4357 5.6739C7.4357 5.4363 7.38044 5.23621 7.27007 5.05983C7.16145 4.88345 7.00586 4.74429 6.80316 4.64585C6.60046 4.5474 6.36621 4.5 6.10011 4.5H4.46875V8.3H5.20976V6.8648H5.2099ZM5.2099 5.11756H6.05139C6.1763 5.11756 6.28478 5.14126 6.37711 5.18546C6.47119 5.23287 6.54361 5.29743 6.59435 5.38235C6.64496 5.46712 6.6704 5.56556 6.6704 5.68088C6.6704 5.79619 6.6451 5.89463 6.59435 5.98289C6.54361 6.06767 6.47134 6.13223 6.37711 6.17963C6.28478 6.22718 6.1763 6.24754 6.05139 6.24754H5.2099V5.1177V5.11756Z" fill="white"/>
<path d="M8 11H4.5V11.5H8V11Z" fill="white"/>
</g>
<defs>
<linearGradient id="paint0_linear_966_4809" x1="1.90389" y1="16.1793" x2="15.3104" y2="9.9636" gradientUnits="userSpaceOnUse">
<stop offset="0.08" stop-color="#00D886"/>
<stop offset="0.46" stop-color="#FFAB00"/>
</linearGradient>
<linearGradient id="paint1_linear_966_4809" x1="15.0047" y1="14.9444" x2="0.328291" y2="0.268218" gradientUnits="userSpaceOnUse">
<stop offset="0.19" stop-color="#FFAB00"/>
<stop offset="0.83" stop-color="#FF004C"/>
</linearGradient>
<clipPath id="clip0_966_4809">
<rect width="16" height="16" fill="white"/>
</clipPath>
</defs>
</svg>
