<svg width="16" height="16" viewBox="0 0 16 16" fill="none" xmlns="http://www.w3.org/2000/svg">
<path d="M8.49976 1.67952V4.43321C8.49976 4.80658 8.49976 4.99326 8.57242 5.13587C8.63633 5.26131 8.73832 5.3633 8.86376 5.42722C9.00637 5.49988 9.19306 5.49988 9.56642 5.49988H12.3201M12.4998 6.82536L12.4992 10.2999C12.4992 11.42 12.4992 11.98 12.2812 12.4079C12.0895 12.7842 11.7835 13.0901 11.4072 13.2819C10.9794 13.4999 10.4193 13.4999 9.2992 13.4999H5.69976C4.57965 13.4999 4.0196 13.4999 3.59177 13.2819C3.21545 13.0901 2.90949 12.7842 2.71774 12.4079C2.49976 11.98 2.49976 11.42 2.49976 10.2999L2.50032 4.69988C2.50032 3.57977 2.50032 3.01972 2.7183 2.5919C2.91005 2.21557 3.21601 1.90961 3.59234 1.71786C4.02016 1.49988 4.58021 1.49988 5.70032 1.49988H7.17427C7.66345 1.49988 7.90804 1.49988 8.13822 1.55514C8.34229 1.60413 8.53738 1.68494 8.71633 1.7946C8.91816 1.91828 9.09111 2.09123 9.43701 2.43714L11.5625 4.56262C11.9084 4.90852 12.0814 5.08147 12.205 5.28331C12.3147 5.46225 12.3955 5.65734 12.4445 5.86141C12.4998 6.09159 12.4998 6.33618 12.4998 6.82536Z" stroke="#E0E1E4" stroke-linecap="round" stroke-linejoin="round"/>
</svg>
