<svg width="16" height="16" viewBox="0 0 16 16" fill="none" xmlns="http://www.w3.org/2000/svg">
<path fill-rule="evenodd" clip-rule="evenodd" d="M6.6402 2.92762C7.07308 2.81191 7.52873 2.75 8 2.75C8.47127 2.75 8.92692 2.81191 9.3598 2.92762L9.74716 1.47849C9.18906 1.32931 8.60322 1.25 8 1.25C7.39678 1.25 6.81094 1.32931 6.25284 1.47849L6.6402 2.92762ZM3.45214 5.37512C3.91326 4.57816 4.57816 3.91326 5.37513 3.45214L4.62392 2.1538C3.59986 2.74631 2.74631 3.59986 2.1538 4.62392L3.45214 5.37512ZM10.6249 3.45214C11.4218 3.91326 12.0867 4.57816 12.5479 5.37513L13.8462 4.62392C13.2537 3.59986 12.4001 2.74631 11.3761 2.1538L10.6249 3.45214ZM2.75 8C2.75 7.52873 2.81191 7.07308 2.92762 6.6402L1.47849 6.25284C1.32931 6.81094 1.25 7.39678 1.25 8C1.25 8.60322 1.32931 9.18906 1.47849 9.74716L2.92762 9.3598C2.81191 8.92692 2.75 8.47127 2.75 8ZM13.0724 6.6402C13.1881 7.07308 13.25 7.52873 13.25 8C13.25 8.47127 13.1881 8.92692 13.0724 9.3598L14.5215 9.74716C14.6707 9.18906 14.75 8.60322 14.75 8C14.75 7.39678 14.6707 6.81094 14.5215 6.25284L13.0724 6.6402ZM5.37512 12.5479C4.57816 12.0867 3.91326 11.4218 3.45214 10.6249L2.1538 11.3761C2.74631 12.4001 3.59986 13.2537 4.62392 13.8462L5.37512 12.5479ZM12.5479 10.6249C12.0867 11.4218 11.4218 12.0867 10.6249 12.5479L11.3761 13.8462C12.4001 13.2537 13.2537 12.4001 13.8462 11.3761L12.5479 10.6249ZM8 13.25C7.52873 13.25 7.07308 13.1881 6.6402 13.0724L6.25284 14.5215C6.81094 14.6707 7.39678 14.75 8 14.75C8.60322 14.75 9.18906 14.6707 9.74716 14.5215L9.3598 13.0724C8.92692 13.1881 8.47127 13.25 8 13.25ZM11.0303 7.03033L11.5607 6.5L10.5 5.43934L9.96967 5.96967L7 8.93934L6.03033 7.96967L5.5 7.43934L4.43934 8.5L4.96967 9.03033L6.46967 10.5303L7 11.0607L7.53033 10.5303L11.0303 7.03033Z" fill="#169068"/>
</svg>
