<svg width="16" height="16" viewBox="0 0 16 16" fill="none" xmlns="http://www.w3.org/2000/svg">
<path fill-rule="evenodd" clip-rule="evenodd" d="M10.1084 2.13794C9.42279 1.6809 8.50232 1.81863 7.98057 2.45632L4.2394 7.0288C4.1627 7.00995 4.08252 6.99996 4 6.99996H2C1.44772 6.99996 1 7.44767 1 7.99996V13C1 13.5522 1.44772 14 2 14H3.99994H4H10.3858C11.865 14 13.1844 13.0701 13.6819 11.6771L14.7549 8.67262C15.2201 7.37013 14.2545 5.99996 12.8714 5.99996H10.1628L10.7599 3.91041C10.9512 3.24078 10.6878 2.52425 10.1084 2.13794ZM5 13H10.3858C11.4424 13 12.3848 12.3358 12.7402 11.3408L13.8132 8.33629C14.0458 7.68504 13.563 6.99996 12.8714 6.99996H9.49994C9.34304 6.99996 9.19524 6.92631 9.10076 6.80105C9.00628 6.67579 8.97607 6.51345 9.01918 6.36259L9.79834 3.63568C9.8702 3.38418 9.77128 3.11508 9.55365 2.96999C9.29618 2.79834 8.95047 2.85007 8.75452 3.08957L4.96176 7.72511C4.98666 7.81243 5 7.90464 5 7.99996V13ZM2 7.99996H4V13H3.99994H2V7.99996Z" fill="white" fill-opacity="0.44"/>
</svg>
