<svg width="16" height="16" viewBox="0 0 16 16" fill="none" xmlns="http://www.w3.org/2000/svg">
<path fill-rule="evenodd" clip-rule="evenodd" d="M5.05409 5H4.33333H3C2.44772 5 2 5.44772 2 6V12C2 12.5523 2.44772 13 3 13H13C13.5523 13 14 12.5523 14 12V6C14 5.44772 13.5523 5 13 5H11.6667H10.9459L10.718 4.31623L10.2792 3L5.72076 3L5.28202 4.31623L5.05409 5ZM11.2279 2.68377C11.0918 2.27543 10.7097 2 10.2792 2H5.72076C5.29033 2 4.90819 2.27543 4.77208 2.68377L4.33333 4H3C1.89543 4 1 4.89543 1 6V12C1 13.1046 1.89543 14 3 14H13C14.1046 14 15 13.1046 15 12V6C15 4.89543 14.1046 4 13 4H11.6667L11.2279 2.68377ZM8 10.5C9.10457 10.5 10 9.60457 10 8.5C10 7.39543 9.10457 6.5 8 6.5C6.89543 6.5 6 7.39543 6 8.5C6 9.60457 6.89543 10.5 8 10.5ZM8 11.5C9.65685 11.5 11 10.1569 11 8.5C11 6.84315 9.65685 5.5 8 5.5C6.34315 5.5 5 6.84315 5 8.5C5 10.1569 6.34315 11.5 8 11.5ZM13 6H12V7H13V6Z" fill="#E0E1E4"/>
</svg>
