<svg width="16" height="16" viewBox="0 0 16 16" fill="none" xmlns="http://www.w3.org/2000/svg">
<path fill-rule="evenodd" clip-rule="evenodd" d="M8 0.5C8.27614 0.5 8.5 0.723858 8.5 1V3C8.5 3.27614 8.27614 3.5 8 3.5C7.72386 3.5 7.5 3.27614 7.5 3V1C7.5 0.723858 7.72386 0.5 8 0.5ZM8 11C9.65685 11 11 9.65685 11 8C11 6.34315 9.65685 5 8 5C6.34315 5 5 6.34315 5 8C5 9.65685 6.34315 11 8 11ZM8 12C10.2091 12 12 10.2091 12 8C12 5.79086 10.2091 4 8 4C5.79086 4 4 5.79086 4 8C4 10.2091 5.79086 12 8 12ZM12.3536 4.06066L13.0607 3.35355C13.256 3.15829 13.256 2.84171 13.0607 2.64645C12.8654 2.45118 12.5489 2.45118 12.3536 2.64645L11.6465 3.35355C11.4512 3.54882 11.4512 3.8654 11.6465 4.06066C11.8418 4.25592 12.1583 4.25592 12.3536 4.06066ZM15.5 8C15.5 8.27614 15.2761 8.5 15 8.5H13C12.7239 8.5 12.5 8.27614 12.5 8C12.5 7.72386 12.7239 7.5 13 7.5H15C15.2761 7.5 15.5 7.72386 15.5 8ZM11.9393 12.6465C11.744 12.4513 11.744 12.1347 11.9393 11.9394C12.1346 11.7442 12.4511 11.7442 12.6464 11.9394L13.3535 12.6465C13.5488 12.8418 13.5488 13.1584 13.3535 13.3536C13.1582 13.5489 12.8417 13.5489 12.6464 13.3536L11.9393 12.6465ZM8 15.5C8.27614 15.5 8.5 15.2761 8.5 15V13C8.5 12.7239 8.27614 12.5 8 12.5C7.72386 12.5 7.5 12.7239 7.5 13V15C7.5 15.2761 7.72386 15.5 8 15.5ZM3.35355 13.3536C3.15829 13.5488 2.84171 13.5488 2.64645 13.3536C2.45118 13.1583 2.45118 12.8417 2.64645 12.6464L3.35355 11.9393C3.54882 11.7441 3.8654 11.7441 4.06066 11.9393C4.25592 12.1346 4.25592 12.4512 4.06066 12.6464L3.35355 13.3536ZM3 7.5C3.27614 7.5 3.5 7.72386 3.5 8C3.5 8.27614 3.27614 8.5 3 8.5H1C0.723858 8.5 0.5 8.27614 0.5 8C0.5 7.72386 0.723858 7.5 1 7.5H3ZM3.35355 2.64645C3.15829 2.45118 2.84171 2.45118 2.64645 2.64645C2.45118 2.84171 2.45118 3.15829 2.64645 3.35355L3.35355 4.06066C3.54882 4.25592 3.8654 4.25592 4.06066 4.06066C4.25592 3.8654 4.25592 3.54882 4.06066 3.35355L3.35355 2.64645Z" fill="#E0E1E4"/>
</svg>
