<svg width="16" height="16" viewBox="0 0 16 16" fill="none" xmlns="http://www.w3.org/2000/svg">
<path d="M2.78 4.46C2.25261 4.06446 1.5 4.44076 1.5 5.1V11C1.5 11.8284 2.17157 12.5 3 12.5H13C13.8284 12.5 14.5 11.8284 14.5 11V5.1C14.5 4.44077 13.7474 4.06446 13.22 4.46L8.3 8.15C8.12222 8.28333 7.87778 8.28333 7.7 8.15L2.78 4.46Z" stroke="#E0E1E4"/>
<path d="M3 3.5C2.17157 3.5 1.5 4.17157 1.5 5V11C1.5 11.8284 2.17157 12.5 3 12.5H13C13.8284 12.5 14.5 11.8284 14.5 11V5C14.5 4.17157 13.8284 3.5 13 3.5H3Z" stroke="#E0E1E4"/>
</svg>
