<svg width="48" height="48" viewBox="0 0 48 48" fill="none" xmlns="http://www.w3.org/2000/svg">
<path fill-rule="evenodd" clip-rule="evenodd" d="M24 38C31.732 38 38 31.732 38 24C38 16.268 31.732 10 24 10C16.268 10 10 16.268 10 24C10 31.732 16.268 38 24 38ZM40 24C40 32.8366 32.8366 40 24 40C15.1634 40 8 32.8366 8 24C8 15.1634 15.1634 8 24 8C32.8366 8 40 15.1634 40 24ZM22.5 15.5C22.5 14.6716 23.1716 14 24 14C24.8284 14 25.5 14.6716 25.5 15.5V25.5C25.5 26.3284 24.8284 27 24 27C23.1716 27 22.5 26.3284 22.5 25.5V15.5ZM24 30.5C22.8954 30.5 22 31.3954 22 32.5C22 33.6046 22.8954 34.5 24 34.5C25.1046 34.5 26 33.6046 26 32.5C26 31.3954 25.1046 30.5 24 30.5Z" fill="#E1465E"/>
</svg>
