<svg width="16" height="16" viewBox="0 0 16 16" fill="none" xmlns="http://www.w3.org/2000/svg">
<path d="M4.15123 11.8488L1.92722 9.62475C1.66343 9.35428 1.5 8.97198 1.5 8.59828C1.5 8.42529 1.59749 8.15482 1.67108 7.99999L3.72401 3.724L4.15123 11.8488Z" fill="#01579B"/>
<path d="M11.7634 4.15123L9.53935 1.92722C9.34533 1.73225 8.94105 1.5 8.5989 1.5C8.30453 1.5 8.01589 1.55926 7.82952 1.67108L3.72461 3.72401L11.7634 4.15123Z" fill="#29B6F6"/>
<path fill-rule="evenodd" clip-rule="evenodd" d="M4.15085 11.8486C3.80965 11.5055 3.72363 11.3373 3.72363 10.6511V3.72388L8.4278 7.91481L12.1906 12.1908H12.1902L12.1907 12.191V14.5H6.80224L4.49316 12.191L4.49363 12.1908H4.49301L4.15085 11.8486Z" fill="#29B6F6"/>
<path d="M10.5658 3.72302H3.72363L12.1906 12.1899H14.4996V6.88749L11.7624 4.15024C11.3782 3.76508 11.037 3.72302 10.5658 3.72302Z" fill="#01579B"/>
</svg>
