<svg width="16" height="16" viewBox="0 0 16 16" fill="none" xmlns="http://www.w3.org/2000/svg">
<path d="M2.33527 11.09C1.64527 11.09 1.09627 10.904 0.688273 10.532C0.286273 10.154 0.0852735 9.647 0.0852735 9.011H1.43527C1.43527 9.287 1.51627 9.509 1.67827 9.677C1.84027 9.839 2.05927 9.92 2.33527 9.92C2.61127 9.92 2.83027 9.842 2.99227 9.686C3.15427 9.524 3.23527 9.305 3.23527 9.029V5.645H1.39027V4.43H4.58527V9.029C4.58527 9.665 4.38427 10.169 3.98227 10.541C3.58027 10.907 3.03127 11.09 2.33527 11.09ZM8.00176 11.09C7.53976 11.09 7.13776 11.012 6.79576 10.856C6.45376 10.7 6.18976 10.481 6.00376 10.199C5.81776 9.917 5.72476 9.584 5.72476 9.2H7.07476C7.07476 9.422 7.15876 9.599 7.32676 9.731C7.50076 9.857 7.73476 9.92 8.02876 9.92C8.31076 9.92 8.52976 9.857 8.68576 9.731C8.84776 9.605 8.92876 9.431 8.92876 9.209C8.92876 9.017 8.86876 8.852 8.74876 8.714C8.62876 8.576 8.46076 8.483 8.24476 8.435L7.57876 8.282C7.02076 8.15 6.58576 7.907 6.27376 7.553C5.96776 7.193 5.81476 6.755 5.81476 6.239C5.81476 5.663 6.00976 5.204 6.39976 4.862C6.78976 4.514 7.31776 4.34 7.98376 4.34C8.65576 4.34 9.18676 4.508 9.57676 4.844C9.97276 5.174 10.1708 5.621 10.1708 6.185H8.82076C8.82076 5.975 8.74576 5.81 8.59576 5.69C8.45176 5.57 8.24176 5.51 7.96576 5.51C7.70776 5.51 7.50976 5.57 7.37176 5.69C7.23376 5.81 7.16476 5.987 7.16476 6.221C7.16476 6.395 7.22176 6.551 7.33576 6.689C7.45576 6.821 7.62676 6.911 7.84876 6.959L8.50576 7.112C9.08776 7.244 9.52876 7.484 9.82876 7.832C10.1288 8.174 10.2788 8.612 10.2788 9.146C10.2788 9.53 10.1828 9.869 9.99076 10.163C9.80476 10.457 9.54076 10.685 9.19876 10.847C8.86276 11.009 8.46376 11.09 8.00176 11.09ZM11.2922 11V4.43H13.5332C13.9952 4.43 14.3972 4.517 14.7392 4.691C15.0872 4.865 15.3542 5.108 15.5402 5.42C15.7322 5.732 15.8282 6.098 15.8282 6.518C15.8282 6.932 15.7322 7.298 15.5402 7.616C15.3482 7.928 15.0812 8.171 14.7392 8.345C14.3972 8.519 13.9952 8.606 13.5332 8.606H12.6422V11H11.2922ZM12.6422 7.436H13.5332C13.8212 7.436 14.0492 7.349 14.2172 7.175C14.3912 7.001 14.4782 6.782 14.4782 6.518C14.4782 6.254 14.3912 6.035 14.2172 5.861C14.0492 5.687 13.8212 5.6 13.5332 5.6H12.6422V7.436Z" fill="#E59408"/>
</svg>
