<svg width="16" height="16" viewBox="0 0 16 16" fill="none" xmlns="http://www.w3.org/2000/svg">
<path d="M3.36715 6.75624C3.14474 6.75624 2.92733 6.82219 2.7424 6.94576C2.55747 7.06932 2.41334 7.24495 2.32823 7.45043C2.24312 7.65591 2.22085 7.88201 2.26424 8.10015C2.30763 8.31828 2.41473 8.51865 2.572 8.67592C2.72926 8.83319 2.92963 8.94029 3.14777 8.98368C3.36591 9.02707 3.59201 9.0048 3.79749 8.91969C4.00297 8.83457 4.1786 8.69044 4.30216 8.50552C4.42572 8.32059 4.49168 8.10317 4.49168 7.88076C4.49123 7.58266 4.37261 7.29689 4.16181 7.0861C3.95102 6.87531 3.66526 6.75669 3.36715 6.75624ZM8.23273 6.7455C8.01032 6.7455 7.79291 6.81145 7.60798 6.93502C7.42306 7.05858 7.27892 7.23421 7.19381 7.43969C7.1087 7.64517 7.08643 7.87127 7.12982 8.08941C7.17321 8.30754 7.28031 8.50791 7.43758 8.66518C7.59484 8.82245 7.79521 8.92955 8.01335 8.97294C8.23149 9.01633 8.45759 8.99406 8.66307 8.90895C8.86855 8.82383 9.04418 8.6797 9.16774 8.49477C9.2913 8.30985 9.35726 8.09243 9.35726 7.87002C9.35681 7.57192 9.23819 7.28615 9.0274 7.07536C8.8166 6.86457 8.53084 6.74595 8.23273 6.7455ZM13.0797 6.7455C12.8572 6.7455 12.6398 6.81145 12.4549 6.93502C12.27 7.05858 12.1258 7.23421 12.0407 7.43969C11.9556 7.64517 11.9334 7.87127 11.9767 8.08941C12.0201 8.30754 12.1272 8.50791 12.2845 8.66518C12.4418 8.82245 12.6421 8.92955 12.8603 8.97294C13.0784 9.01633 13.3045 8.99406 13.51 8.90895C13.7155 8.82383 13.8911 8.6797 14.0147 8.49477C14.1382 8.30985 14.2042 8.09243 14.2042 7.87002C14.2037 7.57192 14.0851 7.28615 13.8743 7.07536C13.6635 6.86457 13.3778 6.74595 13.0797 6.7455ZM14.1352 9.38974C13.8596 9.58179 13.537 9.69517 13.2019 9.7177C12.8667 9.74023 12.5318 9.67107 12.233 9.51763C11.9342 9.3642 11.6829 9.13229 11.5059 8.8468C11.329 8.5613 11.2331 8.23301 11.2286 7.89716L10.0838 7.88076C10.0823 8.14657 10.0237 8.40894 9.91176 8.65004C9.79986 8.89115 9.63734 9.10532 9.43527 9.278C9.23319 9.45068 8.9963 9.57781 8.74069 9.65075C8.48509 9.72369 8.21678 9.74072 7.95401 9.70069C7.64607 10.1861 7.27854 10.6309 6.86001 11.0248C6.22619 11.6313 5.47266 12.0987 4.64772 12.397L4.49959 12.4496L4.35994 12.3778C3.33832 11.8531 2.85153 10.7421 3.16079 9.72048C2.99665 9.70214 2.83575 9.66163 2.68249 9.60006C2.63217 9.70522 2.58129 9.81151 2.52871 9.91949C2.22454 10.5443 1.91019 11.1899 1.79373 11.8915C1.66821 12.6486 1.61846 14.0298 2.69832 14.7749C4.16828 15.7926 5.72927 15.0197 7.53507 14.1225C8.43966 13.6742 9.37082 13.2106 10.3342 12.9731C10.6989 12.8832 11.0692 12.8295 11.4327 12.7775C12.1061 12.6802 12.7416 12.5886 13.2724 12.2811C13.5504 12.123 13.7901 11.9058 13.9747 11.6447C14.1593 11.3836 14.2841 11.0851 14.3404 10.7704C14.4196 10.3001 14.3478 9.8167 14.1352 9.38974ZM6.78934 0.726562L8.59457 6.05462C8.67564 6.07095 8.75554 6.09268 8.83372 6.11963L10.6288 2.49052L12.4204 6.14112C12.4952 6.11264 12.5716 6.08903 12.6494 6.07045L14.4586 0.726562H6.78934Z" fill="#E1465E"/>
</svg>
