<svg width="16" height="16" viewBox="0 0 16 16" fill="none" xmlns="http://www.w3.org/2000/svg">
<path d="M0.130273 11L1.74127 4.43H3.45127L5.08027 11H3.70327L3.38827 9.515H1.82227L1.50727 11H0.130273ZM2.04727 8.435H3.15427L2.83927 6.851C2.79727 6.623 2.75227 6.398 2.70427 6.176C2.66227 5.948 2.62927 5.771 2.60527 5.645C2.58127 5.771 2.54827 5.945 2.50627 6.167C2.47027 6.389 2.42827 6.614 2.38027 6.842L2.04727 8.435ZM8.00176 11.09C7.53976 11.09 7.13776 11.012 6.79576 10.856C6.45376 10.7 6.18976 10.481 6.00376 10.199C5.81776 9.917 5.72476 9.584 5.72476 9.2H7.07476C7.07476 9.422 7.15876 9.599 7.32676 9.731C7.50076 9.857 7.73476 9.92 8.02876 9.92C8.31076 9.92 8.52976 9.857 8.68576 9.731C8.84776 9.605 8.92876 9.431 8.92876 9.209C8.92876 9.017 8.86876 8.852 8.74876 8.714C8.62876 8.576 8.46076 8.483 8.24476 8.435L7.57876 8.282C7.02076 8.15 6.58576 7.907 6.27376 7.553C5.96776 7.193 5.81476 6.755 5.81476 6.239C5.81476 5.663 6.00976 5.204 6.39976 4.862C6.78976 4.514 7.31776 4.34 7.98376 4.34C8.65576 4.34 9.18676 4.508 9.57676 4.844C9.97276 5.174 10.1708 5.621 10.1708 6.185H8.82076C8.82076 5.975 8.74576 5.81 8.59576 5.69C8.45176 5.57 8.24176 5.51 7.96576 5.51C7.70776 5.51 7.50976 5.57 7.37176 5.69C7.23376 5.81 7.16476 5.987 7.16476 6.221C7.16476 6.395 7.22176 6.551 7.33576 6.689C7.45576 6.821 7.62676 6.911 7.84876 6.959L8.50576 7.112C9.08776 7.244 9.52876 7.484 9.82876 7.832C10.1288 8.174 10.2788 8.612 10.2788 9.146C10.2788 9.53 10.1828 9.869 9.99076 10.163C9.80476 10.457 9.54076 10.685 9.19876 10.847C8.86276 11.009 8.46376 11.09 8.00176 11.09ZM11.0762 11V4.43H12.5972L13.1822 6.5C13.2482 6.716 13.2962 6.905 13.3262 7.067C13.3622 7.229 13.3832 7.343 13.3892 7.409C13.3952 7.343 13.4132 7.229 13.4432 7.067C13.4792 6.905 13.5272 6.716 13.5872 6.5L14.1902 4.43H15.7202V11H14.4872V8.48C14.4872 7.82 14.5112 7.229 14.5592 6.707C14.6132 6.185 14.6642 5.696 14.7122 5.24L13.9472 8.21H12.8222L12.0572 5.348C12.1112 5.738 12.1652 6.185 12.2192 6.689C12.2792 7.193 12.3092 7.79 12.3092 8.48V11H11.0762Z" fill="#169068"/>
</svg>
