<svg width="16" height="16" viewBox="0 0 16 16" fill="none" xmlns="http://www.w3.org/2000/svg">
<path fill-rule="evenodd" clip-rule="evenodd" d="M14.1937 3H4.0953C3.78064 3 3.46689 3.2567 3.39439 3.5733L1.3678 12.4267C1.29542 12.7434 1.49167 13 1.80632 13H11.9046C12.2193 13 12.533 12.7434 12.6055 12.4267L14.6321 3.57318C14.7046 3.2567 14.5083 3 14.1937 3Z" fill="#2A7DEB"/>
<path fill-rule="evenodd" clip-rule="evenodd" d="M9.499 8.16533C9.45673 8.25045 9.36901 8.34431 9.21389 8.45329L4.6556 11.727C4.40673 11.9078 4.04946 11.8408 3.85776 11.5772C3.66605 11.3135 3.7123 10.9533 3.96116 10.7724L8.07173 7.79579V7.73465L5.48901 4.98715C5.27832 4.76306 5.30026 4.40068 5.53798 4.17761C5.77571 3.95465 6.13912 3.95556 6.3498 4.17965L9.44878 7.47647C9.62469 7.66363 9.63775 7.94704 9.499 8.16533Z" fill="white"/>
<path fill-rule="evenodd" clip-rule="evenodd" d="M7.94954 10.6138H10.4056C10.6911 10.6138 10.9226 10.8427 10.9226 11.1251C10.9226 11.4075 10.6911 11.6365 10.4056 11.6365H7.94954C7.66397 11.6365 7.4325 11.4075 7.4325 11.1251C7.4325 10.8427 7.66397 10.6138 7.94954 10.6138Z" fill="white"/>
</svg>
