<svg width="16" height="16" viewBox="0 0 16 16" fill="none" xmlns="http://www.w3.org/2000/svg">
<path d="M2.3906 11.3737L2.90454 11.6704L8.63003 1.75386L8.11609 1.45713L2.3906 11.3737Z" fill="#E535AB"/>
<path d="M13.7234 10.5814H2.27246V11.1748H13.7234V10.5814Z" fill="#E535AB"/>
<path d="M2.49954 10.9145L8.22717 14.2214L8.5239 13.7075L2.79627 10.4005L2.49954 10.9145Z" fill="#E535AB"/>
<path d="M7.47507 2.29585L13.2027 5.60278L13.4994 5.08885L7.7718 1.78191L7.47507 2.29585Z" fill="#E535AB"/>
<path d="M2.501 5.08634L2.79773 5.60028L8.52535 2.29333L8.22862 1.77939L2.501 5.08634Z" fill="#E535AB"/>
<path d="M7.37156 1.75389L13.097 11.6704L13.611 11.3737L7.8855 1.45716L7.37156 1.75389Z" fill="#E535AB"/>
<path d="M3.32002 4.69299H2.72656V11.3069H3.32002V4.69299Z" fill="#E535AB"/>
<path d="M13.2731 4.69312H12.6797V11.307H13.2731V4.69312Z" fill="#E535AB"/>
<path d="M7.86721 13.5212L8.1264 13.9701L13.1079 11.094L12.8487 10.645L7.86721 13.5212Z" fill="#E535AB"/>
<path d="M14.0595 11.5001C13.7163 12.0971 12.9512 12.3009 12.3542 11.9577C11.7572 11.6145 11.5534 10.8494 11.8966 10.2524C12.2398 9.65535 13.0049 9.45157 13.6019 9.79477C14.2025 10.1416 14.4063 10.903 14.0595 11.5001Z" fill="#E535AB"/>
<path d="M4.09954 5.74778C3.75634 6.34482 2.99127 6.5486 2.39423 6.20539C1.79719 5.86218 1.59341 5.09711 1.93662 4.50007C2.27983 3.90303 3.04489 3.69925 3.64193 4.04246C4.23897 4.38924 4.44275 5.15074 4.09954 5.74778Z" fill="#E535AB"/>
<path d="M1.94004 11.5001C1.59683 10.903 1.80061 10.1416 2.39765 9.79477C2.99468 9.45157 3.75617 9.65535 4.10296 10.2524C4.44616 10.8494 4.24238 11.6109 3.64535 11.9577C3.04473 12.3009 2.28324 12.0971 1.94004 11.5001Z" fill="#E535AB"/>
<path d="M11.9 5.74765C11.5568 5.15061 11.7606 4.38912 12.3576 4.04233C12.9546 3.69913 13.7161 3.90291 14.0629 4.49995C14.4061 5.09699 14.2023 5.85848 13.6053 6.20527C13.0083 6.54848 12.2432 6.3447 11.9 5.74765Z" fill="#E535AB"/>
<path d="M7.99966 15.0001C7.30967 15.0001 6.75195 14.4424 6.75195 13.7524C6.75195 13.0624 7.30967 12.5046 7.99966 12.5046C8.68965 12.5046 9.24737 13.0624 9.24737 13.7524C9.24737 14.4388 8.68965 15.0001 7.99966 15.0001Z" fill="#E535AB"/>
<path d="M7.99966 3.4954C7.30967 3.4954 6.75195 2.93769 6.75195 2.2477C6.75195 1.55771 7.30967 1 7.99966 1C8.68965 1 9.24737 1.55771 9.24737 2.2477C9.24737 2.93769 8.68965 3.4954 7.99966 3.4954Z" fill="#E535AB"/>
</svg>
