<svg width="16" height="16" viewBox="0 0 16 16" fill="none" xmlns="http://www.w3.org/2000/svg">
<path d="M5.88398 5.9999C6.43977 5.9975 7.00973 6.15697 7.44171 6.51629C7.66307 6.69546 7.84187 6.92025 7.99372 7.1596C8.26694 6.71794 8.66604 6.34267 9.15819 6.16178C9.75791 5.93664 10.4358 5.95219 11.0345 6.17286C11.5574 6.36378 12.0147 6.69649 12.4293 7.06239C12.7537 7.34877 13.054 7.66212 13.388 7.93778C13.5641 8.08061 13.7533 8.21444 13.9698 8.28844C14.2575 8.38668 14.5979 8.294 14.8036 8.0723C14.9942 7.8648 14.9824 7.50614 14.7725 7.31663C14.639 7.20144 14.4107 7.22461 14.3163 7.37815C14.2337 7.49993 14.28 7.65175 14.3447 7.76969C14.1728 7.64416 14.0006 7.46914 14.0012 7.24088C13.9656 6.97699 14.1614 6.7442 14.3959 6.65187C14.8534 6.46889 15.4272 6.62664 15.716 7.02954C15.9937 7.4055 16.0158 7.89971 15.9674 8.34759C15.909 8.77301 15.6711 9.17007 15.3183 9.41632C14.823 9.7698 14.1953 9.8794 13.598 9.87181C13.0239 9.85623 12.4556 9.72655 11.9237 9.51209C11.0341 9.15449 10.2017 8.66025 9.28306 8.3746C8.97836 8.25631 8.6543 8.19233 8.32849 8.1726C8.0691 8.17088 7.82319 8.15876 7.57832 8.17538C7.27949 8.2041 6.98241 8.26531 6.70263 8.37491C5.76847 8.66546 4.92354 9.17213 4.01705 9.53045C3.25164 9.82822 2.40361 9.96658 1.59121 9.80124C1.13675 9.70925 0.684352 9.50831 0.377589 9.15034C0.115074 8.84598 -0.0107972 8.43858 0.00159944 8.03945C-0.0129206 7.6628 0.0697341 7.26265 0.31876 6.96934C0.550455 6.69131 0.923666 6.5502 1.28198 6.58133C1.51265 6.59204 1.74647 6.69268 1.88895 6.87841C2.00102 7.02539 2.00792 7.2267 1.9588 7.39857C1.89897 7.55317 1.77551 7.67389 1.64133 7.76657C1.70981 7.65103 1.75131 7.49852 1.67037 7.37781C1.57076 7.21699 1.32554 7.20076 1.19586 7.33284C1.03608 7.49715 1.00251 7.76554 1.10974 7.96682C1.22593 8.17781 1.46634 8.29816 1.69907 8.3227C2.05117 8.35314 2.35656 8.13491 2.61492 7.92326C3.1496 7.4629 3.63101 6.93618 4.22417 6.54673C4.71323 6.21886 5.28941 5.99716 5.88395 5.99994L5.88398 5.9999Z" fill="#E0E1E4"/>
</svg>
