<svg width="16" height="16" viewBox="0 0 16 16" fill="none" xmlns="http://www.w3.org/2000/svg">
<path d="M14 2H2V14H14V2Z" fill="#F3DF49"/>
<path fill-rule="evenodd" clip-rule="evenodd" d="M9.82305 11.2423L8.83211 11.816C9.18848 12.5202 9.91871 13.0591 11.0488 13.0591C12.205 13.0591 13.0656 12.4593 13.0656 11.364C13.0656 10.3469 12.4831 9.8949 11.4486 9.45152L11.1444 9.32114C10.6229 9.0951 10.3968 8.9473 10.3968 8.58217C10.3968 8.28665 10.6229 8.06063 10.9793 8.06063C11.327 8.06063 11.553 8.2084 11.7616 8.58217L12.7092 7.97368C12.3093 7.26952 11.753 7 10.9793 7C9.89261 7 9.19716 7.6955 9.19716 8.60828C9.19716 9.5993 9.77963 10.0687 10.6577 10.4425L10.9619 10.5729C11.5183 10.8163 11.8486 10.9641 11.8486 11.3813C11.8486 11.7291 11.527 11.9812 11.0227 11.9812C10.4229 11.9812 10.0839 11.6683 9.82305 11.2423ZM4.52875 11.9464L4.52872 11.9464V11.9463C4.52873 11.9463 4.52874 11.9464 4.52875 11.9464ZM4.52875 11.9464C4.81563 12.5549 5.38074 13.059 6.35427 13.059C7.43227 13.059 8.17114 12.4853 8.17114 11.2248V7.06956H6.95413V11.2075C6.95413 11.816 6.70201 11.9724 6.30211 11.9724C5.88492 11.9724 5.71099 11.6856 5.51979 11.3466L4.52875 11.9464Z" fill="#2E2E2C"/>
</svg>
