<svg width="16" height="16" viewBox="0 0 16 16" fill="none" xmlns="http://www.w3.org/2000/svg">
<path fill-rule="evenodd" clip-rule="evenodd" d="M11.8037 2L13.925 4.12132L13.1608 4.88555C13.6855 5.53069 14 6.35362 14 7.25C14 9.32107 12.3211 11 10.25 11C9.99315 11 9.74233 10.9742 9.5 10.925V14H6.5V8.62146L2 4.12146L4.12132 2.00014L7.96245 5.84127L10.2361 3.56761C10.2408 3.54528 10.2455 3.52275 10.25 3.5C10.2678 3.5 10.2856 3.50012 10.3033 3.50037L11.8037 2ZM9.5 9.89648C9.73842 9.96392 9.98999 10 10.25 10C11.7688 10 13 8.76878 13 7.25C13 6.62993 12.7948 6.05779 12.4485 5.5978L9.5 8.54635V9.89648Z" fill="#E59408"/>
</svg>
