<svg width="16" height="16" viewBox="0 0 16 16" fill="none" xmlns="http://www.w3.org/2000/svg">
<path fill-rule="evenodd" clip-rule="evenodd" d="M5.02417 3.99995H6.97506C7.06746 3.99995 7.14961 3.90976 7.14961 3.80828V1.89162C7.14961 1.79015 7.07773 1.69995 6.97506 1.69995H5.02417C4.93177 1.69995 4.84961 1.77887 4.84961 1.89162V3.80828C4.85988 3.90976 4.93177 3.99995 5.02417 3.99995ZM6.97506 6.99995H5.02417C4.93177 6.99995 4.85988 6.90976 4.84961 6.80828V4.89162C4.84961 4.77887 4.93177 4.69995 5.02417 4.69995H6.97506C7.07773 4.69995 7.14961 4.79015 7.14961 4.89162V6.80828C7.14961 6.90976 7.06746 6.99995 6.97506 6.99995ZM11.8126 5.22656C12.4142 5.57812 12.9376 6.07031 13.0079 6.80469C13.836 6.6875 14.2854 6.74883 14.8595 7.15625C14.5808 8.1393 13.5079 8.64062 12.7189 8.53125C12.2501 11.125 9.56251 14 5.24997 14C1.20173 14 0.39037 10.6786 0.89254 8.36338C0.939686 8.14602 1.1365 8 1.35892 8H10.6563L10.6617 7.9997C10.7849 7.99294 11.1688 7.97188 11.5078 7.78125C11.0078 6.85938 11.2814 5.85938 11.8126 5.22656ZM4.12545 6.99995H2.17456C2.08216 6.99995 2.01027 6.90976 2 6.80828V4.89162C2 4.77887 2.08216 4.69995 2.17456 4.69995H4.12545C4.22812 4.69995 4.3 4.79015 4.3 4.89162V6.80828C4.3 6.90976 4.21785 6.99995 4.12545 6.99995ZM7.87475 6.99995H9.82565C9.91805 6.99995 10.0002 6.90976 10.0002 6.80828V4.89162C10.0002 4.79015 9.92831 4.69995 9.82565 4.69995H7.87475C7.78235 4.69995 7.7002 4.77887 7.7002 4.89162V6.80828C7.71046 6.90976 7.78235 6.99995 7.87475 6.99995ZM9.82565 3.99995H7.87475C7.78235 3.99995 7.71046 3.90976 7.7002 3.80828V1.89162C7.7002 1.77887 7.78235 1.69995 7.87475 1.69995H9.82565C9.92831 1.69995 10.0002 1.79015 10.0002 1.89162V3.80828C10.0002 3.90976 9.91805 3.99995 9.82565 3.99995Z" fill="white" fill-opacity="0.44"/>
</svg>
