<svg width="16" height="16" viewBox="0 0 16 16" fill="none" xmlns="http://www.w3.org/2000/svg">
<path fill-rule="evenodd" clip-rule="evenodd" d="M10.1616 2.51134L9.97545 3.18613L7.21683 13.1861L7.03068 13.8609L5.68109 13.4886L5.86724 12.8138L8.62586 2.81383L8.81201 2.13904L10.1616 2.51134ZM5.87648 6.01429L5.30687 6.42116L2.60433 8.35155L5.30687 10.2819L5.87648 10.6888L5.06275 11.828L4.49314 11.4212L0.993138 8.92116L0.195679 8.35155L0.993138 7.78193L4.49314 5.28193L5.06275 4.87507L5.87648 6.01429ZM10.6931 6.42116L10.1235 6.01429L10.9372 4.87507L11.5068 5.28193L15.0068 7.78193L15.8043 8.35155L15.0068 8.92116L11.5068 11.4212L10.9372 11.828L10.1235 10.6888L10.6931 10.2819L13.3956 8.35155L10.6931 6.42116Z" fill="#E59408"/>
</svg>
