<svg width="24" height="24" viewBox="0 0 24 24" fill="none" xmlns="http://www.w3.org/2000/svg">
<path d="M21.9998 11.9998C21.9998 14.6519 20.9462 17.1955 19.0709 19.0709C17.1955 20.9462 14.652 21.9997 11.9999 21.9997C10.6867 21.9997 9.38633 21.741 8.17309 21.2385C6.95985 20.7359 5.85747 19.9994 4.9289 19.0709C3.05355 17.1955 2 14.6519 2 11.9998C2 9.34768 3.05355 6.80422 4.9289 4.92888C6.80424 3.05354 9.34774 2 11.9999 2C14.652 2 17.1955 3.05354 19.0709 4.92888C20.9462 6.80422 21.9998 9.34768 21.9998 11.9998Z" fill="#373737"/>
<path d="M8.70778 8L7.99988 8.7079L11.293 11.999L7.99988 15.2921L8.70778 16L12.0009 12.7069L15.292 16L15.9999 15.2921L12.7088 11.999L15.9999 8.7079L15.292 8L12.0009 11.2911L8.70778 8Z" fill="#F7F7F7"/>
</svg>
