<svg width="16" height="16" viewBox="0 0 16 16" fill="none" xmlns="http://www.w3.org/2000/svg">
<path fill-rule="evenodd" clip-rule="evenodd" d="M13.9893 4.97331L13.2822 5.68042C14.1289 6.51825 14.6664 7.41182 14.9269 8.00009C14.6401 8.64765 14.0178 9.66519 13.0165 10.5711C11.8535 11.6233 10.2093 12.5001 7.99996 12.5001C7.50099 12.5001 7.03085 12.4554 6.58857 12.374L5.75293 13.2096C6.43701 13.3939 7.1853 13.5001 7.99996 13.5001C13 13.5001 15.5 9.50009 16 8.00009C15.7698 7.30959 15.1158 6.08931 13.9893 4.97331ZM1.71046 14.9968L1.70676 15.0005L0.999651 14.2934L3.24414 12.0489C1.34798 10.7494 0.304097 8.91229 0 8C0.499858 6.5 3 2.5 8 2.5C9.51555 2.5 10.8014 2.86751 11.8715 3.42151L14.2933 0.999756L14.9967 1.70316L1.70676 14.9931L1.71046 14.9968ZM7.9628 10.9998C7.97518 10.9999 7.98758 11 8 11C9.65685 11 11 9.65685 11 8C11 7.98758 10.9999 7.97518 10.9998 7.9628L7.9628 10.9998ZM8 3.5C9.205 3.5 10.2419 3.76084 11.1243 4.16871L9.73834 5.55468C9.24792 5.20542 8.64795 5 8 5C6.34315 5 5 6.34315 5 8C5 8.64795 5.20542 9.24792 5.55468 9.73834L3.96503 11.328C3.6058 11.0947 3.27905 10.8385 2.9834 10.571C1.98217 9.66512 1.35985 8.64755 1.073 7.99997C1.3598 7.35245 1.9821 6.33493 2.98336 5.42904C4.14637 4.3768 5.79068 3.5 8 3.5ZM8 6C8.37094 6 8.71829 6.10098 9.01606 6.27695L6.27695 9.01606C6.10098 8.71829 6 8.37094 6 8C6 6.89543 6.89543 6 8 6Z" fill="#E0E1E4"/>
</svg>
