<svg width="64" height="64" viewBox="0 0 64 64" fill="none" xmlns="http://www.w3.org/2000/svg">
<g clip-path="url(#clip0_4407_11658)">
<path d="M0 4.07273V38.041C0 39.6701 0.971054 41.1427 2.46807 41.7844L39.9587 57.8525C40.4654 58.0695 41.0118 58.1818 41.5633 58.1818H59.9273C62.1766 58.1818 64 56.3584 64 54.1091V36.1431C64 35.3385 63.7614 34.5518 63.3146 33.8822L41.9118 1.81353C41.1561 0.681309 39.8854 0.00174545 38.5245 0.00174545L4.07273 0C1.82342 0 0 1.82342 0 4.07273Z" fill="url(#paint0_linear_4407_11658)"/>
<path d="M5.81836 49.4806V59.9271C5.81836 62.1764 7.64178 63.9999 9.89109 63.9999H22.9837C23.1763 63.9999 23.3689 63.9859 23.5597 63.9591L60.5034 58.682C62.5101 58.3952 64.0002 56.6771 64.0002 54.65V38.977C64.0002 36.7271 62.1762 34.9037 59.9263 34.9043L41.3878 34.909C40.9503 34.909 40.5157 34.9794 40.1008 35.1178L8.60294 45.6173C6.9401 46.1718 5.81836 47.7282 5.81836 49.4812V49.4806Z" fill="url(#paint1_linear_4407_11658)"/>
<path d="M5.81836 48.0521L5.8201 59.9276C5.8201 62.1769 7.64352 63.9998 9.89283 63.9998H21.3994C22.5881 63.9998 23.718 63.4802 24.4918 62.5778L57.2016 24.4164C57.8341 23.678 58.182 22.7378 58.182 21.7656V9.89011C58.182 7.6408 56.3586 5.81738 54.1093 5.81738H42.6009C41.4122 5.81738 40.2824 6.33695 39.5085 7.23935L6.7993 45.4008C6.16629 46.1391 5.81894 47.0793 5.81894 48.0521H5.81836Z" fill="#00D886"/>
<path d="M52 12H12V52H52V12Z" fill="black"/>
<path d="M20.0883 31.2109C20.9015 31.6752 21.7824 31.9678 22.7224 32.1102L22.7235 32.2955C22.7235 32.925 22.852 33.4742 23.1091 33.9293C23.3731 34.3981 23.7484 34.7597 24.2339 35.0007C24.7269 35.2549 25.2978 35.3892 25.948 35.3892H28.3583V33.22H26.5265C26.2981 33.22 26.1053 33.1804 25.948 33.0995C25.7908 33.0192 25.6697 32.8986 25.5836 32.738C25.4981 32.5773 25.4551 32.3896 25.4551 32.1624V32.0774C26.3297 31.9254 27.1514 31.6465 27.9084 31.2115C29.0796 30.5286 29.9972 29.6047 30.6612 28.4265C31.3251 27.2346 31.6574 25.9222 31.6574 24.4629C31.6574 23.0035 31.3251 21.6911 30.6612 20.5124C29.9972 19.321 29.079 18.3971 27.9084 17.7274C26.744 17.0445 25.4407 16.71 23.9986 16.71C22.5565 16.71 21.2601 17.0445 20.0889 17.7274C18.9251 18.3971 18.0075 19.321 17.3361 20.5124C16.6721 21.6911 16.3398 23.0029 16.3398 24.4629C16.3398 25.9228 16.6721 27.2346 17.3361 28.4265C18.0075 29.6047 18.9251 30.5286 20.0889 31.2115L20.0883 31.2109ZM19.9385 21.811C20.3454 21.0076 20.9026 20.3919 21.6096 19.9494C22.3235 19.5075 23.1235 19.2797 24.009 19.2797C24.8944 19.2797 25.6909 19.507 26.3979 19.9494C27.1049 20.3913 27.6581 21.007 28.0581 21.811C28.4581 22.5875 28.6578 23.4712 28.6578 24.4623C28.6578 25.4533 28.4575 26.3365 28.0581 27.1267C27.6581 27.9164 27.1049 28.5327 26.3979 28.9878C25.6909 29.4296 24.8944 29.6437 24.009 29.6437C23.1235 29.6437 22.3235 29.4296 21.6096 28.9878C20.9026 28.5321 20.3454 27.9164 19.9385 27.1267C19.5386 26.3365 19.3389 25.4528 19.3389 24.4623C19.3389 23.4718 19.5386 22.5875 19.9385 21.811Z" fill="white"/>
<path d="M40.5189 16.9634H37.3483L31.9385 31.9601H34.9484L36.0841 28.4791H41.922L43.1323 31.9601H46.0779L40.5183 16.9634H40.5189ZM36.7802 26.2164L38.6871 20.499L38.9012 19.5481L39.1261 20.499L41.1507 26.2164H36.7802Z" fill="white"/>
<path d="M33 44H17V47H33V44Z" fill="white"/>
</g>
<defs>
<linearGradient id="paint0_linear_4407_11658" x1="60.0186" y1="59.7777" x2="1.31316" y2="1.07287" gradientUnits="userSpaceOnUse">
<stop offset="0.25" stop-color="#7256FF"/>
<stop offset="0.73" stop-color="#007DFE"/>
</linearGradient>
<linearGradient id="paint1_linear_4407_11658" x1="7.62199" y1="64.7172" x2="62.0615" y2="39.4768" gradientUnits="userSpaceOnUse">
<stop offset="0.3" stop-color="#00D886"/>
<stop offset="0.54" stop-color="#7256FF"/>
</linearGradient>
<clipPath id="clip0_4407_11658">
<rect width="64" height="64" fill="white"/>
</clipPath>
</defs>
</svg>
