<svg width="16" height="16" viewBox="0 0 16 16" fill="none" xmlns="http://www.w3.org/2000/svg">
<path fill-rule="evenodd" clip-rule="evenodd" d="M11 6V5C11 3.34315 9.65685 2 8 2C6.34315 2 5 3.34315 5 5V6H11ZM4 5V6C2.89543 6 2 6.89543 2 8V12C2 13.1046 2.89543 14 4 14H12C13.1046 14 14 13.1046 14 12V8C14 6.89543 13.1046 6 12 6V5C12 2.79086 10.2091 1 8 1C5.79086 1 4 2.79086 4 5ZM11 7H12C12.5523 7 13 7.44772 13 8V12C13 12.5523 12.5523 13 12 13H4C3.44772 13 3 12.5523 3 12V8C3 7.44772 3.44772 7 4 7H5H11ZM8 8C7.44772 8 7 8.44772 7 9V10C7 10.5523 7.44772 11 8 11C8.55228 11 9 10.5523 9 10V9C9 8.44772 8.55228 8 8 8Z" fill="#E0E1E4"/>
</svg>
