<svg width="16" height="16" viewBox="0 0 16 16" fill="none" xmlns="http://www.w3.org/2000/svg">
<circle cx="8" cy="8" r="6.5" fill="#E1465E"/>
<path d="M4 5.67481H5.20078V6.47533C5.36019 6.1773 5.57332 5.94858 5.84016 5.78917C6.107 5.62975 6.41715 5.55005 6.77063 5.55005C7.15183 5.55005 7.48105 5.63842 7.75828 5.81516C8.03552 5.98843 8.24691 6.23621 8.39246 6.5585C8.56574 6.23967 8.79965 5.99189 9.09422 5.81516C9.38878 5.63842 9.73013 5.55005 10.1183 5.55005C10.496 5.55005 10.8252 5.63669 11.1059 5.80996C11.3901 5.97977 11.6101 6.22235 11.7661 6.5377C11.922 6.85306 12 7.2204 12 7.63972V10.9977H10.7628V7.78527C10.7628 7.42833 10.6727 7.14762 10.4925 6.94316C10.3158 6.73523 10.0663 6.63127 9.74399 6.63127C9.51527 6.63127 9.31427 6.68325 9.141 6.78722C8.97119 6.89118 8.83951 7.04019 8.74594 7.23426C8.65237 7.42486 8.60559 7.65011 8.60559 7.91002V10.9977H7.39441V7.78527C7.39441 7.42833 7.30431 7.14762 7.12411 6.94316C6.9439 6.73523 6.69439 6.63127 6.37557 6.63127C6.02556 6.63127 5.74832 6.74736 5.54386 6.97955C5.3394 7.20827 5.23717 7.51843 5.23717 7.91002V10.9977H4V5.67481Z" fill="white"/>
</svg>
