<svg width="16" height="16" viewBox="0 0 16 16" fill="none" xmlns="http://www.w3.org/2000/svg">
<circle cx="5" cy="11" r="5" fill="#2A7DEB"/>
<path d="M10.9046 12.0701C12.173 11.1632 12.9998 9.67815 12.9998 8C12.9998 5.23858 10.7612 3 7.99979 3C6.32163 3 4.83658 3.82674 3.92969 5.09515C4.27693 5.03263 4.63455 5 4.99979 5C8.3135 5 10.9998 7.68629 10.9998 11C10.9998 11.3652 10.9672 11.7229 10.9046 12.0701Z" fill="#E59408"/>
<path d="M13.9046 9.0701C15.173 8.16321 15.9998 6.67815 15.9998 5C15.9998 2.23858 13.7612 0 10.9998 0C9.32163 0 7.83658 0.826741 6.92969 2.09515C7.27693 2.03263 7.63455 2 7.99979 2C11.3135 2 13.9998 4.68629 13.9998 8C13.9998 8.36524 13.9672 8.72286 13.9046 9.0701Z" fill="#169068"/>
</svg>
