<svg width="16" height="16" viewBox="0 0 16 16" fill="none" xmlns="http://www.w3.org/2000/svg">
<circle cx="8" cy="8" r="6.5" fill="#E59408"/>
<path d="M7.77115 11.099C7.30915 11.099 6.90215 11.0293 6.55015 10.89C6.19815 10.7433 5.92315 10.538 5.72515 10.274C5.53448 10.01 5.43915 9.69833 5.43915 9.339H6.82515C6.82515 9.55167 6.90948 9.71667 7.07815 9.834C7.25415 9.944 7.48882 9.999 7.78215 9.999H8.25515C8.59982 9.999 8.85648 9.93667 9.02515 9.812C9.19382 9.68733 9.27815 9.515 9.27815 9.295C9.27815 8.877 8.96648 8.62033 8.34315 8.525L7.49615 8.415C6.22748 8.23167 5.59315 7.62667 5.59315 6.6C5.59315 6.028 5.78382 5.59533 6.16515 5.302C6.55382 5.00133 7.11482 4.851 7.84815 4.851H8.26615C8.94815 4.851 9.49448 5.005 9.90515 5.313C10.3231 5.61367 10.5321 6.01333 10.5321 6.512H9.14615C9.14615 6.336 9.06915 6.20033 8.91515 6.105C8.76115 6.00233 8.54115 5.951 8.25515 5.951H7.83715C7.23582 5.951 6.93515 6.16733 6.93515 6.6C6.93515 6.974 7.20282 7.20133 7.73815 7.282L8.59615 7.414C9.27815 7.50933 9.78415 7.70733 10.1141 8.008C10.4515 8.30867 10.6201 8.72667 10.6201 9.262C10.6201 9.84133 10.4185 10.2923 10.0151 10.615C9.61915 10.9377 9.03248 11.099 8.25515 11.099H7.77115Z" fill="white"/>
</svg>
