<svg width="16" height="16" viewBox="0 0 16 16" fill="none" xmlns="http://www.w3.org/2000/svg">
<circle cx="8" cy="8" r="6.5" fill="#2A7DEB"/>
<path d="M8.04615 12.11C7.52548 12.11 7.07448 12.0147 6.69315 11.824C6.31182 11.626 6.01482 11.351 5.80215 10.999C5.59682 10.6397 5.49415 10.218 5.49415 9.734V6.236C5.49415 5.752 5.59682 5.334 5.80215 4.982C6.01482 4.62267 6.31182 4.34767 6.69315 4.157C7.07448 3.959 7.52548 3.86 8.04615 3.86C8.55948 3.86 9.00682 3.959 9.38815 4.157C9.76948 4.34767 10.0665 4.62267 10.2791 4.982C10.4918 5.334 10.5981 5.752 10.5981 6.236H9.21215C9.21215 5.862 9.10948 5.576 8.90415 5.378C8.70615 5.17267 8.42015 5.07 8.04615 5.07C7.67215 5.07 7.38248 5.169 7.17715 5.367C6.97182 5.565 6.86915 5.851 6.86915 6.225V9.734C6.86915 10.108 6.97182 10.3977 7.17715 10.603C7.38248 10.801 7.67215 10.9 8.04615 10.9C8.42015 10.9 8.70615 10.801 8.90415 10.603C9.10948 10.3977 9.21215 10.108 9.21215 9.734H10.5981C10.5981 10.218 10.4918 10.6397 10.2791 10.999C10.0665 11.351 9.76948 11.626 9.38815 11.824C9.00682 12.0147 8.55948 12.11 8.04615 12.11Z" fill="white"/>
</svg>
