<svg width="16" height="16" viewBox="0 0 16 16" fill="none" xmlns="http://www.w3.org/2000/svg">
<path fill-rule="evenodd" clip-rule="evenodd" d="M12.0273 6.73385L13.1908 11H7.74488L6.74107 12H13.1908C13.8501 12 14.329 11.373 14.1555 10.7369L12.8423 5.92186L12.0273 6.73385ZM4.08311 11H2.80926L4.54386 4.63979C4.96892 3.08124 6.38453 2 8.00001 2C9.35698 2 10.5729 2.76289 11.1793 3.93075L4.08311 11ZM3.0793 12L1.00354 14.0679L1.7093 14.7763L14.7855 1.74973L14.0797 1.04128L11.9141 3.1987C11.0982 1.85892 9.62847 1 8.00001 1C5.93358 1 4.12281 2.38306 3.5791 4.37667L1.84449 10.7369C1.671 11.373 2.14988 12 2.80926 12H3.0793ZM6.26792 14C6.09389 13.6985 5.99998 13.3541 5.99998 13H6.99998H8.99998H9.99998C9.99998 13.3541 9.90606 13.6985 9.73203 14C9.64538 14.1501 9.53887 14.2895 9.41419 14.4142C9.03912 14.7893 8.53041 15 7.99998 15C7.46954 15 6.96084 14.7893 6.58576 14.4142C6.46109 14.2895 6.35457 14.1501 6.26792 14Z" fill="#E0E1E4"/>
</svg>
