<svg width="16" height="16" viewBox="0 0 16 16" fill="none" xmlns="http://www.w3.org/2000/svg">
<path fill-rule="evenodd" clip-rule="evenodd" d="M11.4562 4.63979L13.1908 11H2.80928L4.54389 4.63979C4.96894 3.08124 6.38455 2 8.00003 2C9.61551 2 11.0311 3.08124 11.4562 4.63979ZM3.57912 4.37667C4.12283 2.38306 5.9336 1 8.00003 1C10.0665 1 11.8772 2.38306 12.4209 4.37667L14.1555 10.7369C14.329 11.373 13.8502 12 13.1908 12H2.80928C2.14991 12 1.67103 11.373 1.84452 10.7369L3.57912 4.37667ZM6.00003 13C6.00003 13.3541 6.09394 13.6985 6.26797 14C6.35463 14.1501 6.46114 14.2895 6.58582 14.4142C6.96089 14.7893 7.4696 15 8.00003 15C8.53046 15 9.03917 14.7893 9.41424 14.4142C9.53892 14.2895 9.64544 14.1501 9.73209 14C9.90612 13.6985 10 13.3541 10 13H9.00003H7.00003H6.00003Z" fill="#E0E1E4"/>
</svg>
