<svg width="16" height="16" viewBox="0 0 16 16" fill="none" xmlns="http://www.w3.org/2000/svg">
<path d="M3.35986 5.15345C3.28191 5.29276 3.21068 5.43634 3.14662 5.58376C1.88564 6.11295 1 7.3593 1 8.8125C1 10.7455 2.567 12.3125 4.5 12.3125H10.5189L9.64391 11.4375H4.5C3.05025 11.4375 1.875 10.2622 1.875 8.8125C1.875 7.72397 2.53777 6.78821 3.48522 6.39059L3.80913 6.25466L3.94913 5.93249C3.96819 5.88863 3.98802 5.84519 4.0086 5.80219L3.35986 5.15345Z" fill="#E0E1E4"/>
<path d="M5.8649 3.94618L5.21604 3.29731C5.91021 2.9089 6.7105 2.6875 7.5625 2.6875C9.7693 2.6875 11.6292 4.17285 12.1969 6.19833C13.7669 6.33001 15 7.646 15 9.25C15 10.292 14.4796 11.2125 13.6844 11.7657L13.0516 11.1329C13.6942 10.7519 14.125 10.0512 14.125 9.25C14.125 8.10473 13.2443 7.16425 12.1238 7.07027L11.5183 7.0195L11.3544 6.43449C10.8897 4.77684 9.3668 3.5625 7.5625 3.5625C6.95487 3.5625 6.37911 3.70016 5.8649 3.94618Z" fill="#E0E1E4"/>
<path d="M1.28264 1.98958L1.98975 1.28247L14.7177 14.0104L14.0106 14.7175L1.28264 1.98958Z" fill="#E0E1E4"/>
</svg>
