<svg width="32" height="32" viewBox="0 0 32 32" fill="none" xmlns="http://www.w3.org/2000/svg">
<g clip-path="url(#clip0_8164_106541)">
<path d="M29.2643 6.05646L16.7252 28.4784C16.4664 28.9414 15.8012 28.9441 15.5385 28.4834L2.75078 6.05862C2.46451 5.55659 2.89379 4.9485 3.46268 5.05019L16.0151 7.29387C16.0952 7.30818 16.1772 7.30804 16.2573 7.29345L28.5472 5.0534C29.1142 4.95006 29.5455 5.55344 29.2643 6.05646Z" fill="url(#paint0_linear_8164_106541)"/>
<path d="M21.9946 2.10729L12.7153 3.92552C12.5628 3.95541 12.4499 4.08466 12.4407 4.23977L11.8699 13.8802C11.8565 14.1073 12.065 14.2835 12.2866 14.2324L14.8701 13.6362C15.1118 13.5804 15.3302 13.7933 15.2805 14.0364L14.513 17.7949C14.4613 18.0479 14.6988 18.2642 14.9459 18.1892L16.5415 17.7044C16.7889 17.6293 17.0266 17.8462 16.9743 18.0993L15.7545 24.0032C15.6782 24.3725 16.1694 24.5739 16.3742 24.2572L16.5111 24.0458L24.0723 8.95597C24.199 8.70331 23.9806 8.41522 23.7031 8.46877L21.0439 8.982C20.794 9.03018 20.5813 8.79746 20.6519 8.55297L22.3875 2.53611C22.4581 2.2912 22.2448 2.05827 21.9946 2.10729Z" fill="url(#paint1_linear_8164_106541)"/>
</g>
<defs>
<linearGradient id="paint0_linear_8164_106541" x1="2.43856" y1="4.24886" x2="18.0444" y2="25.4428" gradientUnits="userSpaceOnUse">
<stop stop-color="#41D1FF"/>
<stop offset="1" stop-color="#BD34FE"/>
</linearGradient>
<linearGradient id="paint1_linear_8164_106541" x1="15.2947" y1="2.60094" x2="18.1177" y2="21.9665" gradientUnits="userSpaceOnUse">
<stop stop-color="#FFEA83"/>
<stop offset="0.0833333" stop-color="#FFDD35"/>
<stop offset="1" stop-color="#FFA800"/>
</linearGradient>
<clipPath id="clip0_8164_106541">
<rect width="27.9406" height="27.5317" fill="white" transform="translate(2.02972 2)"/>
</clipPath>
</defs>
</svg>
