<svg width="16" height="16" viewBox="0 0 16 16" fill="none" xmlns="http://www.w3.org/2000/svg">
<path fill-rule="evenodd" clip-rule="evenodd" d="M11.3071 13.8193C10.0202 13.8193 8.9768 12.7758 8.9768 11.4888C8.9768 10.2024 10.0202 9.15829 11.3071 9.15829C12.594 9.15829 13.6374 10.2024 13.6374 11.4888C13.6374 12.7758 12.594 13.8193 11.3071 13.8193ZM6.65875 8.47778C5.85422 8.47778 5.20232 7.82524 5.20232 7.02121C5.20232 6.2166 5.85422 5.56463 6.65875 5.56463C7.46328 5.56463 8.11518 6.2166 8.11518 7.02121C8.11518 7.82524 7.46328 8.47778 6.65875 8.47778ZM11.4102 3.93094H7.52096C5.53905 3.93094 3.93115 5.539 3.93115 7.52169V11.4107C3.93115 13.394 5.53905 15.0009 7.52096 15.0009H11.4102C13.3933 15.0009 15 13.394 15 11.4107V7.52169C15 5.539 13.3933 3.93094 11.4102 3.93094Z" fill="#2A7DEB"/>
<path fill-rule="evenodd" clip-rule="evenodd" d="M3.33028 2.56452C3.33028 3.20833 2.8083 3.72978 2.16514 3.72978C1.5214 3.72978 1 3.20833 1 2.56452C1 1.9213 1.5214 1.39926 2.16514 1.39926C2.8083 1.39926 3.33028 1.9213 3.33028 2.56452Z" fill="#2A7DEB"/>
</svg>
