<svg width="32" height="32" viewBox="0 0 32 32" fill="none" xmlns="http://www.w3.org/2000/svg">
<g clip-path="url(#clip0_2780_101356)">
<path d="M25.8888 23.9409L16.0001 20.1078L6.11183 23.9399L10.0162 17.8309L0 14.0899L12.3017 14.1473L15.9997 8.00317L19.698 14.1476L32 14.0914L21.9838 17.8315L25.8888 23.9409Z" fill="black"/>
<path d="M24.5512 22.8482L16.0086 19.5371L7.46654 22.8475L10.8394 17.5702L2.18677 14.3386L12.8137 14.3881L16.0083 9.08035L19.2032 14.3883L29.8303 14.3397L21.1777 17.5706L24.5512 22.8482Z" fill="#619CBC"/>
<path d="M9.45129 11.1427C10.3046 11.1427 9.80726 13.2749 9.50382 13.9178C9.24396 14.4683 8.65897 15.2621 7.96567 15.2621C7.13384 15.2621 7.15858 14.3305 7.4897 13.6291C7.66895 13.2494 7.94445 12.8237 8.324 12.5108C8.22685 12.8375 8.55525 13.0606 8.42243 13.342C8.33172 13.5342 8.14395 13.7442 8.04639 13.9509C7.88859 14.2851 7.94888 14.8782 8.3301 14.8782C8.67134 14.8782 8.97457 14.4555 9.09888 14.1922C9.35355 13.6526 9.99032 11.3507 9.27854 11.3507C8.45879 11.3507 7.04623 13.3483 6.75043 13.9749C6.22245 15.0933 6.60517 16.471 7.80817 16.471C8.62101 16.471 9.28959 15.6895 9.61253 15.0054C9.80491 14.5979 9.90966 14.1924 9.95091 13.8101L10.1087 13.7812C10.1436 14.8336 11.2569 16.5762 10.783 17.5802C10.1764 18.8651 8.36272 18.8536 7.32713 19.3097C7.10946 18.8005 6.81457 18.3271 6.39935 17.9658C7.3231 17.655 9.59309 17.1333 10.0867 16.0876C10.2941 15.6483 10.1529 14.9199 9.91322 14.673C9.87244 14.8283 9.81601 14.9866 9.74111 15.1452C9.31847 16.0405 8.41357 16.7348 7.48067 16.7348C6.18183 16.7348 5.6312 15.8015 6.24246 14.5064C6.60932 13.7293 8.48267 11.1427 9.45129 11.1427Z" fill="black"/>
<path d="M9.45129 11.1427C10.3046 11.1427 9.80726 13.2749 9.50382 13.9178C9.24396 14.4683 8.65897 15.2621 7.96567 15.2621C7.13384 15.2621 7.15858 14.3305 7.4897 13.6291C7.66895 13.2494 7.94445 12.8237 8.324 12.5108C8.22685 12.8375 8.55525 13.0606 8.42243 13.342C8.33172 13.5342 8.14395 13.7442 8.04639 13.9509C7.88859 14.2851 7.94888 14.8782 8.3301 14.8782C8.67134 14.8782 8.97457 14.4555 9.09888 14.1922C9.35355 13.6526 9.99032 11.3507 9.27854 11.3507C8.45879 11.3507 7.04623 13.3483 6.75043 13.9749C6.22245 15.0933 6.60517 16.471 7.80817 16.471C8.62101 16.471 9.28959 15.6895 9.61253 15.0054C9.80491 14.5979 9.90966 14.1924 9.95091 13.8101L10.1087 13.7812C10.1436 14.8336 11.2569 16.5762 10.783 17.5802C10.1764 18.8651 8.36272 18.8536 7.32713 19.3097C7.10946 18.8005 6.81457 18.3271 6.39935 17.9658C7.3231 17.655 9.59309 17.1333 10.0867 16.0876C10.2941 15.6483 10.1529 14.9199 9.91322 14.673C9.87244 14.8283 9.81601 14.9866 9.74111 15.1452C9.31847 16.0405 8.41357 16.7348 7.48067 16.7348C6.18183 16.7348 5.6312 15.8015 6.24246 14.5064C6.60932 13.7293 8.48267 11.1427 9.45129 11.1427Z" stroke="black" stroke-width="1.2" stroke-miterlimit="3.86369" stroke-linejoin="round"/>
<path d="M11.6704 14.2287C11.722 14.3555 11.8712 15.0734 11.9845 15.0734C12.2292 15.0734 12.6713 14.4077 12.7899 14.2349C13.0075 14.3773 12.8868 14.6765 13.29 14.6765C13.4725 14.6765 13.5643 14.2832 13.7543 14.2769C13.761 14.4358 13.7712 14.5796 13.6846 14.7632C13.5509 15.0463 13.2129 15.4299 12.8805 15.4299C12.6425 15.4299 12.311 15.1433 12.2458 15.1433C12.1751 15.1433 12.0452 15.1764 12.0038 15.2641C11.8308 15.6307 12.2934 16.8548 12.7574 16.8548C13.0054 16.8548 13.3012 16.6729 13.5605 16.5607C13.493 17.0017 13.4836 17.3736 13.573 17.7531C13.3366 17.9029 13.0598 17.966 12.8377 17.966C11.6976 17.966 12.3263 15.3145 11.275 14.7496L11.6704 14.2287Z" fill="black"/>
<path d="M11.6704 14.2287C11.722 14.3555 11.8712 15.0734 11.9845 15.0734C12.2292 15.0734 12.6713 14.4077 12.7899 14.2349C13.0075 14.3773 12.8868 14.6765 13.29 14.6765C13.4725 14.6765 13.5643 14.2832 13.7543 14.2769C13.761 14.4358 13.7712 14.5796 13.6846 14.7632C13.5509 15.0463 13.2129 15.4299 12.8805 15.4299C12.6425 15.4299 12.311 15.1433 12.2458 15.1433C12.1751 15.1433 12.0452 15.1764 12.0038 15.2641C11.8308 15.6307 12.2934 16.8548 12.7574 16.8548C13.0054 16.8548 13.3012 16.6729 13.5605 16.5607C13.493 17.0017 13.4836 17.3736 13.573 17.7531C13.3366 17.9029 13.0598 17.966 12.8377 17.966C11.6976 17.966 12.3263 15.3145 11.275 14.7496L11.6704 14.2287Z" stroke="black" stroke-width="1.2" stroke-miterlimit="3.86369" stroke-linejoin="round"/>
<path fill-rule="evenodd" clip-rule="evenodd" d="M16.0523 14.0162C16.9139 14.0162 17.2541 15.5663 16.8675 16.3852C16.5676 17.0206 16.0358 17.4812 15.3545 17.4812C14.1514 17.4812 14.3021 15.8411 14.7715 14.8467C14.9009 14.5728 15.3432 13.9757 15.6891 13.9757C15.8162 13.9757 15.9215 14.0162 16.0523 14.0162ZM16.0256 14.1609C15.89 14.1609 15.7707 14.2279 15.7078 14.3614C15.5757 14.6411 16.2343 14.9241 16.1397 15.1243C16.0803 15.2503 15.8538 15.3682 15.7395 15.3682C15.1685 15.3682 15.1734 14.6253 15.5137 14.1411C15.3021 14.276 15.1634 14.4819 15.0732 14.673C14.7386 15.3816 15.0042 16.3565 15.7678 16.3565C16.1897 16.3565 16.6757 15.9775 16.8645 15.5773C17.0968 15.0853 16.5026 14.1609 16.0256 14.1609Z" fill="black"/>
<path d="M16.0523 14.0162C16.9139 14.0162 17.2541 15.5663 16.8675 16.3852C16.5676 17.0206 16.0358 17.4812 15.3545 17.4812C14.1514 17.4812 14.3021 15.8411 14.7715 14.8467C14.9009 14.5728 15.3432 13.9757 15.6891 13.9757C15.8162 13.9757 15.9215 14.0162 16.0523 14.0162Z" stroke="black" stroke-width="1.2" stroke-miterlimit="3.86369" stroke-linejoin="round"/>
<path d="M16.0256 14.1609C15.89 14.1609 15.7707 14.2279 15.7078 14.3614C15.5757 14.6411 16.2343 14.9241 16.1397 15.1243C16.0803 15.2503 15.8538 15.3682 15.7395 15.3682C15.1685 15.3682 15.1734 14.6253 15.5137 14.1411C15.3021 14.276 15.1634 14.4819 15.0732 14.673C14.7386 15.3816 15.0042 16.3565 15.7677 16.3565C16.1897 16.3565 16.6757 15.9775 16.8644 15.5773C17.0968 15.0853 16.5026 14.1609 16.0256 14.1609Z" stroke="black" stroke-width="1.2" stroke-miterlimit="3.86369" stroke-linejoin="round"/>
<path fill-rule="evenodd" clip-rule="evenodd" d="M19.9683 16.568C19.7431 17.045 19.3235 17.3068 18.8511 17.3068C17.3518 17.3068 17.0543 15.9396 17.704 14.5631C17.8575 14.2382 18.1093 13.8788 18.4938 13.8788C19.6983 13.8788 20.5375 15.3622 19.9683 16.568ZM18.772 14.0515C18.6614 14.0515 18.5644 14.0915 18.5114 14.2038C18.3947 14.451 19.0293 14.6714 19.0302 14.9268C18.9639 15.0053 18.7784 15.0931 18.6975 15.0931C18.2405 15.0931 17.8956 14.4736 18.2857 14.0132C18.1274 14.1137 18.0335 14.2642 17.9666 14.4057C17.5711 15.2436 18.1349 16.0908 18.9565 16.0908C19.2985 16.0908 19.7393 15.9004 19.9169 15.5241C20.1683 14.9915 19.2729 14.0515 18.772 14.0515Z" fill="black"/>
<path d="M19.9683 16.568C19.7431 17.045 19.3235 17.3068 18.8511 17.3068C17.3518 17.3068 17.0543 15.9396 17.704 14.5631C17.8575 14.2382 18.1093 13.8788 18.4938 13.8788C19.6983 13.8788 20.5375 15.3622 19.9683 16.568Z" stroke="black" stroke-width="1.2" stroke-miterlimit="3.86369" stroke-linejoin="round"/>
<path d="M18.772 14.0515C18.6614 14.0515 18.5643 14.0915 18.5113 14.2038C18.3947 14.451 19.0292 14.6714 19.0301 14.9268C18.9639 15.0053 18.7783 15.0931 18.6974 15.0931C18.2405 15.0931 17.8956 14.4736 18.2857 14.0132C18.1274 14.1137 18.0334 14.2642 17.9666 14.4057C17.571 15.2436 18.1349 16.0908 18.9565 16.0908C19.2984 16.0908 19.7392 15.9004 19.9168 15.5241C20.1682 14.9915 19.2728 14.0515 18.772 14.0515Z" stroke="black" stroke-width="1.2" stroke-miterlimit="3.86369" stroke-linejoin="round"/>
<path d="M21.5188 14.0433C22.8109 14.0433 23.4674 16.4143 22.89 17.6373C22.7797 17.8711 22.574 18.1049 22.3027 18.1049C20.8265 18.1049 21.2033 15.1706 20.3723 14.3369C20.4483 14.2562 20.5211 14.1717 20.5878 14.0867C21.1493 14.7457 20.8702 16.48 22.0696 16.48C22.3458 16.48 22.5548 16.238 22.6663 16.0019C22.9641 15.371 22.413 14.2753 21.8098 14.2753C21.8038 14.2753 21.7172 14.2789 21.7191 14.3139C21.7413 14.7166 22.0581 14.4655 21.7391 15.1508C21.4132 15.0859 21.068 14.5627 21.2462 14.1852C21.2986 14.0742 21.4298 14.0433 21.5188 14.0433Z" fill="black"/>
<path d="M21.5188 14.0433C22.8109 14.0433 23.4674 16.4143 22.89 17.6373C22.7797 17.8711 22.574 18.1049 22.3027 18.1049C20.8265 18.1049 21.2033 15.1706 20.3723 14.3369C20.4483 14.2562 20.5211 14.1717 20.5878 14.0867C21.1493 14.7457 20.8702 16.48 22.0696 16.48C22.3458 16.48 22.5548 16.238 22.6663 16.0019C22.9641 15.371 22.413 14.2753 21.8098 14.2753C21.8038 14.2753 21.7172 14.2789 21.7191 14.3139C21.7413 14.7166 22.0581 14.4655 21.7391 15.1508C21.4132 15.0859 21.068 14.5627 21.2462 14.1852C21.2986 14.0742 21.4298 14.0433 21.5188 14.0433Z" stroke="black" stroke-width="1.2" stroke-miterlimit="3.86369" stroke-linejoin="round"/>
<path fill-rule="evenodd" clip-rule="evenodd" d="M24.7318 14.0169C24.8534 14.0284 25.0363 14.0175 25.1407 14.0493C25.1603 14.0552 25.1454 14.0797 25.1488 14.099C25.1805 14.2782 25.2304 14.4482 25.2736 14.6213C25.4419 15.2959 25.5432 15.9884 25.7364 16.657C25.9466 17.385 26.1657 18.2054 25.9112 19.1188C25.8863 19.2082 25.8531 19.299 25.8101 19.39C25.5216 20.0013 23.0372 20.7056 22.3886 20.7056C22.3098 20.7056 22.2247 20.6832 22.1871 20.632C22.4608 20.4579 22.6322 20.2795 22.7546 20.0204C22.9011 19.7099 22.8989 19.419 22.8796 19.1511C22.9314 19.1813 24.8402 19.1342 24.9094 19.1342C25.1899 19.1342 25.4308 18.8629 25.5434 18.6244C25.7501 18.1864 25.7148 17.7395 25.679 17.3665C25.661 17.1798 25.6358 16.9955 25.6011 16.8166L25.5484 16.5575L25.5417 16.5291L25.5353 16.5008C25.5666 16.5008 25.5385 16.5558 25.5397 16.5835C25.559 17.0351 25.5509 17.6655 25.3083 18.1794C25.1955 18.4181 25.0111 18.6643 24.7281 18.6643C23.4875 18.6643 24.1115 15.1459 23.1173 14.3095C23.1724 14.2185 23.2215 14.125 23.2628 14.0332C23.8511 14.7437 23.8819 16.7025 24.7478 16.7025C24.958 16.7025 25.1752 16.5055 25.2646 16.3162C25.6492 15.5013 25.0103 14.552 24.7318 14.0169Z" fill="black"/>
<path d="M24.7318 14.0169C24.8534 14.0284 25.0363 14.0175 25.1407 14.0493C25.1603 14.0552 25.1454 14.0797 25.1488 14.099C25.1805 14.2782 25.2304 14.4482 25.2736 14.6213C25.4419 15.2959 25.5432 15.9884 25.7364 16.657C25.9466 17.385 26.1657 18.2054 25.9112 19.1188C25.8863 19.2082 25.8531 19.299 25.8101 19.39C25.5216 20.0013 23.0372 20.7056 22.3886 20.7056C22.3098 20.7056 22.2247 20.6832 22.1871 20.632C22.4608 20.4579 22.6322 20.2795 22.7546 20.0204C22.9011 19.7099 22.8989 19.419 22.8796 19.1511C22.9314 19.1813 24.8402 19.1342 24.9094 19.1342C25.1899 19.1342 25.4308 18.8629 25.5434 18.6244C25.7501 18.1864 25.7148 17.7395 25.679 17.3665C25.661 17.1798 25.6358 16.9955 25.6011 16.8166L25.5484 16.5575L25.5417 16.5291L25.5353 16.5008C25.5666 16.5008 25.5385 16.5558 25.5397 16.5835C25.559 17.0351 25.5509 17.6655 25.3083 18.1794C25.1955 18.4181 25.0111 18.6643 24.7281 18.6643C23.4875 18.6643 24.1115 15.1459 23.1173 14.3095C23.1724 14.2185 23.2215 14.125 23.2628 14.0332C23.8511 14.7437 23.8819 16.7025 24.7478 16.7025C24.958 16.7025 25.1752 16.5055 25.2646 16.3162C25.6492 15.5013 25.0103 14.552 24.7318 14.0169Z" stroke="black" stroke-width="1.2" stroke-miterlimit="3.86369" stroke-linejoin="round"/>
<path d="M9.45129 11.1427C10.3046 11.1427 9.80726 13.2749 9.50382 13.9178C9.24396 14.4683 8.65897 15.2621 7.96567 15.2621C7.13384 15.2621 7.15858 14.3305 7.4897 13.6291C7.66895 13.2494 7.94445 12.8237 8.324 12.5108C8.22685 12.8375 8.55525 13.0606 8.42243 13.342C8.33172 13.5342 8.14395 13.7442 8.04639 13.9509C7.88859 14.2851 7.94888 14.8782 8.3301 14.8782C8.67134 14.8782 8.97457 14.4555 9.09888 14.1922C9.35355 13.6526 9.99032 11.3507 9.27854 11.3507C8.45879 11.3507 7.04623 13.3483 6.75043 13.9749C6.22245 15.0933 6.60517 16.471 7.80817 16.471C8.62101 16.471 9.28959 15.6895 9.61253 15.0054C9.80491 14.5979 9.90966 14.1924 9.95091 13.8101L10.1087 13.7812C10.1436 14.8336 11.2569 16.5762 10.783 17.5802C10.1764 18.8651 8.36272 18.8536 7.32713 19.3097C7.10946 18.8005 6.81457 18.3271 6.39935 17.9658C7.3231 17.655 9.59309 17.1333 10.0867 16.0876C10.2941 15.6483 10.1529 14.9199 9.91322 14.673C9.87244 14.8283 9.81601 14.9866 9.74111 15.1452C9.31847 16.0405 8.41357 16.7348 7.48067 16.7348C6.18183 16.7348 5.6312 15.8015 6.24246 14.5064C6.60932 13.7293 8.48267 11.1427 9.45129 11.1427Z" fill="black"/>
<path d="M9.45129 11.1427C10.3046 11.1427 9.80726 13.2749 9.50382 13.9178C9.24396 14.4683 8.65897 15.2621 7.96567 15.2621C7.13384 15.2621 7.15858 14.3305 7.4897 13.6291C7.66895 13.2494 7.94445 12.8237 8.324 12.5108C8.22685 12.8375 8.55525 13.0606 8.42243 13.342C8.33172 13.5342 8.14395 13.7442 8.04639 13.9509C7.88859 14.2851 7.94888 14.8782 8.3301 14.8782C8.67134 14.8782 8.97457 14.4555 9.09888 14.1922C9.35355 13.6526 9.99032 11.3507 9.27854 11.3507C8.45879 11.3507 7.04623 13.3483 6.75043 13.9749C6.22245 15.0933 6.60517 16.471 7.80817 16.471C8.62101 16.471 9.28959 15.6895 9.61253 15.0054C9.80491 14.5979 9.90966 14.1924 9.95091 13.8101L10.1087 13.7812C10.1436 14.8336 11.2569 16.5762 10.783 17.5802C10.1764 18.8651 8.36272 18.8536 7.32713 19.3097C7.10946 18.8005 6.81457 18.3271 6.39935 17.9658C7.3231 17.655 9.59309 17.1333 10.0867 16.0876C10.2941 15.6483 10.1529 14.9199 9.91322 14.673C9.87244 14.8283 9.81601 14.9866 9.74111 15.1452C9.31847 16.0405 8.41357 16.7348 7.48067 16.7348C6.18183 16.7348 5.6312 15.8015 6.24246 14.5064C6.60932 13.7293 8.48267 11.1427 9.45129 11.1427Z" stroke="black" stroke-width="1.2" stroke-miterlimit="3.86371" stroke-linejoin="round"/>
<path d="M11.6704 14.2287C11.722 14.3555 11.8712 15.0734 11.9845 15.0734C12.2292 15.0734 12.6713 14.4077 12.7899 14.2349C13.0075 14.3773 12.8868 14.6765 13.29 14.6765C13.4725 14.6765 13.5643 14.2832 13.7543 14.2769C13.761 14.4358 13.7712 14.5796 13.6846 14.7632C13.5509 15.0463 13.2129 15.4299 12.8805 15.4299C12.6425 15.4299 12.311 15.1433 12.2458 15.1433C12.1751 15.1433 12.0452 15.1764 12.0038 15.2641C11.8308 15.6307 12.2934 16.8548 12.7574 16.8548C13.0054 16.8548 13.3012 16.6729 13.5605 16.5607C13.493 17.0017 13.4836 17.3736 13.573 17.7531C13.3366 17.9029 13.0598 17.966 12.8377 17.966C11.6976 17.966 12.3263 15.3145 11.275 14.7496L11.6704 14.2287Z" fill="black"/>
<path d="M11.6704 14.2287C11.722 14.3555 11.8712 15.0734 11.9845 15.0734C12.2292 15.0734 12.6713 14.4077 12.7899 14.2349C13.0075 14.3773 12.8868 14.6765 13.29 14.6765C13.4725 14.6765 13.5643 14.2832 13.7543 14.2769C13.761 14.4358 13.7712 14.5796 13.6846 14.7632C13.5509 15.0463 13.2129 15.4299 12.8805 15.4299C12.6425 15.4299 12.311 15.1433 12.2458 15.1433C12.1751 15.1433 12.0452 15.1764 12.0038 15.2641C11.8308 15.6307 12.2934 16.8548 12.7574 16.8548C13.0054 16.8548 13.3012 16.6729 13.5605 16.5607C13.493 17.0017 13.4836 17.3736 13.573 17.7531C13.3366 17.9029 13.0598 17.966 12.8377 17.966C11.6976 17.966 12.3263 15.3145 11.275 14.7496L11.6704 14.2287Z" stroke="black" stroke-width="1.2" stroke-miterlimit="3.86371" stroke-linejoin="round"/>
<path fill-rule="evenodd" clip-rule="evenodd" d="M16.0523 14.0162C16.9139 14.0162 17.2541 15.5663 16.8675 16.3852C16.5676 17.0206 16.0358 17.4812 15.3545 17.4812C14.1514 17.4812 14.3021 15.8411 14.7715 14.8467C14.9009 14.5728 15.3432 13.9757 15.6891 13.9757C15.8162 13.9757 15.9215 14.0162 16.0523 14.0162ZM16.0256 14.1609C15.89 14.1609 15.7707 14.2279 15.7078 14.3614C15.5757 14.6411 16.2343 14.9241 16.1397 15.1243C16.0803 15.2503 15.8538 15.3682 15.7395 15.3682C15.1685 15.3682 15.1734 14.6253 15.5137 14.1411C15.3021 14.276 15.1634 14.4819 15.0732 14.673C14.7386 15.3816 15.0042 16.3565 15.7678 16.3565C16.1897 16.3565 16.6757 15.9775 16.8645 15.5773C17.0968 15.0853 16.5026 14.1609 16.0256 14.1609Z" fill="black"/>
<path d="M16.0523 14.0162C16.9139 14.0162 17.2541 15.5663 16.8675 16.3852C16.5676 17.0206 16.0358 17.4812 15.3545 17.4812C14.1514 17.4812 14.3021 15.8411 14.7715 14.8467C14.9009 14.5728 15.3432 13.9757 15.6891 13.9757C15.8162 13.9757 15.9215 14.0162 16.0523 14.0162Z" stroke="black" stroke-width="1.2" stroke-miterlimit="3.86371" stroke-linejoin="round"/>
<path d="M16.0256 14.1609C15.89 14.1609 15.7707 14.2279 15.7078 14.3614C15.5757 14.6411 16.2343 14.9241 16.1397 15.1243C16.0803 15.2503 15.8538 15.3682 15.7395 15.3682C15.1685 15.3682 15.1734 14.6253 15.5137 14.1411C15.3021 14.276 15.1634 14.4819 15.0732 14.673C14.7386 15.3816 15.0042 16.3565 15.7677 16.3565C16.1897 16.3565 16.6757 15.9775 16.8644 15.5773C17.0968 15.0853 16.5026 14.1609 16.0256 14.1609Z" stroke="black" stroke-width="1.2" stroke-miterlimit="3.86371" stroke-linejoin="round"/>
<path fill-rule="evenodd" clip-rule="evenodd" d="M19.9683 16.568C19.7431 17.045 19.3235 17.3068 18.8511 17.3068C17.3518 17.3068 17.0543 15.9396 17.704 14.5631C17.8575 14.2382 18.1093 13.8788 18.4938 13.8788C19.6983 13.8788 20.5375 15.3622 19.9683 16.568ZM18.772 14.0515C18.6614 14.0515 18.5644 14.0915 18.5114 14.2038C18.3947 14.451 19.0293 14.6714 19.0302 14.9268C18.9639 15.0053 18.7784 15.0931 18.6975 15.0931C18.2405 15.0931 17.8956 14.4736 18.2857 14.0132C18.1274 14.1137 18.0335 14.2642 17.9666 14.4057C17.5711 15.2436 18.1349 16.0908 18.9565 16.0908C19.2985 16.0908 19.7393 15.9004 19.9169 15.5241C20.1683 14.9915 19.2729 14.0515 18.772 14.0515Z" fill="black"/>
<path d="M19.9683 16.568C19.7431 17.045 19.3235 17.3068 18.8511 17.3068C17.3518 17.3068 17.0543 15.9396 17.704 14.5631C17.8575 14.2382 18.1093 13.8788 18.4938 13.8788C19.6983 13.8788 20.5375 15.3622 19.9683 16.568Z" stroke="black" stroke-width="1.2" stroke-miterlimit="3.86371" stroke-linejoin="round"/>
<path d="M18.772 14.0515C18.6614 14.0515 18.5643 14.0915 18.5113 14.2038C18.3947 14.451 19.0292 14.6714 19.0301 14.9268C18.9639 15.0053 18.7783 15.0931 18.6974 15.0931C18.2405 15.0931 17.8956 14.4736 18.2857 14.0132C18.1274 14.1137 18.0334 14.2642 17.9666 14.4057C17.571 15.2436 18.1349 16.0908 18.9565 16.0908C19.2984 16.0908 19.7392 15.9004 19.9168 15.5241C20.1682 14.9915 19.2728 14.0515 18.772 14.0515Z" stroke="black" stroke-width="1.2" stroke-miterlimit="3.86371" stroke-linejoin="round"/>
<path d="M21.5188 14.0433C22.8109 14.0433 23.4674 16.4143 22.89 17.6373C22.7797 17.8711 22.574 18.1049 22.3027 18.1049C20.8265 18.1049 21.2033 15.1706 20.3723 14.3369C20.4483 14.2562 20.5211 14.1717 20.5878 14.0867C21.1493 14.7457 20.8702 16.48 22.0696 16.48C22.3458 16.48 22.5548 16.238 22.6663 16.0019C22.9641 15.371 22.413 14.2753 21.8098 14.2753C21.8038 14.2753 21.7172 14.2789 21.7191 14.3139C21.7413 14.7166 22.0581 14.4655 21.7391 15.1508C21.4132 15.0859 21.068 14.5627 21.2462 14.1852C21.2986 14.0742 21.4298 14.0433 21.5188 14.0433Z" fill="black"/>
<path d="M21.5188 14.0433C22.8109 14.0433 23.4674 16.4143 22.89 17.6373C22.7797 17.8711 22.574 18.1049 22.3027 18.1049C20.8265 18.1049 21.2033 15.1706 20.3723 14.3369C20.4483 14.2562 20.5211 14.1717 20.5878 14.0867C21.1493 14.7457 20.8702 16.48 22.0696 16.48C22.3458 16.48 22.5548 16.238 22.6663 16.0019C22.9641 15.371 22.413 14.2753 21.8098 14.2753C21.8038 14.2753 21.7172 14.2789 21.7191 14.3139C21.7413 14.7166 22.0581 14.4655 21.7391 15.1508C21.4132 15.0859 21.068 14.5627 21.2462 14.1852C21.2986 14.0742 21.4298 14.0433 21.5188 14.0433Z" stroke="black" stroke-width="1.2" stroke-miterlimit="3.86371" stroke-linejoin="round"/>
<path fill-rule="evenodd" clip-rule="evenodd" d="M24.7318 14.0169C24.8534 14.0284 25.0364 14.0175 25.1408 14.0493C25.1604 14.0552 25.1455 14.0797 25.1489 14.099C25.1805 14.2782 25.2304 14.4482 25.2736 14.6213C25.4419 15.2959 25.5432 15.9884 25.7365 16.657C25.9466 17.385 26.1657 18.2053 25.9113 19.1188C25.8864 19.2082 25.8531 19.299 25.8101 19.39C25.5216 20.0013 24.7798 20.5831 24.1311 20.5831C24.0523 20.5831 23.9673 20.5609 23.9296 20.5096C24.2034 20.3356 24.3747 20.1571 24.4971 19.8981C24.6437 19.5875 24.6415 19.2966 24.6222 19.0288C24.6741 19.0589 24.8402 19.1342 24.9094 19.1342C25.19 19.1342 25.4309 18.8629 25.5434 18.6244C25.7502 18.1864 25.7148 17.7394 25.679 17.3665C25.6611 17.1798 25.6359 16.9955 25.6011 16.8166L25.5484 16.5575L25.5418 16.5291L25.5353 16.5008C25.5667 16.5008 25.5385 16.5558 25.5397 16.5835C25.559 17.0351 25.5509 17.6655 25.3084 18.1794C25.1955 18.4181 25.0112 18.6643 24.7281 18.6643C23.4875 18.6643 24.1115 15.1459 23.1173 14.3095C23.1724 14.2185 23.2216 14.1249 23.2628 14.0332C23.8511 14.7437 23.8819 16.7025 24.7479 16.7025C24.958 16.7025 25.1752 16.5055 25.2646 16.3162C25.6493 15.5013 25.0103 14.552 24.7318 14.0169Z" fill="black"/>
<path d="M24.7318 14.0169C24.8534 14.0284 25.0364 14.0175 25.1408 14.0493C25.1604 14.0552 25.1455 14.0797 25.1489 14.099C25.1805 14.2782 25.2304 14.4482 25.2736 14.6213C25.4419 15.2959 25.5432 15.9884 25.7365 16.657C25.9466 17.385 26.1657 18.2053 25.9113 19.1188C25.8864 19.2082 25.8531 19.299 25.8101 19.39C25.5216 20.0013 24.7798 20.5831 24.1311 20.5831C24.0523 20.5831 23.9673 20.5609 23.9296 20.5096C24.2034 20.3356 24.3747 20.1571 24.4971 19.8981C24.6437 19.5875 24.6415 19.2966 24.6222 19.0288C24.6741 19.0589 24.8402 19.1342 24.9094 19.1342C25.19 19.1342 25.4309 18.8629 25.5434 18.6244C25.7502 18.1864 25.7148 17.7394 25.679 17.3665C25.6611 17.1798 25.6359 16.9955 25.6011 16.8166L25.5484 16.5575L25.5418 16.5291L25.5353 16.5008C25.5667 16.5008 25.5385 16.5558 25.5397 16.5835C25.559 17.0351 25.5509 17.6655 25.3084 18.1794C25.1955 18.4181 25.0112 18.6643 24.7281 18.6643C23.4875 18.6643 24.1115 15.1459 23.1173 14.3095C23.1724 14.2185 23.2216 14.1249 23.2628 14.0332C23.8511 14.7437 23.8819 16.7025 24.7479 16.7025C24.958 16.7025 25.1752 16.5055 25.2646 16.3162C25.6493 15.5013 25.0103 14.552 24.7318 14.0169Z" stroke="black" stroke-width="1.2" stroke-miterlimit="3.86371" stroke-linejoin="round"/>
<path d="M9.45129 11.1427C10.3046 11.1427 9.80726 13.2749 9.50382 13.9178C9.24396 14.4683 8.65897 15.2621 7.96567 15.2621C7.13384 15.2621 7.15858 14.3305 7.4897 13.6291C7.66895 13.2494 7.94445 12.8237 8.324 12.5108C8.22685 12.8375 8.55525 13.0606 8.42243 13.342C8.33172 13.5342 8.14395 13.7442 8.04639 13.9509C7.88859 14.2851 7.94888 14.8782 8.3301 14.8782C8.67134 14.8782 8.97457 14.4555 9.09888 14.1922C9.35355 13.6526 9.99032 11.3507 9.27854 11.3507C8.45879 11.3507 7.04623 13.3483 6.75043 13.9749C6.22245 15.0933 6.60517 16.471 7.80817 16.471C8.62101 16.471 9.28959 15.6895 9.61253 15.0054C9.80491 14.5979 9.90966 14.1924 9.95091 13.8101L10.1087 13.7812C10.1436 14.8336 11.2569 16.5762 10.783 17.5802C10.1764 18.8651 8.36272 18.8536 7.32713 19.3097C7.10946 18.8005 6.81457 18.3271 6.39935 17.9658C7.3231 17.655 9.59309 17.1333 10.0867 16.0876C10.2941 15.6483 10.1529 14.9199 9.91322 14.673C9.87244 14.8283 9.81601 14.9866 9.74111 15.1452C9.31847 16.0405 8.41357 16.7348 7.48067 16.7348C6.18183 16.7348 5.6312 15.8015 6.24246 14.5064C6.60932 13.7293 8.48267 11.1427 9.45129 11.1427Z" fill="black"/>
<path d="M9.45129 11.1427C10.3046 11.1427 9.80726 13.2749 9.50382 13.9178C9.24396 14.4683 8.65897 15.2621 7.96567 15.2621C7.13384 15.2621 7.15858 14.3305 7.4897 13.6291C7.66895 13.2494 7.94445 12.8237 8.324 12.5108C8.22685 12.8375 8.55525 13.0606 8.42243 13.342C8.33172 13.5342 8.14395 13.7442 8.04639 13.9509C7.88859 14.2851 7.94888 14.8782 8.3301 14.8782C8.67134 14.8782 8.97457 14.4555 9.09888 14.1922C9.35355 13.6526 9.99032 11.3507 9.27854 11.3507C8.45879 11.3507 7.04623 13.3483 6.75043 13.9749C6.22245 15.0933 6.60517 16.471 7.80817 16.471C8.62101 16.471 9.28959 15.6895 9.61253 15.0054C9.80491 14.5979 9.90966 14.1924 9.95091 13.8101L10.1087 13.7812C10.1436 14.8336 11.2569 16.5762 10.783 17.5802C10.1764 18.8651 8.36272 18.8536 7.32713 19.3097C7.10946 18.8005 6.81457 18.3271 6.39935 17.9658C7.3231 17.655 9.59309 17.1333 10.0867 16.0876C10.2941 15.6483 10.1529 14.9199 9.91322 14.673C9.87244 14.8283 9.81601 14.9866 9.74111 15.1452C9.31847 16.0405 8.41357 16.7348 7.48067 16.7348C6.18183 16.7348 5.6312 15.8015 6.24246 14.5064C6.60932 13.7293 8.48267 11.1427 9.45129 11.1427Z" stroke="black" stroke-width="1.2" stroke-miterlimit="3.86369" stroke-linejoin="round"/>
<path d="M11.6704 14.2287C11.722 14.3555 11.8712 15.0734 11.9845 15.0734C12.2292 15.0734 12.6713 14.4077 12.7899 14.2349C13.0075 14.3773 12.8868 14.6765 13.29 14.6765C13.4725 14.6765 13.5643 14.2832 13.7543 14.2769C13.761 14.4358 13.7712 14.5796 13.6846 14.7632C13.5509 15.0463 13.2129 15.4299 12.8805 15.4299C12.6425 15.4299 12.311 15.1433 12.2458 15.1433C12.1751 15.1433 12.0452 15.1764 12.0038 15.2641C11.8308 15.6307 12.2934 16.8548 12.7574 16.8548C13.0054 16.8548 13.3012 16.6729 13.5605 16.5607C13.493 17.0017 13.4836 17.3736 13.573 17.7531C13.3366 17.9029 13.0598 17.966 12.8377 17.966C11.6976 17.966 12.3263 15.3145 11.275 14.7496L11.6704 14.2287Z" fill="black"/>
<path d="M11.6704 14.2287C11.722 14.3555 11.8712 15.0734 11.9845 15.0734C12.2292 15.0734 12.6713 14.4077 12.7899 14.2349C13.0075 14.3773 12.8868 14.6765 13.29 14.6765C13.4725 14.6765 13.5643 14.2832 13.7543 14.2769C13.761 14.4358 13.7712 14.5796 13.6846 14.7632C13.5509 15.0463 13.2129 15.4299 12.8805 15.4299C12.6425 15.4299 12.311 15.1433 12.2458 15.1433C12.1751 15.1433 12.0452 15.1764 12.0038 15.2641C11.8308 15.6307 12.2934 16.8548 12.7574 16.8548C13.0054 16.8548 13.3012 16.6729 13.5605 16.5607C13.493 17.0017 13.4836 17.3736 13.573 17.7531C13.3366 17.9029 13.0598 17.966 12.8377 17.966C11.6976 17.966 12.3263 15.3145 11.275 14.7496L11.6704 14.2287Z" stroke="black" stroke-width="1.2" stroke-miterlimit="3.86369" stroke-linejoin="round"/>
<path fill-rule="evenodd" clip-rule="evenodd" d="M16.0523 14.0162C16.9139 14.0162 17.2541 15.5663 16.8675 16.3852C16.5676 17.0206 16.0358 17.4812 15.3545 17.4812C14.1514 17.4812 14.3021 15.8411 14.7715 14.8467C14.9009 14.5728 15.3432 13.9757 15.6891 13.9757C15.8162 13.9757 15.9215 14.0162 16.0523 14.0162ZM16.0256 14.1609C15.89 14.1609 15.7707 14.2279 15.7078 14.3614C15.5757 14.6411 16.2343 14.9241 16.1397 15.1243C16.0803 15.2503 15.8538 15.3682 15.7395 15.3682C15.1685 15.3682 15.1734 14.6253 15.5137 14.1411C15.3021 14.276 15.1634 14.4819 15.0732 14.673C14.7386 15.3816 15.0042 16.3565 15.7678 16.3565C16.1897 16.3565 16.6757 15.9775 16.8645 15.5773C17.0968 15.0853 16.5026 14.1609 16.0256 14.1609Z" fill="black"/>
<path d="M16.0523 14.0162C16.9139 14.0162 17.2541 15.5663 16.8675 16.3852C16.5676 17.0206 16.0358 17.4812 15.3545 17.4812C14.1514 17.4812 14.3021 15.8411 14.7715 14.8467C14.9009 14.5728 15.3432 13.9757 15.6891 13.9757C15.8162 13.9757 15.9215 14.0162 16.0523 14.0162Z" stroke="black" stroke-width="1.2" stroke-miterlimit="3.86369" stroke-linejoin="round"/>
<path d="M16.0256 14.1609C15.89 14.1609 15.7707 14.2279 15.7078 14.3614C15.5757 14.6411 16.2343 14.9241 16.1397 15.1243C16.0803 15.2503 15.8538 15.3682 15.7395 15.3682C15.1685 15.3682 15.1734 14.6253 15.5137 14.1411C15.3021 14.276 15.1634 14.4819 15.0732 14.673C14.7386 15.3816 15.0042 16.3565 15.7677 16.3565C16.1897 16.3565 16.6757 15.9775 16.8644 15.5773C17.0968 15.0853 16.5026 14.1609 16.0256 14.1609Z" stroke="black" stroke-width="1.2" stroke-miterlimit="3.86369" stroke-linejoin="round"/>
<path fill-rule="evenodd" clip-rule="evenodd" d="M19.9683 16.568C19.7431 17.045 19.3235 17.3068 18.8511 17.3068C17.3518 17.3068 17.0543 15.9396 17.704 14.5631C17.8575 14.2382 18.1093 13.8788 18.4938 13.8788C19.6983 13.8788 20.5375 15.3622 19.9683 16.568ZM18.772 14.0515C18.6614 14.0515 18.5644 14.0915 18.5114 14.2038C18.3947 14.451 19.0293 14.6714 19.0302 14.9268C18.9639 15.0053 18.7784 15.0931 18.6975 15.0931C18.2405 15.0931 17.8956 14.4736 18.2857 14.0132C18.1274 14.1137 18.0335 14.2642 17.9666 14.4057C17.5711 15.2436 18.1349 16.0908 18.9565 16.0908C19.2985 16.0908 19.7393 15.9004 19.9169 15.5241C20.1683 14.9915 19.2729 14.0515 18.772 14.0515Z" fill="black"/>
<path d="M19.9683 16.568C19.7431 17.045 19.3235 17.3068 18.8511 17.3068C17.3518 17.3068 17.0543 15.9396 17.704 14.5631C17.8575 14.2382 18.1093 13.8788 18.4938 13.8788C19.6983 13.8788 20.5375 15.3622 19.9683 16.568Z" stroke="black" stroke-width="1.2" stroke-miterlimit="3.86369" stroke-linejoin="round"/>
<path d="M18.772 14.0515C18.6614 14.0515 18.5643 14.0915 18.5113 14.2038C18.3947 14.451 19.0292 14.6714 19.0301 14.9268C18.9639 15.0053 18.7783 15.0931 18.6974 15.0931C18.2405 15.0931 17.8956 14.4736 18.2857 14.0132C18.1274 14.1137 18.0334 14.2642 17.9666 14.4057C17.571 15.2436 18.1349 16.0908 18.9565 16.0908C19.2984 16.0908 19.7392 15.9004 19.9168 15.5241C20.1682 14.9915 19.2728 14.0515 18.772 14.0515Z" stroke="black" stroke-width="1.2" stroke-miterlimit="3.86369" stroke-linejoin="round"/>
<path d="M21.5188 14.0433C22.8109 14.0433 23.4674 16.4143 22.89 17.6373C22.7797 17.8711 22.574 18.1049 22.3027 18.1049C20.8265 18.1049 21.2033 15.1706 20.3723 14.3369C20.4483 14.2562 20.5211 14.1717 20.5878 14.0867C21.1493 14.7457 20.8702 16.48 22.0696 16.48C22.3458 16.48 22.5548 16.238 22.6663 16.0019C22.9641 15.371 22.413 14.2753 21.8098 14.2753C21.8038 14.2753 21.7172 14.2789 21.7191 14.3139C21.7413 14.7166 22.0581 14.4655 21.7391 15.1508C21.4132 15.0859 21.068 14.5627 21.2462 14.1852C21.2986 14.0742 21.4298 14.0433 21.5188 14.0433Z" fill="black"/>
<path d="M21.5188 14.0433C22.8109 14.0433 23.4674 16.4143 22.89 17.6373C22.7797 17.8711 22.574 18.1049 22.3027 18.1049C20.8265 18.1049 21.2033 15.1706 20.3723 14.3369C20.4483 14.2562 20.5211 14.1717 20.5878 14.0867C21.1493 14.7457 20.8702 16.48 22.0696 16.48C22.3458 16.48 22.5548 16.238 22.6663 16.0019C22.9641 15.371 22.413 14.2753 21.8098 14.2753C21.8038 14.2753 21.7172 14.2789 21.7191 14.3139C21.7413 14.7166 22.0581 14.4655 21.7391 15.1508C21.4132 15.0859 21.068 14.5627 21.2462 14.1852C21.2986 14.0742 21.4298 14.0433 21.5188 14.0433Z" stroke="black" stroke-width="1.2" stroke-miterlimit="3.86369" stroke-linejoin="round"/>
<path fill-rule="evenodd" clip-rule="evenodd" d="M24.7318 14.0169C24.8534 14.0284 25.0364 14.0175 25.1408 14.0493C25.1604 14.0552 25.1455 14.0797 25.1489 14.099C25.1805 14.2782 25.2304 14.4482 25.2736 14.6213C25.4419 15.2959 25.5432 15.9884 25.7365 16.657C25.9466 17.385 26.1657 18.2053 25.9113 19.1188C25.8864 19.2082 25.8531 19.299 25.8101 19.39C25.5216 20.0013 24.7798 20.5831 24.1311 20.5831C24.0523 20.5831 23.9673 20.5609 23.9296 20.5096C24.2034 20.3356 24.3747 20.1571 24.4971 19.8981C24.6437 19.5875 24.6415 19.2966 24.6222 19.0288C24.6741 19.0589 24.8402 19.1342 24.9094 19.1342C25.19 19.1342 25.4309 18.8629 25.5434 18.6244C25.7502 18.1864 25.7148 17.7394 25.679 17.3665C25.6611 17.1798 25.6359 16.9955 25.6011 16.8166L25.5484 16.5575L25.5418 16.5291L25.5353 16.5008C25.5667 16.5008 25.5385 16.5558 25.5397 16.5835C25.559 17.0351 25.5509 17.6655 25.3084 18.1794C25.1955 18.4181 25.0112 18.6643 24.7281 18.6643C23.4875 18.6643 24.1115 15.1459 23.1173 14.3095C23.1724 14.2185 23.2216 14.1249 23.2628 14.0332C23.8511 14.7437 23.8819 16.7025 24.7479 16.7025C24.958 16.7025 25.1752 16.5055 25.2646 16.3162C25.6493 15.5013 25.0103 14.552 24.7318 14.0169Z" fill="black"/>
<path d="M24.7318 14.0169C24.8534 14.0284 25.0364 14.0175 25.1408 14.0493C25.1604 14.0552 25.1455 14.0797 25.1489 14.099C25.1805 14.2782 25.2304 14.4482 25.2736 14.6213C25.4419 15.2959 25.5432 15.9884 25.7365 16.657C25.9466 17.385 26.1657 18.2053 25.9113 19.1188C25.8864 19.2082 25.8531 19.299 25.8101 19.39C25.5216 20.0013 24.7798 20.5831 24.1311 20.5831C24.0523 20.5831 23.9673 20.5609 23.9296 20.5096C24.2034 20.3356 24.3747 20.1571 24.4971 19.8981C24.6437 19.5875 24.6415 19.2966 24.6222 19.0288C24.6741 19.0589 24.8402 19.1342 24.9094 19.1342C25.19 19.1342 25.4309 18.8629 25.5434 18.6244C25.7502 18.1864 25.7148 17.7394 25.679 17.3665C25.6611 17.1798 25.6359 16.9955 25.6011 16.8166L25.5484 16.5575L25.5418 16.5291L25.5353 16.5008C25.5667 16.5008 25.5385 16.5558 25.5397 16.5835C25.559 17.0351 25.5509 17.6655 25.3084 18.1794C25.1955 18.4181 25.0112 18.6643 24.7281 18.6643C23.4875 18.6643 24.1115 15.1459 23.1173 14.3095C23.1724 14.2185 23.2216 14.1249 23.2628 14.0332C23.8511 14.7437 23.8819 16.7025 24.7479 16.7025C24.958 16.7025 25.1752 16.5055 25.2646 16.3162C25.6493 15.5013 25.0103 14.552 24.7318 14.0169Z" stroke="black" stroke-width="1.2" stroke-miterlimit="3.86369" stroke-linejoin="round"/>
<path d="M9.45129 11.1427C10.3046 11.1427 9.80726 13.2749 9.50382 13.9178C9.24396 14.4683 8.65897 15.2621 7.96567 15.2621C7.13384 15.2621 7.15858 14.3305 7.4897 13.6291C7.66895 13.2494 7.94445 12.8237 8.324 12.5108C8.22685 12.8375 8.55525 13.0606 8.42243 13.342C8.33172 13.5342 8.14395 13.7442 8.04639 13.9509C7.88859 14.2851 7.94888 14.8782 8.3301 14.8782C8.67134 14.8782 8.97457 14.4555 9.09888 14.1922C9.35355 13.6526 9.99032 11.3507 9.27854 11.3507C8.45879 11.3507 7.04623 13.3483 6.75043 13.9749C6.22245 15.0933 6.60517 16.471 7.80817 16.471C8.62101 16.471 9.28959 15.6895 9.61253 15.0054C9.80491 14.5979 9.90966 14.1924 9.95091 13.8101L10.1087 13.7812C10.1436 14.8336 11.2569 16.5762 10.783 17.5802C10.1764 18.8651 8.36272 18.8536 7.32713 19.3097C7.10946 18.8005 6.81457 18.3271 6.39935 17.9658C7.3231 17.655 9.59309 17.1333 10.0867 16.0876C10.2941 15.6483 10.1529 14.9199 9.91322 14.673C9.87244 14.8283 9.81601 14.9866 9.74111 15.1452C9.31847 16.0405 8.41357 16.7348 7.48067 16.7348C6.18183 16.7348 5.6312 15.8015 6.24246 14.5064C6.60932 13.7293 8.48267 11.1427 9.45129 11.1427Z" fill="white"/>
<path d="M11.6704 14.2287C11.722 14.3555 11.8712 15.0734 11.9845 15.0734C12.2292 15.0734 12.6713 14.4077 12.7899 14.2349C13.0075 14.3773 12.8868 14.6765 13.29 14.6765C13.4725 14.6765 13.5643 14.2832 13.7543 14.2769C13.761 14.4358 13.7712 14.5796 13.6846 14.7632C13.5509 15.0463 13.2129 15.4299 12.8805 15.4299C12.6425 15.4299 12.311 15.1433 12.2458 15.1433C12.1751 15.1433 12.0452 15.1764 12.0038 15.2641C11.8308 15.6307 12.2934 16.8548 12.7574 16.8548C13.0054 16.8548 13.3012 16.6729 13.5605 16.5607C13.493 17.0017 13.4836 17.3736 13.573 17.7531C13.3366 17.9029 13.0598 17.966 12.8377 17.966C11.6976 17.966 12.3263 15.3145 11.275 14.7496L11.6704 14.2287Z" fill="white"/>
<path fill-rule="evenodd" clip-rule="evenodd" d="M16.0523 14.0162C16.9139 14.0162 17.2541 15.5663 16.8675 16.3852C16.5676 17.0206 16.0358 17.4812 15.3545 17.4812C14.1514 17.4812 14.3021 15.8411 14.7715 14.8467C14.9009 14.5728 15.3432 13.9757 15.6891 13.9757C15.8162 13.9757 15.9215 14.0162 16.0523 14.0162ZM16.0256 14.1609C15.89 14.1609 15.7707 14.2279 15.7078 14.3614C15.5757 14.6411 16.2343 14.9241 16.1397 15.1243C16.0803 15.2503 15.8538 15.3682 15.7395 15.3682C15.1685 15.3682 15.1734 14.6253 15.5137 14.1411C15.3021 14.276 15.1634 14.4819 15.0732 14.673C14.7386 15.3816 15.0042 16.3565 15.7678 16.3565C16.1897 16.3565 16.6757 15.9775 16.8645 15.5773C17.0968 15.0853 16.5026 14.1609 16.0256 14.1609Z" fill="white"/>
<path fill-rule="evenodd" clip-rule="evenodd" d="M19.9683 16.568C19.7431 17.045 19.3235 17.3068 18.8511 17.3068C17.3518 17.3068 17.0543 15.9396 17.704 14.5631C17.8575 14.2382 18.1093 13.8788 18.4938 13.8788C19.6983 13.8788 20.5375 15.3622 19.9683 16.568ZM18.772 14.0515C18.6614 14.0515 18.5644 14.0915 18.5114 14.2038C18.3947 14.451 19.0293 14.6714 19.0302 14.9268C18.9639 15.0053 18.7784 15.0931 18.6975 15.0931C18.2405 15.0931 17.8956 14.4736 18.2857 14.0132C18.1274 14.1137 18.0335 14.2642 17.9666 14.4057C17.5711 15.2436 18.1349 16.0908 18.9565 16.0908C19.2985 16.0908 19.7393 15.9004 19.9169 15.5241C20.1683 14.9915 19.2729 14.0515 18.772 14.0515Z" fill="white"/>
<path d="M21.5188 14.0433C22.8109 14.0433 23.4674 16.4143 22.89 17.6373C22.7797 17.8711 22.574 18.1049 22.3027 18.1049C20.8265 18.1049 21.2033 15.1706 20.3723 14.3369C20.4483 14.2562 20.5211 14.1717 20.5878 14.0867C21.1493 14.7457 20.8702 16.48 22.0696 16.48C22.3458 16.48 22.5548 16.238 22.6663 16.0019C22.9641 15.371 22.413 14.2753 21.8098 14.2753C21.8038 14.2753 21.7172 14.2789 21.7191 14.3139C21.7413 14.7166 22.0581 14.4655 21.7391 15.1508C21.4132 15.0859 21.068 14.5627 21.2462 14.1852C21.2986 14.0742 21.4298 14.0433 21.5188 14.0433Z" fill="white"/>
<path fill-rule="evenodd" clip-rule="evenodd" d="M24.7318 14.0169C24.8535 14.0284 25.0364 14.0175 25.1408 14.0493C25.1604 14.0552 25.1455 14.0797 25.1489 14.099C25.1805 14.2782 25.2305 14.4482 25.2736 14.6213C25.4419 15.2959 25.5433 15.9884 25.7365 16.657C25.9466 17.385 26.1658 18.2053 25.9113 19.1188C25.8864 19.2082 25.8531 19.2989 25.8101 19.39C24.8427 21.2483 22.7723 20.7474 22.1237 20.7474C22.0449 20.7474 21.9598 20.7251 21.9222 20.6738C22.1959 20.4998 22.3673 20.3214 22.4895 20.0623C22.6362 19.7517 22.634 19.4608 22.6147 19.193C22.6665 19.2232 22.8328 19.2984 22.9019 19.2984C23.1824 19.2984 24.7462 20.1019 25.5434 18.6244C25.7502 18.1864 25.7148 17.7394 25.679 17.3665C25.6611 17.1798 25.6359 16.9955 25.6011 16.8166L25.5484 16.5575L25.5418 16.5291L25.5353 16.5008C25.5667 16.5008 25.5385 16.5558 25.5397 16.5835C25.559 17.0351 25.5509 17.6655 25.3084 18.1794C25.1956 18.4181 25.0112 18.6643 24.7281 18.6643C23.4875 18.6643 24.1115 15.1459 23.1173 14.3095C23.1724 14.2185 23.2216 14.1249 23.2628 14.0332C23.8512 14.7437 23.8819 16.7025 24.7479 16.7025C24.958 16.7025 25.1752 16.5055 25.2646 16.3162C25.6493 15.5013 25.0103 14.552 24.7318 14.0169Z" fill="white"/>
<path d="M25.8732 23.9563L15.9917 20.1188L6.11067 23.9554L10.0122 17.8392L0.0032959 14.0939L12.296 14.1513L15.9913 7.99999L19.6869 14.1516L31.9799 14.0953L21.971 17.8398L25.8732 23.9563Z" fill="black"/>
<path d="M24.5512 22.8482L16.0086 19.5371L7.46654 22.8475L10.8394 17.5702L2.18677 14.3386L12.8137 14.3881L16.0083 9.08035L19.2032 14.3883L29.8303 14.3397L21.1777 17.5706L24.5512 22.8482Z" fill="#619CBC"/>
<path d="M9.45129 11.1427C10.3046 11.1427 9.80726 13.2749 9.50382 13.9178C9.24396 14.4683 8.65897 15.2621 7.96567 15.2621C7.13384 15.2621 7.15858 14.3305 7.4897 13.6291C7.66895 13.2494 7.94445 12.8237 8.324 12.5108C8.22685 12.8375 8.55525 13.0606 8.42243 13.342C8.33172 13.5342 8.14395 13.7442 8.04639 13.9509C7.88859 14.2851 7.94888 14.8782 8.3301 14.8782C8.67134 14.8782 8.97457 14.4555 9.09888 14.1922C9.35355 13.6526 9.99032 11.3507 9.27854 11.3507C8.45879 11.3507 7.04623 13.3483 6.75043 13.9749C6.22245 15.0933 6.60517 16.471 7.80817 16.471C8.62101 16.471 9.28959 15.6895 9.61253 15.0054C9.80491 14.5979 9.90966 14.1924 9.95091 13.8101L10.1087 13.7812C10.1436 14.8336 11.2569 16.5762 10.783 17.5802C10.1764 18.8651 8.36272 18.8536 7.32713 19.3097C7.10946 18.8005 6.81457 18.3271 6.39935 17.9658C7.3231 17.655 9.59309 17.1333 10.0867 16.0876C10.2941 15.6483 10.1529 14.9199 9.91322 14.673C9.87244 14.8283 9.81601 14.9866 9.74111 15.1452C9.31847 16.0405 8.41357 16.7348 7.48067 16.7348C6.18183 16.7348 5.6312 15.8015 6.24246 14.5064C6.60932 13.7293 8.48267 11.1427 9.45129 11.1427Z" fill="black"/>
<path d="M9.45129 11.1427C10.3046 11.1427 9.80726 13.2749 9.50382 13.9178C9.24396 14.4683 8.65897 15.2621 7.96567 15.2621C7.13384 15.2621 7.15858 14.3305 7.4897 13.6291C7.66895 13.2494 7.94445 12.8237 8.324 12.5108C8.22685 12.8375 8.55525 13.0606 8.42243 13.342C8.33172 13.5342 8.14395 13.7442 8.04639 13.9509C7.88859 14.2851 7.94888 14.8782 8.3301 14.8782C8.67134 14.8782 8.97457 14.4555 9.09888 14.1922C9.35355 13.6526 9.99032 11.3507 9.27854 11.3507C8.45879 11.3507 7.04623 13.3483 6.75043 13.9749C6.22245 15.0933 6.60517 16.471 7.80817 16.471C8.62101 16.471 9.28959 15.6895 9.61253 15.0054C9.80491 14.5979 9.90966 14.1924 9.95091 13.8101L10.1087 13.7812C10.1436 14.8336 11.2569 16.5762 10.783 17.5802C10.1764 18.8651 8.36272 18.8536 7.32713 19.3097C7.10946 18.8005 6.81457 18.3271 6.39935 17.9658C7.3231 17.655 9.59309 17.1333 10.0867 16.0876C10.2941 15.6483 10.1529 14.9199 9.91322 14.673C9.87244 14.8283 9.81601 14.9866 9.74111 15.1452C9.31847 16.0405 8.41357 16.7348 7.48067 16.7348C6.18183 16.7348 5.6312 15.8015 6.24246 14.5064C6.60932 13.7293 8.48267 11.1427 9.45129 11.1427Z" stroke="black" stroke-width="1.2" stroke-miterlimit="3.86369" stroke-linejoin="round"/>
<path d="M11.6704 14.2287C11.722 14.3555 11.8712 15.0734 11.9845 15.0734C12.2292 15.0734 12.6713 14.4077 12.7899 14.2349C13.0075 14.3773 12.8868 14.6765 13.29 14.6765C13.4725 14.6765 13.5643 14.2832 13.7543 14.2769C13.761 14.4358 13.7712 14.5796 13.6846 14.7632C13.5509 15.0463 13.2129 15.4299 12.8805 15.4299C12.6425 15.4299 12.311 15.1433 12.2458 15.1433C12.1751 15.1433 12.0452 15.1764 12.0038 15.2641C11.8308 15.6307 12.2934 16.8548 12.7574 16.8548C13.0054 16.8548 13.3012 16.6729 13.5605 16.5607C13.493 17.0017 13.4836 17.3736 13.573 17.7531C13.3366 17.9029 13.0598 17.966 12.8377 17.966C11.6976 17.966 12.3263 15.3145 11.275 14.7496L11.6704 14.2287Z" fill="black"/>
<path d="M11.6704 14.2287C11.722 14.3555 11.8712 15.0734 11.9845 15.0734C12.2292 15.0734 12.6713 14.4077 12.7899 14.2349C13.0075 14.3773 12.8868 14.6765 13.29 14.6765C13.4725 14.6765 13.5643 14.2832 13.7543 14.2769C13.761 14.4358 13.7712 14.5796 13.6846 14.7632C13.5509 15.0463 13.2129 15.4299 12.8805 15.4299C12.6425 15.4299 12.311 15.1433 12.2458 15.1433C12.1751 15.1433 12.0452 15.1764 12.0038 15.2641C11.8308 15.6307 12.2934 16.8548 12.7574 16.8548C13.0054 16.8548 13.3012 16.6729 13.5605 16.5607C13.493 17.0017 13.4836 17.3736 13.573 17.7531C13.3366 17.9029 13.0598 17.966 12.8377 17.966C11.6976 17.966 12.3263 15.3145 11.275 14.7496L11.6704 14.2287Z" stroke="black" stroke-width="1.2" stroke-miterlimit="3.86369" stroke-linejoin="round"/>
<path fill-rule="evenodd" clip-rule="evenodd" d="M16.0523 14.0162C16.9139 14.0162 17.2541 15.5663 16.8675 16.3852C16.5676 17.0206 16.0358 17.4812 15.3545 17.4812C14.1514 17.4812 14.3021 15.8411 14.7715 14.8467C14.9009 14.5728 15.3432 13.9757 15.6891 13.9757C15.8162 13.9757 15.9215 14.0162 16.0523 14.0162ZM16.0256 14.1609C15.89 14.1609 15.7707 14.2279 15.7078 14.3614C15.5757 14.6411 16.2343 14.9241 16.1397 15.1243C16.0803 15.2503 15.8538 15.3682 15.7395 15.3682C15.1685 15.3682 15.1734 14.6253 15.5137 14.1411C15.3021 14.276 15.1634 14.4819 15.0732 14.673C14.7386 15.3816 15.0042 16.3565 15.7678 16.3565C16.1897 16.3565 16.6757 15.9775 16.8645 15.5773C17.0968 15.0853 16.5026 14.1609 16.0256 14.1609Z" fill="black"/>
<path d="M16.0523 14.0162C16.9139 14.0162 17.2541 15.5663 16.8675 16.3852C16.5676 17.0206 16.0358 17.4812 15.3545 17.4812C14.1514 17.4812 14.3021 15.8411 14.7715 14.8467C14.9009 14.5728 15.3432 13.9757 15.6891 13.9757C15.8162 13.9757 15.9215 14.0162 16.0523 14.0162Z" stroke="black" stroke-width="1.2" stroke-miterlimit="3.86369" stroke-linejoin="round"/>
<path d="M16.0256 14.1609C15.89 14.1609 15.7707 14.2279 15.7078 14.3614C15.5757 14.6411 16.2343 14.9241 16.1397 15.1243C16.0803 15.2503 15.8538 15.3682 15.7395 15.3682C15.1685 15.3682 15.1734 14.6253 15.5137 14.1411C15.3021 14.276 15.1634 14.4819 15.0732 14.673C14.7386 15.3816 15.0042 16.3565 15.7677 16.3565C16.1897 16.3565 16.6757 15.9775 16.8644 15.5773C17.0968 15.0853 16.5026 14.1609 16.0256 14.1609Z" stroke="black" stroke-width="1.2" stroke-miterlimit="3.86369" stroke-linejoin="round"/>
<path fill-rule="evenodd" clip-rule="evenodd" d="M19.9683 16.568C19.7431 17.045 19.3235 17.3068 18.8511 17.3068C17.3518 17.3068 17.0543 15.9396 17.704 14.5631C17.8575 14.2382 18.1093 13.8788 18.4938 13.8788C19.6983 13.8788 20.5375 15.3622 19.9683 16.568ZM18.772 14.0515C18.6614 14.0515 18.5644 14.0915 18.5114 14.2038C18.3947 14.451 19.0293 14.6714 19.0302 14.9268C18.9639 15.0053 18.7784 15.0931 18.6975 15.0931C18.2405 15.0931 17.8956 14.4736 18.2857 14.0132C18.1274 14.1137 18.0335 14.2642 17.9666 14.4057C17.5711 15.2436 18.1349 16.0908 18.9565 16.0908C19.2985 16.0908 19.7393 15.9004 19.9169 15.5241C20.1683 14.9915 19.2729 14.0515 18.772 14.0515Z" fill="black"/>
<path d="M19.9683 16.568C19.7431 17.045 19.3235 17.3068 18.8511 17.3068C17.3518 17.3068 17.0543 15.9396 17.704 14.5631C17.8575 14.2382 18.1093 13.8788 18.4938 13.8788C19.6983 13.8788 20.5375 15.3622 19.9683 16.568Z" stroke="black" stroke-width="1.2" stroke-miterlimit="3.86369" stroke-linejoin="round"/>
<path d="M18.772 14.0515C18.6614 14.0515 18.5643 14.0915 18.5113 14.2038C18.3947 14.451 19.0292 14.6714 19.0301 14.9268C18.9639 15.0053 18.7783 15.0931 18.6974 15.0931C18.2405 15.0931 17.8956 14.4736 18.2857 14.0132C18.1274 14.1137 18.0334 14.2642 17.9666 14.4057C17.571 15.2436 18.1349 16.0908 18.9565 16.0908C19.2984 16.0908 19.7392 15.9004 19.9168 15.5241C20.1682 14.9915 19.2728 14.0515 18.772 14.0515Z" stroke="black" stroke-width="1.2" stroke-miterlimit="3.86369" stroke-linejoin="round"/>
<path d="M21.5188 14.0433C22.8109 14.0433 23.4674 16.4143 22.89 17.6373C22.7797 17.8711 22.574 18.1049 22.3027 18.1049C20.8265 18.1049 21.2033 15.1706 20.3723 14.3369C20.4483 14.2562 20.5211 14.1717 20.5878 14.0867C21.1493 14.7457 20.8702 16.48 22.0696 16.48C22.3458 16.48 22.5548 16.238 22.6663 16.0019C22.9641 15.371 22.413 14.2753 21.8098 14.2753C21.8038 14.2753 21.7172 14.2789 21.7191 14.3139C21.7413 14.7166 22.0581 14.4655 21.7391 15.1508C21.4132 15.0859 21.068 14.5627 21.2462 14.1852C21.2986 14.0742 21.4298 14.0433 21.5188 14.0433Z" fill="black"/>
<path d="M21.5188 14.0433C22.8109 14.0433 23.4674 16.4143 22.89 17.6373C22.7797 17.8711 22.574 18.1049 22.3027 18.1049C20.8265 18.1049 21.2033 15.1706 20.3723 14.3369C20.4483 14.2562 20.5211 14.1717 20.5878 14.0867C21.1493 14.7457 20.8702 16.48 22.0696 16.48C22.3458 16.48 22.5548 16.238 22.6663 16.0019C22.9641 15.371 22.413 14.2753 21.8098 14.2753C21.8038 14.2753 21.7172 14.2789 21.7191 14.3139C21.7413 14.7166 22.0581 14.4655 21.7391 15.1508C21.4132 15.0859 21.068 14.5627 21.2462 14.1852C21.2986 14.0742 21.4298 14.0433 21.5188 14.0433Z" stroke="black" stroke-width="1.2" stroke-miterlimit="3.86369" stroke-linejoin="round"/>
<path fill-rule="evenodd" clip-rule="evenodd" d="M24.7318 14.0169C24.8534 14.0284 25.0363 14.0175 25.1407 14.0493C25.1603 14.0552 25.1454 14.0797 25.1488 14.099C25.1805 14.2782 25.2304 14.4482 25.2736 14.6213C25.4419 15.2959 25.5432 15.9884 25.7364 16.657C25.9466 17.385 26.1657 18.2054 25.9112 19.1188C25.8863 19.2082 25.8531 19.299 25.8101 19.39C25.5216 20.0013 23.0372 20.7056 22.3886 20.7056C22.3098 20.7056 22.2247 20.6832 22.1871 20.632C22.4608 20.4579 22.6322 20.2795 22.7546 20.0204C22.9011 19.7099 22.8989 19.419 22.8796 19.1511C22.9314 19.1813 24.8402 19.1342 24.9094 19.1342C25.1899 19.1342 25.4308 18.8629 25.5434 18.6244C25.7501 18.1864 25.7148 17.7395 25.679 17.3665C25.661 17.1798 25.6358 16.9955 25.6011 16.8166L25.5484 16.5575L25.5417 16.5291L25.5353 16.5008C25.5666 16.5008 25.5385 16.5558 25.5397 16.5835C25.559 17.0351 25.5509 17.6655 25.3083 18.1794C25.1955 18.4181 25.0111 18.6643 24.7281 18.6643C23.4875 18.6643 24.1115 15.1459 23.1173 14.3095C23.1724 14.2185 23.2215 14.125 23.2628 14.0332C23.8511 14.7437 23.8819 16.7025 24.7478 16.7025C24.958 16.7025 25.1752 16.5055 25.2646 16.3162C25.6492 15.5013 25.0103 14.552 24.7318 14.0169Z" fill="black"/>
<path d="M24.7318 14.0169C24.8534 14.0284 25.0363 14.0175 25.1407 14.0493C25.1603 14.0552 25.1454 14.0797 25.1488 14.099C25.1805 14.2782 25.2304 14.4482 25.2736 14.6213C25.4419 15.2959 25.5432 15.9884 25.7364 16.657C25.9466 17.385 26.1657 18.2054 25.9112 19.1188C25.8863 19.2082 25.8531 19.299 25.8101 19.39C25.5216 20.0013 23.0372 20.7056 22.3886 20.7056C22.3098 20.7056 22.2247 20.6832 22.1871 20.632C22.4608 20.4579 22.6322 20.2795 22.7546 20.0204C22.9011 19.7099 22.8989 19.419 22.8796 19.1511C22.9314 19.1813 24.8402 19.1342 24.9094 19.1342C25.1899 19.1342 25.4308 18.8629 25.5434 18.6244C25.7501 18.1864 25.7148 17.7395 25.679 17.3665C25.661 17.1798 25.6358 16.9955 25.6011 16.8166L25.5484 16.5575L25.5417 16.5291L25.5353 16.5008C25.5666 16.5008 25.5385 16.5558 25.5397 16.5835C25.559 17.0351 25.5509 17.6655 25.3083 18.1794C25.1955 18.4181 25.0111 18.6643 24.7281 18.6643C23.4875 18.6643 24.1115 15.1459 23.1173 14.3095C23.1724 14.2185 23.2215 14.125 23.2628 14.0332C23.8511 14.7437 23.8819 16.7025 24.7478 16.7025C24.958 16.7025 25.1752 16.5055 25.2646 16.3162C25.6492 15.5013 25.0103 14.552 24.7318 14.0169Z" stroke="black" stroke-width="1.4" stroke-miterlimit="3.86369" stroke-linejoin="round"/>
<path d="M9.45129 11.1427C10.3046 11.1427 9.80726 13.2749 9.50382 13.9178C9.24396 14.4683 8.65897 15.2621 7.96567 15.2621C7.13384 15.2621 7.15858 14.3305 7.4897 13.6291C7.66895 13.2494 7.94445 12.8237 8.324 12.5108C8.22685 12.8375 8.55525 13.0606 8.42243 13.342C8.33172 13.5342 8.14395 13.7442 8.04639 13.9509C7.88859 14.2851 7.94888 14.8782 8.3301 14.8782C8.67134 14.8782 8.97457 14.4555 9.09888 14.1922C9.35355 13.6526 9.99032 11.3507 9.27854 11.3507C8.45879 11.3507 7.04623 13.3483 6.75043 13.9749C6.22245 15.0933 6.60517 16.471 7.80817 16.471C8.62101 16.471 9.28959 15.6895 9.61253 15.0054C9.80491 14.5979 9.90966 14.1924 9.95091 13.8101L10.1087 13.7812C10.1436 14.8336 11.2569 16.5762 10.783 17.5802C10.1764 18.8651 8.36272 18.8536 7.32713 19.3097C7.10946 18.8005 6.81457 18.3271 6.39935 17.9658C7.3231 17.655 9.59309 17.1333 10.0867 16.0876C10.2941 15.6483 10.1529 14.9199 9.91322 14.673C9.87244 14.8283 9.81601 14.9866 9.74111 15.1452C9.31847 16.0405 8.41357 16.7348 7.48067 16.7348C6.18183 16.7348 5.6312 15.8015 6.24246 14.5064C6.60932 13.7293 8.48267 11.1427 9.45129 11.1427Z" fill="black"/>
<path d="M9.45129 11.1427C10.3046 11.1427 9.80726 13.2749 9.50382 13.9178C9.24396 14.4683 8.65897 15.2621 7.96567 15.2621C7.13384 15.2621 7.15858 14.3305 7.4897 13.6291C7.66895 13.2494 7.94445 12.8237 8.324 12.5108C8.22685 12.8375 8.55525 13.0606 8.42243 13.342C8.33172 13.5342 8.14395 13.7442 8.04639 13.9509C7.88859 14.2851 7.94888 14.8782 8.3301 14.8782C8.67134 14.8782 8.97457 14.4555 9.09888 14.1922C9.35355 13.6526 9.99032 11.3507 9.27854 11.3507C8.45879 11.3507 7.04623 13.3483 6.75043 13.9749C6.22245 15.0933 6.60517 16.471 7.80817 16.471C8.62101 16.471 9.28959 15.6895 9.61253 15.0054C9.80491 14.5979 9.90966 14.1924 9.95091 13.8101L10.1087 13.7812C10.1436 14.8336 11.2569 16.5762 10.783 17.5802C10.1764 18.8651 8.36272 18.8536 7.32713 19.3097C7.10946 18.8005 6.81457 18.3271 6.39935 17.9658C7.3231 17.655 9.59309 17.1333 10.0867 16.0876C10.2941 15.6483 10.1529 14.9199 9.91322 14.673C9.87244 14.8283 9.81601 14.9866 9.74111 15.1452C9.31847 16.0405 8.41357 16.7348 7.48067 16.7348C6.18183 16.7348 5.6312 15.8015 6.24246 14.5064C6.60932 13.7293 8.48267 11.1427 9.45129 11.1427Z" stroke="black" stroke-width="1.2" stroke-miterlimit="3.86371" stroke-linejoin="round"/>
<path d="M11.6704 14.2287C11.722 14.3555 11.8712 15.0734 11.9845 15.0734C12.2292 15.0734 12.6713 14.4077 12.7899 14.2349C13.0075 14.3773 12.8868 14.6765 13.29 14.6765C13.4725 14.6765 13.5643 14.2832 13.7543 14.2769C13.761 14.4358 13.7712 14.5796 13.6846 14.7632C13.5509 15.0463 13.2129 15.4299 12.8805 15.4299C12.6425 15.4299 12.311 15.1433 12.2458 15.1433C12.1751 15.1433 12.0452 15.1764 12.0038 15.2641C11.8308 15.6307 12.2934 16.8548 12.7574 16.8548C13.0054 16.8548 13.3012 16.6729 13.5605 16.5607C13.493 17.0017 13.4836 17.3736 13.573 17.7531C13.3366 17.9029 13.0598 17.966 12.8377 17.966C11.6976 17.966 12.3263 15.3145 11.275 14.7496L11.6704 14.2287Z" fill="black"/>
<path d="M11.6704 14.2287C11.722 14.3555 11.8712 15.0734 11.9845 15.0734C12.2292 15.0734 12.6713 14.4077 12.7899 14.2349C13.0075 14.3773 12.8868 14.6765 13.29 14.6765C13.4725 14.6765 13.5643 14.2832 13.7543 14.2769C13.761 14.4358 13.7712 14.5796 13.6846 14.7632C13.5509 15.0463 13.2129 15.4299 12.8805 15.4299C12.6425 15.4299 12.311 15.1433 12.2458 15.1433C12.1751 15.1433 12.0452 15.1764 12.0038 15.2641C11.8308 15.6307 12.2934 16.8548 12.7574 16.8548C13.0054 16.8548 13.3012 16.6729 13.5605 16.5607C13.493 17.0017 13.4836 17.3736 13.573 17.7531C13.3366 17.9029 13.0598 17.966 12.8377 17.966C11.6976 17.966 12.3263 15.3145 11.275 14.7496L11.6704 14.2287Z" stroke="black" stroke-width="1.2" stroke-miterlimit="3.86371" stroke-linejoin="round"/>
<path fill-rule="evenodd" clip-rule="evenodd" d="M16.0523 14.0162C16.9139 14.0162 17.2541 15.5663 16.8675 16.3852C16.5676 17.0206 16.0358 17.4812 15.3545 17.4812C14.1514 17.4812 14.3021 15.8411 14.7715 14.8467C14.9009 14.5728 15.3432 13.9757 15.6891 13.9757C15.8162 13.9757 15.9215 14.0162 16.0523 14.0162ZM16.0256 14.1609C15.89 14.1609 15.7707 14.2279 15.7078 14.3614C15.5757 14.6411 16.2343 14.9241 16.1397 15.1243C16.0803 15.2503 15.8538 15.3682 15.7395 15.3682C15.1685 15.3682 15.1734 14.6253 15.5137 14.1411C15.3021 14.276 15.1634 14.4819 15.0732 14.673C14.7386 15.3816 15.0042 16.3565 15.7678 16.3565C16.1897 16.3565 16.6757 15.9775 16.8645 15.5773C17.0968 15.0853 16.5026 14.1609 16.0256 14.1609Z" fill="black"/>
<path d="M16.0523 14.0162C16.9139 14.0162 17.2541 15.5663 16.8675 16.3852C16.5676 17.0206 16.0358 17.4812 15.3545 17.4812C14.1514 17.4812 14.3021 15.8411 14.7715 14.8467C14.9009 14.5728 15.3432 13.9757 15.6891 13.9757C15.8162 13.9757 15.9215 14.0162 16.0523 14.0162Z" stroke="black" stroke-width="1.2" stroke-miterlimit="3.86371" stroke-linejoin="round"/>
<path d="M16.0256 14.1609C15.89 14.1609 15.7707 14.2279 15.7078 14.3614C15.5757 14.6411 16.2343 14.9241 16.1397 15.1243C16.0803 15.2503 15.8538 15.3682 15.7395 15.3682C15.1685 15.3682 15.1734 14.6253 15.5137 14.1411C15.3021 14.276 15.1634 14.4819 15.0732 14.673C14.7386 15.3816 15.0042 16.3565 15.7677 16.3565C16.1897 16.3565 16.6757 15.9775 16.8644 15.5773C17.0968 15.0853 16.5026 14.1609 16.0256 14.1609Z" stroke="black" stroke-width="1.2" stroke-miterlimit="3.86371" stroke-linejoin="round"/>
<path fill-rule="evenodd" clip-rule="evenodd" d="M19.9683 16.568C19.7431 17.045 19.3235 17.3068 18.8511 17.3068C17.3518 17.3068 17.0543 15.9396 17.704 14.5631C17.8575 14.2382 18.1093 13.8788 18.4938 13.8788C19.6983 13.8788 20.5375 15.3622 19.9683 16.568ZM18.772 14.0515C18.6614 14.0515 18.5644 14.0915 18.5114 14.2038C18.3947 14.451 19.0293 14.6714 19.0302 14.9268C18.9639 15.0053 18.7784 15.0931 18.6975 15.0931C18.2405 15.0931 17.8956 14.4736 18.2857 14.0132C18.1274 14.1137 18.0335 14.2642 17.9666 14.4057C17.5711 15.2436 18.1349 16.0908 18.9565 16.0908C19.2985 16.0908 19.7393 15.9004 19.9169 15.5241C20.1683 14.9915 19.2729 14.0515 18.772 14.0515Z" fill="black"/>
<path d="M19.9683 16.568C19.7431 17.045 19.3235 17.3068 18.8511 17.3068C17.3518 17.3068 17.0543 15.9396 17.704 14.5631C17.8575 14.2382 18.1093 13.8788 18.4938 13.8788C19.6983 13.8788 20.5375 15.3622 19.9683 16.568Z" stroke="black" stroke-width="1.2" stroke-miterlimit="3.86371" stroke-linejoin="round"/>
<path d="M18.772 14.0515C18.6614 14.0515 18.5643 14.0915 18.5113 14.2038C18.3947 14.451 19.0292 14.6714 19.0301 14.9268C18.9639 15.0053 18.7783 15.0931 18.6974 15.0931C18.2405 15.0931 17.8956 14.4736 18.2857 14.0132C18.1274 14.1137 18.0334 14.2642 17.9666 14.4057C17.571 15.2436 18.1349 16.0908 18.9565 16.0908C19.2984 16.0908 19.7392 15.9004 19.9168 15.5241C20.1682 14.9915 19.2728 14.0515 18.772 14.0515Z" stroke="black" stroke-width="1.2" stroke-miterlimit="3.86371" stroke-linejoin="round"/>
<path d="M21.5188 14.0433C22.8109 14.0433 23.4674 16.4143 22.89 17.6373C22.7797 17.8711 22.574 18.1049 22.3027 18.1049C20.8265 18.1049 21.2033 15.1706 20.3723 14.3369C20.4483 14.2562 20.5211 14.1717 20.5878 14.0867C21.1493 14.7457 20.8702 16.48 22.0696 16.48C22.3458 16.48 22.5548 16.238 22.6663 16.0019C22.9641 15.371 22.413 14.2753 21.8098 14.2753C21.8038 14.2753 21.7172 14.2789 21.7191 14.3139C21.7413 14.7166 22.0581 14.4655 21.7391 15.1508C21.4132 15.0859 21.068 14.5627 21.2462 14.1852C21.2986 14.0742 21.4298 14.0433 21.5188 14.0433Z" fill="black"/>
<path d="M21.5188 14.0433C22.8109 14.0433 23.4674 16.4143 22.89 17.6373C22.7797 17.8711 22.574 18.1049 22.3027 18.1049C20.8265 18.1049 21.2033 15.1706 20.3723 14.3369C20.4483 14.2562 20.5211 14.1717 20.5878 14.0867C21.1493 14.7457 20.8702 16.48 22.0696 16.48C22.3458 16.48 22.5548 16.238 22.6663 16.0019C22.9641 15.371 22.413 14.2753 21.8098 14.2753C21.8038 14.2753 21.7172 14.2789 21.7191 14.3139C21.7413 14.7166 22.0581 14.4655 21.7391 15.1508C21.4132 15.0859 21.068 14.5627 21.2462 14.1852C21.2986 14.0742 21.4298 14.0433 21.5188 14.0433Z" stroke="black" stroke-width="1.2" stroke-miterlimit="3.86371" stroke-linejoin="round"/>
<path fill-rule="evenodd" clip-rule="evenodd" d="M24.7318 14.0169C24.8534 14.0284 25.0364 14.0175 25.1408 14.0493C25.1604 14.0552 25.1455 14.0797 25.1489 14.099C25.1805 14.2782 25.2304 14.4482 25.2736 14.6213C25.4419 15.2959 25.5432 15.9884 25.7365 16.657C25.9466 17.385 26.1657 18.2053 25.9113 19.1188C25.8864 19.2082 25.8531 19.299 25.8101 19.39C25.5216 20.0013 24.7798 20.5831 24.1311 20.5831C24.0523 20.5831 23.9673 20.5609 23.9296 20.5096C24.2034 20.3356 24.3747 20.1571 24.4971 19.8981C24.6437 19.5875 24.6415 19.2966 24.6222 19.0288C24.6741 19.0589 24.8402 19.1342 24.9094 19.1342C25.19 19.1342 25.4309 18.8629 25.5434 18.6244C25.7502 18.1864 25.7148 17.7394 25.679 17.3665C25.6611 17.1798 25.6359 16.9955 25.6011 16.8166L25.5484 16.5575L25.5418 16.5291L25.5353 16.5008C25.5667 16.5008 25.5385 16.5558 25.5397 16.5835C25.559 17.0351 25.5509 17.6655 25.3084 18.1794C25.1955 18.4181 25.0112 18.6643 24.7281 18.6643C23.4875 18.6643 24.1115 15.1459 23.1173 14.3095C23.1724 14.2185 23.2216 14.1249 23.2628 14.0332C23.8511 14.7437 23.8819 16.7025 24.7479 16.7025C24.958 16.7025 25.1752 16.5055 25.2646 16.3162C25.6493 15.5013 25.0103 14.552 24.7318 14.0169Z" fill="black"/>
<path d="M24.7318 14.0169C24.8534 14.0284 25.0364 14.0175 25.1408 14.0493C25.1604 14.0552 25.1455 14.0797 25.1489 14.099C25.1805 14.2782 25.2304 14.4482 25.2736 14.6213C25.4419 15.2959 25.5432 15.9884 25.7365 16.657C25.9466 17.385 26.1657 18.2053 25.9113 19.1188C25.8864 19.2082 25.8531 19.299 25.8101 19.39C25.5216 20.0013 24.7798 20.5831 24.1311 20.5831C24.0523 20.5831 23.9673 20.5609 23.9296 20.5096C24.2034 20.3356 24.3747 20.1571 24.4971 19.8981C24.6437 19.5875 24.6415 19.2966 24.6222 19.0288C24.6741 19.0589 24.8402 19.1342 24.9094 19.1342C25.19 19.1342 25.4309 18.8629 25.5434 18.6244C25.7502 18.1864 25.7148 17.7394 25.679 17.3665C25.6611 17.1798 25.6359 16.9955 25.6011 16.8166L25.5484 16.5575L25.5418 16.5291L25.5353 16.5008C25.5667 16.5008 25.5385 16.5558 25.5397 16.5835C25.559 17.0351 25.5509 17.6655 25.3084 18.1794C25.1955 18.4181 25.0112 18.6643 24.7281 18.6643C23.4875 18.6643 24.1115 15.1459 23.1173 14.3095C23.1724 14.2185 23.2216 14.1249 23.2628 14.0332C23.8511 14.7437 23.8819 16.7025 24.7479 16.7025C24.958 16.7025 25.1752 16.5055 25.2646 16.3162C25.6493 15.5013 25.0103 14.552 24.7318 14.0169Z" stroke="black" stroke-width="1.2" stroke-miterlimit="3.86371" stroke-linejoin="round"/>
<path d="M9.45129 11.1427C10.3046 11.1427 9.80726 13.2749 9.50382 13.9178C9.24396 14.4683 8.65897 15.2621 7.96567 15.2621C7.13384 15.2621 7.15858 14.3305 7.4897 13.6291C7.66895 13.2494 7.94445 12.8237 8.324 12.5108C8.22685 12.8375 8.55525 13.0606 8.42243 13.342C8.33172 13.5342 8.14395 13.7442 8.04639 13.9509C7.88859 14.2851 7.94888 14.8782 8.3301 14.8782C8.67134 14.8782 8.97457 14.4555 9.09888 14.1922C9.35355 13.6526 9.99032 11.3507 9.27854 11.3507C8.45879 11.3507 7.04623 13.3483 6.75043 13.9749C6.22245 15.0933 6.60517 16.471 7.80817 16.471C8.62101 16.471 9.28959 15.6895 9.61253 15.0054C9.80491 14.5979 9.90966 14.1924 9.95091 13.8101L10.1087 13.7812C10.1436 14.8336 11.2569 16.5762 10.783 17.5802C10.1764 18.8651 8.36272 18.8536 7.32713 19.3097C7.10946 18.8005 6.81457 18.3271 6.39935 17.9658C7.3231 17.655 9.59309 17.1333 10.0867 16.0876C10.2941 15.6483 10.1529 14.9199 9.91322 14.673C9.87244 14.8283 9.81601 14.9866 9.74111 15.1452C9.31847 16.0405 8.41357 16.7348 7.48067 16.7348C6.18183 16.7348 5.6312 15.8015 6.24246 14.5064C6.60932 13.7293 8.48267 11.1427 9.45129 11.1427Z" fill="black"/>
<path d="M9.45129 11.1427C10.3046 11.1427 9.80726 13.2749 9.50382 13.9178C9.24396 14.4683 8.65897 15.2621 7.96567 15.2621C7.13384 15.2621 7.15858 14.3305 7.4897 13.6291C7.66895 13.2494 7.94445 12.8237 8.324 12.5108C8.22685 12.8375 8.55525 13.0606 8.42243 13.342C8.33172 13.5342 8.14395 13.7442 8.04639 13.9509C7.88859 14.2851 7.94888 14.8782 8.3301 14.8782C8.67134 14.8782 8.97457 14.4555 9.09888 14.1922C9.35355 13.6526 9.99032 11.3507 9.27854 11.3507C8.45879 11.3507 7.04623 13.3483 6.75043 13.9749C6.22245 15.0933 6.60517 16.471 7.80817 16.471C8.62101 16.471 9.28959 15.6895 9.61253 15.0054C9.80491 14.5979 9.90966 14.1924 9.95091 13.8101L10.1087 13.7812C10.1436 14.8336 11.2569 16.5762 10.783 17.5802C10.1764 18.8651 8.36272 18.8536 7.32713 19.3097C7.10946 18.8005 6.81457 18.3271 6.39935 17.9658C7.3231 17.655 9.59309 17.1333 10.0867 16.0876C10.2941 15.6483 10.1529 14.9199 9.91322 14.673C9.87244 14.8283 9.81601 14.9866 9.74111 15.1452C9.31847 16.0405 8.41357 16.7348 7.48067 16.7348C6.18183 16.7348 5.6312 15.8015 6.24246 14.5064C6.60932 13.7293 8.48267 11.1427 9.45129 11.1427Z" stroke="black" stroke-width="1.25" stroke-miterlimit="3.86369" stroke-linejoin="round"/>
<path d="M11.6704 14.2287C11.722 14.3555 11.8712 15.0734 11.9845 15.0734C12.2292 15.0734 12.6713 14.4077 12.7899 14.2349C13.0075 14.3773 12.8868 14.6765 13.29 14.6765C13.4725 14.6765 13.5643 14.2832 13.7543 14.2769C13.761 14.4358 13.7712 14.5796 13.6846 14.7632C13.5509 15.0463 13.2129 15.4299 12.8805 15.4299C12.6425 15.4299 12.311 15.1433 12.2458 15.1433C12.1751 15.1433 12.0452 15.1764 12.0038 15.2641C11.8308 15.6307 12.2934 16.8548 12.7574 16.8548C13.0054 16.8548 13.3012 16.6729 13.5605 16.5607C13.493 17.0017 13.4836 17.3736 13.573 17.7531C13.3366 17.9029 13.0598 17.966 12.8377 17.966C11.6976 17.966 12.3263 15.3145 11.275 14.7496L11.6704 14.2287Z" fill="black"/>
<path d="M11.6704 14.2287C11.722 14.3555 11.8712 15.0734 11.9845 15.0734C12.2292 15.0734 12.6713 14.4077 12.7899 14.2349C13.0075 14.3773 12.8868 14.6765 13.29 14.6765C13.4725 14.6765 13.5643 14.2832 13.7543 14.2769C13.761 14.4358 13.7712 14.5796 13.6846 14.7632C13.5509 15.0463 13.2129 15.4299 12.8805 15.4299C12.6425 15.4299 12.311 15.1433 12.2458 15.1433C12.1751 15.1433 12.0452 15.1764 12.0038 15.2641C11.8308 15.6307 12.2934 16.8548 12.7574 16.8548C13.0054 16.8548 13.3012 16.6729 13.5605 16.5607C13.493 17.0017 13.4836 17.3736 13.573 17.7531C13.3366 17.9029 13.0598 17.966 12.8377 17.966C11.6976 17.966 12.3263 15.3145 11.275 14.7496L11.6704 14.2287Z" stroke="black" stroke-width="1.2" stroke-miterlimit="3.86369" stroke-linejoin="round"/>
<path fill-rule="evenodd" clip-rule="evenodd" d="M16.0523 14.0162C16.9139 14.0162 17.2541 15.5663 16.8675 16.3852C16.5676 17.0206 16.0358 17.4812 15.3545 17.4812C14.1514 17.4812 14.3021 15.8411 14.7715 14.8467C14.9009 14.5728 15.3432 13.9757 15.6891 13.9757C15.8162 13.9757 15.9215 14.0162 16.0523 14.0162ZM16.0256 14.1609C15.89 14.1609 15.7707 14.2279 15.7078 14.3614C15.5757 14.6411 16.2343 14.9241 16.1397 15.1243C16.0803 15.2503 15.8538 15.3682 15.7395 15.3682C15.1685 15.3682 15.1734 14.6253 15.5137 14.1411C15.3021 14.276 15.1634 14.4819 15.0732 14.673C14.7386 15.3816 15.0042 16.3565 15.7678 16.3565C16.1897 16.3565 16.6757 15.9775 16.8645 15.5773C17.0968 15.0853 16.5026 14.1609 16.0256 14.1609Z" fill="black"/>
<path d="M16.0523 14.0162C16.9139 14.0162 17.2541 15.5663 16.8675 16.3852C16.5676 17.0206 16.0358 17.4812 15.3545 17.4812C14.1514 17.4812 14.3021 15.8411 14.7715 14.8467C14.9009 14.5728 15.3432 13.9757 15.6891 13.9757C15.8162 13.9757 15.9215 14.0162 16.0523 14.0162Z" stroke="black" stroke-width="1.2" stroke-miterlimit="3.86369" stroke-linejoin="round"/>
<path d="M16.0256 14.1609C15.89 14.1609 15.7707 14.2279 15.7078 14.3614C15.5757 14.6411 16.2343 14.9241 16.1397 15.1243C16.0803 15.2503 15.8538 15.3682 15.7395 15.3682C15.1685 15.3682 15.1734 14.6253 15.5137 14.1411C15.3021 14.276 15.1634 14.4819 15.0732 14.673C14.7386 15.3816 15.0042 16.3565 15.7677 16.3565C16.1897 16.3565 16.6757 15.9775 16.8644 15.5773C17.0968 15.0853 16.5026 14.1609 16.0256 14.1609Z" stroke="black" stroke-width="1.2" stroke-miterlimit="3.86369" stroke-linejoin="round"/>
<path fill-rule="evenodd" clip-rule="evenodd" d="M19.9683 16.568C19.7431 17.045 19.3235 17.3068 18.8511 17.3068C17.3518 17.3068 17.0543 15.9396 17.704 14.5631C17.8575 14.2382 18.1093 13.8788 18.4938 13.8788C19.6983 13.8788 20.5375 15.3622 19.9683 16.568ZM18.772 14.0515C18.6614 14.0515 18.5644 14.0915 18.5114 14.2038C18.3947 14.451 19.0293 14.6714 19.0302 14.9268C18.9639 15.0053 18.7784 15.0931 18.6975 15.0931C18.2405 15.0931 17.8956 14.4736 18.2857 14.0132C18.1274 14.1137 18.0335 14.2642 17.9666 14.4057C17.5711 15.2436 18.1349 16.0908 18.9565 16.0908C19.2985 16.0908 19.7393 15.9004 19.9169 15.5241C20.1683 14.9915 19.2729 14.0515 18.772 14.0515Z" fill="black"/>
<path d="M19.9683 16.568C19.7431 17.045 19.3235 17.3068 18.8511 17.3068C17.3518 17.3068 17.0543 15.9396 17.704 14.5631C17.8575 14.2382 18.1093 13.8788 18.4938 13.8788C19.6983 13.8788 20.5375 15.3622 19.9683 16.568Z" stroke="black" stroke-width="1.2" stroke-miterlimit="3.86369" stroke-linejoin="round"/>
<path d="M18.772 14.0515C18.6614 14.0515 18.5643 14.0915 18.5113 14.2038C18.3947 14.451 19.0292 14.6714 19.0301 14.9268C18.9639 15.0053 18.7783 15.0931 18.6974 15.0931C18.2405 15.0931 17.8956 14.4736 18.2857 14.0132C18.1274 14.1137 18.0334 14.2642 17.9666 14.4057C17.571 15.2436 18.1349 16.0908 18.9565 16.0908C19.2984 16.0908 19.7392 15.9004 19.9168 15.5241C20.1682 14.9915 19.2728 14.0515 18.772 14.0515Z" stroke="black" stroke-width="1.2" stroke-miterlimit="3.86369" stroke-linejoin="round"/>
<path d="M21.5188 14.0433C22.8109 14.0433 23.4674 16.4143 22.89 17.6373C22.7797 17.8711 22.574 18.1049 22.3027 18.1049C20.8265 18.1049 21.2033 15.1706 20.3723 14.3369C20.4483 14.2562 20.5211 14.1717 20.5878 14.0867C21.1493 14.7457 20.8702 16.48 22.0696 16.48C22.3458 16.48 22.5548 16.238 22.6663 16.0019C22.9641 15.371 22.413 14.2753 21.8098 14.2753C21.8038 14.2753 21.7172 14.2789 21.7191 14.3139C21.7413 14.7166 22.0581 14.4655 21.7391 15.1508C21.4132 15.0859 21.068 14.5627 21.2462 14.1852C21.2986 14.0742 21.4298 14.0433 21.5188 14.0433Z" fill="black"/>
<path d="M21.5188 14.0433C22.8109 14.0433 23.4674 16.4143 22.89 17.6373C22.7797 17.8711 22.574 18.1049 22.3027 18.1049C20.8265 18.1049 21.2033 15.1706 20.3723 14.3369C20.4483 14.2562 20.5211 14.1717 20.5878 14.0867C21.1493 14.7457 20.8702 16.48 22.0696 16.48C22.3458 16.48 22.5548 16.238 22.6663 16.0019C22.9641 15.371 22.413 14.2753 21.8098 14.2753C21.8038 14.2753 21.7172 14.2789 21.7191 14.3139C21.7413 14.7166 22.0581 14.4655 21.7391 15.1508C21.4132 15.0859 21.068 14.5627 21.2462 14.1852C21.2986 14.0742 21.4298 14.0433 21.5188 14.0433Z" stroke="black" stroke-width="1.2" stroke-miterlimit="3.86369" stroke-linejoin="round"/>
<path fill-rule="evenodd" clip-rule="evenodd" d="M24.7318 14.0169C24.8534 14.0284 25.0364 14.0175 25.1408 14.0493C25.1604 14.0552 25.1455 14.0797 25.1489 14.099C25.1805 14.2782 25.2304 14.4482 25.2736 14.6213C25.4419 15.2959 25.5432 15.9884 25.7365 16.657C25.9466 17.385 26.1657 18.2053 25.9113 19.1188C25.8864 19.2082 25.8531 19.299 25.8101 19.39C25.5216 20.0013 24.7798 20.5831 24.1311 20.5831C24.0523 20.5831 23.9673 20.5609 23.9296 20.5096C24.2034 20.3356 24.3747 20.1571 24.4971 19.8981C24.6437 19.5875 24.6415 19.2966 24.6222 19.0288C24.6741 19.0589 24.8402 19.1342 24.9094 19.1342C25.19 19.1342 25.4309 18.8629 25.5434 18.6244C25.7502 18.1864 25.7148 17.7394 25.679 17.3665C25.6611 17.1798 25.6359 16.9955 25.6011 16.8166L25.5484 16.5575L25.5418 16.5291L25.5353 16.5008C25.5667 16.5008 25.5385 16.5558 25.5397 16.5835C25.559 17.0351 25.5509 17.6655 25.3084 18.1794C25.1955 18.4181 25.0112 18.6643 24.7281 18.6643C23.4875 18.6643 24.1115 15.1459 23.1173 14.3095C23.1724 14.2185 23.2216 14.1249 23.2628 14.0332C23.8511 14.7437 23.8819 16.7025 24.7479 16.7025C24.958 16.7025 25.1752 16.5055 25.2646 16.3162C25.6493 15.5013 25.0103 14.552 24.7318 14.0169Z" fill="black"/>
<path d="M24.7318 14.0169C24.8534 14.0284 25.0364 14.0175 25.1408 14.0493C25.1604 14.0552 25.1455 14.0797 25.1489 14.099C25.1805 14.2782 25.2304 14.4482 25.2736 14.6213C25.4419 15.2959 25.5432 15.9884 25.7365 16.657C25.9466 17.385 26.1657 18.2053 25.9113 19.1188C25.8864 19.2082 25.8531 19.299 25.8101 19.39C25.5216 20.0013 24.7798 20.5831 24.1311 20.5831C24.0523 20.5831 23.9673 20.5609 23.9296 20.5096C24.2034 20.3356 24.3747 20.1571 24.4971 19.8981C24.6437 19.5875 24.6415 19.2966 24.6222 19.0288C24.6741 19.0589 24.8402 19.1342 24.9094 19.1342C25.19 19.1342 25.4309 18.8629 25.5434 18.6244C25.7502 18.1864 25.7148 17.7394 25.679 17.3665C25.6611 17.1798 25.6359 16.9955 25.6011 16.8166L25.5484 16.5575L25.5418 16.5291L25.5353 16.5008C25.5667 16.5008 25.5385 16.5558 25.5397 16.5835C25.559 17.0351 25.5509 17.6655 25.3084 18.1794C25.1955 18.4181 25.0112 18.6643 24.7281 18.6643C23.4875 18.6643 24.1115 15.1459 23.1173 14.3095C23.1724 14.2185 23.2216 14.1249 23.2628 14.0332C23.8511 14.7437 23.8819 16.7025 24.7479 16.7025C24.958 16.7025 25.1752 16.5055 25.2646 16.3162C25.6493 15.5013 25.0103 14.552 24.7318 14.0169Z" stroke="black" stroke-width="1.2" stroke-miterlimit="3.86369" stroke-linejoin="round"/>
<path d="M9.45129 11.1427C10.3046 11.1427 9.80726 13.2749 9.50382 13.9178C9.24396 14.4683 8.65897 15.2621 7.96567 15.2621C7.13384 15.2621 7.15858 14.3305 7.4897 13.6291C7.66895 13.2494 7.94445 12.8237 8.324 12.5108C8.22685 12.8375 8.55525 13.0606 8.42243 13.342C8.33172 13.5342 8.14395 13.7442 8.04639 13.9509C7.88859 14.2851 7.94888 14.8782 8.3301 14.8782C8.67134 14.8782 8.97457 14.4555 9.09888 14.1922C9.35355 13.6526 9.99032 11.3507 9.27854 11.3507C8.45879 11.3507 7.04623 13.3483 6.75043 13.9749C6.22245 15.0933 6.60517 16.471 7.80817 16.471C8.62101 16.471 9.28959 15.6895 9.61253 15.0054C9.80491 14.5979 9.90966 14.1924 9.95091 13.8101L10.1087 13.7812C10.1436 14.8336 11.2569 16.5762 10.783 17.5802C10.1764 18.8651 8.36272 18.8536 7.32713 19.3097C7.10946 18.8005 6.81457 18.3271 6.39935 17.9658C7.3231 17.655 9.59309 17.1333 10.0867 16.0876C10.2941 15.6483 10.1529 14.9199 9.91322 14.673C9.87244 14.8283 9.81601 14.9866 9.74111 15.1452C9.31847 16.0405 8.41357 16.7348 7.48067 16.7348C6.18183 16.7348 5.6312 15.8015 6.24246 14.5064C6.60932 13.7293 8.48267 11.1427 9.45129 11.1427Z" fill="white"/>
<path d="M11.6704 14.2287C11.722 14.3555 11.8712 15.0734 11.9845 15.0734C12.2292 15.0734 12.6713 14.4077 12.7899 14.2349C13.0075 14.3773 12.8868 14.6765 13.29 14.6765C13.4725 14.6765 13.5643 14.2832 13.7543 14.2769C13.761 14.4358 13.7712 14.5796 13.6846 14.7632C13.5509 15.0463 13.2129 15.4299 12.8805 15.4299C12.6425 15.4299 12.311 15.1433 12.2458 15.1433C12.1751 15.1433 12.0452 15.1764 12.0038 15.2641C11.8308 15.6307 12.2934 16.8548 12.7574 16.8548C13.0054 16.8548 13.3012 16.6729 13.5605 16.5607C13.493 17.0017 13.4836 17.3736 13.573 17.7531C13.3366 17.9029 13.0598 17.966 12.8377 17.966C11.6976 17.966 12.3263 15.3145 11.275 14.7496L11.6704 14.2287Z" fill="white"/>
<path fill-rule="evenodd" clip-rule="evenodd" d="M16.0523 14.0162C16.9139 14.0162 17.2541 15.5663 16.8675 16.3852C16.5676 17.0206 16.0358 17.4812 15.3545 17.4812C14.1514 17.4812 14.3021 15.8411 14.7715 14.8467C14.9009 14.5728 15.3432 13.9757 15.6891 13.9757C15.8162 13.9757 15.9215 14.0162 16.0523 14.0162ZM16.0256 14.1609C15.89 14.1609 15.7707 14.2279 15.7078 14.3614C15.5757 14.6411 16.2343 14.9241 16.1397 15.1243C16.0803 15.2503 15.8538 15.3682 15.7395 15.3682C15.1685 15.3682 15.1734 14.6253 15.5137 14.1411C15.3021 14.276 15.1634 14.4819 15.0732 14.673C14.7386 15.3816 15.0042 16.3565 15.7678 16.3565C16.1897 16.3565 16.6757 15.9775 16.8645 15.5773C17.0968 15.0853 16.5026 14.1609 16.0256 14.1609Z" fill="white"/>
<path fill-rule="evenodd" clip-rule="evenodd" d="M19.9683 16.568C19.7431 17.045 19.3235 17.3068 18.8511 17.3068C17.3518 17.3068 17.0543 15.9396 17.704 14.5631C17.8575 14.2382 18.1093 13.8788 18.4938 13.8788C19.6983 13.8788 20.5375 15.3622 19.9683 16.568ZM18.772 14.0515C18.6614 14.0515 18.5644 14.0915 18.5114 14.2038C18.3947 14.451 19.0293 14.6714 19.0302 14.9268C18.9639 15.0053 18.7784 15.0931 18.6975 15.0931C18.2405 15.0931 17.8956 14.4736 18.2857 14.0132C18.1274 14.1137 18.0335 14.2642 17.9666 14.4057C17.5711 15.2436 18.1349 16.0908 18.9565 16.0908C19.2985 16.0908 19.7393 15.9004 19.9169 15.5241C20.1683 14.9915 19.2729 14.0515 18.772 14.0515Z" fill="white"/>
<path d="M21.5188 14.0433C22.8109 14.0433 23.4674 16.4143 22.89 17.6373C22.7797 17.8711 22.574 18.1049 22.3027 18.1049C20.8265 18.1049 21.2033 15.1706 20.3723 14.3369C20.4483 14.2562 20.5211 14.1717 20.5878 14.0867C21.1493 14.7457 20.8702 16.48 22.0696 16.48C22.3458 16.48 22.5548 16.238 22.6663 16.0019C22.9641 15.371 22.413 14.2753 21.8098 14.2753C21.8038 14.2753 21.7172 14.2789 21.7191 14.3139C21.7413 14.7166 22.0581 14.4655 21.7391 15.1508C21.4132 15.0859 21.068 14.5627 21.2462 14.1852C21.2986 14.0742 21.4298 14.0433 21.5188 14.0433Z" fill="white"/>
<path fill-rule="evenodd" clip-rule="evenodd" d="M24.7318 14.0169C24.8535 14.0284 25.0364 14.0175 25.1408 14.0493C25.1604 14.0552 25.1455 14.0797 25.1489 14.099C25.1805 14.2782 25.2305 14.4482 25.2736 14.6213C25.4419 15.2959 25.5433 15.9884 25.7365 16.657C25.9466 17.385 26.1658 18.2053 25.9113 19.1188C25.8864 19.2082 25.8531 19.2989 25.8101 19.39C24.8427 21.2483 22.7723 20.7474 22.1237 20.7474C22.0449 20.7474 21.9598 20.7251 21.9222 20.6738C22.1959 20.4998 22.3673 20.3214 22.4895 20.0623C22.6362 19.7517 22.634 19.4608 22.6147 19.193C22.6665 19.2232 22.8328 19.2984 22.9019 19.2984C23.1824 19.2984 24.7462 20.1019 25.5434 18.6244C25.7502 18.1864 25.7148 17.7394 25.679 17.3665C25.6611 17.1798 25.6359 16.9955 25.6011 16.8166L25.5484 16.5575L25.5418 16.5291L25.5353 16.5008C25.5667 16.5008 25.5385 16.5558 25.5397 16.5835C25.559 17.0351 25.5509 17.6655 25.3084 18.1794C25.1956 18.4181 25.0112 18.6643 24.7281 18.6643C23.4875 18.6643 24.1115 15.1459 23.1173 14.3095C23.1724 14.2185 23.2216 14.1249 23.2628 14.0332C23.8512 14.7437 23.8819 16.7025 24.7479 16.7025C24.958 16.7025 25.1752 16.5055 25.2646 16.3162C25.6493 15.5013 25.0103 14.552 24.7318 14.0169Z" fill="white"/>
</g>
<defs>
<clipPath id="clip0_2780_101356">
<rect width="32" height="15.9563" fill="white" transform="translate(0 8)"/>
</clipPath>
</defs>
</svg>
