<svg width="32" height="32" viewBox="0 0 32 32" fill="none" xmlns="http://www.w3.org/2000/svg">
<g clip-path="url(#clip0_2780_105408)">
<path fill-rule="evenodd" clip-rule="evenodd" d="M21.42 30.71C20.89 30.71 20.38 30.59 19.95 30.36C19.39 30.06 19 29.59 18.82 29.01C18.41 28.83 17.33 28.43 15.89 28.43C14.84 28.43 14.31 28.54 14.05 28.61C13.74 29.53 12.91 30.28 11.97 30.45C11.78 30.49 11.58 30.5 11.39 30.5C10.58 30.5 9.85004 30.21 9.14004 29.94C8.66004 29.75 8.21004 29.58 7.76004 29.49C6.83004 29.32 5.84004 29.12 4.88004 28.78C4.49004 28.65 4.02004 28.44 3.78004 28.01C3.63004 27.74 3.55004 27.47 3.56004 27.19C3.56004 26.89 3.65004 26.6 3.73004 26.33C3.77004 26.21 3.80004 26.09 3.83004 25.97C3.91004 25.63 3.88004 25.18 3.84004 24.75C3.79004 24.13 3.74004 23.48 4.01004 22.96C4.32004 22.3 5.14004 22.14 5.49004 22.08C5.90004 22 6.32004 21.92 6.44004 21.78C6.58004 21.63 6.70004 21.44 6.82004 21.24C6.94004 21.04 7.07004 20.83 7.23004 20.64C7.23004 20.11 7.24004 19.67 7.29004 19.33C7.38004 18.71 7.64004 17.73 7.97004 17.05C8.49004 15.97 9.43004 14.65 10.12 13.68L10.36 13.35C10.81 12.72 11.13 12.27 11.44 11.53C11.77 10.73 11.83 10.54 11.88 9.93C11.94 9.26 11.92 9.03 11.9 8.61C11.87 8.15 11.83 7.46 11.86 5.76C11.87 4.98 12.04 4.28 12.34 3.66C13.22 1.87 15.07 1.33 15.7 1.27C15.81 1.27 15.97 1.25 16.15 1.25C16.77 1.25 17.95 1.35 18.84 2.04C20.14 3.05 20.73 4.58 20.67 6.84C20.69 8.4 20.75 9.39 20.86 9.76L20.93 9.99C21.05 10.41 21.23 10.98 21.43 11.39C21.6 11.73 21.96 12.23 22.34 12.75C22.51 12.98 22.68 13.22 22.84 13.45C22.95 13.61 23.08 13.78 23.21 13.97C24.09 15.19 25.3 16.85 25.51 19.07C25.57 19.7 25.51 20.21 25.39 20.79C25.63 20.88 25.88 21.03 26.09 21.33C26.34 21.69 26.4 22.05 26.46 22.44C26.48 22.54 26.49 22.65 26.51 22.77C26.57 23.11 26.81 23.37 27.21 23.72L27.35 23.84C27.87 24.29 28.41 24.75 28.46 25.39C28.47 25.62 28.43 25.85 28.32 26.06C28.09 26.54 27.59 26.88 27.19 27.15C27.19 27.15 26.53 27.6 26.26 27.78C25.33 28.41 24.45 29 23.65 29.73C23.26 30.09 22.79 30.52 21.94 30.65C21.76 30.68 21.59 30.69 21.42 30.69V30.71Z" fill="white"/>
<path fill-rule="evenodd" clip-rule="evenodd" d="M12.7901 3.89C12.5401 4.39 12.3701 5.01 12.3601 5.77C12.3001 8.99 12.5001 8.49 12.3801 9.97C12.3201 10.65 12.2501 10.9 11.9101 11.72C11.5401 12.61 11.1401 13.12 10.5901 13.9C9.90006 14.87 8.96006 16.2 8.44006 17.26C8.14006 17.86 7.90006 18.79 7.80006 19.4C7.74006 19.81 7.73006 20.34 7.75006 20.83C7.39006 21.15 7.20006 21.69 6.82006 22.1C6.58006 22.37 6.11006 22.45 5.59006 22.55C5.19006 22.63 4.65006 22.77 4.46006 23.17C4.09006 23.9 4.54006 25.15 4.32006 26.08C4.23006 26.47 4.06006 26.84 4.06006 27.18C4.06006 27.36 4.10006 27.54 4.22006 27.75C4.35006 27.98 4.64006 28.15 5.05006 28.29C5.96006 28.61 6.91006 28.81 7.85006 28.98C9.19006 29.22 10.4601 30.2 11.8801 29.94C12.7101 29.79 13.4501 29.04 13.6301 28.22C13.8601 28.1 14.4401 27.93 15.8001 27.91C17.8601 27.89 19.2301 28.64 19.2301 28.64V28.62C19.3301 29.19 19.6701 29.63 20.1701 29.9C20.6001 30.13 21.1901 30.26 21.8501 30.16C22.5401 30.06 22.9101 29.72 23.2901 29.37C24.3601 28.39 25.5901 27.63 26.7701 26.81C27.1401 26.55 27.6601 26.23 27.8601 25.82C27.9301 25.69 27.9601 25.55 27.9501 25.41C27.9201 24.94 27.3701 24.51 26.8801 24.09C26.4901 23.75 26.1201 23.38 26.0201 22.86C25.9201 22.34 25.9301 21.96 25.6801 21.62C25.4401 21.29 25.1601 21.22 24.7801 21.16C25.0001 20.33 25.0801 19.81 25.0101 19.12C24.7801 16.7 23.2601 14.94 22.4201 13.74C21.8801 12.96 21.2501 12.15 20.9801 11.62C20.7101 11.09 20.5101 10.34 20.3701 9.91C20.2401 9.48 20.1701 8.47 20.1501 6.83C20.2101 4.32 19.4401 3.16 18.5101 2.43C17.5801 1.71 16.2101 1.72 15.7201 1.76C15.3101 1.8 13.5701 2.22 12.7601 3.87L12.7901 3.89Z" fill="#191919"/>
<mask id="mask0_2780_105408" style="mask-type:luminance" maskUnits="userSpaceOnUse" x="0" y="0" width="32" height="32">
<path d="M32 0H0V32H32V0Z" fill="white"/>
</mask>
<g mask="url(#mask0_2780_105408)">
<path fill-rule="evenodd" clip-rule="evenodd" d="M12.78 3.87C12.53 4.37 12.36 4.99 12.35 5.75C12.29 8.97 12.49 8.47 12.37 9.95C12.31 10.63 12.24 10.88 11.9 11.7C11.53 12.59 11.13 13.1 10.58 13.88C9.88999 14.85 8.94999 16.18 8.42999 17.24C8.12999 17.84 7.88999 18.77 7.78999 19.38C7.72999 19.79 7.71999 20.32 7.73999 20.81C7.37999 21.13 7.18999 21.67 6.80999 22.08C6.56999 22.35 6.09999 22.43 5.57999 22.53C5.17999 22.61 4.63999 22.75 4.44999 23.15C4.07999 23.88 4.52999 25.13 4.30999 26.06C4.21999 26.45 4.04999 26.82 4.04999 27.16C4.04999 27.34 4.08999 27.52 4.20999 27.73C4.33999 27.96 4.62999 28.13 5.03999 28.27C5.94999 28.59 6.89999 28.79 7.83999 28.96C9.17999 29.2 10.45 30.18 11.87 29.92C12.7 29.77 13.44 29.02 13.62 28.2C13.85 28.08 14.43 27.91 15.79 27.89C17.85 27.87 19.22 28.62 19.22 28.62V28.6C19.32 29.17 19.66 29.61 20.16 29.88C20.59 30.11 21.18 30.24 21.84 30.14C22.53 30.04 22.9 29.7 23.28 29.35C24.35 28.37 25.58 27.61 26.76 26.79C27.13 26.53 27.65 26.21 27.85 25.8C27.92 25.67 27.95 25.53 27.94 25.39C27.91 24.92 27.36 24.49 26.87 24.07C26.48 23.73 26.11 23.36 26.01 22.84C25.91 22.32 25.92 21.94 25.67 21.6C25.43 21.27 25.15 21.2 24.77 21.14C24.99 20.31 25.07 19.79 25 19.1C24.77 16.68 23.25 14.92 22.41 13.72C21.87 12.94 21.24 12.13 20.97 11.6C20.7 11.07 20.5 10.32 20.36 9.89C20.23 9.46 20.16 8.45 20.14 6.81C20.2 4.3 19.43 3.14 18.5 2.41C17.57 1.69 16.2 1.7 15.71 1.74C15.3 1.78 13.56 2.2 12.75 3.85L12.78 3.87Z" fill="#191919"/>
<path fill-rule="evenodd" clip-rule="evenodd" d="M5.88001 22.76C6.15001 22.7 6.42001 22.65 6.60001 22.56C7.07001 22.33 7.25001 21.99 7.41001 21.67C7.60001 21.31 7.77001 20.98 8.34001 20.88C8.69001 20.82 9.11001 21.01 9.62001 21.78C9.94001 22.26 10.29 22.76 10.65 23.29C11.13 23.98 11.63 24.71 12.12 25.46C12.31 25.75 12.5 25.96 12.68 26.17C12.95 26.47 13.18 26.74 13.33 27.15C13.4 27.35 13.43 27.69 13.42 28.01C13.39 28.56 12.87 29.13 12.55 29.38C11.69 30.06 10.37 29.6 9.43001 29.23C8.42001 28.83 8.28 28.8 7.89001 28.74C7.70001 28.71 7.44001 28.66 6.99001 28.55C6.84 28.51 6.70001 28.48 6.56001 28.45C5.43001 28.18 4.62001 27.99 4.41001 27.63C4.18001 27.23 4.23001 27.06 4.39001 26.6C4.59001 26.04 4.59001 25.52 4.59001 25.05C4.59001 24.86 4.57001 24.67 4.56001 24.49C4.52001 24.05 4.48001 23.65 4.70001 23.28C4.87001 22.98 5.39001 22.87 5.87001 22.77L5.88001 22.76ZM19.91 22.99C19.91 22.44 19.91 21.72 20.3 21.44C20.53 21.29 20.86 21.35 21.2 21.41C21.31 21.43 21.43 21.45 21.54 21.46C22.32 21.57 22.53 21.55 22.72 21.54C22.84 21.54 22.95 21.53 23.19 21.55C23.42 21.57 23.6 21.52 23.8 21.47C24.09 21.39 24.42 21.3 25 21.42C25.18 21.46 25.3 21.55 25.45 21.72C25.65 21.92 25.69 22.18 25.74 22.49C25.82 22.97 25.91 23.57 26.65 24.19C27.12 24.58 27.55 25.01 27.67 25.29C27.79 25.57 27.67 25.75 27.51 25.96C27.34 26.17 26.16 26.95 25.42 27.43C24.91 27.76 24.47 28.11 24.07 28.43C23.9 28.57 23.73 28.7 23.56 28.83C23.41 28.94 23.28 29.06 23.15 29.18C22.79 29.51 22.45 29.82 21.82 29.91C20.96 30.04 20.27 29.76 19.87 29.39C19.48 29.02 19.43 28.65 19.38 28.01C19.35 27.63 19.49 26.99 19.63 26.41C19.72 26.02 19.8 25.65 19.82 25.41C19.83 25.23 19.84 24.93 19.85 24.56C19.86 24.18 19.87 23.73 19.89 23.31C19.89 23.21 19.89 23.09 19.89 22.97L19.91 22.99Z" fill="#FCC624"/>
<path fill-rule="evenodd" clip-rule="evenodd" d="M12.34 13.64C11.9 14.6 11.93 14.28 11.63 15.28C11.22 15.65 10.78 16.65 10.49 17.52C10.12 18.77 9.82997 20.06 10.18 21.56C10.32 21.71 10.43 21.86 10.56 21.98C10.76 22.17 10.98 22.33 11.24 22.53C12.17 23.25 12.83 23.63 12.96 24.09C13.13 24.71 12.75 25.12 12.27 25.38C12.62 25.73 13.74 26.46 15.78 26.37C17.58 26.29 18.7 25.6 19.66 24.42C19.66 24.15 19.7 23.69 19.71 23.2C19.72 22.73 19.73 22.26 19.8 21.89C19.82 21.8 19.85 21.72 19.88 21.65C20 21.36 20.31 21.16 20.61 21.14C20.77 21.14 20.94 21.12 21.1 21.15C21.34 19.22 21.15 17.89 20.19 15.85C20.12 15.71 19.76 15.1 19.55 14.93C19.38 14.11 19.36 14.15 19.03 13.39C18.53 12.25 18.34 10.92 18.19 10.15C18.08 10.21 17.9 10.28 17.62 10.5C16.97 11.01 16.25 11.72 15.36 11.74C14.59 11.78 14.22 11.59 13.87 11.22C13.61 10.95 13.42 10.61 13.11 10.39C13.11 10.49 12.78 12.67 12.35 13.63L12.34 13.64ZM15.8 7.89C15.78 7.68 15.77 7.28 15.92 6.79C16.15 6.03 16.97 5.52 17.66 5.88C18.36 6.24 18.48 7.17 18.32 7.69C18.22 8.01 17.97 8.39 17.79 8.62C17.65 8.56 17.47 8.5 17.25 8.42C17.38 8.35 17.49 8.23 17.57 8.08C17.8 7.66 17.72 7.1 17.39 6.85C17.06 6.59 16.61 6.73 16.38 7.15C16.22 7.45 16.21 7.8 16.33 8.08C16.13 8 15.96 7.94 15.8 7.89ZM13.25 6.07C13.9 5.84 14.29 6.39 14.45 7.18C14.5 7.42 14.5 7.67 14.47 7.89C14.38 7.92 14.28 7.97 14.17 8.03C14.18 7.98 14.19 7.92 14.2 7.87C14.25 7.43 14.05 6.97 13.74 6.85C13.43 6.73 13.14 6.99 13.09 7.43C13.04 7.85 13.23 8.29 13.51 8.43C13.43 8.49 13.34 8.55 13.26 8.61C13.03 8.39 12.88 8.03 12.8 7.66C12.64 6.98 12.81 6.23 13.25 6.07Z" fill="#F5F5F5"/>
<path d="M13.06 10.16C13.06 10.16 13.06 10.13 13.04 10.11L13.36 10.3C13.67 10.48 13.84 10.56 14.12 10.66C14.42 10.76 14.71 10.8 15.05 10.78C15.42 10.76 15.98 10.58 16.3 10.43C16.62 10.28 17.11 9.96 17.55 9.63C17.64 9.56 17.89 9.46 17.89 9.41C17.89 9.34 17.69 9.32 17.62 9.35C17.55 9.39 17.43 9.5 17.37 9.55C16.97 9.86 16.56 10.12 16.22 10.28C15.89 10.44 15.43 10.57 15.01 10.6C14.49 10.63 13.91 10.47 13.4 10.17C13.09 9.98 12.77 9.82 12.77 9.82C12.65 9.66 12.77 9.38 12.86 9.25C13 9.02 13.24 8.8 13.48 8.63C13.48 8.63 14.19 8.17 14.47 8.05C14.74 7.93 14.87 7.94 15.03 7.93C15.49 7.91 15.83 8.04 16.33 8.24L18.04 8.91C18.19 9.01 18.24 9.1 18.27 9.24C18.3 9.42 18.25 9.81 18.13 9.96C18.02 10.1 17.91 10.08 17.54 10.36C17.32 10.53 16.93 10.87 16.65 11.06C16.06 11.45 15.53 11.65 14.83 11.56C14.47 11.51 14.22 11.39 13.96 11.14C13.82 11.01 13.66 10.79 13.5 10.6C13.35 10.43 13.19 10.29 13.04 10.15L13.06 10.16Z" fill="#FCC624"/>
<path fill-rule="evenodd" clip-rule="evenodd" d="M24.26 21.29C24.26 21.29 24.31 21.13 24.31 21.1C24.37 20.45 23.13 20.31 22.16 20.34C21.72 20.35 21.38 20.41 21.17 20.47C20.81 20.58 20.64 20.82 20.6 21.13C20.52 21.75 20.7 23.06 21.31 23.34C21.94 23.64 22.89 23.21 23.45 22.58C23.83 22.15 24.07 21.65 24.26 21.29Z" fill="#191919"/>
</g>
</g>
<defs>
<clipPath id="clip0_2780_105408">
<rect width="32" height="32" fill="white"/>
</clipPath>
</defs>
</svg>
