<svg width="32" height="32" viewBox="0 0 32 32" fill="none" xmlns="http://www.w3.org/2000/svg">
<path d="M13.7547 12.1698H17.1887C19.3019 12.1698 19.3019 14.283 17.1887 14.283H13.7547V12.1698ZM5.56604 21.9434H16.1321V19.0377H13.7547V16.9245H16.3962C19.3019 16.9245 17.717 21.9434 20.0943 21.9434H26.6981V16.9245H25.1132V17.4528C25.1132 19.566 22.7359 19.3019 22.4717 17.9811C22.2076 16.6604 21.1509 15.6038 20.8868 15.6038C24.8491 13.4906 22.4717 9.26416 19.3019 9.26416H6.88679V12.1698H9.5283V19.0377H5.56604V21.9434Z" fill="#E0E1E4" stroke="#E0E1E4" stroke-width="0.264151" stroke-linejoin="round"/>
<path d="M16 27.3585C22.2731 27.3585 27.3585 22.2732 27.3585 16C27.3585 9.72691 22.2731 4.64154 16 4.64154C9.72685 4.64154 4.64148 9.72691 4.64148 16C4.64148 22.2732 9.72685 27.3585 16 27.3585Z" stroke="#E0E1E4" stroke-width="2.37736"/>
<path d="M28.151 16.7925L29.4718 16L28.151 15.2076V16.7925Z" fill="#E0E1E4" stroke="#E0E1E4" stroke-width="0.792453" stroke-linejoin="round"/>
<path d="M27.7629 19.1478L29.2129 18.6282L28.0721 17.5933L27.7629 19.1478Z" fill="#E0E1E4" stroke="#E0E1E4" stroke-width="0.792453" stroke-linejoin="round"/>
<path d="M26.9228 21.3821L28.4463 21.1554L27.5293 19.9178L26.9228 21.3821Z" fill="#E0E1E4" stroke="#E0E1E4" stroke-width="0.792453" stroke-linejoin="round"/>
<path d="M25.6629 23.4096L27.2014 23.4845L26.5435 22.0918L25.6629 23.4096Z" fill="#E0E1E4" stroke="#E0E1E4" stroke-width="0.792453" stroke-linejoin="round"/>
<path d="M24.0316 25.1524L25.5259 25.5259L25.1523 24.0317L24.0316 25.1524Z" fill="#E0E1E4" stroke="#E0E1E4" stroke-width="0.792453" stroke-linejoin="round"/>
<path d="M22.0919 26.5434L23.4845 27.2013L23.4097 25.6629L22.0919 26.5434Z" fill="#E0E1E4" stroke="#E0E1E4" stroke-width="0.792453" stroke-linejoin="round"/>
<path d="M19.9178 27.5293L21.1554 28.4462L21.3821 26.9228L19.9178 27.5293Z" fill="#E0E1E4" stroke="#E0E1E4" stroke-width="0.792453" stroke-linejoin="round"/>
<path d="M17.5934 28.0721L18.6283 29.2129L19.1478 27.7629L17.5934 28.0721Z" fill="#E0E1E4" stroke="#E0E1E4" stroke-width="0.792453" stroke-linejoin="round"/>
<path d="M15.2076 28.151L16 29.4717L16.7925 28.151H15.2076Z" fill="#E0E1E4" stroke="#E0E1E4" stroke-width="0.792453" stroke-linejoin="round"/>
<path d="M12.8523 27.7629L13.3718 29.2129L14.4067 28.0721L12.8523 27.7629Z" fill="#E0E1E4" stroke="#E0E1E4" stroke-width="0.792453" stroke-linejoin="round"/>
<path d="M10.6179 26.9228L10.8446 28.4463L12.0822 27.5293L10.6179 26.9228Z" fill="#E0E1E4" stroke="#E0E1E4" stroke-width="0.792453" stroke-linejoin="round"/>
<path d="M8.5904 25.6629L8.51553 27.2013L9.9082 26.5434L8.5904 25.6629Z" fill="#E0E1E4" stroke="#E0E1E4" stroke-width="0.792453" stroke-linejoin="round"/>
<path d="M6.84769 24.0317L6.47412 25.5259L7.96838 25.1524L6.84769 24.0317Z" fill="#E0E1E4" stroke="#E0E1E4" stroke-width="0.792453" stroke-linejoin="round"/>
<path d="M5.45663 22.0918L4.79873 23.4845L6.33716 23.4096L5.45663 22.0918Z" fill="#E0E1E4" stroke="#E0E1E4" stroke-width="0.792453" stroke-linejoin="round"/>
<path d="M4.47075 19.9178L3.55379 21.1554L5.07727 21.3821L4.47075 19.9178Z" fill="#E0E1E4" stroke="#E0E1E4" stroke-width="0.792453" stroke-linejoin="round"/>
<path d="M3.92798 17.5933L2.78721 18.6282L4.23718 19.1478L3.92798 17.5933Z" fill="#E0E1E4" stroke="#E0E1E4" stroke-width="0.792453" stroke-linejoin="round"/>
<path d="M3.84912 15.2076L2.52837 16L3.84912 16.7925V15.2076Z" fill="#E0E1E4" stroke="#E0E1E4" stroke-width="0.792453" stroke-linejoin="round"/>
<path d="M4.23718 12.8523L2.7872 13.3718L3.92798 14.4067L4.23718 12.8523Z" fill="#E0E1E4" stroke="#E0E1E4" stroke-width="0.792453" stroke-linejoin="round"/>
<path d="M5.07722 10.6179L3.55374 10.8446L4.4707 12.0822L5.07722 10.6179Z" fill="#E0E1E4" stroke="#E0E1E4" stroke-width="0.792453" stroke-linejoin="round"/>
<path d="M6.33719 8.5904L4.79876 8.51553L5.45667 9.9082L6.33719 8.5904Z" fill="#E0E1E4" stroke="#E0E1E4" stroke-width="0.792453" stroke-linejoin="round"/>
<path d="M7.96835 6.84766L6.47409 6.47409L6.84766 7.96835L7.96835 6.84766Z" fill="#E0E1E4" stroke="#E0E1E4" stroke-width="0.792453" stroke-linejoin="round"/>
<path d="M9.90825 5.4566L8.51558 4.7987L8.59045 6.33713L9.90825 5.4566Z" fill="#E0E1E4" stroke="#E0E1E4" stroke-width="0.792453" stroke-linejoin="round"/>
<path d="M12.0822 4.47075L10.8446 3.55379L10.6179 5.07727L12.0822 4.47075Z" fill="#E0E1E4" stroke="#E0E1E4" stroke-width="0.792453" stroke-linejoin="round"/>
<path d="M14.4067 3.92795L13.3719 2.78718L12.8523 4.23715L14.4067 3.92795Z" fill="#E0E1E4" stroke="#E0E1E4" stroke-width="0.792453" stroke-linejoin="round"/>
<path d="M16.7924 3.84906L16 2.52831L15.2075 3.84906L16.7924 3.84906Z" fill="#E0E1E4" stroke="#E0E1E4" stroke-width="0.792453" stroke-linejoin="round"/>
<path d="M19.1478 4.23715L18.6283 2.78717L17.5934 3.92795L19.1478 4.23715Z" fill="#E0E1E4" stroke="#E0E1E4" stroke-width="0.792453" stroke-linejoin="round"/>
<path d="M21.3821 5.07728L21.1554 3.5538L19.9178 4.47076L21.3821 5.07728Z" fill="#E0E1E4" stroke="#E0E1E4" stroke-width="0.792453" stroke-linejoin="round"/>
<path d="M23.4096 6.33713L23.4845 4.7987L22.0918 5.4566L23.4096 6.33713Z" fill="#E0E1E4" stroke="#E0E1E4" stroke-width="0.792453" stroke-linejoin="round"/>
<path d="M25.1524 7.96835L25.526 6.47409L24.0317 6.84766L25.1524 7.96835Z" fill="#E0E1E4" stroke="#E0E1E4" stroke-width="0.792453" stroke-linejoin="round"/>
<path d="M26.5434 9.90822L27.2013 8.51555L25.6628 8.59042L26.5434 9.90822Z" fill="#E0E1E4" stroke="#E0E1E4" stroke-width="0.792453" stroke-linejoin="round"/>
<path d="M27.5292 12.0822L28.4462 10.8446L26.9227 10.6179L27.5292 12.0822Z" fill="#E0E1E4" stroke="#E0E1E4" stroke-width="0.792453" stroke-linejoin="round"/>
<path d="M28.0721 14.4067L29.2129 13.3718L27.7629 12.8523L28.0721 14.4067Z" fill="#E0E1E4" stroke="#E0E1E4" stroke-width="0.792453" stroke-linejoin="round"/>
<path d="M14.151 4.90567L16.0001 6.75473L17.8491 4.90567H14.151Z" fill="#E0E1E4" stroke="#E0E1E4" stroke-width="1.58491" stroke-linejoin="round"/>
<path d="M25.98 10.8131L24.7928 13.1431L27.1228 14.3302L25.98 10.8131Z" fill="#E0E1E4" stroke="#E0E1E4" stroke-width="1.58491" stroke-linejoin="round"/>
<path d="M24.0171 23.8887L21.4343 23.4796L21.0253 26.0624L24.0171 23.8887Z" fill="#E0E1E4" stroke="#E0E1E4" stroke-width="1.58491" stroke-linejoin="round"/>
<path d="M10.9749 26.0624L10.5658 23.4796L7.98302 23.8887L10.9749 26.0624Z" fill="#E0E1E4" stroke="#E0E1E4" stroke-width="1.58491" stroke-linejoin="round"/>
<path d="M4.87732 14.3302L7.20727 13.1431L6.0201 10.8131L4.87732 14.3302Z" fill="#E0E1E4" stroke="#E0E1E4" stroke-width="1.58491" stroke-linejoin="round"/>
</svg>
