<svg width="32" height="32" viewBox="0 0 32 32" fill="none" xmlns="http://www.w3.org/2000/svg">
<path d="M28 4H4V28H28V4Z" fill="#F3DF49"/>
<path d="M20.1219 22.7501C20.6053 23.5394 21.2343 24.1196 22.3466 24.1196C23.2811 24.1196 23.8781 23.6526 23.8781 23.0072C23.8781 22.2339 23.2647 21.96 22.2362 21.5101L21.6724 21.2682C20.0449 20.5749 18.9638 19.7063 18.9638 17.8701C18.9638 16.1787 20.2525 14.8911 22.2666 14.8911C23.7005 14.8911 24.7314 15.3901 25.4743 16.6968L23.7181 17.8244C23.3314 17.1311 22.9143 16.8579 22.2666 16.8579C21.6061 16.8579 21.1874 17.277 21.1874 17.8244C21.1874 18.501 21.6065 18.7749 22.5741 19.1939L23.1379 19.4354C25.0541 20.2571 26.136 21.0949 26.136 22.9783C26.136 25.0088 24.5409 26.1211 22.3988 26.1211C20.3044 26.1211 18.9512 25.1231 18.2891 23.8149L20.1219 22.7501ZM12.155 22.9455C12.5093 23.5741 12.8316 24.1055 13.6065 24.1055C14.3474 24.1055 14.8148 23.8156 14.8148 22.6884V15.0198H17.0701V22.7189C17.0701 25.0541 15.7009 26.117 13.7025 26.117C11.8967 26.117 10.851 25.1825 10.3192 24.057L12.155 22.9455Z" fill="#2E2E2C"/>
</svg>
