<svg width="16" height="16" viewBox="0 0 16 16" fill="none" xmlns="http://www.w3.org/2000/svg">
<g clip-path="url(#clip0_5391_35047)">
<path d="M11.0363 10.0303L3.96284 5.9465M11.0363 10.0303L13.4271 9.38972M11.0363 10.0303L11.6769 12.4212M3.96284 5.9465L3.32222 3.55566M3.96284 5.9465L1.572 6.58713M7.49961 12.0722L7.49961 3.90449M7.49961 12.0722L9.24984 13.8225M7.49961 12.0722L5.7494 13.8225M7.49961 3.90449L9.24977 2.15446M7.49961 3.90449L5.74933 2.15446M11.0363 5.9465L3.96284 10.0303M11.0363 5.9465L11.6769 3.55566M11.0363 5.9465L13.4271 6.58713M3.96284 10.0303L1.572 9.38972M3.96284 10.0303L3.32222 12.4212" stroke="#E0E1E4" stroke-linecap="round" stroke-linejoin="round"/>
</g>
<defs>
<clipPath id="clip0_5391_35047">
<rect width="16" height="16" fill="white"/>
</clipPath>
</defs>
</svg>
