<svg width="16" height="16" viewBox="0 0 16 16" fill="none" xmlns="http://www.w3.org/2000/svg">
<path fill-rule="evenodd" clip-rule="evenodd" d="M8.5 0C8.22386 0 8 0.223858 8 0.5V2.5C8 2.77614 8.22386 3 8.5 3C8.77614 3 9 2.77614 9 2.5V0.5C9 0.223858 8.77614 0 8.5 0ZM6 1.5C6 1.22386 6.22386 1 6.5 1C6.77614 1 7 1.22386 7 1.5V2.5C7 2.77614 6.77614 3 6.5 3C6.22386 3 6 2.77614 6 2.5V1.5ZM11 5H4V9C4 10.1046 4.89543 11 6 11H9C10.1046 11 11 10.1046 11 9V8.79815V6V5ZM12 5C12 4.44772 11.5523 4 11 4H4C3.44772 4 3 4.44772 3 5V9C3 10.6569 4.34315 12 6 12H9C10.5397 12 11.8084 10.8402 11.9802 9.34653L12 9.33333L13.1094 8.59373C13.6658 8.2228 14 7.59834 14 6.92963V6C14 5.44772 13.5523 5 13 5H12ZM12 6V8.13148L12.5547 7.76168C12.8329 7.57622 13 7.26399 13 6.92963V6H12ZM2 13.5C2 13.2239 2.22386 13 2.5 13H13.5C13.7761 13 14 13.2239 14 13.5C14 13.7761 13.7761 14 13.5 14H2.5C2.22386 14 2 13.7761 2 13.5Z" fill="#E0E1E4"/>
</svg>
