<svg width="16" height="16" viewBox="0 0 16 16" fill="none" xmlns="http://www.w3.org/2000/svg">
<path d="M14 2H2V14H14V2Z" fill="#512BD4"/>
<path d="M3.10374 10C2.99273 10 2.89837 9.96302 2.82067 9.88903C2.74296 9.81314 2.7041 9.72304 2.7041 9.61872C2.7041 9.51246 2.74296 9.42143 2.82067 9.34555C2.89837 9.26966 2.99273 9.23172 3.10374 9.23172C3.21661 9.23172 3.31189 9.26966 3.3896 9.34555C3.46916 9.42143 3.50894 9.51246 3.50894 9.61872C3.50894 9.72304 3.46916 9.81314 3.3896 9.88903C3.31189 9.96302 3.21661 10 3.10374 10Z" fill="white"/>
<path fill-rule="evenodd" clip-rule="evenodd" d="M7.30845 10H6.6011L4.73753 7.05998C4.69038 6.9856 4.65137 6.90841 4.62055 6.82845H4.60422C4.61873 6.91401 4.62599 7.09718 4.62599 7.37795V10H4.00024V6H4.75384L6.55486 8.87029C6.63103 8.98933 6.68001 9.07114 6.70178 9.11576H6.71264C6.69452 9.00978 6.68544 8.83032 6.68544 8.57739V6H7.30845V10ZM10.1903 10H8.00024V6H10.1032V6.56347H8.64776V7.69595H9.98899V8.25663H8.64776V9.43933H10.1903V10ZM12.1818 6.56347H13.3027V6H10.4161V6.56347H11.5343V10H12.1818V6.56347Z" fill="white"/>
</svg>
