<svg width="32" height="32" viewBox="0 0 32 32" fill="none" xmlns="http://www.w3.org/2000/svg">
<path fill-rule="evenodd" clip-rule="evenodd" d="M17.3258 3.44643C16.5936 2.7142 15.4064 2.7142 14.6742 3.44643L12.9624 5.15821L14.7512 6.94697C15.692 6.39006 16.9249 6.51597 17.7337 7.3247C18.5424 8.13342 18.6683 9.36639 18.1114 10.3072L21.6903 13.8862C22.6312 13.3289 23.8645 13.4547 24.6734 14.2636C25.6312 15.2214 25.6312 16.7744 24.6734 17.7323C23.7155 18.6901 22.1625 18.6901 21.2047 17.7323C20.3974 16.925 20.2705 15.6949 20.8241 14.7547L17.2431 11.1737C17.0439 11.291 16.8318 11.3778 16.6133 11.4341L16.6133 20.5626C17.0238 20.6683 17.4122 20.8819 17.7336 21.2033C18.6915 22.1612 18.6915 23.7141 17.7336 24.672C16.7758 25.6299 15.2228 25.6299 14.2649 24.672C13.3071 23.7141 13.3071 22.1612 14.2649 21.2033C14.5867 20.8815 14.9757 20.6678 15.3867 20.5623L15.3867 11.4344C14.9757 11.3288 14.5868 11.1152 14.265 10.7934C13.4575 9.98593 13.3307 8.75554 13.8847 7.81527L12.095 6.02561L3.4474 14.6732C2.71516 15.4054 2.71516 16.5926 3.4474 17.3249L14.6742 28.5516C15.4064 29.2839 16.5936 29.2839 17.3258 28.5516L28.5526 17.3249C29.2848 16.5926 29.2848 15.4054 28.5526 14.6732L17.3258 3.44643Z" fill="#F34E29"/>
</svg>
