<svg width="16" height="16" viewBox="0 0 16 16" fill="none" xmlns="http://www.w3.org/2000/svg">
<path d="M6.5 8.20761L5.83338 8.44323C5.72976 8.47985 5.61777 8.5 5.5 8.5H3.5C2.94772 8.5 2.5 8.05228 2.5 7.5V5.5C2.5 4.94772 2.94772 4.5 3.5 4.5H5.5C6.05228 4.5 6.5 4.94772 6.5 5.5V7.5V8.20761ZM13.5 8.20761L12.8334 8.44323C12.7298 8.47985 12.6178 8.5 12.5 8.5H10.5C9.94772 8.5 9.5 8.05228 9.5 7.5V5.5C9.5 4.94772 9.94772 4.5 10.5 4.5H12.5C13.0523 4.5 13.5 4.94772 13.5 5.5V7.5V8.20761Z" stroke="#E0E1E4"/>
</svg>
