<svg width="16" height="16" viewBox="0 0 16 16" fill="none" xmlns="http://www.w3.org/2000/svg">
<path fill-rule="evenodd" clip-rule="evenodd" d="M7.03033 1.96979L6.50001 1.43945L5.43934 2.50011L5.96967 3.03044L7.18933 4.25011H1V5.75011H7.18934L5.96964 6.96977L5.4393 7.50009L6.49994 8.56077L7.03028 8.03045L9.53033 5.53049L10.0607 5.00017L9.53035 4.46983L7.03033 1.96979Z" fill="#169068"/>
<path fill-rule="evenodd" clip-rule="evenodd" d="M8.96968 14.0304L9.50001 14.5608L10.5607 13.5001L10.0303 12.9698L8.81065 11.7501H15V10.2501H8.8107L10.0303 9.03044L10.5607 8.50011L9.5 7.43945L8.96967 7.96978L6.46969 10.4698L5.93936 11.0001L6.46969 11.5304L8.96968 14.0304Z" fill="#E1465E"/>
</svg>
