<svg width="16" height="16" viewBox="0 0 16 16" fill="none" xmlns="http://www.w3.org/2000/svg">
<path fill-rule="evenodd" clip-rule="evenodd" d="M2.80005 2V1.5H3.80005V2V3.71516C4.8819 2.65469 6.36446 2 8 2C11.3137 2 14 4.68629 14 8C14 11.3137 11.3137 14 8 14C5.60817 14 3.54421 12.6004 2.58055 10.5778L2.3655 10.1264L3.26827 9.69629L3.48333 10.1477C4.28739 11.8353 6.00818 13 8 13C10.7614 13 13 10.7614 13 8C13 5.23858 10.7614 3 8 3C6.60159 3 5.33712 3.57378 4.42923 4.5H6.30005H6.80005V5.5H6.30005H3.30005H2.80005V5V2Z" fill="#E0E1E4"/>
</svg>
