<svg width="16" height="16" viewBox="0 0 16 16" fill="none" xmlns="http://www.w3.org/2000/svg">
<path d="M9 3.5C9 3.77614 8.77614 4 8.5 4C8.22386 4 8 3.77614 8 3.5C8 3.22386 8.22386 3 8.5 3C8.77614 3 9 3.22386 9 3.5Z" fill="#E0E1E4"/>
<rect x="6" y="11" width="2" height="2" rx="0.5" fill="#E0E1E4"/>
<rect x="9" y="14" width="7" height="1" fill="#A660D4"/>
<path fill-rule="evenodd" clip-rule="evenodd" d="M9 9.5C9 8.67157 9.67157 8 10.5 8H14.5C15.3284 8 16 8.67157 16 9.5V11.5C16 12.3284 15.3284 13 14.5 13H10.5C9.67157 13 9 12.3284 9 11.5V9.5ZM10.5 9C10.2239 9 10 9.22386 10 9.5V11.5C10 11.7761 10.2239 12 10.5 12H14.5C14.7761 12 15 11.7761 15 11.5V9.5C15 9.22386 14.7761 9 14.5 9H10.5Z" fill="#A660D4"/>
<path fill-rule="evenodd" clip-rule="evenodd" d="M6 2H11C11.5523 2 12 2.44772 12 3V7H13V3C13 1.89543 12.1046 1 11 1H6C4.89543 1 4 1.89543 4 3V13C4 14.1046 4.89543 15 6 15H8V14H6C5.44772 14 5 13.5523 5 13V3C5 2.44772 5.44772 2 6 2Z" fill="#E0E1E4"/>
</svg>
