<svg width="16" height="16" viewBox="0 0 16 16" fill="none" xmlns="http://www.w3.org/2000/svg">
<rect x="4" y="11" width="2" height="2" rx="0.5" fill="#E0E1E4"/>
<rect x="9" y="14" width="7" height="1" fill="#A660D4"/>
<path fill-rule="evenodd" clip-rule="evenodd" d="M9 9.5C9 8.67157 9.67157 8 10.5 8H14.5C15.3284 8 16 8.67157 16 9.5V11.5C16 12.3284 15.3284 13 14.5 13H10.5C9.67157 13 9 12.3284 9 11.5V9.5ZM10.5 9C10.2239 9 10 9.22386 10 9.5V11.5C10 11.7761 10.2239 12 10.5 12H14.5C14.7761 12 15 11.7761 15 11.5V9.5C15 9.22386 14.7761 9 14.5 9H10.5Z" fill="#A660D4"/>
<path fill-rule="evenodd" clip-rule="evenodd" d="M4 2H12C12.5523 2 13 2.44772 13 3V7H14V3C14 1.89543 13.1046 1 12 1H4C2.89543 1 2 1.89543 2 3V13C2 14.1046 2.89543 15 4 15H8V14H4C3.44772 14 3 13.5523 3 13V3C3 2.44772 3.44772 2 4 2Z" fill="#E0E1E4"/>
<path fill-rule="evenodd" clip-rule="evenodd" d="M8 11H7.5C7.22386 11 7 11.2239 7 11.5V12.5C7 12.7761 7.22386 13 7.5 13H8V11Z" fill="#E0E1E4"/>
</svg>
