<svg width="16" height="16" viewBox="0 0 16 16" fill="none" xmlns="http://www.w3.org/2000/svg">
<circle cx="8" cy="8" r="6.5" fill="#E59408"/>
<path d="M6.37415 12.98V11.836H8.16715C8.78315 11.836 9.09115 11.5463 9.09115 10.967V10.516L9.11315 9.383H9.09115C9.03248 9.779 8.86382 10.0907 8.58515 10.318C8.30648 10.538 7.94715 10.648 7.50715 10.648C6.89115 10.648 6.39982 10.439 6.03315 10.021C5.67382 9.603 5.49415 9.03833 5.49415 8.327V7.15C5.49415 6.446 5.67382 5.885 6.03315 5.467C6.39982 5.049 6.89115 4.84 7.50715 4.84C7.94715 4.84 8.30648 4.95367 8.58515 5.181C8.86382 5.401 9.03248 5.709 9.09115 6.105H9.11315L9.08015 4.95H10.4551V11C10.4551 11.616 10.2535 12.1 9.85015 12.452C9.44682 12.804 8.89315 12.98 8.18915 12.98H6.37415ZM7.96915 9.46C8.32115 9.46 8.59248 9.35733 8.78315 9.152C8.98115 8.93933 9.08015 8.646 9.08015 8.272V7.216C9.08015 6.842 8.98115 6.55233 8.78315 6.347C8.59248 6.13433 8.32115 6.028 7.96915 6.028C7.61715 6.028 7.34582 6.13067 7.15515 6.336C6.96448 6.54133 6.86915 6.83467 6.86915 7.216V8.272C6.86915 8.65333 6.96448 8.94667 7.15515 9.152C7.34582 9.35733 7.61715 9.46 7.96915 9.46Z" fill="white"/>
</svg>
