<svg width="16" height="16" viewBox="0 0 16 16" fill="none" xmlns="http://www.w3.org/2000/svg">
<path d="M8.98115 12C8.37982 12 7.89582 11.8203 7.52915 11.461C7.16982 11.1017 6.99015 10.6287 6.99015 10.042V5.213H4.99915V3.97H8.36515V10.009C8.36515 10.2363 8.42748 10.4197 8.55215 10.559C8.68415 10.691 8.86015 10.757 9.08015 10.757H10.8511V12H8.98115Z" fill="white"/>
<circle cx="8" cy="8" r="6.5" fill="#A660D4"/>
<path d="M8.02415 12.11C7.47415 12.11 6.99748 12.0183 6.59415 11.835C6.19815 11.6443 5.88648 11.3803 5.65915 11.043C5.43915 10.6983 5.32915 10.295 5.32915 9.833H6.70415C6.70415 10.163 6.82515 10.427 7.06715 10.625C7.30915 10.8157 7.63182 10.911 8.03515 10.911C8.43115 10.911 8.73915 10.8157 8.95915 10.625C9.18648 10.4343 9.30015 10.174 9.30015 9.844C9.30015 9.57267 9.22315 9.34167 9.06915 9.151C8.91515 8.953 8.70248 8.81733 8.43115 8.744L7.46315 8.48C6.83982 8.31133 6.35582 8.02167 6.01115 7.611C5.66648 7.193 5.49415 6.69067 5.49415 6.104C5.49415 5.422 5.72148 4.87933 6.17615 4.476C6.63082 4.06533 7.24315 3.86 8.01315 3.86C8.79048 3.86 9.40648 4.06167 9.86115 4.465C10.3231 4.861 10.5541 5.39633 10.5541 6.071H9.17915C9.17915 5.763 9.07282 5.51733 8.86015 5.334C8.65482 5.15067 8.36882 5.059 8.00215 5.059C7.64282 5.059 7.36048 5.15067 7.15515 5.334C6.95715 5.51 6.85815 5.75933 6.85815 6.082C6.85815 6.33133 6.93148 6.54767 7.07815 6.731C7.23215 6.91433 7.45215 7.04267 7.73815 7.116L8.71715 7.391C9.34048 7.55967 9.82082 7.853 10.1581 8.271C10.5028 8.68167 10.6751 9.19133 10.6751 9.8C10.6751 10.262 10.5651 10.669 10.3451 11.021C10.1251 11.3657 9.81715 11.6333 9.42115 11.824C9.02515 12.0147 8.55948 12.11 8.02415 12.11Z" fill="white"/>
</svg>
