<svg width="16" height="16" viewBox="0 0 16 16" fill="none" xmlns="http://www.w3.org/2000/svg">
<path d="M8.98115 12C8.37982 12 7.89582 11.8203 7.52915 11.461C7.16982 11.1017 6.99015 10.6287 6.99015 10.042V5.213H4.99915V3.97H8.36515V10.009C8.36515 10.2363 8.42748 10.4197 8.55215 10.559C8.68415 10.691 8.86015 10.757 9.08015 10.757H10.8511V12H8.98115Z" fill="white"/>
<circle cx="8" cy="8" r="6.5" fill="#2A7DEB"/>
<path d="M5.54915 12V3.97H8.22215C8.75748 3.97 9.22315 4.07267 9.61915 4.278C10.0225 4.48333 10.3341 4.773 10.5541 5.147C10.7741 5.51367 10.8841 5.94633 10.8841 6.445C10.8841 6.94367 10.7741 7.38 10.5541 7.754C10.3341 8.12067 10.0225 8.40667 9.61915 8.612C9.22315 8.81733 8.75748 8.92 8.22215 8.92H6.92415V12H5.54915ZM6.92415 7.71H8.22215C8.61082 7.71 8.91882 7.59267 9.14615 7.358C9.37348 7.12333 9.48715 6.819 9.48715 6.445C9.48715 6.071 9.37348 5.76667 9.14615 5.532C8.91882 5.29733 8.61082 5.18 8.22215 5.18H6.92415V7.71Z" fill="white"/>
</svg>
