<svg width="16" height="16" viewBox="0 0 16 16" fill="none" xmlns="http://www.w3.org/2000/svg">
<path d="M8.98115 12C8.37982 12 7.89582 11.8203 7.52915 11.461C7.16982 11.1017 6.99015 10.6287 6.99015 10.042V5.213H4.99915V3.97H8.36515V10.009C8.36515 10.2363 8.42748 10.4197 8.55215 10.559C8.68415 10.691 8.86015 10.757 9.08015 10.757H10.8511V12H8.98115Z" fill="white"/>
<circle cx="8" cy="8" r="6.5" fill="#E1465E"/>
<path d="M8.00215 12.11C7.23215 12.11 6.61982 11.8973 6.16515 11.472C5.71782 11.0393 5.49415 10.46 5.49415 9.734V6.236C5.49415 5.51 5.71782 4.93433 6.16515 4.509C6.61982 4.07633 7.23215 3.86 8.00215 3.86C8.77215 3.86 9.38082 4.07633 9.82815 4.509C10.2828 4.93433 10.5101 5.50633 10.5101 6.225V9.734C10.5101 10.46 10.2828 11.0393 9.82815 11.472C9.38082 11.8973 8.77215 12.11 8.00215 12.11ZM8.00215 10.9C8.37615 10.9 8.65848 10.801 8.84915 10.603C9.03982 10.3977 9.13515 10.108 9.13515 9.734V6.236C9.13515 5.862 9.03982 5.576 8.84915 5.378C8.65848 5.17267 8.37615 5.07 8.00215 5.07C7.62815 5.07 7.34582 5.17267 7.15515 5.378C6.96448 5.576 6.86915 5.862 6.86915 6.236V9.734C6.86915 10.108 6.96448 10.3977 7.15515 10.603C7.34582 10.801 7.62815 10.9 8.00215 10.9Z" fill="white"/>
</svg>
