<svg width="16" height="16" viewBox="0 0 16 16" fill="none" xmlns="http://www.w3.org/2000/svg">
<path fill-rule="evenodd" clip-rule="evenodd" d="M2.59095 9.001C2.81029 9.197 2.91762 9.463 2.91295 9.799L2.87795 11.612C2.87329 12.0647 2.98295 12.4613 3.20695 12.802C3.43095 13.1473 3.74595 13.4133 4.15195 13.6C4.56262 13.7867 5.03162 13.88 5.55895 13.88H6.48995V12.48H5.64995C5.25329 12.48 4.93829 12.3703 4.70495 12.151C4.47629 11.9363 4.36429 11.6423 4.36895 11.269L4.39695 9.596C4.40629 9.17133 4.27095 8.812 3.99095 8.518C3.71562 8.224 3.34462 8.035 2.87795 7.951C3.34929 7.91366 3.72262 7.755 3.99795 7.475C4.27329 7.19033 4.40629 6.81466 4.39695 6.348L4.36895 4.857C4.35962 4.45566 4.48095 4.13366 4.73295 3.891C4.98962 3.64366 5.33029 3.52 5.75495 3.52H6.48995V2.12H5.66395C5.09929 2.12 4.60462 2.22033 4.17995 2.42099C3.75529 2.617 3.42862 2.897 3.19995 3.261C2.97595 3.625 2.86862 4.04733 2.87795 4.52799L2.91295 6.131C2.92229 6.47166 2.81729 6.74233 2.59795 6.943C2.37862 7.14366 2.07995 7.244 1.70195 7.244H1.00195V8.7H1.70195C2.07529 8.7 2.37162 8.80033 2.59095 9.001ZM12.7937 12.802C13.0177 12.4613 13.1274 12.0647 13.1227 11.612L13.0877 9.799C13.0784 9.463 13.1834 9.197 13.4027 9.001C13.6221 8.80033 13.9207 8.7 14.2987 8.7H14.9987V7.244H14.2987C13.9207 7.244 13.6221 7.14366 13.4027 6.943C13.1834 6.74233 13.0784 6.47166 13.0877 6.131L13.1227 4.52799C13.1321 4.04733 13.0224 3.625 12.7937 3.261C12.5697 2.897 12.2454 2.617 11.8207 2.42099C11.3961 2.22033 10.9014 2.12 10.3367 2.12H9.51074V3.52H10.2457C10.6704 3.52 11.0087 3.64366 11.2607 3.891C11.5127 4.13366 11.6341 4.45566 11.6247 4.857L11.5967 6.348C11.5874 6.81466 11.7204 7.19033 11.9957 7.475C12.2757 7.755 12.6491 7.91366 13.1157 7.951C12.6491 8.035 12.2781 8.224 12.0027 8.518C11.7274 8.812 11.5921 9.17133 11.5967 9.596L11.6247 11.269C11.6294 11.647 11.5174 11.9433 11.2887 12.158C11.0601 12.3727 10.7474 12.48 10.3507 12.48H9.51074V13.88H10.4417C10.9691 13.88 11.4357 13.7867 11.8417 13.6C12.2524 13.4133 12.5697 13.1473 12.7937 12.802Z" fill="#2A7DEB"/>
</svg>
