<svg width="16" height="16" viewBox="0 0 16 16" fill="none" xmlns="http://www.w3.org/2000/svg">
<rect x="-0.40625" y="8" width="11.8883" height="11.8883" rx="1" transform="rotate(-45 -0.40625 8)" fill="#E59408"/>
<path d="M6 12.54V4.51002H7.342V5.73102H7.65L7.254 6.30302C7.254 5.71636 7.41167 5.25436 7.727 4.91702C8.04233 4.57236 8.46767 4.40002 9.003 4.40002C9.39167 4.40002 9.73267 4.49902 10.026 4.69702C10.3267 4.88769 10.5577 5.15536 10.719 5.50002C10.8877 5.84469 10.972 6.24802 10.972 6.71002V8.34902C10.972 8.81102 10.8877 9.21802 10.719 9.57002C10.5577 9.91469 10.3303 10.186 10.037 10.384C9.74367 10.5747 9.399 10.67 9.003 10.67C8.46767 10.67 8.04233 10.4977 7.727 10.153C7.41167 9.80836 7.254 9.34636 7.254 8.76702L7.65 9.35002H7.331L7.375 10.846V12.54H6ZM8.486 9.48202C8.838 9.48202 9.10933 9.38669 9.3 9.19602C9.498 8.99802 9.597 8.70469 9.597 8.31602V6.75402C9.597 6.35802 9.498 6.06469 9.3 5.87402C9.10933 5.68336 8.838 5.58802 8.486 5.58802C8.134 5.58802 7.859 5.69436 7.661 5.90702C7.47033 6.11969 7.375 6.42036 7.375 6.80902V8.26102C7.375 8.64969 7.47033 8.95036 7.661 9.16302C7.859 9.37569 8.134 9.48202 8.486 9.48202Z" fill="white"/>
</svg>
