<svg width="16" height="16" viewBox="0 0 16 16" fill="none" xmlns="http://www.w3.org/2000/svg">
<circle cx="8" cy="8" r="6.5" fill="#A660D4"/>
<path d="M6 12.54V4.50999H7.342V5.73099H7.65L7.254 6.30299C7.254 5.71633 7.41167 5.25433 7.727 4.91699C8.04233 4.57233 8.46767 4.39999 9.003 4.39999C9.39167 4.39999 9.73267 4.49899 10.026 4.69699C10.3267 4.88766 10.5577 5.15533 10.719 5.49999C10.8877 5.84466 10.972 6.24799 10.972 6.70999V8.34899C10.972 8.81099 10.8877 9.21799 10.719 9.56999C10.5577 9.91466 10.3303 10.186 10.037 10.384C9.74367 10.5747 9.399 10.67 9.003 10.67C8.46767 10.67 8.04233 10.4977 7.727 10.153C7.41167 9.80833 7.254 9.34633 7.254 8.76699L7.65 9.34999H7.331L7.375 10.846V12.54H6ZM8.486 9.48199C8.838 9.48199 9.10933 9.38666 9.3 9.19599C9.498 8.99799 9.597 8.70466 9.597 8.31599V6.75399C9.597 6.35799 9.498 6.06466 9.3 5.87399C9.10933 5.68333 8.838 5.58799 8.486 5.58799C8.134 5.58799 7.859 5.69433 7.661 5.90699C7.47033 6.11966 7.375 6.42033 7.375 6.80899V8.26099C7.375 8.64966 7.47033 8.95033 7.661 9.16299C7.859 9.37566 8.134 9.48199 8.486 9.48199Z" fill="white"/>
</svg>
