<svg width="16" height="16" viewBox="0 0 16 16" fill="none" xmlns="http://www.w3.org/2000/svg">
<path fill-rule="evenodd" clip-rule="evenodd" d="M10.1613 2.51134L9.97514 3.18613L7.21652 13.1861L7.03037 13.8609L5.68078 13.4886L5.86693 12.8138L8.62555 2.81383L8.8117 2.13904L10.1613 2.51134ZM5.87612 6.01429L5.3065 6.42116L2.60396 8.35155L5.3065 10.2819L5.87612 10.6888L5.06238 11.828L4.49277 11.4212L0.992771 8.92116L0.195312 8.35155L0.992771 7.78193L4.49277 5.28193L5.06238 4.87507L5.87612 6.01429ZM10.693 6.42116L10.1234 6.01429L10.9371 4.87507L11.5067 5.28193L15.0067 7.78193L15.8042 8.35155L15.0067 8.92116L11.5067 11.4212L10.9371 11.828L10.1234 10.6888L10.693 10.2819L13.3955 8.35155L10.693 6.42116Z" fill="#E59408"/>
</svg>
