<svg width="16" height="16" viewBox="0 0 16 16" fill="none" xmlns="http://www.w3.org/2000/svg">
<path fill-rule="evenodd" clip-rule="evenodd" d="M9.85348 13.3536L10.207 13L9.49992 12.2929L9.14637 12.6465L8 13.7928V8.5V8H7V8.5V13.793L5.85348 12.6465L5.49993 12.2929L4.79282 13L5.14637 13.3536L7.14637 15.3536L7.49992 15.7071L7.85348 15.3536L9.85348 13.3536Z" fill="#E0E1E4"/>
<path fill-rule="evenodd" clip-rule="evenodd" d="M3.55232 5.18559L4.00104 5.00158L4.13437 4.53529C4.5532 3.0706 5.90287 2 7.5 2C9.30091 2 10.7853 3.36101 10.9786 5.10997L11.0774 6.00421L11.9771 6.00011L12 6H12.002C13.1057 6.00109 14 6.89611 14 8C14 9.10457 13.1046 10 12 10H10V11H12C13.6569 11 15 9.65685 15 8C15 6.34315 13.6569 5 12 5L11.9725 5.00012C11.7239 2.75009 9.81632 1 7.5 1C5.44468 1 3.71119 2.37791 3.17291 4.26036C1.89797 4.78318 1 6.03672 1 7.5C1 9.433 2.567 11 4.5 11H5V10H4.5C3.11929 10 2 8.88071 2 7.5C2 6.45638 2.63976 5.5598 3.55232 5.18559Z" fill="#E0E1E4"/>
</svg>
