<svg width="16" height="16" viewBox="0 0 16 16" fill="none" xmlns="http://www.w3.org/2000/svg">
<circle cx="8" cy="8" r="6.5" fill="#E59408"/>
<path d="M6.37415 12.98V11.836H8.07915C8.40182 11.836 8.65115 11.748 8.82715 11.572C9.00315 11.4033 9.09115 11.1723 9.09115 10.879V10.516L9.11315 9.295H8.81615L9.24515 8.767C9.24515 9.34633 9.08748 9.80467 8.77215 10.142C8.45682 10.472 8.03515 10.637 7.50715 10.637C6.89115 10.637 6.39982 10.4317 6.03315 10.021C5.67382 9.603 5.49415 9.03833 5.49415 8.327V7.15C5.49415 6.446 5.67382 5.885 6.03315 5.467C6.39982 5.049 6.89115 4.84 7.50715 4.84C8.03515 4.84 8.45682 5.00867 8.77215 5.346C9.08748 5.68333 9.24515 6.14167 9.24515 6.721L8.81615 5.995H9.11315V4.95H10.4551V10.912C10.4551 11.55 10.2425 12.0523 9.81715 12.419C9.39915 12.793 8.82715 12.98 8.10115 12.98H6.37415ZM7.96915 9.46C8.32115 9.46 8.59248 9.35733 8.78315 9.152C8.98115 8.93933 9.08015 8.646 9.08015 8.272V7.216C9.08015 6.842 8.98115 6.55233 8.78315 6.347C8.59248 6.13433 8.32115 6.028 7.96915 6.028C7.61715 6.028 7.34582 6.13067 7.15515 6.336C6.96448 6.534 6.86915 6.81267 6.86915 7.172V8.316C6.86915 8.67533 6.96448 8.95767 7.15515 9.163C7.34582 9.361 7.61715 9.46 7.96915 9.46Z" fill="white"/>
</svg>
