<svg width="16" height="16" viewBox="0 0 16 16" fill="none" xmlns="http://www.w3.org/2000/svg">
<path d="M8.98115 12C8.58515 12 8.23682 11.9193 7.93615 11.758C7.64282 11.5967 7.41182 11.3693 7.24315 11.076C7.07448 10.7753 6.99015 10.4307 6.99015 10.042V5.213H4.99915V3.97H8.36515V10.009C8.36515 10.2363 8.42748 10.4197 8.55215 10.559C8.68415 10.691 8.86015 10.757 9.08015 10.757H10.8511V12H8.98115Z" fill="white"/>
<circle cx="8" cy="8" r="6.5" fill="#169068"/>
<path d="M5.54915 12L5.92315 9.91H5.08715V8.975H6.07715L6.41815 6.995H5.47215V6.06H6.58315L6.95715 3.97H7.92515L7.55115 6.06H9.11315L9.48715 3.97H10.4551L10.0811 6.06H10.9171V6.995H9.91615L9.57515 8.975H10.5321V9.91H9.41015L9.04715 12H8.07915L8.45315 9.91H6.88015L6.51715 12H5.54915ZM7.04515 8.975H8.60715L8.94815 6.995H7.38615L7.04515 8.975Z" fill="white"/>
</svg>
