<svg width="16" height="16" viewBox="0 0 16 16" fill="none" xmlns="http://www.w3.org/2000/svg">
<path d="M8.98115 12C8.58515 12 8.23682 11.9193 7.93615 11.758C7.64282 11.5967 7.41182 11.3693 7.24315 11.076C7.07448 10.7753 6.99015 10.4307 6.99015 10.042V5.213H4.99915V3.97H8.36515V10.009C8.36515 10.2363 8.42748 10.4197 8.55215 10.559C8.68415 10.691 8.86015 10.757 9.08015 10.757H10.8511V12H8.98115Z" fill="white"/>
<circle cx="8" cy="8" r="6.5" fill="#169068"/>
<path d="M5.54915 12.98V4.95H6.89115V6.171H7.19915L6.80315 6.743C6.80315 6.15633 6.96082 5.69433 7.27615 5.357C7.59148 5.01233 8.01682 4.84 8.55215 4.84C8.94082 4.84 9.28182 4.939 9.57515 5.137C9.87582 5.32767 10.1068 5.59533 10.2681 5.94C10.4368 6.28467 10.5211 6.688 10.5211 7.15V8.789C10.5211 9.251 10.4368 9.658 10.2681 10.01C10.1068 10.3547 9.87948 10.626 9.58615 10.824C9.29282 11.0147 8.94815 11.11 8.55215 11.11C8.01682 11.11 7.59148 10.9377 7.27615 10.593C6.96082 10.2483 6.80315 9.78633 6.80315 9.207L7.19915 9.79H6.88015L6.92415 11.286V12.98H5.54915ZM8.03515 9.922C8.38715 9.922 8.65848 9.82667 8.84915 9.636C9.04715 9.438 9.14615 9.14467 9.14615 8.756V7.194C9.14615 6.798 9.04715 6.50467 8.84915 6.314C8.65848 6.12333 8.38715 6.028 8.03515 6.028C7.68315 6.028 7.40815 6.13433 7.21015 6.347C7.01948 6.55967 6.92415 6.86033 6.92415 7.249V8.701C6.92415 9.08967 7.01948 9.39033 7.21015 9.603C7.40815 9.81567 7.68315 9.922 8.03515 9.922Z" fill="white"/>
</svg>
