<svg width="16" height="16" viewBox="0 0 16 16" fill="none" xmlns="http://www.w3.org/2000/svg">
<path d="M8.98115 12C8.58515 12 8.23682 11.9193 7.93615 11.758C7.64282 11.5967 7.41182 11.3693 7.24315 11.076C7.07448 10.7753 6.99015 10.4307 6.99015 10.042V5.213H4.99915V3.97H8.36515V10.009C8.36515 10.2363 8.42748 10.4197 8.55215 10.559C8.68415 10.691 8.86015 10.757 9.08015 10.757H10.8511V12H8.98115Z" fill="white"/>
<circle cx="8" cy="8" r="6.5" fill="#2A7DEB"/>
<path d="M5.54915 12V3.97H8.22215C8.75748 3.97 9.22315 4.07267 9.61915 4.278C10.0225 4.48333 10.3341 4.773 10.5541 5.147C10.7741 5.51367 10.8841 5.94633 10.8841 6.445C10.8841 6.93633 10.7705 7.369 10.5431 7.743C10.3231 8.117 10.0151 8.40667 9.61915 8.612C9.22315 8.81733 8.75748 8.92 8.22215 8.92H6.92415V12H5.54915ZM6.92415 7.71H8.22215C8.60348 7.71 8.90782 7.59267 9.13515 7.358C9.36982 7.12333 9.48715 6.819 9.48715 6.445C9.48715 6.06367 9.36982 5.75933 9.13515 5.532C8.90782 5.29733 8.60348 5.18 8.22215 5.18H6.92415V7.71Z" fill="white"/>
</svg>
