<svg width="16" height="16" viewBox="0 0 16 16" fill="none" xmlns="http://www.w3.org/2000/svg">
<rect x="9" y="14" width="7" height="1" fill="#A660D4"/>
<path fill-rule="evenodd" clip-rule="evenodd" d="M9 9.5C9 8.67157 9.67157 8 10.5 8H14.5C15.3284 8 16 8.67157 16 9.5V11.5C16 12.3284 15.3284 13 14.5 13H10.5C9.67157 13 9 12.3284 9 11.5V9.5ZM10.5 9C10.2239 9 10 9.22386 10 9.5V11.5C10 11.7761 10.2239 12 10.5 12H14.5C14.7761 12 15 11.7761 15 11.5V9.5C15 9.22386 14.7761 9 14.5 9H10.5Z" fill="#A660D4"/>
<path fill-rule="evenodd" clip-rule="evenodd" d="M2 7.99999C2 7.23937 2.4246 6.57793 3.0497 6.23974L3.82559 3.1362C3.99253 2.46845 4.5925 2 5.2808 2H10.7192C11.4075 2 12.0075 2.46844 12.1745 3.1362L12.9504 6.23977C13.2761 6.41599 13.5473 6.67997 13.7324 7H12.0043C12.0029 6.99999 12.0014 6.99999 12 6.99999H4C3.44772 6.99999 3 7.44771 3 7.99999V9.99999H8V11H5V12C5 12.5523 4.55228 13 4 13H3C2.44772 13 2 12.5523 2 12V11V10.5V7.99999ZM11.8596 5.99999H4.14042L4.79573 3.37873C4.85138 3.15615 5.05137 3 5.2808 3H10.7192C10.9487 3 11.1487 3.15615 11.2043 3.37873L11.8596 5.99999ZM3 11H4V12H3V11ZM4.5 7.68712C4.05107 7.68712 3.68713 8.05106 3.68713 8.49999C3.68713 8.94892 4.05107 9.31286 4.5 9.31286C4.94893 9.31286 5.31287 8.94892 5.31287 8.49999C5.31287 8.05106 4.94893 7.68712 4.5 7.68712Z" fill="#E0E1E4"/>
</svg>
