<svg width="16" height="16" viewBox="0 0 16 16" fill="none" xmlns="http://www.w3.org/2000/svg">
<path d="M8.03712 12.0671C8.03184 12.0672 8.02657 12.0677 8.02128 12.0677C7.8766 12.0689 7.73143 12.0327 7.60116 11.9592L4.64828 10.2913C4.47493 10.1937 4.3673 10.0108 4.36537 9.81203L4.36531 6.42057C4.36387 6.27583 4.39248 6.13631 4.45119 6.01336L2.14248 4.71996C2.04528 4.92312 1.99795 5.15374 2.00033 5.39301L2.00041 10.9911C2.0036 11.3192 2.18126 11.6211 2.4674 11.7821L7.34157 14.5353C7.5566 14.6567 7.79621 14.7164 8.03504 14.7145L8.03509 14.7105C8.04054 14.3614 8.03884 12.9532 8.03712 12.0671Z" fill="#0B5955"/>
<path d="M4.45128 6.01296C4.51455 5.88067 4.61276 5.76774 4.74647 5.68876L7.52631 4.04887C7.78491 3.89605 8.10529 3.89311 8.36689 4.0408L11.1772 5.62805C11.3024 5.6989 11.4122 5.79891 11.4924 5.91727C11.4928 5.91774 11.493 5.91823 11.4933 5.91869L13.7648 4.56215C13.6323 4.36677 13.4512 4.20169 13.2444 4.08475L8.60561 1.46475C8.17382 1.22097 7.64498 1.22583 7.21812 1.47808L2.62959 4.18495C2.40887 4.31533 2.24677 4.50173 2.14233 4.72009L4.45104 6.01349C4.45113 6.01332 4.45119 6.01313 4.45128 6.01296Z" fill="#3DDC84"/>
<path d="M13.7651 4.56219L11.4936 5.91874C11.5806 6.04697 11.6336 6.19617 11.6351 6.35195L11.6351 9.5794C11.6378 9.87991 11.4803 10.1588 11.2217 10.3114L8.44184 11.9515C8.31685 12.0254 8.17739 12.0635 8.03723 12.0673C8.03894 12.9533 8.04066 14.3616 8.03521 14.7107L8.03516 14.7147C8.27529 14.7127 8.51508 14.6491 8.72917 14.5226L13.3177 11.8153C13.7446 11.5634 14.0045 11.103 14 10.607L14.0001 5.27962C13.9976 5.02155 13.9096 4.77438 13.7651 4.56219Z" fill="#4285F4"/>
<path d="M5.61138 6.69303C5.58822 6.74821 5.57277 6.80735 5.56681 6.86926C5.56454 6.89299 5.56351 6.91706 5.56376 6.94135L5.56379 9.21468C5.56396 9.23133 5.56522 9.24782 5.56754 9.26405C5.57451 9.31274 5.59097 9.35912 5.61552 9.40073C5.63188 9.42847 5.65183 9.45409 5.67495 9.47686C5.69808 9.49963 5.72438 9.51956 5.75342 9.53591L7.73277 10.6539C7.82009 10.7032 7.91739 10.7275 8.01437 10.7267C8.0214 10.7266 8.02842 10.7262 8.03544 10.7258C8.12586 10.7218 8.21553 10.6964 8.2962 10.6487L10.1596 9.54928C10.1704 9.54289 10.181 9.53617 10.1913 9.52913C10.2118 9.51506 10.2313 9.49973 10.2497 9.48329C10.2771 9.45862 10.302 9.43144 10.3239 9.40221C10.3385 9.38272 10.3518 9.36232 10.3638 9.34114C10.3716 9.3273 10.3786 9.31302 10.3852 9.29856C10.3924 9.2828 10.399 9.26672 10.4047 9.25031C10.4067 9.24459 10.4086 9.23885 10.4105 9.23306C10.428 9.17742 10.4372 9.1187 10.4366 9.05862L10.4367 6.89524C10.4363 6.85594 10.431 6.81726 10.4215 6.77972C10.4151 6.75469 10.4069 6.73017 10.3969 6.70631C10.392 6.69438 10.3866 6.68262 10.3807 6.67103C10.3739 6.65741 10.3664 6.64414 10.3585 6.63106C10.3529 6.62189 10.3473 6.61277 10.3412 6.6039C10.3278 6.58406 10.3131 6.565 10.2973 6.54681C10.25 6.49226 10.1929 6.44565 10.1299 6.41003L8.24614 5.34608C8.21326 5.32752 8.179 5.31251 8.14387 5.30104C8.09706 5.28575 8.04872 5.27677 8.00013 5.27409C7.98798 5.27341 7.97582 5.27313 7.96366 5.27325C7.95033 5.27337 7.937 5.27408 7.9237 5.27515C7.89085 5.2778 7.85822 5.28342 7.82613 5.29184C7.82014 5.29341 7.81419 5.29515 7.80824 5.29693C7.76487 5.30986 7.72265 5.32788 7.68269 5.35149L5.81934 6.45072C5.76333 6.48381 5.71661 6.52579 5.67909 6.57427C5.66408 6.59366 5.65054 6.61409 5.63848 6.63541C5.63244 6.64607 5.62678 6.65695 5.62147 6.66804C5.61761 6.67611 5.61485 6.68475 5.61138 6.69303Z" fill="#D6F0FF"/>
<path d="M8.03559 10.7259C8.02856 10.7263 8.02154 10.7267 8.01452 10.7268C7.91753 10.7276 7.82023 10.7033 7.73291 10.654L5.75357 9.53601C5.72452 9.51966 5.69822 9.49974 5.6751 9.47696C5.65197 9.45419 5.63202 9.42857 5.61566 9.40083C5.59111 9.35922 5.57465 9.31284 5.56768 9.26415C5.56536 9.24792 5.56409 9.23144 5.56393 9.21478L5.5639 6.94146C5.56367 6.91717 5.56468 6.8931 5.56696 6.86936C5.57292 6.80746 5.58836 6.74831 5.61152 6.69314L5.07704 6.36406L4.45141 6.01357C4.39269 6.13652 4.36409 6.27603 4.36553 6.42078L4.36559 9.81224C4.36752 10.011 4.47515 10.1939 4.6485 10.2915L7.60138 11.9594C7.73165 12.0329 7.87682 12.0691 8.0215 12.0679C8.02679 12.0679 8.03206 12.0674 8.03734 12.0673C8.03651 11.635 8.03567 11.327 8.03567 11.327L8.03559 10.7259Z" fill="#083042"/>
<path d="M8.03559 10.7259C8.02856 10.7263 8.02154 10.7267 8.01452 10.7268C7.91753 10.7276 7.82023 10.7033 7.73291 10.654L5.75357 9.53601C5.72452 9.51966 5.69822 9.49974 5.6751 9.47696C5.65197 9.45419 5.63202 9.42857 5.61566 9.40083C5.59111 9.35922 5.57465 9.31284 5.56768 9.26415C5.56536 9.24792 5.56409 9.23144 5.56393 9.21478L5.5639 6.94146C5.56367 6.91717 5.56468 6.8931 5.56696 6.86936C5.57292 6.80746 5.58836 6.74831 5.61152 6.69314L5.07704 6.36406L4.45141 6.01357C4.39269 6.13652 4.36409 6.27603 4.36553 6.42078L4.36559 9.81224C4.36752 10.011 4.47515 10.1939 4.6485 10.2915L7.60138 11.9594C7.73165 12.0329 7.87682 12.0691 8.0215 12.0679C8.02679 12.0679 8.03206 12.0674 8.03734 12.0673C8.03651 11.635 8.03567 11.327 8.03567 11.327L8.03559 10.7259Z" fill="#041619"/>
<path d="M11.177 5.6281L8.36676 4.04085C8.10517 3.89316 7.78479 3.89611 7.52619 4.04892L4.74635 5.68881C4.61264 5.76779 4.51443 5.88073 4.45116 6.01301C4.45107 6.01318 4.45101 6.01337 4.45093 6.01355L5.07655 6.36404L5.61103 6.69312C5.61451 6.68483 5.61727 6.6762 5.62114 6.66812C5.62644 6.65704 5.6321 6.64616 5.63814 6.6355C5.65021 6.61418 5.66374 6.59375 5.67875 6.57435C5.71627 6.52588 5.76299 6.4839 5.819 6.45081L7.68235 5.35158C7.72231 5.32797 7.76453 5.30994 7.8079 5.29701C7.81385 5.29524 7.81981 5.2935 7.8258 5.29193C7.85788 5.28351 7.89051 5.27789 7.92336 5.27524C7.93667 5.27416 7.94999 5.27346 7.96332 5.27334C7.97548 5.27322 7.98764 5.27351 7.99979 5.27417C8.04838 5.27686 8.09672 5.28584 8.14354 5.30113C8.17866 5.3126 8.21292 5.32761 8.2458 5.34617L10.1295 6.41012C10.1925 6.44573 10.2496 6.49235 10.297 6.5469C10.3127 6.56508 10.3274 6.58415 10.3409 6.60399C10.3469 6.61286 10.3526 6.62197 10.3581 6.63114L10.8386 6.30967L11.4932 5.91875C11.4929 5.91828 11.4926 5.91779 11.4923 5.91733C11.412 5.79896 11.3023 5.69895 11.177 5.6281Z" fill="#3DDB85"/>
<path d="M11.177 5.6281L8.36676 4.04085C8.10517 3.89316 7.78479 3.89611 7.52619 4.04892L4.74635 5.68881C4.61264 5.76779 4.51443 5.88073 4.45116 6.01301C4.45107 6.01318 4.45101 6.01337 4.45093 6.01355L5.07655 6.36404L5.61103 6.69312C5.61451 6.68483 5.61727 6.6762 5.62114 6.66812C5.62644 6.65704 5.6321 6.64616 5.63814 6.6355C5.65021 6.61418 5.66374 6.59375 5.67875 6.57435C5.71627 6.52588 5.76299 6.4839 5.819 6.45081L7.68235 5.35158C7.72231 5.32797 7.76453 5.30994 7.8079 5.29701C7.81385 5.29524 7.81981 5.2935 7.8258 5.29193C7.85788 5.28351 7.89051 5.27789 7.92336 5.27524C7.93667 5.27416 7.94999 5.27346 7.96332 5.27334C7.97548 5.27322 7.98764 5.27351 7.99979 5.27417C8.04838 5.27686 8.09672 5.28584 8.14354 5.30113C8.17866 5.3126 8.21292 5.32761 8.2458 5.34617L10.1295 6.41012C10.1925 6.44573 10.2496 6.49235 10.297 6.5469C10.3127 6.56508 10.3274 6.58415 10.3409 6.60399C10.3469 6.61286 10.3526 6.62197 10.3581 6.63114L10.8386 6.30967L11.4932 5.91875C11.4929 5.91828 11.4926 5.91779 11.4923 5.91733C11.412 5.79896 11.3023 5.69895 11.177 5.6281Z" fill="#37BF6E"/>
<path d="M10.3584 6.63103C10.3663 6.64412 10.3739 6.65739 10.3807 6.67101C10.3865 6.6826 10.3919 6.69436 10.3969 6.70629C10.4069 6.73016 10.4151 6.75467 10.4214 6.7797C10.431 6.81724 10.4362 6.85592 10.4366 6.89522L10.4366 9.0586C10.4371 9.11868 10.4279 9.1774 10.4104 9.23304C10.4086 9.23883 10.4067 9.24458 10.4047 9.2503C10.3989 9.2667 10.3924 9.28279 10.3852 9.29855C10.3786 9.31301 10.3716 9.32728 10.3637 9.34112C10.3518 9.3623 10.3385 9.3827 10.3238 9.40219C10.3019 9.43142 10.2771 9.4586 10.2496 9.48327C10.2313 9.49972 10.2118 9.51504 10.1912 9.52911C10.1809 9.53615 10.1703 9.54287 10.1595 9.54926L8.29616 10.6487C8.21549 10.6964 8.12582 10.7217 8.0354 10.7258L8.03549 11.3268C8.03549 11.3268 8.03632 11.6349 8.03716 12.0672C8.17732 12.0634 8.31678 12.0253 8.44176 11.9514L11.2216 10.3113C11.4802 10.1587 11.6377 9.87981 11.635 9.57931L11.635 6.35186C11.6335 6.19607 11.5805 6.04688 11.4935 5.91864L10.8389 6.30956L10.3584 6.63103Z" fill="#4285F4"/>
<path d="M10.3584 6.63103C10.3663 6.64412 10.3739 6.65739 10.3807 6.67101C10.3865 6.6826 10.3919 6.69436 10.3969 6.70629C10.4069 6.73016 10.4151 6.75467 10.4214 6.7797C10.431 6.81724 10.4362 6.85592 10.4366 6.89522L10.4366 9.0586C10.4371 9.11868 10.4279 9.1774 10.4104 9.23304C10.4086 9.23883 10.4067 9.24458 10.4047 9.2503C10.3989 9.2667 10.3924 9.28279 10.3852 9.29855C10.3786 9.31301 10.3716 9.32728 10.3637 9.34112C10.3518 9.3623 10.3385 9.3827 10.3238 9.40219C10.3019 9.43142 10.2771 9.4586 10.2496 9.48327C10.2313 9.49972 10.2118 9.51504 10.1912 9.52911C10.1809 9.53615 10.1703 9.54287 10.1595 9.54926L8.29616 10.6487C8.21549 10.6964 8.12582 10.7217 8.0354 10.7258L8.03549 11.3268C8.03549 11.3268 8.03632 11.6349 8.03716 12.0672C8.17732 12.0634 8.31678 12.0253 8.44176 11.9514L11.2216 10.3113C11.4802 10.1587 11.6377 9.87981 11.635 9.57931L11.635 6.35186C11.6335 6.19607 11.5805 6.04688 11.4935 5.91864L10.8389 6.30956L10.3584 6.63103Z" fill="#3870B2"/>
</svg>
