<svg width="16" height="16" viewBox="0 0 16 16" fill="none" xmlns="http://www.w3.org/2000/svg">
<path fill-rule="evenodd" clip-rule="evenodd" d="M10.4262 1.81958L11.1929 1.05291C11.3881 0.857648 11.7047 0.857648 11.9 1.05291C12.0953 1.24817 12.0953 1.56475 11.9 1.76002L11.1392 2.52078C11.6782 3.20235 12 4.0636 12 5.00001H12.5C13.3284 5.00001 14 5.67158 14 6.50001V9.50001C14 9.77615 13.7761 10 13.5 10C13.2239 10 13 9.77615 13 9.50001V6.50001C13 6.22386 12.7761 6.00001 12.5 6.00001H12V12C12 12.5523 11.5523 13 11 13H10V15.5C10 15.7761 9.77614 16 9.5 16C9.22386 16 9 15.7761 9 15.5V13H7V15.5C7 15.7761 6.77614 16 6.5 16C6.22386 16 6 15.7761 6 15.5V13H5C4.44772 13 4 12.5523 4 12V6.00001H3.5C3.22386 6.00001 3 6.22387 3 6.50001V9.50001C3 9.77615 2.77614 10 2.5 10C2.22386 10 2 9.77615 2 9.50001V6.50001C2 5.67158 2.67157 5.00001 3.5 5.00001H4C4 4.06485 4.32091 3.20464 4.85862 2.52351L4.10001 1.7649C3.90474 1.56964 3.90474 1.25306 4.10001 1.05779C4.29527 0.862531 4.61185 0.862531 4.80711 1.05779L5.57101 1.82169C6.24444 1.30626 7.08645 1.00001 8 1.00001C8.91229 1.00001 9.75326 1.30542 10.4262 1.81958ZM5 5.00001C5 3.34315 6.34315 2.00001 8 2.00001C9.65685 2.00001 11 3.34315 11 5.00001H5ZM5 6.00001V12H11V6.00001H5Z" fill="#E0E1E4"/>
</svg>
