<svg width="16" height="16" viewBox="0 0 16 16" fill="none" xmlns="http://www.w3.org/2000/svg">
<path fill-rule="evenodd" clip-rule="evenodd" d="M12.0327 6.04359C10.8754 6.26241 10 7.27898 10 8.5C10 9.88071 11.1193 11 12.5 11C12.5283 11 12.5565 10.9995 12.5846 10.9986C11.8133 12.7652 10.0509 14 8 14C5.23858 14 3 11.7614 3 9C3 6.23858 5.23858 4 8 4C9.65531 4 11.1227 4.80438 12.0327 6.04359Z" fill="#E0E1E4"/>
<path fill-rule="evenodd" clip-rule="evenodd" d="M8.36216 3.29733C8.03645 1.97904 8.82481 0.636843 10.1424 0.283804C10.3076 0.23953 10.4734 0.21289 10.6378 0.20273C10.9635 1.52102 10.1751 2.86322 8.85757 3.21626C8.69233 3.26053 8.52653 3.28717 8.36216 3.29733Z" fill="#E0E1E4"/>
</svg>
