<svg width="48" height="48" viewBox="0 0 48 48" fill="none" xmlns="http://www.w3.org/2000/svg">
<path fill-rule="evenodd" clip-rule="evenodd" d="M37.3731 9.12451L38.7873 10.5387L38.7073 10.6187L38.7 10.6113L10.531 38.7803L9.12416 37.3734L13.8937 32.6038C9.86443 29.8424 7.6462 25.9386 7 24C8.0622 20.8125 13.375 12.3125 24 12.3125C27.2205 12.3125 29.9529 13.0935 32.2269 14.2707L37.3731 9.12451ZM19.0869 35.0327C20.5778 35.4475 22.2138 35.6877 23.9999 35.6877C34.6249 35.6877 39.9374 27.1877 40.9999 24.0002C40.5048 22.5149 39.0869 19.876 36.6386 17.4811L35.2243 18.8954C37.1099 20.7351 38.2956 22.7157 38.8563 24.0002C38.2494 25.3905 36.9103 27.5962 34.744 29.5562C32.254 31.8091 28.731 33.6877 23.9999 33.6877C22.8441 33.6877 21.7605 33.5756 20.7463 33.3733L19.0869 35.0327ZM23.7495 30.3702C23.8326 30.3734 23.9161 30.375 24 30.375C27.5208 30.375 30.375 27.5208 30.375 24C30.375 23.9161 30.3734 23.8326 30.3702 23.7495L27.5171 26.6026C27.2591 26.9507 26.9506 27.2591 26.6026 27.5171L23.7495 30.3702ZM24 14.3125C26.5995 14.3125 28.8342 14.8797 30.7332 15.7644L27.6939 18.8037C26.6518 18.0615 25.3769 17.625 24 17.625C20.4792 17.625 17.625 20.4792 17.625 24C17.625 25.3769 18.0615 26.6518 18.8036 27.6939L15.3353 31.1623C14.5749 30.6666 13.8826 30.1232 13.2559 29.5561C11.0896 27.5961 9.75044 25.3903 9.14359 24C9.75033 22.6098 11.0894 20.4041 13.2558 18.444C15.7459 16.1911 19.2689 14.3125 24 14.3125ZM24 19.625C24.8229 19.625 25.5928 19.8522 26.2503 20.2473L20.2473 26.2503C19.8522 25.5928 19.625 24.823 19.625 24C19.625 21.5838 21.5838 19.625 24 19.625Z" fill="#090909"/>
</svg>
