<svg width="32" height="32" viewBox="0 0 32 32" fill="none" xmlns="http://www.w3.org/2000/svg">
<g clip-path="url(#clip0_8519_10740)">
<path d="M11.8005 24.7474C11.8005 24.7474 10.5776 25.4585 12.6707 25.6991C15.2065 25.9884 16.5025 25.9469 19.2969 25.4181C19.2969 25.4181 20.0316 25.8787 21.0576 26.2777C14.7933 28.9625 6.88014 26.1222 11.8005 24.7474Z" fill="#5382A1"/>
<path d="M11.0353 21.2439C11.0353 21.2439 9.66371 22.2592 11.7584 22.4758C14.4672 22.7553 16.6064 22.7781 20.308 22.0654C20.308 22.0654 20.8199 22.5844 21.625 22.8683C14.051 25.083 5.61495 23.0429 11.0353 21.2439Z" fill="#5382A1"/>
<path d="M17.488 15.3008C19.0316 17.0779 17.0825 18.6771 17.0825 18.6771C17.0825 18.6771 21.0018 16.6538 19.2018 14.1202C17.5207 11.7575 16.2315 10.5836 23.2106 6.53592C23.2106 6.53592 12.2557 9.27195 17.488 15.3008Z" fill="#F8981D"/>
<path d="M25.7734 27.3388C25.7734 27.3388 26.6783 28.0844 24.7768 28.6612C21.1609 29.7566 9.72713 30.0874 6.55087 28.7049C5.40909 28.2082 7.55025 27.5189 8.22378 27.3742C8.92621 27.2219 9.32762 27.2503 9.32762 27.2503C8.05784 26.3558 1.12029 29.0067 5.80368 29.7659C18.576 31.8372 29.0864 28.8331 25.7734 27.3388Z" fill="#5382A1"/>
<path d="M12.3883 17.6139C12.3883 17.6139 6.57239 18.9953 10.3288 19.4969C11.9148 19.7092 15.0766 19.6612 18.0217 19.4144C20.4286 19.2114 22.8454 18.7797 22.8454 18.7797C22.8454 18.7797 21.9967 19.1432 21.3827 19.5624C15.4767 21.1157 4.06742 20.3931 7.35201 18.8043C10.1298 17.4616 12.3883 17.6139 12.3883 17.6139Z" fill="#5382A1"/>
<path d="M22.8216 23.4456C28.8253 20.3258 26.0494 17.3278 24.1119 17.7317C23.637 17.8305 23.4253 17.9162 23.4253 17.9162C23.4253 17.9162 23.6016 17.64 23.9383 17.5205C27.7713 16.1729 30.7192 21.495 22.7009 23.6028C22.7009 23.6028 22.7938 23.5199 22.8216 23.4456Z" fill="#5382A1"/>
<path d="M19.2016 3.05176e-05C19.2016 3.05176e-05 22.5265 3.3261 16.048 8.44065C10.8529 12.5434 14.8633 14.8827 16.0458 17.5554C13.0133 14.8194 10.7879 12.4108 12.2809 10.1692C14.4723 6.87866 20.5431 5.28329 19.2016 3.05176e-05Z" fill="#F8981D"/>
<path d="M12.9784 31.8994C18.7413 32.2683 27.5907 31.6948 27.8003 28.968C27.8003 28.968 27.3974 30.0017 23.0376 30.8226C18.119 31.7482 12.0525 31.6402 8.45435 31.0469C8.45435 31.0469 9.19092 31.6565 12.9784 31.8994Z" fill="#5382A1"/>
</g>
<defs>
<clipPath id="clip0_8519_10740">
<rect width="32" height="32" fill="white"/>
</clipPath>
</defs>
</svg>
