<svg width="32" height="32" viewBox="0 0 32 32" fill="none" xmlns="http://www.w3.org/2000/svg">
<path d="M15.841 2.50022C14.7398 2.50534 13.6883 2.59925 12.763 2.76298C10.0372 3.24454 9.54228 4.25248 9.54228 6.11129V8.56621H15.9836V9.38452H9.54228H7.12489C5.25285 9.38452 3.61364 10.5097 3.10092 12.6502C2.5095 15.1038 2.48326 16.6348 3.10092 19.1967C3.55879 21.1037 4.65226 22.4624 6.5243 22.4624H8.73899V19.5195C8.73899 17.3934 10.5785 15.5181 12.763 15.5181H19.1968C20.9878 15.5181 22.4175 14.0435 22.4175 12.2448V6.11129C22.4175 4.36564 20.9449 3.05432 19.1968 2.76298C18.0903 2.57878 16.9422 2.4951 15.841 2.50022ZM12.3576 4.47467C13.0229 4.47467 13.5663 5.02689 13.5663 5.70589C13.5663 6.38247 13.0229 6.92959 12.3576 6.92959C11.6898 6.92959 11.1489 6.38247 11.1489 5.70589C11.1489 5.02689 11.6898 4.47467 12.3576 4.47467Z" fill="url(#paint0_linear_8519_10781)"/>
<path d="M23.2208 9.38451V12.2448C23.2208 14.4624 21.3407 16.3289 19.1968 16.3289H12.7629C11.0006 16.3289 9.54224 17.8372 9.54224 19.6021V25.7356C9.54224 27.4813 11.0602 28.5081 12.7629 29.0089C14.8019 29.6084 16.7572 29.7168 19.1968 29.0089C20.8184 28.5394 22.4175 27.5945 22.4175 25.7356V23.2807H15.9836V22.4624H22.4175H25.6381C27.5102 22.4624 28.2078 21.1566 28.8588 19.1967C29.5313 17.179 29.5027 15.2386 28.8588 12.6502C28.3962 10.7866 27.5126 9.38451 25.6381 9.38451H23.2208ZM19.6022 24.9173C20.2699 24.9173 20.8109 25.4645 20.8109 26.141C20.8109 26.82 20.2699 27.3723 19.6022 27.3723C18.9368 27.3723 18.3935 26.82 18.3935 26.141C18.3935 25.4645 18.9368 24.9173 19.6022 24.9173Z" fill="url(#paint1_linear_8519_10781)"/>
<defs>
<linearGradient id="paint0_linear_8519_10781" x1="2.64746" y1="2.5" x2="17.5005" y2="15.1569" gradientUnits="userSpaceOnUse">
<stop stop-color="#5A9FD4"/>
<stop offset="1" stop-color="#306998"/>
</linearGradient>
<linearGradient id="paint1_linear_8519_10781" x1="19.4474" y1="25.9347" x2="14.1187" y2="18.4675" gradientUnits="userSpaceOnUse">
<stop stop-color="#FFD43B"/>
<stop offset="1" stop-color="#FFE873"/>
</linearGradient>
</defs>
</svg>
