<svg width="32" height="32" viewBox="0 0 32 32" fill="none" xmlns="http://www.w3.org/2000/svg">
<path d="M29.3214 15.7567C29.3674 12.916 28.7274 9.53801 27.3941 5.57468L26.3487 2.46667L24.9287 5.42201C24.8527 5.58001 24.7661 5.73468 24.6754 5.88734C22.3427 3.88468 19.3161 2.66667 16.0001 2.66667C8.63608 2.66667 2.66675 8.63601 2.66675 16C2.66675 23.364 8.63608 29.3333 16.0001 29.3333C23.3641 29.3333 29.3334 23.364 29.3334 16C29.3334 15.918 29.3227 15.8387 29.3214 15.7567Z" fill="#8BC34A"/>
<path d="M26.2568 21.7053C24.1748 24.5733 20.4895 24.7273 17.0208 24.6667H12.5001H11.2081C14.1601 23.6047 15.9168 23.352 17.7108 22.4C21.0895 20.6233 24.4295 16.736 25.1248 12.692C23.8381 16.5827 19.9388 19.9253 16.3855 21.2847C13.9508 22.2133 9.55346 23.1147 9.55346 23.1147L9.37546 23.018C6.38213 21.512 6.29146 14.8093 11.7335 12.6453C14.1161 11.6967 16.3955 12.218 18.9695 11.5833C21.7175 10.9087 24.8961 8.778 26.1895 6C27.6375 10.4447 29.3801 17.404 26.2568 21.7053ZM10.4455 25.63C10.2575 25.8633 9.97013 26 9.67013 26C9.12146 26 8.67346 25.5487 8.67346 25C8.67346 24.4513 9.12479 24 9.67013 24C9.89746 24 10.1215 24.0787 10.2975 24.224C10.7241 24.57 10.7908 25.2033 10.4455 25.63Z" fill="white"/>
</svg>
