<svg width="32" height="32" viewBox="0 0 32 32" fill="none" xmlns="http://www.w3.org/2000/svg">
<g clip-path="url(#clip0_8519_10803)">
<path d="M18 8H17C17 8.55228 17.4477 9 18 9V8ZM24 14H23C23 14.5523 23.4477 15 24 15V14ZM24 22V21C23.4477 21 23 21.4477 23 22H24ZM10 8V9C10.5523 9 11 8.55228 11 8H10ZM4 14H3C3 14.5523 3.44772 15 4 15V14ZM4 22V21C3.44772 21 3 21.4477 3 22H4ZM14 1C11.2386 1 9 3.23858 9 6H11C11 4.34315 12.3431 3 14 3V1ZM19 6C19 3.23858 16.7614 1 14 1V3C15.6569 3 17 4.34315 17 6H19ZM19 8V6H17V8H19ZM22 7H18V9H22V7ZM25 14V10H23V14H25ZM24 15H26V13H24V15ZM26 15C27.6569 15 29 16.3431 29 18H31C31 15.2386 28.7614 13 26 13V15ZM29 18C29 19.6569 27.6569 21 26 21V23C28.7614 23 31 20.7614 31 18H29ZM26 21H24V23H26V21ZM25 26V22H23V26H25ZM6 29H22V27H6V29ZM10 7H6V9H10V7ZM9 6V8H11V6H9ZM3 10V14H5V10H3ZM3 22V26H5V22H3ZM4 15H6V13H4V15ZM6 21H4V23H6V21ZM9 18C9 19.6569 7.65685 21 6 21V23C8.76142 23 11 20.7614 11 18H9ZM6 7C4.34315 7 3 8.34315 3 10H5C5 9.44772 5.44772 9 6 9V7ZM6 15C7.65685 15 9 16.3431 9 18H11C11 15.2386 8.76142 13 6 13V15ZM6 27C5.44772 27 5 26.5523 5 26H3C3 27.6569 4.34315 29 6 29V27ZM23 26C23 26.5523 22.5523 27 22 27V29C23.6569 29 25 27.6569 25 26H23ZM22 9C22.5523 9 23 9.44772 23 10H25C25 8.34315 23.6569 7 22 7V9Z" fill="#090909"/>
</g>
<defs>
<clipPath id="clip0_8519_10803">
<rect width="32" height="32" fill="white"/>
</clipPath>
</defs>
</svg>
