<svg width="32" height="32" viewBox="0 0 32 32" fill="none" xmlns="http://www.w3.org/2000/svg">
<g clip-path="url(#clip0_8519_10809)">
<path d="M26.0079 5.83937C23.4561 2.16384 18.376 1.08693 14.7238 3.40462L8.2858 7.52496C6.52998 8.62528 5.3126 10.4279 4.96144 12.4647C4.6571 14.1737 4.91462 15.9295 5.734 17.4512C5.17214 18.294 4.79756 19.2305 4.63368 20.2137C4.25911 22.2973 4.75074 24.4511 5.96811 26.1601C8.54332 29.8357 13.6001 30.9126 17.2522 28.5949L23.6903 24.4979C25.4461 23.3976 26.6635 21.595 27.0146 19.5582C27.319 17.8492 27.0614 16.0934 26.2421 14.5717C26.8039 13.7289 27.1785 12.7924 27.3424 11.8092C27.7404 9.70218 27.2487 7.54837 26.0079 5.83937Z" fill="#FF3E00"/>
<path d="M14.0921 26.5116C12.0085 27.05 9.83128 26.2306 8.61391 24.4748C7.86475 23.4447 7.58382 22.1571 7.79452 20.8929C7.84134 20.6822 7.88816 20.4949 7.93499 20.2842L8.05204 19.9096L8.37979 20.1438C9.15236 20.7056 9.99516 21.127 10.9082 21.408L11.1423 21.4782L11.1189 21.7123C11.0955 22.0401 11.1891 22.3912 11.3764 22.6721C11.751 23.2106 12.4065 23.4681 13.0386 23.3042C13.1791 23.2574 13.3195 23.2106 13.4366 23.1404L19.8512 19.0434C20.1789 18.8327 20.3896 18.5284 20.4599 18.1538C20.5301 17.7792 20.4365 17.3813 20.2258 17.0769C19.8512 16.5385 19.1957 16.3044 18.5636 16.4682C18.4231 16.5151 18.2827 16.5619 18.1656 16.6321L15.7074 18.2006C15.3095 18.4582 14.8646 18.6455 14.3964 18.7625C12.3128 19.301 10.1356 18.4816 8.91825 16.7258C8.19251 15.6957 7.88816 14.4081 8.12227 13.1439C8.33297 11.9265 9.08213 10.8262 10.1356 10.1707L16.5737 6.07374C16.9716 5.81622 17.4164 5.62893 17.8847 5.48846C19.9682 4.95001 22.1455 5.7694 23.3628 7.52522C24.112 8.55531 24.3929 9.84291 24.1822 11.1071C24.1354 11.3178 24.0886 11.5051 24.0184 11.7158L23.9013 12.0904L23.5735 11.8563C22.801 11.2944 21.9582 10.873 21.0452 10.5921L20.811 10.5218L20.8345 10.2877C20.8579 9.95997 20.7642 9.6088 20.5769 9.32787C20.2024 8.78942 19.5469 8.55531 18.9148 8.71918C18.7743 8.76601 18.6338 8.81283 18.5168 8.88306L12.1021 12.98C11.7744 13.1907 11.5637 13.495 11.4935 13.8696C11.4232 14.2442 11.5169 14.6422 11.7276 14.9465C12.1021 15.485 12.7577 15.7191 13.3898 15.5552C13.5302 15.5084 13.6707 15.4616 13.7877 15.3913L16.2459 13.8228C16.6439 13.5653 17.0887 13.378 17.5569 13.2375C19.6405 12.6991 21.8177 13.5184 23.0351 15.2743C23.7842 16.3044 24.0652 17.592 23.8545 18.8562C23.6438 20.0735 22.8946 21.1738 21.8411 21.8294L15.4031 25.9263C15.0051 26.1838 14.5603 26.3711 14.0921 26.5116Z" fill="white"/>
</g>
<defs>
<clipPath id="clip0_8519_10809">
<rect width="32" height="32" fill="white"/>
</clipPath>
</defs>
</svg>
