<svg width="16" height="16" viewBox="0 0 16 16" fill="none" xmlns="http://www.w3.org/2000/svg">
<path fill-rule="evenodd" clip-rule="evenodd" d="M3 6.91465C2.84361 6.96992 2.67532 7 2.5 7C1.67157 7 1 6.32843 1 5.5C1 4.67157 1.67157 4 2.5 4H2.50461H2.50924H2.51389H2.51856H2.52326H2.52797H2.53271H2.53746H2.54224H2.54703H2.55185H2.55668H2.56154H2.56641H2.57131H2.57622H2.58116H2.58611H2.59108H2.59608H2.60109H2.60611H2.61116H2.61623H2.62131H2.62642H2.63154H2.63668H2.64184H2.64701H2.6522H2.65742H2.66264H2.66789H2.67315H2.67843H2.68373H2.68904H2.69437H2.69972H2.70509H2.71047H2.71586H2.72128H2.72671H2.73215H2.73761H2.74309H2.74858H2.75409H2.75961H2.76515H2.7707H2.77627H2.78186H2.78745H2.79307H2.79869H2.80434H2.80999H2.81566H2.82135H2.82705H2.83276H2.83849H2.84422H2.84998H2.85574H2.86152H2.86732H2.87312H2.87894H2.88477H2.89062H2.89648H2.90234H2.90823H2.91412H2.92003H2.92594H2.93187H2.93781H2.94377H2.94973H2.95571H2.96169H2.96769H2.9737H2.97972H2.98575H2.99179H2.99785H3V6.91465ZM3.08649 7.93082C2.89838 7.97605 2.70199 8 2.5 8C1.11929 8 0 6.88071 0 5.5C0 4.11929 1.11929 3 2.5 3H3H5H15V7C15 9.76142 12.7614 12 10 12H8C5.55666 12 3.52266 10.2474 3.08649 7.93082ZM5 13H13V14H5V13Z" fill="#E59408"/>
</svg>
