<svg width="16" height="16" viewBox="0 0 16 16" fill="none" xmlns="http://www.w3.org/2000/svg">
<path fill-rule="evenodd" clip-rule="evenodd" d="M13.0999 2H11.8999V3.9001L10 3.9001V5.1001H11.8999V7H13.0999V5.1001H15V3.9001L13.0999 3.9001V2Z" fill="#2A7DEB"/>
<path fill-rule="evenodd" clip-rule="evenodd" d="M13.0999 9H11.8999V10.9001L10 10.9001V12.1001H11.8999V14H13.0999V12.1001H15V10.9001L13.0999 10.9001V9Z" fill="#2A7DEB"/>
<path d="M4.59834 11.12C4.03034 11.12 3.53834 11.016 3.12234 10.808C2.70634 10.592 2.38234 10.292 2.15034 9.908C1.92634 9.516 1.81434 9.056 1.81434 8.528V4.712C1.81434 4.184 1.92634 3.728 2.15034 3.344C2.38234 2.952 2.70634 2.652 3.12234 2.444C3.53834 2.228 4.03034 2.12 4.59834 2.12C5.15834 2.12 5.64634 2.228 6.06234 2.444C6.47834 2.652 6.80234 2.952 7.03434 3.344C7.26634 3.728 7.38234 4.184 7.38234 4.712H5.87034C5.87034 4.304 5.75834 3.992 5.53434 3.776C5.31834 3.552 5.00634 3.44 4.59834 3.44C4.19034 3.44 3.87434 3.552 3.65034 3.776C3.42634 3.992 3.31434 4.304 3.31434 4.712V8.528C3.31434 8.936 3.42634 9.252 3.65034 9.476C3.87434 9.692 4.19034 9.8 4.59834 9.8C5.00634 9.8 5.31834 9.692 5.53434 9.476C5.75834 9.252 5.87034 8.936 5.87034 8.528H7.38234C7.38234 9.056 7.26634 9.516 7.03434 9.908C6.80234 10.292 6.47834 10.592 6.06234 10.808C5.64634 11.016 5.15834 11.12 4.59834 11.12Z" fill="#2A7DEB"/>
</svg>
