<svg width="16" height="16" viewBox="0 0 16 16" fill="none" xmlns="http://www.w3.org/2000/svg">
<path fill-rule="evenodd" clip-rule="evenodd" d="M13.8965 4.88577C14.314 4.88577 14.6524 4.57556 14.6524 4.19289C14.6524 3.81022 14.314 3.5 13.8965 3.5C13.479 3.5 13.1406 3.81022 13.1406 4.19289C13.1406 4.57556 13.479 4.88577 13.8965 4.88577ZM11.2167 8.71922C12.516 8.71922 13.5692 7.75376 13.5692 6.5628C13.5692 5.37184 12.516 4.40637 11.2167 4.40637C10.5907 4.40637 10.0217 4.63056 9.60021 4.99613C9.23786 4.69627 8.82351 4.44808 8.36133 4.25441C7.51016 3.89356 6.40035 3.72913 5.02352 3.73159L2.33995 3.73648C2.15609 3.7375 2.00059 3.87412 2 4.04577V12.1254L2 12.1299C1.99995 12.2538 1.99985 12.5001 2.33995 12.5001L4.82956 12.4878C5.71404 12.4862 6.30645 12.4711 6.65925 12.4265L6.66762 12.4265C7.00525 12.3796 7.36289 12.2931 7.75176 12.1669C8.42777 11.9555 9.02722 11.6432 9.54264 11.2261C10.0473 10.8221 10.4384 10.3437 10.7132 9.8055C10.8926 9.45436 11.0139 9.09008 11.0762 8.71544C11.1227 8.71795 11.1696 8.71922 11.2167 8.71922ZM4.07175 5.39891C4.04765 5.39898 4.02373 5.39904 4 5.3991V10.8285C5.97337 10.8239 8.99474 10.6625 8.99007 8C8.98542 5.38601 5.95835 5.39396 4.07175 5.39891Z" fill="#E1465E"/>
</svg>
