<svg width="16" height="16" viewBox="0 0 16 16" fill="none" xmlns="http://www.w3.org/2000/svg">
<path fill-rule="evenodd" clip-rule="evenodd" d="M2.98877 3.99443V5.46551C3.01723 5.48232 3.04953 5.50225 3.08607 5.5248C3.58678 5.83377 4.88377 6.63408 8.02667 6.63408C10.9732 6.63408 11.9322 6.07427 12.6718 5.64254C12.7786 5.58016 12.8809 5.52047 12.9839 5.46551V3.99443C12.9839 3.70861 12.4786 2.01953 8.02667 2.01953C3.57471 2.01953 2.98877 3.71679 2.98877 3.99443ZM2.98877 12.0251V10.23C3.0652 10.258 3.16185 10.3076 3.28517 10.3708C3.90814 10.6903 5.21167 11.3589 8.02667 11.3589C10.7535 11.3589 11.9583 10.739 12.6054 10.4061C12.7586 10.3273 12.8805 10.2646 12.9839 10.23V12.0251C12.9839 12.3109 12.4786 14 8.02667 14C3.57471 14 2.98877 12.3027 2.98877 12.0251ZM2.98877 6.6V9.1C2.98877 9.37764 5.0455 10.3059 8.02667 10.3059C11.0078 10.3059 12.9839 9.38582 12.9839 9.1V6.6C12.8845 6.63327 12.7681 6.69031 12.6232 6.76126C11.9805 7.0761 10.7788 7.66478 8.02667 7.66478C5.18261 7.66478 3.88139 7.02795 3.26609 6.72681C3.15182 6.67089 3.06121 6.62654 2.98877 6.6Z" fill="#A660D4"/>
</svg>
