<svg width="16" height="16" viewBox="0 0 16 16" fill="none" xmlns="http://www.w3.org/2000/svg">
<path d="M1.47469 12L3.68269 3.24H5.61469L7.83469 12H6.29869L5.81869 9.876H3.49069L3.01069 12H1.47469ZM3.76669 8.652H5.54269L5.01469 6.3C4.92669 5.908 4.85069 5.556 4.78669 5.244C4.72269 4.924 4.67869 4.692 4.65469 4.548C4.63069 4.692 4.58669 4.924 4.52269 5.244C4.45869 5.556 4.38269 5.904 4.29469 6.288L3.76669 8.652ZM10.618 12.12C9.946 12.12 9.414 11.932 9.022 11.556C8.638 11.172 8.446 10.672 8.446 10.056C8.446 9.416 8.666 8.908 9.106 8.532C9.546 8.148 10.15 7.956 10.918 7.956H12.526V7.488C12.526 6.824 12.138 6.492 11.362 6.492C11.01 6.492 10.73 6.56 10.522 6.696C10.314 6.832 10.198 7.024 10.174 7.272H8.734C8.766 6.68 9.014 6.2 9.478 5.832C9.95 5.464 10.582 5.28 11.374 5.28C12.214 5.28 12.866 5.476 13.33 5.868C13.794 6.26 14.026 6.812 14.026 7.524V12H12.562V10.764C12.506 11.188 12.306 11.52 11.962 11.76C11.618 12 11.17 12.12 10.618 12.12ZM11.098 10.896C11.538 10.896 11.886 10.788 12.142 10.572C12.398 10.356 12.526 10.068 12.526 9.708V8.928H10.99C10.662 8.928 10.402 9.02 10.21 9.204C10.018 9.388 9.922 9.624 9.922 9.912C9.922 10.208 10.022 10.448 10.222 10.632C10.43 10.808 10.722 10.896 11.098 10.896Z" fill="#2A7DEB"/>
</svg>
