<svg width="16" height="16" viewBox="0 0 16 16" fill="none" xmlns="http://www.w3.org/2000/svg">
<path fill-rule="evenodd" clip-rule="evenodd" d="M0.283203 4.42993V10.9999H1.5162V8.47993C1.5162 8.01793 1.5012 7.57693 1.4712 7.15693C1.4412 6.73093 1.4052 6.33793 1.3632 5.97793C1.3212 5.61793 1.2792 5.30893 1.2372 5.05093L2.0472 8.20993H3.1272L3.9552 4.96993C3.9192 5.27593 3.8802 5.61793 3.8382 5.99593C3.7962 6.37393 3.7602 6.77293 3.7302 7.19293C3.7062 7.61293 3.6942 8.04193 3.6942 8.47993V10.9999H4.9272V4.42993H3.2622L2.5962 7.23793L1.9302 4.42993H0.283203ZM12.6422 7.60693L10.8782 10.9999H12.3272L13.1192 9.37993C13.1852 9.24793 13.2392 9.12493 13.2812 9.01093C13.3232 8.89693 13.3532 8.80993 13.3712 8.74993C13.3952 8.80993 13.4312 8.89693 13.4792 9.01093C13.5272 9.12493 13.5812 9.24793 13.6412 9.37993L14.4332 10.9999H15.9182L14.1542 7.60693L15.8012 4.42993H14.3522L13.6502 5.86993C13.5902 6.00193 13.5392 6.12193 13.4972 6.22993C13.4552 6.33793 13.4282 6.41593 13.4162 6.46393C13.4042 6.41593 13.3742 6.33793 13.3262 6.22993C13.2842 6.12193 13.2302 6.00193 13.1642 5.86993L12.4802 4.42993H10.9952L12.6422 7.60693ZM10.8647 8.27643L10.5217 8.64022L8.63932 10.6367L8.27552 11.0225L7.91173 10.6367L7.77441 10.491H7.77203V10.4885L6.02937 8.64022L5.68637 8.27643L6.41396 7.59042L6.75696 7.95421L7.77203 9.0308V4.99993V4.49993L8.77203 4.49993V4.99993V9.03821L9.79408 7.95421L10.1371 7.59042L10.8647 8.27643Z" fill="#2A7DEB"/>
</svg>
