<svg width="16" height="16" viewBox="0 0 16 16" fill="none" xmlns="http://www.w3.org/2000/svg">
<path d="M15.0001 11.3926C14.9986 11.5147 14.9639 11.6341 14.8998 11.738C14.8357 11.8418 14.7445 11.9264 14.6361 11.9825L8.36411 15.3733C8.25223 15.4335 8.12715 15.465 8.00011 15.465C7.87306 15.465 7.74798 15.4335 7.63611 15.3733L1.36411 11.9825C1.2557 11.9264 1.16456 11.8418 1.10045 11.738C1.03635 11.6341 1.00166 11.5147 1.00011 11.3926V4.6073C1.00166 4.48524 1.03635 4.36586 1.10045 4.26198C1.16456 4.15809 1.2557 4.07356 1.36411 4.01743L7.63611 0.626634C7.74798 0.566431 7.87306 0.534912 8.00011 0.534912C8.12715 0.534912 8.25223 0.566431 8.36411 0.626634L14.6361 4.0193C14.7445 4.07542 14.8357 4.15996 14.8998 4.26385C14.9639 4.36773 14.9986 4.48711 15.0001 4.60917V11.3926Z" fill="#88694B"/>
<path d="M10.5 6H5.5C5.5 9.983 6.5 11 6.957 11H9.043C9.5 11 10.5 9.983 10.5 6Z" fill="white"/>
<path d="M8.022 3C7.86581 3.11844 7.73791 3.27018 7.64763 3.44417C7.55735 3.61817 7.50691 3.8101 7.5 4.006C7.5 4.494 7.864 4.444 7.964 4.725C8.057 4.9754 8.05415 5.25157 7.956 5.5C8.10574 5.41094 8.23281 5.28837 8.32719 5.14193C8.42158 4.9955 8.48073 4.82915 8.5 4.656C8.5 4.299 8.074 4.238 8.014 3.861C7.98819 3.57444 7.99087 3.28603 8.022 3Z" fill="white"/>
<path d="M9.383 8.217C9.433 7.872 9.476 7.474 9.5 7H6.5C6.52282 7.74351 6.63223 8.48182 6.826 9.2C7.64353 8.78814 8.50011 8.45884 9.383 8.217Z" fill="#88694B"/>
<path d="M5.025 7H3V7.5H5.054C5.042 7.34 5.033 7.171 5.025 7Z" fill="white"/>
<path d="M5.164 8.5H3V9H5.25C5.219 8.842 5.19 8.675 5.164 8.5Z" fill="white"/>
<path d="M10.75 9H13V8.5H10.836C10.81 8.675 10.781 8.842 10.75 9Z" fill="white"/>
<path d="M10.975 7C10.967 7.171 10.958 7.34 10.946 7.5H13V7H10.975Z" fill="white"/>
</svg>
