<svg width="16" height="16" viewBox="0 0 16 16" fill="none" xmlns="http://www.w3.org/2000/svg">
<path fill-rule="evenodd" clip-rule="evenodd" d="M13.0999 2H11.8999V3.9001L10 3.9001V5.1001H11.8999V7H13.0999V5.1001H15V3.9001L13.0999 3.9001V2ZM13.0999 9H11.8999V10.9001H10V12.1001H11.8999V14H13.0999V12.1001H15V10.9001L13.0999 10.9001V9ZM3.07436 10.808C3.49036 11.016 3.98236 11.12 4.55036 11.12C5.11036 11.12 5.59836 11.016 6.01436 10.808C6.43036 10.592 6.75436 10.292 6.98636 9.908C7.21836 9.516 7.33436 9.056 7.33436 8.528H5.82236C5.82236 8.936 5.71036 9.252 5.48636 9.476C5.27036 9.692 4.95836 9.8 4.55036 9.8C4.14236 9.8 3.82636 9.692 3.60236 9.476C3.37836 9.252 3.26636 8.936 3.26636 8.528V4.7C3.26636 4.292 3.37836 3.98 3.60236 3.764C3.82636 3.548 4.14236 3.44 4.55036 3.44C4.95836 3.44 5.27036 3.552 5.48636 3.776C5.71036 3.992 5.82236 4.304 5.82236 4.712H7.33436C7.33436 4.184 7.21836 3.728 6.98636 3.344C6.75436 2.952 6.43036 2.652 6.01436 2.444C5.59836 2.228 5.11036 2.12 4.55036 2.12C3.98236 2.12 3.49036 2.228 3.07436 2.444C2.65836 2.652 2.33436 2.952 2.10236 3.344C1.87836 3.728 1.76636 4.184 1.76636 4.712V8.528C1.76636 9.056 1.87836 9.516 2.10236 9.908C2.33436 10.292 2.65836 10.592 3.07436 10.808Z" fill="#E59408"/>
</svg>
