<svg width="16" height="16" viewBox="0 0 16 16" fill="none" xmlns="http://www.w3.org/2000/svg">
<path d="M8.05873 13.14C7.39607 13.14 6.82207 13.0187 6.33673 12.776C5.8514 12.524 5.4734 12.174 5.20273 11.726C4.9414 11.2687 4.81073 10.732 4.81073 10.116V5.664C4.81073 5.048 4.9414 4.516 5.20273 4.068C5.4734 3.61067 5.8514 3.26067 6.33673 3.018C6.82207 2.766 7.39607 2.64 8.05873 2.64C8.71207 2.64 9.2814 2.766 9.76673 3.018C10.2521 3.26067 10.6301 3.61067 10.9007 4.068C11.1714 4.516 11.3067 5.048 11.3067 5.664H9.54273C9.54273 5.188 9.41207 4.824 9.15073 4.572C8.89873 4.31067 8.53473 4.18 8.05873 4.18C7.58273 4.18 7.21407 4.306 6.95273 4.558C6.6914 4.81 6.56073 5.174 6.56073 5.65V10.116C6.56073 10.592 6.6914 10.9607 6.95273 11.222C7.21407 11.474 7.58273 11.6 8.05873 11.6C8.53473 11.6 8.89873 11.474 9.15073 11.222C9.41207 10.9607 9.54273 10.592 9.54273 10.116H11.3067C11.3067 10.732 11.1714 11.2687 10.9007 11.726C10.6301 12.174 10.2521 12.524 9.76673 12.776C9.2814 13.0187 8.71207 13.14 8.05873 13.14Z" fill="#E59408"/>
</svg>
