<svg width="16" height="16" viewBox="0 0 16 16" fill="none" xmlns="http://www.w3.org/2000/svg">
<path d="M5 13V2.78003H8.22C8.90133 2.78003 9.48933 2.90603 9.984 3.15803C10.488 3.41003 10.88 3.7647 11.16 4.22203C11.44 4.67003 11.58 5.20203 11.58 5.81803C11.58 6.49003 11.412 7.0827 11.076 7.59603C10.74 8.10936 10.2873 8.47336 9.718 8.68803L11.72 13H9.802L8.01 8.94003H6.736V13H5ZM6.736 7.40003H8.22C8.71467 7.40003 9.102 7.2647 9.382 6.99403C9.662 6.72336 9.802 6.35003 9.802 5.87403C9.802 5.3887 9.662 5.0107 9.382 4.74003C9.102 4.46003 8.71467 4.32003 8.22 4.32003H6.736V7.40003Z" fill="#2A7DEB"/>
</svg>
