<svg width="16" height="16" viewBox="0 0 16 16" fill="none" xmlns="http://www.w3.org/2000/svg">
<path fill-rule="evenodd" clip-rule="evenodd" d="M11.6533 3.21718C11.5683 2.81968 11.4045 2.58026 11.198 2.461C10.9914 2.34174 10.7022 2.31963 10.3154 2.44475C9.9287 2.56986 9.47768 2.83301 8.99106 3.2285C8.80306 3.3813 8.61165 3.5523 8.41858 3.74016C8.8206 4.17471 9.22104 4.67043 9.60709 5.21616C10.2728 5.27763 10.9025 5.37659 11.4799 5.50751C11.546 5.2464 11.5984 4.99516 11.6367 4.75597C11.7359 4.13681 11.7383 3.61463 11.6533 3.21718ZM7.00904 3.22863C7.197 3.38139 7.38837 3.55235 7.5814 3.74017C7.1794 4.17471 6.77898 4.67041 6.39295 5.21612C5.72721 5.27758 5.0976 5.37651 4.52017 5.50741C4.45405 5.24638 4.40169 4.99522 4.36338 4.7561C4.26418 4.13693 4.2618 3.61476 4.34681 3.2173C4.43183 2.81981 4.59558 2.58038 4.80215 2.46112C5.00871 2.34186 5.29794 2.31976 5.68469 2.44488C6.0714 2.56998 6.52242 2.83314 7.00904 3.22863ZM7.38746 2.76301C7.58974 2.92742 7.79449 3.11034 7.99998 3.31031C8.20553 3.1103 8.41032 2.92733 8.61264 2.76289C9.13252 2.34036 9.64886 2.02977 10.1307 1.87388C10.6126 1.71801 11.0931 1.70766 11.498 1.94138C11.9028 2.1751 12.1341 2.59647 12.24 3.09168C12.346 3.58694 12.3351 4.18939 12.2292 4.85089C12.1879 5.1083 12.1319 5.37712 12.0614 5.65511C12.3372 5.73307 12.5979 5.8189 12.8414 5.91184C13.4672 6.15081 13.9944 6.44267 14.3703 6.78204C14.7462 7.12138 14.9955 7.5324 14.9955 7.99984C14.9955 8.46728 14.7462 8.8783 14.3703 9.21764C13.9944 9.55701 13.4672 9.84887 12.8414 10.0878C12.5979 10.1808 12.3371 10.2666 12.0613 10.3446C12.1317 10.6226 12.1878 10.8914 12.229 11.1488C12.335 11.8103 12.3458 12.4128 12.2399 12.908C12.1339 13.4032 11.9026 13.8246 11.4978 14.0583C11.093 14.2921 10.6124 14.2817 10.1306 14.1258C9.64871 13.9699 9.13237 13.6594 8.61249 13.2368C8.41022 13.0724 8.20548 12.8895 7.99999 12.6896C7.79454 12.8895 7.58984 13.0723 7.38761 13.2367C6.86773 13.6592 6.35139 13.9698 5.86952 14.1257C5.38769 14.2816 4.90712 14.2919 4.5023 14.0582C4.09748 13.8245 3.86615 13.4031 3.76023 12.9079C3.6543 12.4127 3.66511 11.8102 3.77109 11.1487C3.81232 10.8914 3.86835 10.6226 3.93876 10.3447C3.66273 10.2667 3.40185 10.1808 3.15825 10.0878C2.53239 9.84887 2.00524 9.55701 1.6293 9.21764C1.2534 8.8783 1.00415 8.46728 1.00415 7.99984C1.00415 7.5324 1.2534 7.12138 1.6293 6.78204C2.00524 6.44267 2.53239 6.15081 3.15825 5.91184C3.4018 5.81885 3.66264 5.73298 3.93861 5.65499C3.8682 5.37709 3.81217 5.10835 3.77094 4.85101C3.66496 4.18952 3.65415 3.58706 3.76008 3.09181C3.866 2.59659 4.09733 2.17523 4.50215 1.94151C4.90697 1.70779 5.38754 1.71813 5.86937 1.87401C6.35124 2.0299 6.86758 2.34048 7.38746 2.76301ZM10.0452 5.86709C10.493 5.92299 10.9184 5.99663 11.3158 6.08559C11.1941 6.47419 11.0452 6.87945 10.8697 7.29514C10.7452 7.05459 10.6132 6.81309 10.4738 6.57166C10.3344 6.33024 10.1913 6.09516 10.0452 5.86709ZM11.8984 6.23255C11.7231 6.79805 11.494 7.39276 11.2144 8.00002C11.4939 8.60717 11.723 9.20177 11.8983 9.76717C12.1574 9.69393 12.4011 9.61369 12.6273 9.52731C13.2131 9.30364 13.6666 9.04462 13.9683 8.77227C14.27 8.49989 14.3955 8.23836 14.3955 7.99984C14.3955 7.76132 14.27 7.49979 13.9683 7.22741C13.6666 6.95506 13.2131 6.69604 12.6273 6.47237C12.4011 6.38601 12.1575 6.30578 11.8984 6.23255ZM9.95418 6.87166C10.1728 7.25031 10.372 7.62782 10.5512 8.00001C10.372 8.37211 10.1729 8.74951 9.95433 9.12806C9.73573 9.50668 9.5084 9.8679 9.27569 10.2092C8.86369 10.2401 8.4371 10.2564 7.9998 10.2564C7.56266 10.2564 7.13621 10.2401 6.72435 10.2092C6.49166 9.86796 6.26435 9.50677 6.04577 9.12818C5.82719 8.74959 5.62805 8.37215 5.44887 8.00001C5.62809 7.62778 5.82728 7.25023 6.04592 6.87153C6.26451 6.49292 6.49183 6.13172 6.72453 5.79046C7.13634 5.75958 7.56272 5.74332 7.9998 5.74332C8.43704 5.74332 8.86357 5.75959 9.27551 5.79049C9.50823 6.13178 9.73557 6.49301 9.95418 6.87166ZM10.4739 9.42806C10.3346 9.66945 10.1915 9.90451 10.0454 10.1326C10.493 10.0767 10.9184 10.0031 11.3156 9.91413C11.194 9.52562 11.0451 9.12047 10.8697 8.7049C10.7453 8.94535 10.6133 9.18673 10.4739 9.42806ZM7.9998 10.8564C8.27864 10.8564 8.55387 10.85 8.82449 10.8375C8.55222 11.1973 8.27572 11.5289 7.99999 11.8286C7.72428 11.5289 7.44779 11.1973 7.17553 10.8375C7.44602 10.85 7.7211 10.8564 7.9998 10.8564ZM9.60728 10.7835C9.22118 11.3293 8.82067 11.8251 8.41859 12.2597C8.6116 12.4475 8.80296 12.6185 8.99091 12.7712C9.47753 13.1667 9.92855 13.4299 10.3153 13.555C10.702 13.6801 10.9912 13.658 11.1978 13.5387C11.4044 13.4195 11.5681 13.18 11.6531 12.7825C11.7382 12.3851 11.7358 11.8629 11.6366 11.2437C11.5982 11.0046 11.5459 10.7533 11.4797 10.4922C10.9024 10.6231 10.2729 10.722 9.60728 10.7835ZM6.39276 10.7835C6.77885 11.3293 7.17933 11.8251 7.58139 12.2597C7.38842 12.4475 7.1971 12.6184 7.00919 12.7711C6.52257 13.1666 6.07155 13.4297 5.68484 13.5548C5.29809 13.68 5.00886 13.6579 4.8023 13.5386C4.59573 13.4193 4.43198 13.1799 4.34696 12.7824C4.26195 12.385 4.26433 11.8628 4.36353 11.2436C4.40184 11.0045 4.4542 10.7533 4.52032 10.4923C5.09765 10.6232 5.72715 10.7221 6.39276 10.7835ZM5.95464 10.1326C5.50703 10.0767 5.08168 10.0031 4.68439 9.91422C4.80602 9.52569 4.95494 9.12051 5.13035 8.70491C5.2548 8.94539 5.3868 9.18682 5.52615 9.42818C5.66551 9.66955 5.8086 9.90459 5.95464 10.1326ZM5.5263 6.57153C5.38689 6.813 5.25484 7.05453 5.13034 7.29512C4.95486 6.87941 4.8059 6.47412 4.68424 6.08549C5.08163 5.99655 5.50709 5.92292 5.95483 5.86703C5.80877 6.09508 5.66567 6.33014 5.5263 6.57153ZM4.10172 9.76729C4.27703 9.20186 4.50611 8.60721 4.78569 8.00002C4.50604 7.39272 4.27692 6.79796 4.10157 6.23243C3.84236 6.30569 3.59858 6.38596 3.37227 6.47237C2.78646 6.69604 2.33305 6.95506 2.03135 7.22741C1.72962 7.49979 1.60415 7.76132 1.60415 7.99984C1.60415 8.23836 1.72962 8.49989 2.03135 8.77227C2.33305 9.04462 2.78646 9.30364 3.37227 9.52731C3.59863 9.61374 3.84245 9.69402 4.10172 9.76729ZM7.9998 5.14332C7.72116 5.14332 7.44615 5.14971 7.17571 5.16217C7.44791 4.80246 7.72434 4.4709 7.99999 4.1713C8.27565 4.47091 8.55209 4.80247 8.82431 5.16219C8.55374 5.14972 8.27858 5.14332 7.9998 5.14332ZM9.24756 7.99998C9.24756 8.68914 8.68889 9.24781 7.99973 9.24781C7.31058 9.24781 6.7519 8.68914 6.7519 7.99998C6.7519 7.31083 7.31058 6.75216 7.99973 6.75216C8.68889 6.75216 9.24756 7.31083 9.24756 7.99998Z" fill="#3FA1C4"/>
</svg>
