<svg width="16" height="16" viewBox="0 0 16 16" fill="none" xmlns="http://www.w3.org/2000/svg">
<path d="M2 2H14V14H2V2Z" fill="#DD4B39"/>
<g filter="url(#filter0_i_2780_100783)">
<path d="M9.11823 13.0005H7.76123L7.09257 11.7288H6.20101V13.0005H5.00134V8.4051H7.06634C8.28568 8.4051 8.98057 8.9951 8.98057 10.0178C8.98057 10.7126 8.69212 11.224 8.16112 11.4993L9.11823 13.0005ZM6.20156 9.36165V10.7711H7.07345C7.55856 10.7711 7.84045 10.522 7.84045 10.0565C7.84045 9.60421 7.55856 9.36165 7.07345 9.36165H6.20156ZM9.74812 8.40454H13.3722V9.36165H10.9467V10.2204H13.1362V11.1704L10.9467 11.177V12.0423H13.4378V13.0005H9.74701L9.74812 8.40454Z" fill="white"/>
</g>
<defs>
<filter id="filter0_i_2780_100783" x="5.00134" y="8.40454" width="8.43643" height="4.70706" filterUnits="userSpaceOnUse" color-interpolation-filters="sRGB">
<feFlood flood-opacity="0" result="BackgroundImageFix"/>
<feBlend mode="normal" in="SourceGraphic" in2="BackgroundImageFix" result="shape"/>
<feColorMatrix in="SourceAlpha" type="matrix" values="0 0 0 0 0 0 0 0 0 0 0 0 0 0 0 0 0 0 127 0" result="hardAlpha"/>
<feOffset dy="0.111111"/>
<feGaussianBlur stdDeviation="0.111111"/>
<feComposite in2="hardAlpha" operator="arithmetic" k2="-1" k3="1"/>
<feColorMatrix type="matrix" values="0 0 0 0 0 0 0 0 0 0 0 0 0 0 0 0 0 0 0.02 0"/>
<feBlend mode="normal" in2="shape" result="effect1_innerShadow_2780_100783"/>
</filter>
</defs>
</svg>
