<svg width="16" height="16" viewBox="0 0 16 16" fill="none" xmlns="http://www.w3.org/2000/svg">
<path d="M13.4375 2H2.5625C2.25184 2 2 2.25184 2 2.5625V13.4375C2 13.7482 2.25184 14 2.5625 14H13.4375C13.7482 14 14 13.7482 14 13.4375V2.5625C14 2.25184 13.7482 2 13.4375 2Z" fill="#3178C6"/>
<path fill-rule="evenodd" clip-rule="evenodd" d="M8.96208 11.3251V12.6401C9.17512 12.7496 9.42706 12.8318 9.71794 12.8865C10.0088 12.9414 10.3154 12.9688 10.6377 12.9688C10.9518 12.9688 11.2501 12.9387 11.5328 12.8784C11.8155 12.8181 12.0633 12.7188 12.2764 12.5804C12.4894 12.4421 12.6581 12.2613 12.7824 12.038C12.9066 11.8148 12.9688 11.5388 12.9688 11.2101C12.9688 10.9717 12.9332 10.7629 12.8622 10.5834C12.7912 10.404 12.6888 10.2444 12.5549 10.1047C12.4212 9.96502 12.2607 9.83969 12.0736 9.72875C11.8865 9.61781 11.6756 9.51302 11.4406 9.41441C11.2686 9.34318 11.1143 9.27402 10.9777 9.2069C10.8411 9.13978 10.7251 9.0713 10.6295 9.00145C10.5339 8.93158 10.4601 8.85763 10.4083 8.77955C10.3564 8.70148 10.3304 8.61313 10.3304 8.51452C10.3304 8.42412 10.3536 8.34262 10.4001 8.27003C10.4465 8.19744 10.512 8.13511 10.5967 8.08306C10.6814 8.03102 10.7852 7.99062 10.9081 7.96185C11.031 7.93308 11.1675 7.9187 11.3177 7.9187C11.427 7.9187 11.5423 7.92692 11.6639 7.94336C11.7854 7.95979 11.9077 7.98513 12.0306 8.01938C12.1535 8.05362 12.2729 8.09676 12.3891 8.14881C12.5052 8.20086 12.6123 8.26112 12.7107 8.32961V7.101C12.5113 7.0243 12.2935 6.96746 12.0572 6.93047C11.821 6.89349 11.5499 6.875 11.244 6.875C10.9326 6.875 10.6377 6.90855 10.3591 6.97567C10.0805 7.04278 9.83538 7.14757 9.62371 7.29001C9.41204 7.43247 9.24476 7.61395 9.12186 7.83447C8.99895 8.05498 8.9375 8.31865 8.9375 8.62546C8.9375 9.0172 9.05016 9.3514 9.27549 9.62807C9.50082 9.90476 9.84289 10.139 10.3017 10.3307C10.482 10.4047 10.65 10.4773 10.8056 10.5485C10.9613 10.6197 11.0958 10.6937 11.2092 10.7704C11.3225 10.8471 11.4119 10.9307 11.4775 11.021C11.5431 11.1115 11.5758 11.2142 11.5758 11.3292C11.5758 11.4142 11.5554 11.4929 11.5144 11.5655C11.4734 11.6381 11.4113 11.7011 11.328 11.7545C11.2447 11.8079 11.1409 11.8498 11.0166 11.8798C10.8924 11.9099 10.7469 11.925 10.5803 11.925C10.2963 11.925 10.015 11.8751 9.73637 11.775C9.45779 11.6751 9.1997 11.5251 8.96208 11.3251ZM6.75337 8.05197H8.46875V6.96875H3.6875V8.05197H5.39449V12.875H6.75337V8.05197Z" fill="white"/>
</svg>
