<svg width="16" height="16" viewBox="0 0 16 16" fill="none" xmlns="http://www.w3.org/2000/svg">
<path d="M14.1056 12.2044C13.3842 12.3758 13.019 12.5336 12.1262 13.1152C10.7285 14.017 9.20451 14.4363 9.20451 14.4363C9.20451 14.4363 9.07827 14.6257 8.71305 14.7113C8.08181 14.8646 5.70566 14.9954 5.48924 14.9999C4.9076 15.0044 4.5514 14.8511 4.45221 14.6121C4.15012 13.8907 4.88506 13.5751 4.88506 13.5751C4.88506 13.5751 4.72274 13.4759 4.62805 13.3857C4.54239 13.3001 4.45221 13.1287 4.42516 13.1919C4.31244 13.4669 4.25382 14.1387 3.95173 14.4408C3.53692 14.8601 2.75238 14.7204 2.28797 14.4769C1.77848 14.2063 2.32404 13.5706 2.32404 13.5706C2.32404 13.5706 2.049 13.7329 1.82807 13.3993C1.62968 13.0927 1.44482 12.5696 1.49442 11.9249C1.55754 11.1809 2.37815 10.4685 2.37815 10.4685C2.37815 10.4685 2.23387 9.3819 2.70729 8.26822C3.13563 7.25374 4.28989 6.43764 4.28989 6.43764C4.28989 6.43764 3.32049 5.36905 3.6812 4.39965C3.91566 3.76841 4.01034 3.77292 4.08699 3.74587C4.35752 3.64217 4.61904 3.52945 4.81292 3.31753C5.78231 2.27148 7.01773 2.46987 7.01773 2.46987C7.01773 2.46987 7.59486 0.697903 8.13592 1.04508C8.30275 1.15329 8.90242 2.48791 8.90242 2.48791C8.90242 2.48791 9.54267 2.11367 9.61482 2.25345C10.0026 3.00642 10.0477 4.44474 9.87633 5.31945C9.58776 6.76228 8.86635 7.53779 8.57779 8.02475C8.51015 8.13747 9.3533 8.49366 9.88534 9.96805C10.3768 11.3162 9.93945 12.4479 10.0161 12.5742C10.0296 12.5967 10.0341 12.6057 10.0341 12.6057C10.0341 12.6057 10.5977 12.6508 11.7295 11.9519C12.3336 11.5777 13.0505 11.1584 13.8666 11.1494C14.6557 11.1358 14.6963 12.0647 14.1056 12.2044Z" fill="#2C8EBB"/>
</svg>
