<svg width="16" height="16" viewBox="0 0 16 16" fill="none" xmlns="http://www.w3.org/2000/svg">
<path d="M9.24194 13C5.62903 13 3 11.2258 3 8.77419C3 6.93548 4.67742 5.54839 6.91935 5.54839C8.74194 5.54839 10 6.30645 10 7.22581C10 8.06452 9.17742 8.3871 8.01613 8L8.27419 7.22581C6.46774 6.59677 5 7.32258 5 8.74194C5 10.3226 6.72581 11.3871 9.12903 11.3871C11.9516 11.3871 14 9.64516 14 7.22581C14 4.20968 10.9516 2 6.75806 2C5.37097 2 3.75806 2.35484 2.46774 3.06452L2.93548 3.90323C4.01613 3.29032 5.5 3 6.75806 3C10.371 3 13 4.77419 13 7.22581C13 9.09677 11.2419 10.4516 9.08065 10.4516C7.25806 10.4516 6 9.69355 6 8.74194C6 7.95161 6.82258 7.64516 7.98387 8L7.72581 8.75806C9.53226 9.43548 11 8.67742 11 7.22581C11 5.67742 9.27419 4.6129 6.87097 4.6129C4.04839 4.6129 2 6.35484 2 8.77419C2 11.7903 5.04839 14 9.24194 14C10.6452 14 12.2419 13.6452 13.5645 12.9355L13.0968 12.0806C12.0161 12.7097 10.5323 13 9.24194 13Z" fill="#090909"/>
</svg>
