<svg width="16" height="16" viewBox="0 0 16 16" fill="none" xmlns="http://www.w3.org/2000/svg">
<path fill-rule="evenodd" clip-rule="evenodd" d="M5.89165 13.8621C6.57721 14.3191 7.49768 14.1814 8.01943 13.5437L11.7606 8.9712C11.8373 8.99005 11.9175 9.00004 12 9.00004H14C14.5523 9.00004 15 8.55233 15 8.00004V3.00004C15 2.44776 14.5523 2.00004 14 2.00004H12.0001H12H5.61418C4.13502 2.00004 2.81556 2.9299 2.31808 4.32289L1.24506 7.32738C0.779901 8.62987 1.7455 10 3.12855 10H5.83719L5.24014 12.0896C5.04881 12.7592 5.31218 13.4757 5.89165 13.8621ZM11 3.00004H5.61418C4.55764 3.00004 3.61516 3.66423 3.25982 4.65922L2.18681 7.66371C1.95423 8.31496 2.43702 9.00004 3.12855 9.00004H6.50006C6.65696 9.00004 6.80476 9.07369 6.89924 9.19895C6.99372 9.32421 7.02393 9.48655 6.98082 9.63741L6.20166 12.3643C6.1298 12.6158 6.22872 12.8849 6.44635 13.03C6.70382 13.2017 7.04953 13.1499 7.24548 12.9104L11.0382 8.27489C11.0133 8.18757 11 8.09536 11 8.00004V3.00004ZM14 8.00004H12V3.00004H12.0001H14V8.00004Z" fill="black" fill-opacity="0.54"/>
</svg>
