<svg width="16" height="16" viewBox="0 0 16 16" fill="none" xmlns="http://www.w3.org/2000/svg">
<path d="M2 8.02985V7.45741C2.51397 7.45741 2.87251 7.34969 3.07564 7.13426C3.28184 6.91882 3.38494 6.55873 3.38494 6.054V4.57673C3.38494 4.15201 3.42495 3.78423 3.50497 3.47339C3.58807 3.16255 3.72195 2.90556 3.90661 2.70244C4.09126 2.49931 4.33748 2.34851 4.64524 2.25002C4.95301 2.15154 5.3331 2.10229 5.78551 2.10229V3.00712C5.4285 3.00712 5.1469 3.06252 4.9407 3.17332C4.73757 3.28411 4.59292 3.45646 4.50675 3.69036C4.42365 3.92119 4.3821 4.21664 4.3821 4.57673V6.42332C4.3821 6.66338 4.34979 6.88189 4.28516 7.07886C4.2236 7.27583 4.10819 7.4451 3.93892 7.58667C3.76965 7.72824 3.52805 7.8375 3.21413 7.91444C2.90329 7.99138 2.49858 8.02985 2 8.02985ZM5.78551 13.9205C5.3331 13.9205 4.95301 13.8712 4.64524 13.7727C4.33748 13.6743 4.09126 13.5235 3.90661 13.3203C3.72195 13.1172 3.58807 12.8602 3.50497 12.5494C3.42495 12.2385 3.38494 11.8708 3.38494 11.446V9.96877C3.38494 9.46404 3.28184 9.10395 3.07564 8.88852C2.87251 8.67308 2.51397 8.56536 2 8.56536V7.99292C2.49858 7.99292 2.90329 8.03139 3.21413 8.10833C3.52805 8.18527 3.76965 8.29453 3.93892 8.4361C4.10819 8.57767 4.2236 8.74694 4.28516 8.94391C4.34979 9.14088 4.3821 9.3594 4.3821 9.59945V11.446C4.3821 11.8061 4.42365 12.1016 4.50675 12.3324C4.59292 12.5632 4.73757 12.734 4.9407 12.8448C5.1469 12.9587 5.4285 13.0156 5.78551 13.0156V13.9205ZM2 8.56536V7.45741H3.08949V8.56536H2Z" fill="#090909"/>
<path d="M13.9955 7.99292V8.56536C13.4815 8.56536 13.1214 8.67308 12.9152 8.88852C12.7121 9.10395 12.6105 9.46404 12.6105 9.96877V11.446C12.6105 11.8708 12.569 12.2385 12.4859 12.5494C12.4059 12.8602 12.2735 13.1172 12.0889 13.3203C11.9042 13.5235 11.658 13.6743 11.3502 13.7727C11.0425 13.8712 10.6624 13.9205 10.21 13.9205V13.0156C10.567 13.0156 10.847 12.9587 11.0502 12.8448C11.2564 12.734 11.401 12.5632 11.4841 12.3324C11.5703 12.1016 11.6134 11.8061 11.6134 11.446V9.59945C11.6134 9.3594 11.6441 9.14088 11.7057 8.94391C11.7703 8.74694 11.8873 8.57767 12.0566 8.4361C12.2258 8.29453 12.4659 8.18527 12.7767 8.10833C13.0906 8.03139 13.4969 7.99292 13.9955 7.99292ZM10.21 2.10229C10.6624 2.10229 11.0425 2.15154 11.3502 2.25002C11.658 2.34851 11.9042 2.49931 12.0889 2.70244C12.2735 2.90556 12.4059 3.16255 12.4859 3.47339C12.569 3.78423 12.6105 4.15201 12.6105 4.57673V6.054C12.6105 6.55873 12.7121 6.91882 12.9152 7.13426C13.1214 7.34969 13.4815 7.45741 13.9955 7.45741V8.02985C13.4969 8.02985 13.0906 7.99138 12.7767 7.91444C12.4659 7.8375 12.2258 7.72824 12.0566 7.58667C11.8873 7.4451 11.7703 7.27583 11.7057 7.07886C11.6441 6.88189 11.6134 6.66338 11.6134 6.42332V4.57673C11.6134 4.21664 11.5703 3.92119 11.4841 3.69036C11.401 3.45646 11.2564 3.28411 11.0502 3.17332C10.847 3.06252 10.567 3.00712 10.21 3.00712V2.10229ZM13.9955 7.45741V8.56536H12.906V7.45741H13.9955Z" fill="#726CF9"/>
</svg>
