<svg width="48" height="48" viewBox="0 0 48 48" fill="none" xmlns="http://www.w3.org/2000/svg">
<path d="M26.9496 35.875C18.369 35.875 12.125 31.6613 12.125 25.8387C12.125 21.4718 16.1089 18.1774 21.4335 18.1774C25.7621 18.1774 28.75 19.9778 28.75 22.1613C28.75 24.1532 26.7964 24.9194 24.0383 24L24.6512 22.1613C20.3609 20.6673 16.875 22.3911 16.875 25.7621C16.875 29.5161 20.9738 32.0444 26.6815 32.0444C33.3851 32.0444 38.25 27.9073 38.25 22.1613C38.25 14.998 31.0101 9.75 21.0504 9.75C17.756 9.75 13.9254 10.5927 10.8609 12.2782L11.9718 14.2702C14.5383 12.8145 18.0625 12.125 21.0504 12.125C29.631 12.125 35.875 16.3387 35.875 22.1613C35.875 26.6048 31.6996 29.8226 26.5665 29.8226C22.2379 29.8226 19.25 28.0222 19.25 25.7621C19.25 23.8851 21.2036 23.1573 23.9617 24L23.3488 25.8004C27.6391 27.4093 31.125 25.6089 31.125 22.1613C31.125 18.4839 27.0262 15.9556 21.3185 15.9556C14.6149 15.9556 9.75 20.0927 9.75 25.8387C9.75 33.002 16.9899 38.25 26.9496 38.25C30.2823 38.25 34.0746 37.4073 37.2157 35.7218L36.1048 33.6915C33.5383 35.1855 30.0141 35.875 26.9496 35.875Z" fill="url(#paint0_linear_12223_96771)"/>
<defs>
<linearGradient id="paint0_linear_12223_96771" x1="12.5681" y1="14.8778" x2="51.6728" y2="45.2254" gradientUnits="userSpaceOnUse">
<stop stop-color="#955AE0"/>
<stop offset="1" stop-color="#4D67F0"/>
</linearGradient>
</defs>
</svg>
