<svg width="16" height="16" viewBox="0 0 16 16" fill="none" xmlns="http://www.w3.org/2000/svg">
<path d="M8.44327 15.1364C7.28418 15.1364 6.25956 14.9773 5.36941 14.6591C4.47926 14.3447 3.73115 13.8807 3.12509 13.2671C2.51903 12.6534 2.06069 11.9015 1.75009 11.0114C1.43948 10.1212 1.28418 9.10228 1.28418 7.95456C1.28418 6.84471 1.44138 5.85228 1.75577 4.97728C2.07395 4.10228 2.53418 3.35986 3.13645 2.75001C3.74251 2.13637 4.47736 1.66857 5.341 1.3466C6.20842 1.02463 7.18948 0.863647 8.28418 0.863647C9.34857 0.863647 10.2804 1.03789 11.0796 1.38637C11.8827 1.73107 12.5531 2.19888 13.091 2.78978C13.6327 3.37691 14.038 4.03789 14.3069 4.77274C14.5796 5.50759 14.716 6.26516 14.716 7.04547C14.716 7.59471 14.6895 8.15153 14.6365 8.71592C14.5834 9.28031 14.4717 9.79925 14.3012 10.2727C14.1308 10.7424 13.8675 11.1212 13.5115 11.4091C13.1592 11.697 12.6819 11.8409 12.0796 11.8409C11.8145 11.8409 11.5228 11.7993 11.2046 11.7159C10.8865 11.6326 10.6043 11.4943 10.358 11.3011C10.1118 11.108 9.966 10.8485 9.92054 10.5227H9.85236C9.76145 10.7424 9.6213 10.9508 9.43191 11.1477C9.2463 11.3447 9.00198 11.5019 8.69895 11.6193C8.39971 11.7368 8.03418 11.7879 7.60236 11.7727C7.10994 11.7538 6.67623 11.644 6.30123 11.4432C5.92623 11.2386 5.61183 10.9621 5.35804 10.6136C5.10804 10.2614 4.91865 9.85418 4.78986 9.39206C4.66486 8.92615 4.60236 8.42425 4.60236 7.88638C4.60236 7.37501 4.67812 6.90721 4.82963 6.48297C4.98115 6.05872 5.19138 5.68751 5.46032 5.36933C5.73304 5.05115 6.05123 4.79736 6.41486 4.60797C6.78229 4.41478 7.17812 4.29547 7.60236 4.25001C7.98115 4.21213 8.32585 4.22918 8.63645 4.30115C8.94706 4.36933 9.20274 4.4735 9.4035 4.61365C9.60426 4.75001 9.73115 4.90153 9.78418 5.06819H9.85236V4.43183H11.0569V9.56819C11.0569 9.88638 11.1459 10.1667 11.324 10.4091C11.502 10.6515 11.7615 10.7727 12.1024 10.7727C12.4887 10.7727 12.7842 10.6402 12.9887 10.375C13.1971 10.1099 13.3391 9.70077 13.4149 9.14774C13.4944 8.59471 13.5342 7.88638 13.5342 7.02274C13.5342 6.51516 13.4641 6.01516 13.324 5.52274C13.1876 5.02653 12.9793 4.56251 12.699 4.13069C12.4224 3.69887 12.0721 3.31819 11.6478 2.98865C11.2236 2.6591 10.7255 2.40153 10.1535 2.21592C9.58532 2.02653 8.93948 1.93183 8.216 1.93183C7.32585 1.93183 6.5285 2.07009 5.82395 2.3466C5.12319 2.61933 4.5266 3.01895 4.03418 3.54547C3.54554 4.06819 3.17244 4.70456 2.91486 5.45456C2.66107 6.20077 2.53418 7.04925 2.53418 8.00001C2.53418 8.96592 2.66107 9.82388 2.91486 10.5739C3.17244 11.3239 3.55123 11.9565 4.05123 12.4716C4.55501 12.9868 5.17812 13.3769 5.92054 13.6421C6.66297 13.911 7.51903 14.0455 8.48873 14.0455C8.90539 14.0455 9.31638 14.0057 9.72168 13.9261C10.127 13.8466 10.4849 13.7595 10.7955 13.6648C11.1061 13.5701 11.3296 13.5 11.466 13.4546L11.7842 14.5C11.5493 14.5985 11.2425 14.697 10.8637 14.7955C10.4887 14.894 10.0872 14.9754 9.65918 15.0398C9.23494 15.1042 8.82963 15.1364 8.44327 15.1364ZM7.78418 10.6136C8.29176 10.6136 8.70274 10.5114 9.01713 10.3068C9.33153 10.1023 9.5607 9.79357 9.70463 9.38069C9.84857 8.96781 9.92054 8.44698 9.92054 7.81819C9.92054 7.18183 9.841 6.68562 9.68191 6.32956C9.52282 5.9735 9.28797 5.7235 8.97736 5.57956C8.66676 5.43562 8.28418 5.36365 7.82963 5.36365C7.39782 5.36365 7.0285 5.47728 6.72168 5.70456C6.41865 5.92804 6.18569 6.22728 6.02282 6.60228C5.86373 6.9735 5.78418 7.3788 5.78418 7.81819C5.78418 8.30304 5.84857 8.75948 5.97736 9.18751C6.10615 9.61175 6.31638 9.95645 6.60804 10.2216C6.89971 10.483 7.29176 10.6136 7.78418 10.6136Z" fill="#090909"/>
</svg>
