<svg width="16" height="16" viewBox="0 0 16 16" fill="none" xmlns="http://www.w3.org/2000/svg">
<path fill-rule="evenodd" clip-rule="evenodd" d="M7.76488 0.95324C7.91994 0.921348 8.07987 0.921348 8.23493 0.95324C8.41298 0.989859 8.57325 1.07937 8.72324 1.16315C8.73581 1.17017 8.74831 1.17715 8.76074 1.18406L13.6941 3.9248C13.7072 3.93211 13.7205 3.93944 13.7338 3.94681C13.8925 4.03443 14.0618 4.12801 14.1912 4.26834C14.3037 4.39048 14.3889 4.53524 14.441 4.69294C14.5009 4.87413 14.5004 5.06765 14.5 5.24887C14.4999 5.26411 14.4999 5.27926 14.4999 5.29431V10.7057C14.4999 10.7208 14.4999 10.7359 14.5 10.7512C14.5004 10.9324 14.5009 11.1259 14.441 11.3071C14.3889 11.4648 14.3037 11.6096 14.1912 11.7317C14.0618 11.872 13.8925 11.9656 13.7338 12.0532C13.7205 12.0606 13.7072 12.0679 13.6941 12.0752L8.76074 14.816C8.74831 14.8229 8.73582 14.8299 8.72325 14.8369C8.57325 14.9207 8.41298 15.0102 8.23493 15.0468C8.07987 15.0787 7.91994 15.0787 7.76488 15.0468C7.58683 15.0102 7.42656 14.9207 7.27656 14.8369C7.26399 14.8299 7.25149 14.8229 7.23906 14.816L2.30573 12.0752C2.29257 12.0679 2.27931 12.0606 2.26596 12.0532C2.10735 11.9656 1.93796 11.872 1.80864 11.7317C1.69609 11.6096 1.61091 11.4648 1.5588 11.3071C1.49894 11.1259 1.4994 10.9324 1.49983 10.7512C1.49987 10.7359 1.4999 10.7208 1.4999 10.7057V5.29431C1.4999 5.27926 1.49987 5.2641 1.49983 5.24886C1.4994 5.06765 1.49894 4.87413 1.5588 4.69294C1.61091 4.53524 1.69609 4.39048 1.80864 4.26834C1.93795 4.12801 2.10734 4.03444 2.26596 3.94681C2.2793 3.93944 2.29257 3.93211 2.30573 3.9248L7.23906 1.18406C7.25149 1.17715 7.26399 1.17017 7.27656 1.16315C7.42656 1.07937 7.58683 0.989859 7.76488 0.95324ZM8.03324 1.93269C8.01124 1.9282 7.98857 1.9282 7.96657 1.93269C7.96335 1.93364 7.95136 1.93771 7.92431 1.95075C7.88051 1.97187 7.82411 2.00299 7.7247 2.05822L3.02947 4.66668L7.99988 7.42802L12.9703 4.66667L8.2751 2.05822C8.1757 2.00299 8.11929 1.97187 8.07549 1.95075C8.04846 1.93771 8.03646 1.93364 8.03324 1.93269ZM13.4999 5.51641V10.7057C13.4999 10.8258 13.4997 10.894 13.4966 10.9454C13.4939 10.991 13.4899 10.9982 13.4915 10.9934C13.4841 11.0158 13.472 11.0364 13.456 11.0538C13.4534 11.0562 13.4431 11.0647 13.4163 11.0818C13.3729 11.1095 13.3134 11.1428 13.2084 11.2011L8.4999 13.8169L8.49988 8.2942L13.4999 5.51641ZM7.49988 8.2942L2.4999 5.51643V10.7057C2.4999 10.8258 2.50011 10.894 2.5032 10.9454C2.50511 10.977 2.50761 10.9902 2.50842 10.9937C2.51584 11.016 2.52789 11.0365 2.54379 11.0538C2.54644 11.0562 2.55674 11.0648 2.58348 11.0818C2.62688 11.1095 2.68643 11.1428 2.79137 11.2011L7.4999 13.8169L7.49988 8.2942Z" fill="#090909"/>
</svg>
