<svg width="16" height="16" viewBox="0 0 16 16" fill="none" xmlns="http://www.w3.org/2000/svg">
<path fill-rule="evenodd" clip-rule="evenodd" d="M15 8C15 8.18653 14.8962 8.35755 14.7307 8.44361L2.2307 14.9436C2.05764 15.0336 1.84805 15.0147 1.69384 14.8953C1.53963 14.7759 1.46896 14.5776 1.51282 14.3876L2.98685 8L1.51282 1.61243C1.46896 1.42237 1.53963 1.22415 1.69384 1.10471C1.84805 0.985268 2.05764 0.966405 2.2307 1.05639L14.7307 7.55639C14.8962 7.64245 15 7.81347 15 8ZM3.89775 8.5L2.73092 13.5564L12.4547 8.5H3.89775ZM12.4547 7.5H3.89775L2.73092 2.44363L12.4547 7.5Z" fill="#090909"/>
</svg>
