<svg width="16" height="16" viewBox="0 0 16 16" fill="none" xmlns="http://www.w3.org/2000/svg">
<g clip-path="url(#clip0_12223_96846)">
<path d="M1.33325 8.00004H14.6666M1.33325 8.00004C1.33325 11.6819 4.31802 14.6667 7.99992 14.6667M1.33325 8.00004C1.33325 4.31814 4.31802 1.33337 7.99992 1.33337M14.6666 8.00004C14.6666 11.6819 11.6818 14.6667 7.99992 14.6667M14.6666 8.00004C14.6666 4.31814 11.6818 1.33337 7.99992 1.33337M7.99992 1.33337C9.66744 3.15894 10.6151 5.52806 10.6666 8.00004C10.6151 10.472 9.66744 12.8411 7.99992 14.6667M7.99992 1.33337C6.3324 3.15894 5.38475 5.52806 5.33325 8.00004C5.38475 10.472 6.3324 12.8411 7.99992 14.6667" stroke="#090909" stroke-linecap="round" stroke-linejoin="round"/>
</g>
<defs>
<clipPath id="clip0_12223_96846">
<rect width="16" height="16" fill="white"/>
</clipPath>
</defs>
</svg>
