<svg width="16" height="16" viewBox="0 0 16 16" fill="none" xmlns="http://www.w3.org/2000/svg">
<path d="M7 2C7 1.44772 6.55228 1 6 1H2V2H7Z" fill="#169068"/>
<path d="M9 2C9 1.44772 9.44772 1 10 1H14V2H9Z" fill="#169068"/>
<rect x="3.5" y="3" width="9" height="12" rx="4.5" fill="#169068"/>
<rect x="12" y="7" width="3" height="1" fill="#169068"/>
<rect x="1" y="7" width="3" height="1" fill="#169068"/>
<path d="M14 10C14.5523 10 15 10.4477 15 11L15 15L14 15L14 10Z" fill="#169068"/>
<path d="M2 10C1.44772 10 1 10.4477 1 11L1 15L2 15L2 10Z" fill="#169068"/>
</svg>
