<svg width="16" height="16" viewBox="0 0 16 16" fill="none" xmlns="http://www.w3.org/2000/svg">
<rect x="2" y="2" width="12" height="12" rx="2" fill="#2A7DEB"/>
<path d="M6 11C5.59195 11 5.23851 10.928 4.93966 10.784C4.6408 10.64 4.40805 10.4373 4.24138 10.176C4.08046 9.91467 4 9.608 4 9.256V6.744C4 6.392 4.08046 6.08533 4.24138 5.824C4.40805 5.56267 4.6408 5.36 4.93966 5.216C5.23851 5.072 5.59195 5 6 5C6.40805 5 6.76149 5.072 7.06035 5.216C7.3592 5.36 7.58908 5.56267 7.75 5.824C7.91667 6.08533 8 6.392 8 6.744V9.256C8 9.608 7.91667 9.91467 7.75 10.176C7.58908 10.4373 7.3592 10.64 7.06035 10.784C6.76149 10.928 6.40805 11 6 11ZM6 10.136C6.29885 10.136 6.53736 10.056 6.71552 9.896C6.89368 9.736 6.98276 9.52267 6.98276 9.256V6.744C6.98276 6.47733 6.89368 6.264 6.71552 6.104C6.5431 5.944 6.3046 5.864 6 5.864C5.6954 5.864 5.45402 5.944 5.27586 6.104C5.10345 6.264 5.01724 6.47733 5.01724 6.744V9.256C5.01724 9.52267 5.10632 9.736 5.28448 9.896C5.46264 10.056 5.70115 10.136 6 10.136ZM6 8.52C5.82759 8.52 5.68966 8.46933 5.58621 8.368C5.48276 8.26667 5.43103 8.136 5.43103 7.976C5.43103 7.816 5.48276 7.688 5.58621 7.592C5.68966 7.496 5.82759 7.448 6 7.448C6.17241 7.448 6.31035 7.496 6.41379 7.592C6.51724 7.688 6.56897 7.816 6.56897 7.976C6.56897 8.136 6.51724 8.26667 6.41379 8.368C6.31035 8.46933 6.17241 8.52 6 8.52Z" fill="white"/>
<path d="M8.508 11V10.12H10.028V6.048L8.5 7.184V6.128L9.844 5.16H11.028V10.12H12.252V11H8.508Z" fill="white"/>
</svg>
