<svg width="16" height="16" viewBox="0 0 16 16" fill="none" xmlns="http://www.w3.org/2000/svg">
<path d="M7.14282 2.85714C7.14282 2.38376 6.75907 2 6.28568 2H2.85711V2.85714H7.14282Z" fill="#169068"/>
<path d="M8.85718 2.85714C8.85718 2.38376 9.24093 2 9.71432 2H13.1429V2.85714H8.85718Z" fill="#169068"/>
<rect x="4.14282" y="3.71411" width="7.71429" height="10.2857" rx="3.85714" fill="#169068"/>
<rect x="11.4285" y="7.14282" width="2.57143" height="0.857143" fill="#169068"/>
<rect x="2" y="7.14282" width="2.57143" height="0.857143" fill="#169068"/>
<path d="M13.1429 9.71411C13.6162 9.71411 14 10.0979 14 10.5713L14 13.9998L13.1429 13.9998L13.1429 9.71411Z" fill="#169068"/>
<path d="M2.85714 9.71411C2.38376 9.71411 2 10.0979 2 10.5713L2 13.9998L2.85714 13.9998L2.85714 9.71411Z" fill="#169068"/>
</svg>
