<svg width="16" height="16" viewBox="0 0 16 16" fill="none" xmlns="http://www.w3.org/2000/svg">
<path d="M12.5102 7.85234L12.56 8.37305L13.078 8.29976C13.4733 8.24381 13.7308 8.23822 13.9407 8.27588C14.0346 8.29274 14.1263 8.31962 14.2224 8.36146C14.0998 8.54938 13.9287 8.70472 13.7284 8.82162C13.4117 9.00655 13.0582 9.07351 12.7875 9.03599L12.3122 8.9701L12.2268 9.44233C11.8024 11.7911 9.32789 14.5 5.24997 14.5C3.3852 14.5 2.34547 13.7489 1.79793 12.8C1.23521 11.8248 1.15038 10.5649 1.37463 9.5H1.38497H1.39813H1.41137H1.4247H1.43811H1.45161H1.46519H1.47886H1.49261H1.50644H1.52035H1.53435H1.54843H1.56259H1.57683H1.59115H1.60555H1.62003H1.6346H1.64924H1.66395H1.67875H1.69362H1.70858H1.72361H1.73871H1.75389H1.76915H1.78449H1.79989H1.81538H1.83093H1.84657H1.86227H1.87805H1.8939H1.90983H1.92582H1.94189H1.95803H1.97424H1.99052H2.00687H2.02329H2.03977H2.05633H2.07296H2.08965H2.10641H2.12324H2.14014H2.1571H2.17413H2.19123H2.20839H2.22561H2.2429H2.26026H2.27768H2.29516H2.3127H2.33031H2.34798H2.36571H2.3835H2.40136H2.41927H2.43725H2.45528H2.47338H2.49153H2.50974H2.52801H2.54634H2.56473H2.58317H2.60167H2.62023H2.63884H2.65751H2.67624H2.69502H2.71385H2.73274H2.75168H2.77067H2.78972H2.80882H2.82797H2.84718H2.86643H2.88574H2.9051H2.9245H2.94396H2.96347H2.98302H3.00263H3.02228H3.04198H3.06173H3.08152H3.10137H3.12125H3.14119H3.16117H3.18119H3.20126H3.22138H3.24153H3.26174H3.28198H3.30227H3.3226H3.34297H3.36338H3.38384H3.40434H3.42487H3.44545H3.46606H3.48672H3.50741H3.52815H3.54892H3.56973H3.59057H3.61146H3.63238H3.65333H3.67432H3.69535H3.71641H3.73751H3.75864H3.77981H3.80101H3.82224H3.8435H3.8648H3.88613H3.90749H3.92888H3.9503H3.97175H3.99323H4.01475H4.03629H4.05786H4.07946H4.10108H4.12274H4.14442H4.16613H4.18786H4.20962H4.23141H4.25322H4.27506H4.29692H4.3188H4.34071H4.36265H4.3846H4.40658H4.42858H4.4506H4.47264H4.49471H4.51679H4.5389H4.56102H4.58317H4.60533H4.62752H4.64972H4.67194H4.69417H4.71642H4.73869H4.76098H4.78328H4.8056H4.82793H4.85028H4.87265H4.89502H4.91741H4.93982H4.96223H4.98466H5.0071H5.02955H5.05202H5.07449H5.09698H5.11947H5.14198H5.16449H5.18701H5.20955H5.23209H5.25463H5.27719H5.29975H5.32232H5.34489H5.36748H5.39006H5.41265H5.43525H5.45785H5.48045H5.50306H5.52567H5.54829H5.5709H5.59352H5.61614H5.63876H5.66138H5.684H5.70663H5.72925H5.75187H5.77449H5.79711H5.81972H5.84234H5.86495H5.88756H5.91016H5.93276H5.95536H5.97795H6.00054H6.02312H6.04569H6.06826H6.09082H6.11338H6.13593H6.15847H6.181H6.20352H6.22604H6.24854H6.27104H6.29352H6.316H6.33846H6.36092H6.38336H6.40579H6.4282H6.45061H6.473H6.49538H6.51774H6.54009H6.56242H6.58474H6.60704H6.62933H6.6516H6.67385H6.69609H6.71831H6.74051H6.7627H6.78486H6.80701H6.82913H6.85124H6.87332H6.89539H6.91743H6.93946H6.96146H6.98344H7.00539H7.02733H7.04924H7.07112H7.09299H7.11482H7.13664H7.15842H7.18019H7.20192H7.22363H7.24531H7.26697H7.2886H7.3102H7.33177H7.35331H7.37482H7.39631H7.41776H7.43918H7.46058H7.48194H7.50327H7.52457H7.54583H7.56706H7.58826H7.60943H7.63056H7.65166H7.67273H7.69376H7.71475H7.73571H7.75663H7.77751H7.79836H7.81917H7.83994H7.86068H7.88137H7.90203H7.92265H7.94323H7.96376H7.98426H8.00472H8.02513H8.04551H8.06584H8.08613H8.10638H8.12658H8.14674H8.16686H8.18693H8.20695H8.22693H8.24687H8.26676H8.2866H8.3064H8.32615H8.34585H8.36551H8.38512H8.40467H8.42418H8.44364H8.46305H8.48241H8.50172H8.52098H8.54018H8.55934H8.57844H8.59749H8.61649H8.63543H8.65432H8.67316H8.69194H8.71066H8.72934H8.74795H8.76651H8.78501H8.80346H8.82185H8.84018H8.85845H8.87667H8.89482H8.91292H8.93096H8.94894H8.96686H8.98471H9.00251H9.02024H9.03791H9.05552H9.07307H9.09056H9.10798H9.12533H9.14263H9.15985H9.17702H9.19411H9.21115H9.22811H9.24501H9.26184H9.27861H9.29531H9.31194H9.3285H9.34499H9.36141H9.37776H9.39405H9.41026H9.4264H9.44247H9.45847H9.4744H9.49025H9.50603H9.52174H9.53738H9.55294H9.56842H9.58383H9.59917H9.61443H9.62962H9.64473H9.65976H9.67471H9.68959H9.70439H9.71911H9.73376H9.74832H9.76281H9.77721H9.79154H9.80578H9.81994H9.83403H9.84803H9.86194H9.87578H9.88953H9.9032H9.91679H9.93029H9.94371H9.95704H9.97029H9.98345H9.99652H10.0095H10.0224H10.0352H10.048H10.0606H10.0731H10.0856H10.098H10.1103H10.1225H10.1346H10.1466H10.1585H10.1703H10.1821H10.1937H10.2053H10.2167H10.2281H10.2394H10.2505H10.2616H10.2726H10.2835H10.2943H10.305H10.3156H10.3261H10.3365H10.3469H10.3571H10.3672H10.3772H10.3871H10.397H10.4067H10.4163H10.4258H10.4352H10.4445H10.4538H10.4629H10.4719H10.4808H10.4896H10.4983H10.5069H10.5154H10.5238H10.532H10.5402H10.5483H10.5562H10.5641H10.5718H10.5795H10.587H10.5944H10.6017H10.6089H10.616H10.623H10.6299H10.6366H10.6433H10.6498H10.6562H10.67L10.6838 9.49924C10.6872 9.49905 10.691 9.49885 10.6951 9.49863C10.8287 9.49151 11.3106 9.46581 11.7529 9.21705L12.1821 8.97569L11.9473 8.54287C11.651 7.99652 11.7052 7.40175 11.9484 6.92229C12.2744 7.18547 12.4752 7.48734 12.5102 7.85234Z" stroke="#090909"/>
<path fill-rule="evenodd" clip-rule="evenodd" d="M7 2V4H9V2H7ZM6 5H4V7H6V5ZM6.5 8H3.5C3.22386 8 3 7.77614 3 7.5V4.5C3 4.22386 3.22386 4 3.5 4H6V1.5C6 1.22386 6.22386 1 6.5 1H9.5C9.77614 1 10 1.22386 10 1.5V4.5V7.5C10 7.77614 9.77614 8 9.5 8H6.5ZM7 7H9V5H7V7Z" fill="#090909"/>
</svg>
