<svg width="16" height="16" viewBox="0 0 16 16" fill="none" xmlns="http://www.w3.org/2000/svg">
<path d="M12 2H4C2.89543 2 2 2.89543 2 4V12C2 13.1046 2.89543 14 4 14H12C13.1046 14 14 13.1046 14 12V4C14 2.89543 13.1046 2 12 2Z" fill="#2A7DEB"/>
<path d="M3.73112 11V5.16H5.72313C6.13379 5.16 6.49113 5.23733 6.79513 5.392C7.10446 5.54667 7.34179 5.76267 7.50713 6.04C7.67779 6.31733 7.76313 6.64267 7.76313 7.016C7.76313 7.384 7.67779 7.70933 7.50713 7.992C7.33646 8.26933 7.09913 8.48533 6.79513 8.64C6.49113 8.79467 6.13379 8.872 5.72313 8.872H4.93113V11H3.73112ZM4.93113 7.832H5.72313C5.97913 7.832 6.18179 7.75467 6.33113 7.6C6.48579 7.44533 6.56313 7.25067 6.56313 7.016C6.56313 6.78133 6.48579 6.58667 6.33113 6.432C6.18179 6.27733 5.97913 6.2 5.72313 6.2H4.93113V7.832ZM10.216 11.08C9.85333 11.08 9.536 11.024 9.264 10.912C8.992 10.7947 8.77867 10.6347 8.624 10.432C8.47467 10.2293 8.4 9.992 8.4 9.72H9.576C9.576 9.86933 9.632 9.98133 9.744 10.056C9.856 10.1307 10.0133 10.168 10.216 10.168H10.568C10.7867 10.168 10.9547 10.1307 11.072 10.056C11.1947 9.98133 11.256 9.87467 11.256 9.736C11.256 9.60267 11.208 9.50667 11.112 9.448C11.016 9.384 10.8693 9.34133 10.672 9.32L9.664 9.2C9.27467 9.152 8.976 9.008 8.768 8.768C8.56 8.52267 8.456 8.21867 8.456 7.856C8.456 7.41333 8.6 7.08 8.888 6.856C9.176 6.632 9.60267 6.52 10.168 6.52H10.544C11.0827 6.52 11.512 6.63733 11.832 6.872C12.152 7.10667 12.312 7.42133 12.312 7.816H11.136C11.136 7.688 11.0827 7.58933 10.976 7.52C10.8747 7.45067 10.7307 7.416 10.544 7.416H10.168C9.98133 7.416 9.84 7.45067 9.744 7.52C9.648 7.58933 9.6 7.68533 9.6 7.808C9.6 7.93067 9.64533 8.01333 9.736 8.056C9.832 8.09867 9.96533 8.13067 10.136 8.152L11.096 8.272C11.528 8.32533 11.8533 8.47733 12.072 8.728C12.2907 8.97867 12.4 9.30933 12.4 9.72C12.4 10.152 12.2453 10.488 11.936 10.728C11.6267 10.9627 11.1707 11.08 10.568 11.08H10.216Z" fill="white"/>
</svg>
