<svg width="16" height="16" viewBox="0 0 16 16" fill="none" xmlns="http://www.w3.org/2000/svg">
<path fill-rule="evenodd" clip-rule="evenodd" d="M1 6.99997C4.47501 6.99997 7.0056 8.73653 8.59298 11.4698C8.2709 6.38959 6.78172 2.7213 2 0.999878C6.96176 0.999878 10.0771 4.26307 11.346 8.88148C11.9199 7.71083 12.5578 6.99997 13.0001 6.99997C14.0001 6.99997 14.6241 7.49497 15.0001 8.99997C14.4541 8.43197 13.8991 7.85897 13.2271 8.04597C12.4817 8.25187 12.6438 10.3002 12.8098 12.3966C12.8816 13.3038 12.9541 14.2201 12.9541 15H10.0001C10.0001 14.9999 10.0001 14.9999 10.0001 14.9999H9.99998L10 15H5.26591C5.26591 12 4.80519 8.42797 1 6.99997Z" fill="#169068"/>
</svg>
