<svg width="16" height="16" viewBox="0 0 16 16" fill="none" xmlns="http://www.w3.org/2000/svg">
<path fill-rule="evenodd" clip-rule="evenodd" d="M13.7383 14.4454C13.2479 14.7946 12.6479 15 12 15C10.3431 15 9 13.6569 9 12C9 10.3431 10.3431 9 12 9C13.6569 9 15 10.3431 15 12C15 12.6479 14.7946 13.2479 14.4454 13.7383L15.8536 15.1464C16.0488 15.3417 16.0488 15.6583 15.8536 15.8536C15.6583 16.0488 15.3417 16.0488 15.1464 15.8536L13.7383 14.4454ZM14 12C14 13.1046 13.1046 14 12 14C10.8954 14 10 13.1046 10 12C10 10.8954 10.8954 10 12 10C13.1046 10 14 10.8954 14 12Z" fill="#090909"/>
<path fill-rule="evenodd" clip-rule="evenodd" d="M2 4C2 2.89543 2.89543 2 4 2H12C13.1046 2 14 2.89543 14 4V8.53513C13.4117 8.19479 12.7286 8 12 8V5V4H4V5V11V12H5H7.5H8C8 12.7286 8.19479 13.4117 8.53513 14H4C2.89543 14 2 13.1046 2 12V4ZM10.062 8.5C9.40641 8.86378 8.86378 9.40641 8.5 10.062V8.5H10.062ZM5 11H7.5V8.5H5L5 11ZM5 7.5H7.5V5H5V7.5ZM11 5V7.5H8.5V5H11Z" fill="#2A7DEB"/>
</svg>
