<svg width="16" height="16" viewBox="0 0 16 16" fill="none" xmlns="http://www.w3.org/2000/svg">
<path d="M14 2H2V14H14V2Z" fill="#F3DF49"/>
<path fill-rule="evenodd" clip-rule="evenodd" d="M9.82314 11.2423L8.8322 11.816C9.18857 12.5202 9.91881 13.0591 11.0489 13.0591C12.2051 13.0591 13.0657 12.4593 13.0657 11.364C13.0657 10.3469 12.4832 9.8949 11.4487 9.45152L11.1445 9.32114C10.623 9.0951 10.3969 8.9473 10.3969 8.58217C10.3969 8.28665 10.623 8.06063 10.9794 8.06063C11.3271 8.06063 11.5531 8.2084 11.7617 8.58217L12.7093 7.97368C12.3094 7.26952 11.7531 7 10.9794 7C9.8927 7 9.19725 7.6955 9.19725 8.60828C9.19725 9.5993 9.77972 10.0687 10.6578 10.4425L10.962 10.5729C11.5183 10.8163 11.8487 10.9641 11.8487 11.3813C11.8487 11.7291 11.5271 11.9812 11.0228 11.9812C10.423 11.9812 10.084 11.6683 9.82314 11.2423ZM4.52885 11.9464L4.52881 11.9464V11.9463C4.52882 11.9463 4.52883 11.9464 4.52885 11.9464ZM4.52885 11.9464C4.81572 12.5549 5.38083 13.059 6.35436 13.059C7.43236 13.059 8.17124 12.4853 8.17124 11.2248V7.06956H6.95422V11.2075C6.95422 11.816 6.7021 11.9724 6.3022 11.9724C5.88501 11.9724 5.71108 11.6856 5.51988 11.3466L4.52885 11.9464Z" fill="#2E2E2C"/>
</svg>
