<svg width="16" height="16" viewBox="0 0 16 16" fill="none" xmlns="http://www.w3.org/2000/svg">
<path d="M14.1057 12.2044C13.3843 12.3758 13.019 12.5336 12.1263 13.1152C10.7286 14.017 9.20457 14.4363 9.20457 14.4363C9.20457 14.4363 9.07833 14.6257 8.71311 14.7113C8.08188 14.8646 5.70572 14.9954 5.4893 14.9999C4.90766 15.0044 4.55146 14.8511 4.45227 14.6121C4.15018 13.8907 4.88512 13.5751 4.88512 13.5751C4.88512 13.5751 4.7228 13.4759 4.62811 13.3857C4.54245 13.3001 4.45227 13.1287 4.42522 13.1919C4.3125 13.4669 4.25388 14.1387 3.95179 14.4408C3.53698 14.8601 2.75244 14.7204 2.28803 14.4769C1.77854 14.2063 2.3241 13.5706 2.3241 13.5706C2.3241 13.5706 2.04907 13.7329 1.82813 13.3993C1.62974 13.0927 1.44488 12.5696 1.49448 11.9249C1.5576 11.1809 2.37821 10.4685 2.37821 10.4685C2.37821 10.4685 2.23393 9.3819 2.70735 8.26822C3.13569 7.25374 4.28995 6.43764 4.28995 6.43764C4.28995 6.43764 3.32055 5.36905 3.68126 4.39965C3.91572 3.76841 4.01041 3.77292 4.08706 3.74587C4.35758 3.64217 4.6191 3.52945 4.81298 3.31753C5.78237 2.27148 7.01779 2.46987 7.01779 2.46987C7.01779 2.46987 7.59492 0.697903 8.13598 1.04508C8.30281 1.15329 8.90248 2.48791 8.90248 2.48791C8.90248 2.48791 9.54274 2.11367 9.61488 2.25345C10.0026 3.00642 10.0477 4.44474 9.87639 5.31945C9.58782 6.76228 8.86641 7.53779 8.57785 8.02475C8.51021 8.13747 9.35336 8.49366 9.88541 9.96805C10.3769 11.3162 9.93951 12.4479 10.0162 12.5742C10.0297 12.5967 10.0342 12.6057 10.0342 12.6057C10.0342 12.6057 10.5978 12.6508 11.7295 11.9519C12.3337 11.5777 13.0506 11.1584 13.8667 11.1494C14.6557 11.1358 14.6963 12.0647 14.1057 12.2044Z" fill="#2C8EBB"/>
</svg>
