<svg width="16" height="16" viewBox="0 0 16 16" fill="none" xmlns="http://www.w3.org/2000/svg">
<path d="M12 2H4C2.89543 2 2 2.89543 2 4V12C2 13.1046 2.89543 14 4 14H12C13.1046 14 14 13.1046 14 12V4C14 2.89543 13.1046 2 12 2Z" fill="#E59408"/>
<path d="M3.40313 11L4.83513 5.16H6.35513L7.80313 11H6.57913L6.29913 9.68H4.90713L4.62713 11H3.40313ZM5.10713 8.72H6.09113L5.81113 7.312C5.77379 7.10933 5.73379 6.90933 5.69113 6.712C5.65379 6.50933 5.62446 6.352 5.60313 6.24C5.58179 6.352 5.55246 6.50667 5.51513 6.704C5.48313 6.90133 5.44579 7.10133 5.40313 7.304L5.10713 8.72ZM8.56 11V9.92H10.016V7.68H8.72V6.6H11.216V9.92H12.48V11H8.56ZM10.56 5.904C10.3413 5.904 10.1653 5.848 10.032 5.736C9.904 5.624 9.84 5.472 9.84 5.28C9.84 5.088 9.904 4.936 10.032 4.824C10.1653 4.712 10.3413 4.656 10.56 4.656C10.7787 4.656 10.952 4.712 11.08 4.824C11.2133 4.936 11.28 5.088 11.28 5.28C11.28 5.472 11.2133 5.624 11.08 5.736C10.952 5.848 10.7787 5.904 10.56 5.904Z" fill="black"/>
</svg>
