<svg width="16" height="16" viewBox="0 0 16 16" fill="none" xmlns="http://www.w3.org/2000/svg">
<path d="M15 11.3926C14.9984 11.5147 14.9638 11.6341 14.8997 11.738C14.8355 11.8418 14.7444 11.9264 14.636 11.9825L8.364 15.3733C8.25213 15.4335 8.12704 15.465 8 15.465C7.87296 15.465 7.74787 15.4335 7.636 15.3733L1.364 11.9825C1.25559 11.9264 1.16445 11.8418 1.10034 11.738C1.03624 11.6341 1.00155 11.5147 1 11.3926V4.6073C1.00155 4.48524 1.03624 4.36586 1.10034 4.26198C1.16445 4.15809 1.25559 4.07356 1.364 4.01743L7.636 0.626634C7.74787 0.566431 7.87296 0.534912 8 0.534912C8.12704 0.534912 8.25213 0.566431 8.364 0.626634L14.636 4.0193C14.7444 4.07542 14.8355 4.15996 14.8997 4.26385C14.9638 4.36773 14.9984 4.48711 15 4.60917V11.3926Z" fill="#88694B"/>
<path d="M10.5 6H5.5C5.5 9.983 6.5 11 6.957 11H9.043C9.5 11 10.5 9.983 10.5 6Z" fill="white"/>
<path d="M8.022 3C7.86581 3.11844 7.73791 3.27018 7.64763 3.44417C7.55735 3.61817 7.50691 3.8101 7.5 4.006C7.5 4.494 7.864 4.444 7.964 4.725C8.057 4.9754 8.05415 5.25157 7.956 5.5C8.10574 5.41094 8.23281 5.28837 8.32719 5.14193C8.42158 4.9955 8.48073 4.82915 8.5 4.656C8.5 4.299 8.074 4.238 8.014 3.861C7.98819 3.57444 7.99087 3.28603 8.022 3Z" fill="white"/>
<path d="M9.383 8.217C9.433 7.872 9.476 7.474 9.5 7H6.5C6.52282 7.74351 6.63223 8.48182 6.826 9.2C7.64353 8.78814 8.50011 8.45884 9.383 8.217Z" fill="#88694B"/>
<path d="M5.025 7H3V7.5H5.054C5.042 7.34 5.033 7.171 5.025 7Z" fill="white"/>
<path d="M5.164 8.5H3V9H5.25C5.219 8.842 5.19 8.675 5.164 8.5Z" fill="white"/>
<path d="M10.75 9H13V8.5H10.836C10.81 8.675 10.781 8.842 10.75 9Z" fill="white"/>
<path d="M10.9753 7C10.9673 7.171 10.9583 7.34 10.9463 7.5H13.0003V7H10.9753Z" fill="white"/>
</svg>
