<svg width="16" height="16" viewBox="0 0 16 16" fill="none" xmlns="http://www.w3.org/2000/svg">
<path d="M4.50069 12.12C3.94069 12.12 3.44869 12.016 3.02469 11.808C2.60869 11.592 2.28469 11.292 2.05269 10.908C1.82869 10.516 1.71669 10.056 1.71669 9.528V5.712C1.71669 5.176 1.82869 4.716 2.05269 4.332C2.28469 3.948 2.60869 3.652 3.02469 3.444C3.44869 3.228 3.94069 3.12 4.50069 3.12C5.06869 3.12 5.55669 3.228 5.96469 3.444C6.38069 3.652 6.70469 3.952 6.93669 4.344C7.16869 4.728 7.28469 5.184 7.28469 5.712H5.77269C5.77269 5.296 5.66069 4.98 5.43669 4.764C5.22069 4.548 4.90869 4.44 4.50069 4.44C4.09269 4.44 3.77669 4.548 3.55269 4.764C3.32869 4.98 3.21669 5.296 3.21669 5.712V9.528C3.21669 9.936 3.32869 10.252 3.55269 10.476C3.77669 10.692 4.09269 10.8 4.50069 10.8C4.90869 10.8 5.22069 10.692 5.43669 10.476C5.66069 10.252 5.77269 9.936 5.77269 9.528H7.28469C7.28469 10.048 7.16869 10.504 6.93669 10.896C6.70469 11.288 6.38069 11.592 5.96469 11.808C5.55669 12.016 5.06869 12.12 4.50069 12.12ZM8.924 12L9.332 9.72H8.42V8.7H9.5L9.872 6.54H8.84V5.52H10.052L10.46 3.24H11.516L11.108 5.52H12.812L13.22 3.24H14.276L13.868 5.52H14.78V6.54H13.688L13.316 8.7H14.36V9.72H13.136L12.74 12H11.684L12.092 9.72H10.376L9.98 12H8.924ZM10.556 8.7H12.26L12.632 6.54H10.928L10.556 8.7Z" fill="#169068"/>
</svg>
