<svg width="16" height="16" viewBox="0 0 16 16" fill="none" xmlns="http://www.w3.org/2000/svg">
<path fill-rule="evenodd" clip-rule="evenodd" d="M11.6177 9.18263H11.9655V10.0174H9.73956V9.18263H10.0874C10.296 9.18263 10.5047 9.11307 10.6438 8.97395L10.8525 8.76527L12.1046 6.88714L10.6438 4.73076C10.6219 4.68692 10.6069 4.65689 10.5836 4.63632C10.5328 4.59164 10.4427 4.59164 10.1569 4.59164H9.80912V3.6178H12.3133V4.59164H12.1046L13.0089 5.70461L13.8436 4.52208L13.9132 4.45252H13.5654V3.6178H15.7218V4.52208H15.374C14.9693 4.52208 14.8048 4.71429 14.6809 4.85908C14.6558 4.8885 14.6323 4.91595 14.6088 4.93945L13.4958 6.53934L15.1653 8.97395C15.2348 9.11307 15.2348 9.11307 15.6522 9.11307H16V9.9478H13.4958V9.18263H13.7045L12.6611 7.6523L11.6177 9.18263ZM2.36506 9.11285H1.39121V10.0171H4.45187V9.11285H3.54759V4.59142H3.82583C4.66055 4.59142 4.79967 4.66098 4.93879 5.28703H5.77352L5.6344 3.68713H0.208682L0 6.19131H0.834726V5.84351C0.973847 4.66098 1.04341 4.59142 2.08681 4.59142H2.36506V9.11285ZM7.86411 11.617H6.68158V9.66935H7.09894C7.58587 9.66935 7.58587 9.66935 7.58587 10.2954V10.6432H8.42059V7.79122H7.58587V8.13902C7.58587 8.4782 7.58587 8.63362 7.50843 8.70484C7.44294 8.76507 7.32206 8.76507 7.09894 8.76507H6.68158V7.09561H7.79455C8.83796 7.09561 8.90752 7.37385 8.97708 8.3477H9.8118L9.60312 6.12177H4.73389V7.02605H5.42949V11.4779H4.73389V12.3822H9.67268L9.95092 10.5736H9.04664C9.04664 11.3388 8.7684 11.617 7.86411 11.617Z" fill="#169068"/>
</svg>
