<svg width="16" height="16" viewBox="0 0 16 16" fill="none" xmlns="http://www.w3.org/2000/svg">
<path d="M6.20088 7.16698C6.53688 7.17631 6.80288 7.06898 6.99888 6.84498C7.19955 6.62565 7.29988 6.32931 7.29988 5.95598L7.29988 5.25598L8.75588 5.25598L8.75588 5.95598C8.75588 6.32931 8.85622 6.62565 9.05688 6.84498C9.26222 7.06898 9.53288 7.17631 9.86888 7.16698L11.4719 7.13198C11.9525 7.11798 12.3749 7.22531 12.7389 7.45398C13.1029 7.68265 13.3829 8.00931 13.5789 8.43398C13.7795 8.85865 13.8799 9.35331 13.8799 9.91798L13.8799 10.744L12.4799 10.744L12.4799 10.009C12.4799 9.57965 12.3585 9.23898 12.1159 8.98698C11.8732 8.73965 11.5489 8.61831 11.1429 8.62298L9.65188 8.65098C9.18522 8.66498 8.80955 8.53198 8.52488 8.25198C8.24022 7.97665 8.08155 7.60331 8.04888 7.13198C7.96488 7.59865 7.77588 7.97198 7.48188 8.25198C7.18788 8.53198 6.82855 8.66498 6.40388 8.65098L4.73088 8.62298C4.35288 8.61365 4.05655 8.72331 3.84188 8.95198C3.62722 9.18531 3.51988 9.50265 3.51988 9.90398L3.51988 10.744L2.11988 10.744L2.11988 9.81298C2.11988 9.28565 2.21322 8.81665 2.39988 8.40598C2.58655 7.99998 2.85255 7.68265 3.19788 7.45398C3.53855 7.22998 3.93522 7.12265 4.38788 7.13198L6.20088 7.16698Z" fill="#090909"/>
</svg>
