<svg width="16" height="16" viewBox="0 0 16 16" fill="none" xmlns="http://www.w3.org/2000/svg">
<path fill-rule="evenodd" clip-rule="evenodd" d="M10.1617 2.51134L9.97557 3.18613L7.21695 13.1861L7.0308 13.8609L5.68121 13.4886L5.86736 12.8138L8.62598 2.81383L8.81213 2.13904L10.1617 2.51134ZM5.87661 6.01429L5.30699 6.42116L2.60445 8.35155L5.30699 10.2819L5.87661 10.6888L5.06287 11.828L4.49326 11.4212L0.99326 8.92116L0.195801 8.35155L0.99326 7.78193L4.49326 5.28193L5.06287 4.87507L5.87661 6.01429ZM10.6932 6.42116L10.1236 6.01429L10.9373 4.87507L11.5069 5.28193L15.0069 7.78193L15.8044 8.35155L15.0069 8.92116L11.5069 11.4212L10.9373 11.828L10.1236 10.6888L10.6932 10.2819L13.3958 8.35155L10.6932 6.42116Z" fill="#E59408"/>
</svg>
