<svg width="16" height="16" viewBox="0 0 16 16" fill="none" xmlns="http://www.w3.org/2000/svg">
<path fill-rule="evenodd" clip-rule="evenodd" d="M11.653 3.21718C11.568 2.81968 11.4043 2.58026 11.1977 2.461C10.9911 2.34174 10.7019 2.31963 10.3152 2.44475C9.92845 2.56986 9.47743 2.83301 8.99082 3.2285C8.80282 3.3813 8.6114 3.5523 8.41833 3.74016C8.82036 4.17471 9.2208 4.67043 9.60685 5.21616C10.2726 5.27763 10.9022 5.37659 11.4796 5.50751C11.5458 5.2464 11.5982 4.99516 11.6365 4.75597C11.7357 4.13681 11.7381 3.61463 11.653 3.21718ZM7.00879 3.22863C7.19676 3.38139 7.38813 3.55235 7.58116 3.74017C7.17915 4.17471 6.77873 4.67041 6.3927 5.21612C5.72697 5.27758 5.09735 5.37651 4.51993 5.50741C4.4538 5.24638 4.40145 4.99522 4.36314 4.7561C4.26394 4.13693 4.26155 3.61476 4.34656 3.2173C4.43159 2.81981 4.59534 2.58038 4.80191 2.46112C5.00847 2.34186 5.2977 2.31976 5.68445 2.44488C6.07116 2.56998 6.52218 2.83314 7.00879 3.22863ZM7.38722 2.76301C7.5895 2.92742 7.79424 3.11034 7.99974 3.31031C8.20528 3.1103 8.41007 2.92733 8.6124 2.76289C9.13228 2.34036 9.64861 2.02977 10.1305 1.87388C10.6123 1.71801 11.0929 1.70766 11.4977 1.94138C11.9025 2.1751 12.1339 2.59647 12.2398 3.09168C12.3457 3.58694 12.3349 4.18939 12.2289 4.85089C12.1877 5.1083 12.1316 5.37712 12.0612 5.65511C12.337 5.73307 12.5977 5.8189 12.8411 5.91184C13.467 6.15081 13.9941 6.44267 14.3701 6.78204C14.746 7.12138 14.9952 7.5324 14.9952 7.99984C14.9952 8.46728 14.746 8.8783 14.3701 9.21764C13.9941 9.55701 13.467 9.84887 12.8411 10.0878C12.5976 10.1808 12.3369 10.2666 12.061 10.3446C12.1315 10.6226 12.1875 10.8914 12.2288 11.1488C12.3347 11.8103 12.3456 12.4128 12.2396 12.908C12.1337 13.4032 11.9024 13.8246 11.4976 14.0583C11.0927 14.2921 10.6122 14.2817 10.1303 14.1258C9.64846 13.9699 9.13213 13.6594 8.61225 13.2368C8.40997 13.0724 8.20523 12.8895 7.99974 12.6896C7.79429 12.8895 7.5896 13.0723 7.38737 13.2367C6.86748 13.6592 6.35115 13.9698 5.86928 14.1257C5.38745 14.2816 4.90687 14.2919 4.50205 14.0582C4.09724 13.8245 3.86591 13.4031 3.75999 12.9079C3.65405 12.4127 3.66486 11.8102 3.77084 11.1487C3.81207 10.8914 3.86811 10.6226 3.93851 10.3447C3.66249 10.2667 3.4016 10.1808 3.15801 10.0878C2.53214 9.84887 2.005 9.55701 1.62906 9.21764C1.25315 8.8783 1.00391 8.46728 1.00391 7.99984C1.00391 7.5324 1.25315 7.12138 1.62906 6.78204C2.005 6.44267 2.53214 6.15081 3.15801 5.91184C3.40156 5.81885 3.6624 5.73298 3.93837 5.65499C3.86796 5.37709 3.81192 5.10835 3.7707 4.85101C3.66471 4.18952 3.6539 3.58706 3.75984 3.09181C3.86576 2.59659 4.09709 2.17523 4.50191 1.94151C4.90672 1.70779 5.3873 1.71813 5.86913 1.87401C6.351 2.0299 6.86733 2.34048 7.38722 2.76301ZM10.045 5.86709C10.4927 5.92299 10.9182 5.99663 11.3155 6.08559C11.1939 6.47419 11.0449 6.87945 10.8695 7.29514C10.745 7.05459 10.6129 6.81309 10.4736 6.57166C10.3342 6.33024 10.1911 6.09516 10.045 5.86709ZM11.8982 6.23255C11.7229 6.79805 11.4937 7.39276 11.2141 8.00002C11.4937 8.60717 11.7227 9.20177 11.8981 9.76717C12.1572 9.69393 12.4009 9.61369 12.6271 9.52731C13.2129 9.30364 13.6663 9.04462 13.968 8.77227C14.2697 8.49989 14.3952 8.23836 14.3952 7.99984C14.3952 7.76132 14.2697 7.49979 13.968 7.22741C13.6663 6.95506 13.2129 6.69604 12.6271 6.47237C12.4009 6.38601 12.1573 6.30578 11.8982 6.23255ZM9.95394 6.87166C10.1726 7.25031 10.3717 7.62782 10.5509 8.00001C10.3718 8.37211 10.1726 8.74951 9.95409 9.12806C9.73549 9.50668 9.50815 9.8679 9.27544 10.2092C8.86345 10.2401 8.43686 10.2564 7.99956 10.2564C7.56241 10.2564 7.13597 10.2401 6.72411 10.2092C6.49142 9.86796 6.26411 9.50677 6.04553 9.12818C5.82695 8.74959 5.62781 8.37215 5.44862 8.00001C5.62785 7.62778 5.82704 7.25023 6.04567 6.87153C6.26427 6.49292 6.49159 6.13172 6.72429 5.79046C7.13609 5.75958 7.56248 5.74332 7.99956 5.74332C8.43679 5.74332 8.86332 5.75959 9.27526 5.79049C9.50798 6.13178 9.73533 6.49301 9.95394 6.87166ZM10.4737 9.42806C10.3343 9.66945 10.1912 9.90451 10.0452 10.1326C10.4928 10.0767 10.9181 10.0031 11.3154 9.91413C11.1938 9.52562 11.0449 9.12047 10.8694 8.7049C10.745 8.94535 10.613 9.18673 10.4737 9.42806ZM7.99956 10.8564C8.2784 10.8564 8.55362 10.85 8.82425 10.8375C8.55197 11.1973 8.27547 11.5289 7.99975 11.8286C7.72404 11.5289 7.44755 11.1973 7.17529 10.8375C7.44578 10.85 7.72086 10.8564 7.99956 10.8564ZM9.60704 10.7835C9.22093 11.3293 8.82043 11.8251 8.41834 12.2597C8.61136 12.4475 8.80272 12.6185 8.99067 12.7712C9.47728 13.1667 9.9283 13.4299 10.315 13.555C10.7018 13.6801 10.991 13.658 11.1976 13.5387C11.4041 13.4195 11.5679 13.18 11.6529 12.7825C11.7379 12.3851 11.7355 11.8629 11.6363 11.2437C11.598 11.0046 11.5456 10.7533 11.4795 10.4922C10.9022 10.6231 10.2727 10.722 9.60704 10.7835ZM6.39252 10.7835C6.7786 11.3293 7.17909 11.8251 7.58115 12.2597C7.38818 12.4475 7.19685 12.6184 7.00894 12.7711C6.52233 13.1666 6.07131 13.4297 5.6846 13.5548C5.29784 13.68 5.00862 13.6579 4.80205 13.5386C4.59549 13.4193 4.43173 13.1799 4.34671 12.7824C4.2617 12.385 4.26409 11.8628 4.36329 11.2436C4.4016 11.0045 4.45395 10.7533 4.52008 10.4923C5.09741 10.6232 5.72691 10.7221 6.39252 10.7835ZM5.9544 10.1326C5.50678 10.0767 5.08144 10.0031 4.68414 9.91422C4.80578 9.52569 4.95469 9.12051 5.13011 8.70491C5.25456 8.94539 5.38656 9.18682 5.52591 9.42818C5.66527 9.66955 5.80835 9.90459 5.9544 10.1326ZM5.52606 6.57153C5.38665 6.813 5.25459 7.05453 5.13009 7.29512C4.95462 6.87941 4.80566 6.47412 4.68399 6.08549C5.08139 5.99655 5.50684 5.92292 5.95459 5.86703C5.80853 6.09508 5.66543 6.33014 5.52606 6.57153ZM4.10148 9.76729C4.27679 9.20186 4.50586 8.60721 4.78544 8.00002C4.5058 7.39272 4.27667 6.79796 4.10133 6.23243C3.84212 6.30569 3.59834 6.38596 3.37203 6.47237C2.78622 6.69604 2.33281 6.95506 2.03111 7.22741C1.72938 7.49979 1.60391 7.76132 1.60391 7.99984C1.60391 8.23836 1.72938 8.49989 2.03111 8.77227C2.33281 9.04462 2.78622 9.30364 3.37203 9.52731C3.59838 9.61374 3.84221 9.69402 4.10148 9.76729ZM7.99956 5.14332C7.72092 5.14332 7.4459 5.14971 7.17547 5.16217C7.44767 4.80246 7.7241 4.4709 7.99975 4.1713C8.27541 4.47091 8.55185 4.80247 8.82406 5.16219C8.5535 5.14972 8.27834 5.14332 7.99956 5.14332ZM9.24731 7.99998C9.24731 8.68914 8.68864 9.24781 7.99949 9.24781C7.31033 9.24781 6.75166 8.68914 6.75166 7.99998C6.75166 7.31083 7.31033 6.75216 7.99949 6.75216C8.68864 6.75216 9.24731 7.31083 9.24731 7.99998Z" fill="#3FA1C4"/>
</svg>
