<svg width="16" height="16" viewBox="0 0 16 16" fill="none" xmlns="http://www.w3.org/2000/svg">
<path fill-rule="evenodd" clip-rule="evenodd" d="M13.1 2H11.9V3.9001L10.0001 3.9001V5.1001H11.9V7H13.1V5.1001H15.0001V3.9001L13.1 3.9001V2ZM13.1 9H11.9V10.9001H10.0001V12.1001H11.9V14H13.1V12.1001H15.0001V10.9001L13.1 10.9001V9ZM3.12245 10.808C3.54645 11.016 4.03845 11.12 4.59845 11.12C5.16645 11.12 5.65445 11.016 6.06245 10.808C6.47845 10.592 6.80245 10.288 7.03445 9.896C7.26645 9.504 7.38245 9.048 7.38245 8.528H5.87045C5.87045 8.936 5.75845 9.252 5.53445 9.476C5.31845 9.692 5.00645 9.8 4.59845 9.8C4.19045 9.8 3.87445 9.692 3.65045 9.476C3.42645 9.252 3.31445 8.936 3.31445 8.528V4.712C3.31445 4.296 3.42645 3.98 3.65045 3.764C3.87445 3.548 4.19045 3.44 4.59845 3.44C5.00645 3.44 5.31845 3.548 5.53445 3.764C5.75845 3.98 5.87045 4.296 5.87045 4.712H7.38245C7.38245 4.184 7.26645 3.728 7.03445 3.344C6.80245 2.952 6.47845 2.652 6.06245 2.444C5.65445 2.228 5.16645 2.12 4.59845 2.12C4.03845 2.12 3.54645 2.228 3.12245 2.444C2.70645 2.652 2.38245 2.948 2.15045 3.332C1.92645 3.716 1.81445 4.176 1.81445 4.712V8.528C1.81445 9.056 1.92645 9.516 2.15045 9.908C2.38245 10.292 2.70645 10.592 3.12245 10.808Z" fill="#E59408"/>
</svg>
