<svg width="16" height="16" viewBox="0 0 16 16" fill="none" xmlns="http://www.w3.org/2000/svg">
<path fill-rule="evenodd" clip-rule="evenodd" d="M4 3H12C12.5523 3 13 3.44772 13 4V12C13 12.2891 12.8773 12.5496 12.6811 12.7322L5.85742 7L3 10V4C3 3.44772 3.44772 3 4 3ZM2 4C2 2.89543 2.89543 2 4 2H12C13.1046 2 14 2.89543 14 4V12C14 13.1046 13.1046 14 12 14H4C2.89543 14 2 13.1046 2 12V4ZM11.5 6C11.5 6.82843 10.8284 7.5 10 7.5C9.17157 7.5 8.5 6.82843 8.5 6C8.5 5.17157 9.17157 4.5 10 4.5C10.8284 4.5 11.5 5.17157 11.5 6Z" fill="#A660D4"/>
</svg>
