<svg width="16" height="16" viewBox="0 0 16 16" fill="none" xmlns="http://www.w3.org/2000/svg">
<path d="M12.7096 3.21855C11.5087 1.48889 9.11807 0.982113 7.39942 2.07279L4.36976 4.01177C3.54349 4.52957 2.97061 5.37788 2.80535 6.33635C2.66213 7.14059 2.78332 7.96686 3.16891 8.68296C2.90451 9.07957 2.72824 9.52025 2.65112 9.98296C2.47485 10.9635 2.7062 11.977 3.27908 12.7813C4.49095 14.5109 6.87061 15.0177 8.58925 13.927L11.6189 11.9991C12.4452 11.4813 13.0181 10.633 13.1833 9.67449C13.3265 8.87025 13.2054 8.04398 12.8198 7.32788C13.0842 6.93127 13.2604 6.49059 13.3376 6.02788C13.5248 5.03635 13.2935 4.02279 12.7096 3.21855Z" fill="#FF3E00"/>
<path d="M7.10198 12.9466C6.12148 13.2 5.0969 12.8144 4.52402 11.9882C4.17148 11.5034 4.03927 10.8975 4.13843 10.3026C4.16046 10.2034 4.18249 10.1153 4.20453 10.0161L4.25961 9.83986L4.41385 9.95003C4.77741 10.2144 5.17402 10.4127 5.60368 10.5449L5.71385 10.578L5.70283 10.6882C5.69182 10.8424 5.73588 11.0077 5.82402 11.1399C6.00029 11.3933 6.30876 11.5144 6.60622 11.4373C6.67232 11.4153 6.73843 11.3933 6.79351 11.3602L9.81215 9.43224C9.96639 9.33309 10.0655 9.18986 10.0986 9.01359C10.1316 8.83732 10.0876 8.65003 9.98843 8.50681C9.81215 8.25342 9.50368 8.14325 9.20622 8.22037C9.14012 8.24241 9.07402 8.26444 9.01893 8.29749L7.86215 9.03563C7.67487 9.15681 7.46554 9.24495 7.2452 9.30003C6.2647 9.55342 5.24012 9.16783 4.66724 8.34156C4.32571 7.85681 4.18249 7.25088 4.29266 6.65597C4.39181 6.08309 4.74436 5.56529 5.24012 5.25681L8.26978 3.32885C8.45707 3.20766 8.66639 3.11953 8.88673 3.05342C9.86724 2.80003 10.8918 3.18563 11.4647 4.0119C11.8172 4.49664 11.9494 5.10258 11.8503 5.69749C11.8283 5.79664 11.8062 5.88478 11.7732 5.98393L11.7181 6.1602L11.5638 6.05003C11.2003 5.78563 10.8037 5.58732 10.374 5.45512L10.2638 5.42207L10.2749 5.3119C10.2859 5.15766 10.2418 4.99241 10.1537 4.8602C9.97741 4.60681 9.66893 4.49664 9.37148 4.57376C9.30537 4.5958 9.23927 4.61783 9.18419 4.65088L6.16554 6.57885C6.01131 6.678 5.91215 6.82122 5.8791 6.99749C5.84605 7.17376 5.89012 7.36105 5.98927 7.50427C6.16554 7.75766 6.47402 7.86783 6.77148 7.79071C6.83758 7.76868 6.90368 7.74664 6.95876 7.71359L8.11554 6.97546C8.30283 6.85427 8.51215 6.76614 8.73249 6.70003C9.713 6.44664 10.7376 6.83224 11.3105 7.65851C11.663 8.14325 11.7952 8.74919 11.6961 9.3441C11.5969 9.91698 11.2444 10.4348 10.7486 10.7433L7.71893 12.6712C7.53165 12.7924 7.32232 12.8805 7.10198 12.9466Z" fill="white"/>
</svg>
