<svg width="16" height="16" viewBox="0 0 16 16" fill="none" xmlns="http://www.w3.org/2000/svg">
<path fill-rule="evenodd" clip-rule="evenodd" d="M3.21124 6.22024C3.59674 4.95034 4.912 3.85052 4.912 3.85052C4.99136 3.75981 3.85752 3.79383 2.93911 4.22469C2.17944 4.59885 0.444665 6.49237 0.501357 6.61709C0.532974 6.68665 0.804393 6.93253 1.08158 7.18363C1.30141 7.38278 1.52487 7.58521 1.6352 7.70558C1.68066 7.75428 1.75215 7.92202 1.8409 8.13022C2.06204 8.64903 2.39029 9.41911 2.68967 9.22492C2.83645 9.12895 2.87079 8.6985 2.91586 8.1337C2.96131 7.56411 3.01767 6.85787 3.21124 6.22024ZM11.088 3.85052C11.088 3.85052 12.4033 4.95034 12.7888 6.22024C12.9823 6.85787 13.0387 7.56411 13.0841 8.1337C13.1292 8.6985 13.1636 9.12895 13.3103 9.22492C13.6097 9.41911 13.938 8.64903 14.1591 8.13022C14.2478 7.92202 14.3193 7.75428 14.3648 7.70558C14.4751 7.58522 14.6986 7.3828 14.9184 7.18366L14.9184 7.18363C15.1956 6.93253 15.467 6.68665 15.4986 6.61709C15.5553 6.49237 13.8206 4.59885 13.0609 4.22469C12.1425 3.79383 11.0086 3.75981 11.088 3.85052ZM11.084 11.6562C11.9779 10.7727 12.5368 9.18076 12.5368 8.02436C12.5368 5.73203 10.2634 3.87372 7.97106 3.87372C5.67873 3.87372 3.40537 5.73203 3.40537 8.02436C3.40537 9.18076 3.96426 10.7727 4.85809 11.6562C5.05265 11.8485 5.30597 11.9723 5.59574 12.0514V10.8183C5.59574 10.459 5.74447 10.1157 6.00662 9.86989L7.08193 8.86178C7.58199 8.39298 8.36012 8.39298 8.86018 8.86178L9.9355 9.86989C10.1976 10.1157 10.3464 10.459 10.3464 10.8183V12.0597C10.632 11.9798 10.8843 11.8535 11.084 11.6562ZM9.74637 12.164V10.8183C9.74637 10.6248 9.66629 10.4399 9.52513 10.3076L8.44981 9.29951C8.18055 9.04708 7.76156 9.04707 7.4923 9.29951L6.41698 10.3076C6.27583 10.4399 6.19574 10.6248 6.19574 10.8183V12.1549C6.60431 12.1939 7.04722 12.1869 7.48114 12.1801H7.48122H7.4813H7.48138H7.48147C7.64677 12.1776 7.81077 12.175 7.97106 12.175C8.14904 12.175 8.33093 12.1788 8.51376 12.1826H8.51377H8.51378C8.93156 12.1913 9.35425 12.2002 9.74637 12.164ZM11.6028 7.05077C11.6028 7.56655 11.1847 7.98467 10.6689 7.98467C10.1531 7.98467 9.73502 7.56655 9.73502 7.05077C9.73502 6.535 10.1531 6.11688 10.6689 6.11688C11.1847 6.11688 11.6028 6.535 11.6028 7.05077ZM5.27315 7.98454C5.78892 7.98454 6.20704 7.56642 6.20704 7.05065C6.20704 6.53487 5.78892 6.11675 5.27315 6.11675C4.75737 6.11675 4.33925 6.53487 4.33925 7.05065C4.33925 7.56642 4.75737 7.98454 5.27315 7.98454Z" fill="#A660D4"/>
</svg>
