<svg width="16" height="16" viewBox="0 0 16 16" fill="none" xmlns="http://www.w3.org/2000/svg">
<path d="M2.33527 11.09C1.64527 11.09 1.09627 10.904 0.688273 10.532C0.286273 10.154 0.0852735 9.647 0.0852735 9.011H1.43527C1.43527 9.287 1.51627 9.509 1.67827 9.677C1.84027 9.839 2.05927 9.92 2.33527 9.92C2.61127 9.92 2.83027 9.842 2.99227 9.686C3.15427 9.524 3.23527 9.305 3.23527 9.029V4.43H4.58527V9.029C4.58527 9.665 4.38427 10.169 3.98227 10.541C3.58027 10.907 3.03127 11.09 2.33527 11.09ZM8.01976 11.09C7.55776 11.09 7.15276 11.009 6.80476 10.847C6.46276 10.685 6.19576 10.457 6.00376 10.163C5.81776 9.863 5.72476 9.512 5.72476 9.11H7.03876C7.03876 9.356 7.12576 9.554 7.29976 9.704C7.47976 9.848 7.71976 9.92 8.01976 9.92C8.31376 9.92 8.54176 9.851 8.70376 9.713C8.87176 9.569 8.95576 9.38 8.95576 9.146C8.95576 8.96 8.90176 8.795 8.79376 8.651C8.68576 8.501 8.52676 8.402 8.31676 8.354L7.51576 8.165C6.99976 8.045 6.58876 7.814 6.28276 7.472C5.98276 7.124 5.83276 6.71 5.83276 6.23C5.83276 5.84 5.91676 5.504 6.08476 5.222C6.25876 4.94 6.50476 4.724 6.82276 4.574C7.14676 4.418 7.52776 4.34 7.96576 4.34C8.40976 4.34 8.79076 4.418 9.10876 4.574C9.43276 4.724 9.68176 4.94 9.85576 5.222C10.0358 5.504 10.1258 5.837 10.1258 6.221H8.81176C8.81176 5.993 8.73676 5.816 8.58676 5.69C8.43676 5.558 8.22976 5.492 7.96576 5.492C7.70776 5.492 7.50676 5.555 7.36276 5.681C7.21876 5.807 7.14676 5.975 7.14676 6.185C7.14676 6.359 7.20076 6.5 7.30876 6.608C7.41676 6.716 7.56976 6.794 7.76776 6.842L8.59576 7.031C9.11176 7.145 9.51976 7.394 9.81976 7.778C10.1258 8.156 10.2788 8.612 10.2788 9.146C10.2788 9.536 10.1858 9.878 9.99976 10.172C9.81976 10.466 9.55876 10.694 9.21676 10.856C8.88076 11.012 8.48176 11.09 8.01976 11.09ZM11.2922 11V4.43H13.5332C13.9952 4.43 14.3972 4.517 14.7392 4.691C15.0872 4.865 15.3542 5.108 15.5402 5.42C15.7322 5.732 15.8282 6.098 15.8282 6.518C15.8282 6.932 15.7322 7.298 15.5402 7.616C15.3482 7.928 15.0812 8.171 14.7392 8.345C14.3972 8.519 13.9952 8.606 13.5332 8.606H12.6422V11H11.2922ZM12.6422 7.436H13.5332C13.8212 7.436 14.0492 7.349 14.2172 7.175C14.3912 7.001 14.4782 6.782 14.4782 6.518C14.4782 6.254 14.3912 6.035 14.2172 5.861C14.0492 5.687 13.8212 5.6 13.5332 5.6H12.6422V7.436Z" fill="#E59408"/>
</svg>
