<svg width="16" height="16" viewBox="0 0 16 16" fill="none" xmlns="http://www.w3.org/2000/svg">
<rect x="2" y="2" width="12" height="12" rx="2" fill="#E59408"/>
<path fill-rule="evenodd" clip-rule="evenodd" d="M2 11.7742V6.05977L2.4393 5.62047C3.00958 5.05018 3.94888 5.05018 4.51917 5.62047L5.9393 7.0406C6.0623 7.1636 6.21885 7.25306 6.39776 7.29779C7.05751 7.4767 7.67252 7.7898 8.23163 8.19236C8.3099 8.24827 8.39936 8.27063 8.47764 8.27063C8.70128 8.27063 8.90256 8.1029 8.90256 7.84571V6.38085C8.90256 6.05657 9.10383 5.77702 9.3722 5.65402C9.31629 5.41919 10.2332 4.45753 10.1661 5.41919C10.1661 5.48629 10.155 5.56456 10.1438 5.63165C10.1438 5.63165 12 6.03421 12 6.26903V6.48149C12 6.73868 11.7875 6.95114 11.5304 6.95114H11.0495C10.6805 6.95114 10.3786 7.25306 10.3786 7.62207V8.539C10.3786 9.72431 9.40575 10.7419 8.20927 10.7419C7.40415 10.7419 6.75559 11.3904 6.75559 12.1955L6.63638 14H5.6759L5.57029 12.4527C5.57029 11.9048 5.123 11.4463 4.5639 11.4463H3.15495C2.74307 11.4463 2.34601 11.5649 2 11.7742Z" fill="white"/>
</svg>
