<svg width="16" height="16" viewBox="0 0 16 16" fill="none" xmlns="http://www.w3.org/2000/svg">
<path d="M2 2H14V14H2V2Z" fill="#DD4B39"/>
<g filter="url(#filter0_i_8519_10002)">
<path d="M9.11835 13.0005H7.76135L7.09269 11.7288H6.20113V13.0005H5.00146V8.4051H7.06646C8.2858 8.4051 8.98069 8.9951 8.98069 10.0178C8.98069 10.7126 8.69224 11.224 8.16124 11.4993L9.11835 13.0005ZM6.20169 9.36165V10.7711H7.07358C7.55869 10.7711 7.84058 10.522 7.84058 10.0565C7.84058 9.60421 7.55869 9.36165 7.07358 9.36165H6.20169ZM9.74824 8.40454H13.3724V9.36165H10.9468V10.2204H13.1364V11.1704L10.9468 11.177V12.0423H13.4379V13.0005H9.74713L9.74824 8.40454Z" fill="white"/>
</g>
<defs>
<filter id="filter0_i_8519_10002" x="5.00146" y="8.40454" width="8.43652" height="4.70706" filterUnits="userSpaceOnUse" color-interpolation-filters="sRGB">
<feFlood flood-opacity="0" result="BackgroundImageFix"/>
<feBlend mode="normal" in="SourceGraphic" in2="BackgroundImageFix" result="shape"/>
<feColorMatrix in="SourceAlpha" type="matrix" values="0 0 0 0 0 0 0 0 0 0 0 0 0 0 0 0 0 0 127 0" result="hardAlpha"/>
<feOffset dy="0.111111"/>
<feGaussianBlur stdDeviation="0.111111"/>
<feComposite in2="hardAlpha" operator="arithmetic" k2="-1" k3="1"/>
<feColorMatrix type="matrix" values="0 0 0 0 0 0 0 0 0 0 0 0 0 0 0 0 0 0 0.02 0"/>
<feBlend mode="normal" in2="shape" result="effect1_innerShadow_8519_10002"/>
</filter>
</defs>
</svg>
