<svg width="16" height="16" viewBox="0 0 16 16" fill="none" xmlns="http://www.w3.org/2000/svg">
<path d="M14.2388 3.50678C13.8317 3.09962 13.2823 2.86652 12.7066 2.85665C12.131 2.84678 11.5739 3.06091 11.1531 3.45388C11.132 3.47393 11.1152 3.49807 11.1037 3.52482C11.0923 3.55157 11.0863 3.58038 11.0863 3.60948C11.0863 3.63859 11.0923 3.6674 11.1037 3.69415C11.1152 3.7209 11.132 3.74503 11.1531 3.76509L11.4207 4.03896C11.4569 4.07494 11.5049 4.09663 11.5557 4.10006C11.6066 4.1035 11.6571 4.08843 11.6977 4.05764C11.9544 3.85262 12.2804 3.75477 12.6075 3.78455C12.9347 3.81432 13.2376 3.96942 13.4531 4.21741C13.6685 4.4654 13.7797 4.78708 13.7635 5.11517C13.7472 5.44326 13.6047 5.75237 13.3659 5.97785C11.6028 7.73934 9.25 2.80032 3.9095 5.34608C3.81937 5.38938 3.73919 5.45088 3.67401 5.52672C3.60884 5.60256 3.5601 5.69109 3.53085 5.78671C3.50161 5.88234 3.49251 5.98298 3.50411 6.0823C3.51572 6.18162 3.54778 6.27746 3.59829 6.36376L4.51482 7.9463C4.60972 8.11137 4.76598 8.23227 4.94958 8.28269C5.13318 8.3331 5.32927 8.30896 5.49516 8.21551L5.51694 8.20306L5.49983 8.21551L5.9013 7.99143C6.35398 7.71037 6.7819 7.39126 7.1804 7.03755C7.21985 7.00159 7.27083 6.9809 7.32417 6.97918C7.37752 6.97747 7.42972 6.99486 7.47139 7.02821C7.49392 7.04711 7.5122 7.07055 7.52503 7.09701C7.53786 7.12347 7.54494 7.15234 7.54582 7.18173C7.54671 7.21112 7.54136 7.24036 7.53014 7.26754C7.51892 7.29472 7.50208 7.31922 7.48073 7.33943C7.06129 7.71724 6.60931 8.05727 6.13004 8.35556H6.11604L5.7099 8.58274C5.53837 8.67906 5.34487 8.72945 5.14815 8.72902C4.9444 8.72975 4.74406 8.67677 4.56731 8.57542C4.39056 8.47407 4.24364 8.32792 4.14136 8.15171L3.27462 6.65631C1.61739 7.83582 0.599705 10.1015 1.15056 12.9709C1.1596 13.0193 1.18521 13.063 1.22298 13.0945C1.26075 13.126 1.30832 13.1434 1.35752 13.1436H2.33474C2.38858 13.145 2.44092 13.1259 2.48111 13.09C2.5213 13.0542 2.54631 13.0043 2.55104 12.9507C2.59695 12.6031 2.76763 12.284 3.03128 12.0529C3.29493 11.8218 3.63359 11.6944 3.9842 11.6944C4.33481 11.6944 4.67347 11.8218 4.93712 12.0529C5.20077 12.284 5.37144 12.6031 5.41735 12.9507C5.42344 13.0017 5.44803 13.0487 5.48645 13.0829C5.52488 13.117 5.57448 13.1358 5.62587 13.1359H6.58131C6.6326 13.1355 6.68202 13.1165 6.72038 13.0825C6.75874 13.0484 6.78341 13.0016 6.78982 12.9507C6.83574 12.6031 7.00641 12.284 7.27006 12.0529C7.53371 11.8218 7.87237 11.6944 8.22298 11.6944C8.57359 11.6944 8.91225 11.8218 9.1759 12.0529C9.43955 12.284 9.61022 12.6031 9.65614 12.9507C9.66255 13.0016 9.68723 13.0484 9.72558 13.0825C9.76394 13.1165 9.81336 13.1355 9.86465 13.1359H10.8139C10.8695 13.1359 10.9228 13.114 10.9624 13.075C11.002 13.036 11.0247 12.9829 11.0255 12.9273C11.0473 11.5891 11.4083 10.0517 12.4369 9.28143C16.0003 6.61585 15.0635 4.33151 14.2388 3.50678ZM10.6054 7.53238L9.92534 7.1916C9.92528 7.11879 9.94386 7.04718 9.97931 6.98359C10.0148 6.92 10.0659 6.86654 10.1279 6.82832C10.1899 6.7901 10.2606 6.76839 10.3333 6.76525C10.4061 6.76211 10.4784 6.77765 10.5434 6.81039C10.6085 6.84313 10.664 6.89198 10.7048 6.95228C10.7456 7.01258 10.7703 7.08232 10.7765 7.15487C10.7827 7.22741 10.7703 7.30034 10.7403 7.36669C10.7103 7.43305 10.6639 7.49063 10.6054 7.53394V7.53238Z" fill="#13A4CD"/>
</svg>
