<svg width="16" height="16" viewBox="0 0 16 16" fill="none" xmlns="http://www.w3.org/2000/svg">
<path fill-rule="evenodd" clip-rule="evenodd" d="M3.5874 2.58825C3.5874 3.21003 3.59994 6.00952 3.59994 6.00952C5.5 6.00952 12.5 5 12.4155 4.21868V0.800049C12 2 4.57138 2.58825 3.5874 2.58825ZM3.5874 6.98351C3.5874 7.60529 3.59994 10.4048 3.59994 10.4048C5.5 10.4048 12.5 9.39526 12.4155 8.61394V5.19531C12 6.39526 4.57138 6.98351 3.5874 6.98351ZM3.59994 14.8C3.59994 14.8 3.5874 12.0006 3.5874 11.3788C4.57138 11.3788 12 10.7905 12.4155 9.59058V13.0092C12.5 13.7905 5.5 14.8 3.59994 14.8Z" fill="#E1465E"/>
</svg>
