<svg width="16" height="16" viewBox="0 0 16 16" fill="none" xmlns="http://www.w3.org/2000/svg">
<ellipse cx="9.68306" cy="7.06281" rx="5.12568" ry="3.88251" fill="url(#paint0_radial_12088_173999)"/>
<ellipse cx="9.68306" cy="7.06281" rx="5.12568" ry="3.88251" fill="url(#paint1_radial_12088_173999)"/>
<path d="M15 8C15 11.866 11.866 15 8 15C4.13401 15 1 11.866 1 8C1 4.13401 4.13401 1 8 1C9.81694 1.8224 11.7177 4.88251 12.5137 5.8388C13.3096 6.79508 15.3699 8 14.3602 5.47235C14.7907 6.15554 15 7.28911 15 8Z" fill="url(#paint2_radial_12088_173999)"/>
<path d="M15 8C15 11.866 11.866 15 8 15C4.13401 15 1 11.866 1 8C1 4.13401 4.13401 1 8 1C9.81694 1.8224 11.7177 4.88251 12.5137 5.8388C13.3096 6.79508 15.3699 8 14.3602 5.47235C14.7907 6.15554 15 7.28911 15 8Z" fill="url(#paint3_radial_12088_173999)"/>
<path d="M15 8C15 11.866 11.866 15 8 15C4.13401 15 1 11.866 1 8C1 4.13401 4.13401 1 8 1C9.81694 1.8224 11.7177 4.88251 12.5137 5.8388C13.3096 6.79508 15.3699 8 14.3602 5.47235C14.7907 6.15554 15 7.28911 15 8Z" fill="url(#paint4_radial_12088_173999)"/>
<path d="M15 8C15 11.866 11.866 15 8 15C4.13401 15 1 11.866 1 8C1 4.13401 4.13401 1 8 1C9.81694 1.8224 11.7177 4.88251 12.5137 5.8388C13.3096 6.79508 15.3699 8 14.3602 5.47235C14.7907 6.15554 15 7.28911 15 8Z" fill="url(#paint5_linear_12088_173999)"/>
<ellipse cx="8.09115" cy="10.0816" rx="4.90585" ry="3.24574" transform="rotate(-12.0521 8.09115 10.0816)" fill="url(#paint6_radial_12088_173999)"/>
<ellipse cx="8.09115" cy="10.0816" rx="4.90585" ry="3.24574" transform="rotate(-12.0521 8.09115 10.0816)" fill="url(#paint7_linear_12088_173999)"/>
<path fill-rule="evenodd" clip-rule="evenodd" d="M11.7171 11.3607C12.4113 10.6532 12.7076 9.85688 12.5522 9.12915C12.3968 8.40142 11.8012 7.79548 10.8786 7.43324C9.95901 7.07217 8.75349 6.97333 7.48532 7.24409C6.21715 7.51486 5.15712 8.09741 4.46516 8.80256C3.77097 9.50998 3.47473 10.3063 3.63011 11.0341C3.78548 11.7618 4.38112 12.3678 5.30369 12.73C6.22329 13.0911 7.42881 13.1899 8.69698 12.9191C9.96515 12.6484 11.0252 12.0658 11.7171 11.3607ZM8.76886 13.2558C11.4186 12.6901 13.2632 10.8103 12.8889 9.05727C12.5146 7.30421 10.0631 6.34169 7.41344 6.90742C4.76373 7.47315 2.91914 9.3529 3.29343 11.106C3.66772 12.859 6.11916 13.8215 8.76886 13.2558Z" fill="#D6F8F8" fill-opacity="0.19"/>
<defs>
<radialGradient id="paint0_radial_12088_173999" cx="0" cy="0" r="1" gradientUnits="userSpaceOnUse" gradientTransform="translate(8.82383 9.70199) rotate(-42.6352) scale(6.86133 9.05831)">
<stop offset="0.771266" stop-color="#001AFF"/>
<stop offset="1" stop-color="#8ACEFF"/>
</radialGradient>
<radialGradient id="paint1_radial_12088_173999" cx="0" cy="0" r="1" gradientUnits="userSpaceOnUse" gradientTransform="translate(10.6385 7.06281) rotate(-30.5427) scale(3.78835 5.00137)">
<stop offset="0.71875" stop-color="#FA00FF" stop-opacity="0"/>
<stop offset="1" stop-color="#FF00D6" stop-opacity="0.44"/>
</radialGradient>
<radialGradient id="paint2_radial_12088_173999" cx="0" cy="0" r="1" gradientUnits="userSpaceOnUse" gradientTransform="translate(5.71007 6.792) rotate(49.385) scale(10.8128)">
<stop offset="0.0260417" stop-color="#8DFDFD"/>
<stop offset="0.270833" stop-color="#87FBFB"/>
<stop offset="0.484416" stop-color="#74D6F4"/>
<stop offset="0.931964" stop-color="#0038FF"/>
</radialGradient>
<radialGradient id="paint3_radial_12088_173999" cx="0" cy="0" r="1" gradientUnits="userSpaceOnUse" gradientTransform="translate(7.34701 7.73324) rotate(137.237) scale(7.41359)">
<stop offset="0.266661" stop-color="#0500FF" stop-opacity="0"/>
<stop offset="1" stop-color="#0500FF" stop-opacity="0.15"/>
</radialGradient>
<radialGradient id="paint4_radial_12088_173999" cx="0" cy="0" r="1" gradientUnits="userSpaceOnUse" gradientTransform="translate(6.44239 6.59316) rotate(75.1975) scale(11.5496)">
<stop offset="0.420095" stop-color="#FF00E5" stop-opacity="0"/>
<stop offset="0.773534" stop-color="#FF00F5" stop-opacity="0.64"/>
<stop offset="0.898911" stop-color="#BE46FF" stop-opacity="0.87"/>
</radialGradient>
<linearGradient id="paint5_linear_12088_173999" x1="2.7261" y1="9.67827" x2="18.6949" y2="9.89702" gradientUnits="userSpaceOnUse">
<stop offset="0.431832" stop-color="#FE62EE" stop-opacity="0"/>
<stop offset="0.818252" stop-color="#FD3AF5" stop-opacity="0.47"/>
</linearGradient>
<radialGradient id="paint6_radial_12088_173999" cx="0" cy="0" r="1" gradientUnits="userSpaceOnUse" gradientTransform="translate(7.19978 7.82644) rotate(95.1997) scale(5.17597 7.82335)">
<stop stop-color="#00B2FF"/>
<stop offset="0.57093" stop-color="#74C5FF"/>
<stop offset="0.979167" stop-color="#9FD7FF"/>
</radialGradient>
<linearGradient id="paint7_linear_12088_173999" x1="8.56369" y1="5.32735" x2="8.27928" y2="11.3052" gradientUnits="userSpaceOnUse">
<stop offset="0.0416667" stop-color="#0038FF"/>
<stop offset="0.723958" stop-color="#48BFF1" stop-opacity="0.59"/>
<stop offset="1" stop-color="#74C5FF" stop-opacity="0"/>
</linearGradient>
</defs>
</svg>
