<svg width="24" height="24" viewBox="0 0 24 24" fill="none" xmlns="http://www.w3.org/2000/svg">
<path d="M21.9998 11.9998C21.9998 14.6519 20.9462 17.1955 19.0709 19.0709C17.1955 20.9462 14.652 21.9997 11.9999 21.9997C10.6867 21.9997 9.38633 21.741 8.17309 21.2385C6.95985 20.7359 5.85747 19.9994 4.9289 19.0709C3.05355 17.1955 2 14.6519 2 11.9998C2 9.34768 3.05355 6.80422 4.9289 4.92888C6.80424 3.05354 9.34774 2 11.9999 2C14.652 2 17.1955 3.05354 19.0709 4.92888C20.9462 6.80422 21.9998 9.34768 21.9998 11.9998Z" fill="#D1D1D1"/>
<path d="M8.7079 8L8 8.7079L11.2931 11.999L8 15.2921L8.7079 16L12.001 12.7069L15.2921 16L16 15.2921L12.7089 11.999L16 8.7079L15.2921 8L12.001 11.2911L8.7079 8Z" fill="#3D3D3D"/>
</svg>
