<svg width="16" height="16" viewBox="0 0 16 16" fill="none" xmlns="http://www.w3.org/2000/svg">
<path fill-rule="evenodd" clip-rule="evenodd" d="M7 7.22191C6.59726 7.59021 6.09825 7.98303 5.82984 7.90415C5.49195 7.80485 5.07209 6.61037 4.83051 5.92308C4.76254 5.72972 4.70868 5.5765 4.67473 5.49911C5.71735 5.01882 6.5797 4.91056 7.30498 4.97078C8.33792 5.05654 9.26576 5.52413 10.1654 6.01444C10.1869 6.02617 10.2085 6.03794 10.2301 6.04975C10.8098 6.36601 11.4345 6.70686 12.0872 6.81212C13.2103 6.94594 14.5666 6.41851 14.9727 5.12889C15.117 4.00517 14.6631 3.13773 14.2388 2.68368C13.4068 1.79315 12.01 1.77083 11.1531 2.62706C11.1109 2.66999 11.0863 2.73129 11.0863 2.79359C11.0863 2.85589 11.1109 2.91719 11.1531 2.96012L11.4207 3.25322C11.4569 3.29171 11.5049 3.31493 11.5557 3.3186C11.6066 3.32228 11.6571 3.30615 11.6977 3.2732C12.2142 2.83168 13.0199 2.91059 13.4531 3.44419C13.8949 3.98852 13.8591 4.82997 13.3659 5.3282C12.6334 6.11137 11.7992 5.65689 10.6912 5.0533C9.13224 4.20401 7.03133 3.05948 3.9095 4.65208C3.6391 4.79109 3.46929 5.12111 3.50411 5.43998C3.54789 5.8409 3.27462 6.05428 3.27462 6.05428C1.61739 7.31659 0.599705 9.74129 1.15056 12.8121C1.1596 12.8639 1.18521 12.9106 1.22298 12.9444C1.26075 12.9781 1.30832 12.9967 1.35752 12.997H2.33474C2.38858 12.9985 2.44092 12.9779 2.48111 12.9396C2.5213 12.9012 2.54631 12.8479 2.55104 12.7905C2.64173 12.0557 3.24526 11.446 3.9842 11.446C4.72314 11.446 5.32667 12.0557 5.41736 12.7905C5.42345 12.8451 5.44803 12.8954 5.48645 12.9319C5.52488 12.9685 5.57448 12.9886 5.62587 12.9887H6.58131C6.6326 12.9883 6.68203 12.968 6.72038 12.9315C6.75874 12.8951 6.78341 12.8449 6.78983 12.7905C6.81706 12.5699 6.89052 12.3605 7 12.1756V12V10.6811C6.63907 10.8914 6.32794 11.1918 6.10359 11.5568C5.65 10.8189 4.84173 10.345 3.9842 10.345C3.24732 10.345 2.54324 10.6943 2.07692 11.2598C2.05638 9.61718 2.62098 7.95001 3.9283 6.92921L3.27462 6.05428C3.9283 6.92921 3.92996 6.92791 3.92996 6.92791C3.98036 6.88832 4.02778 6.8448 4.07268 6.79883C4.13957 6.94587 4.20381 7.11108 4.27075 7.28325C4.53654 7.96685 4.84502 8.76027 5.53231 8.96225C6.01945 9.1054 6.53014 8.90896 7 8.59929V7.22191Z" fill="#090909"/>
<path fill-rule="evenodd" clip-rule="evenodd" d="M8 8H9V9.35418C9.73294 8.52375 10.8053 8 12 8C14.2091 8 16 9.79086 16 12H15C15 10.3431 13.6569 9 12 9C11.1115 9 10.3132 9.38625 9.76389 10L11 10V11H9.17071H9H8.12602H8V10V8ZM16 16H15L15 14.6458C14.2671 15.4762 13.1947 16 12 16C9.79086 16 8 14.2091 8 12H9C9 13.6569 10.3431 15 12 15C12.8885 15 13.6868 14.6137 14.2361 14H13V13H14.8293H15H15.874H16L16 14V16Z" fill="#2A7DEB"/>
</svg>
