<svg width="16" height="16" viewBox="0 0 16 16" fill="none" xmlns="http://www.w3.org/2000/svg">
<path fill-rule="evenodd" clip-rule="evenodd" d="M5.82984 7.90415C6.25671 8.0296 7.26679 6.96202 7.54538 6.69739C7.76323 6.49045 8.10394 6.50324 8.30636 6.72596C8.50879 6.94868 8.49627 7.29699 8.27842 7.50393C7.6376 8.11263 6.53505 9.25693 5.53231 8.96225C4.67192 8.7094 4.40517 7.52966 4.07268 6.79883C4.02778 6.8448 3.98036 6.88832 3.92996 6.92791C3.92996 6.92791 3.9283 6.92921 3.27462 6.05428C3.27462 6.05428 3.54789 5.8409 3.50411 5.43998C3.46929 5.12111 3.6391 4.79109 3.90951 4.65208C7.03133 3.05948 9.13224 4.20401 10.6912 5.0533C11.7992 5.65689 12.6334 6.11137 13.3659 5.3282C13.8591 4.82997 13.8949 3.98852 13.4531 3.44419C13.0199 2.91059 12.2142 2.83168 11.6977 3.2732C11.6571 3.30615 11.6066 3.32228 11.5557 3.3186C11.5049 3.31493 11.4569 3.29171 11.4207 3.25322L11.1531 2.96012C11.1109 2.91719 11.0863 2.85589 11.0863 2.79359C11.0863 2.73129 11.1109 2.66999 11.1531 2.62706C12.01 1.77083 13.4068 1.79315 14.2388 2.68368C15.0635 3.56629 16.0003 6.01098 12.4369 8.86366C11.4083 9.688 11.0473 11.3333 11.0255 12.7655C11.0247 12.825 11.002 12.8817 10.9624 12.9235C10.9228 12.9653 10.8695 12.9887 10.8139 12.9887H9.86466C9.81336 12.9883 9.76394 12.968 9.72558 12.9315C9.68723 12.8951 9.66255 12.8449 9.65614 12.7905C9.56545 12.0557 8.96192 11.446 8.22298 11.446C7.48404 11.446 6.88051 12.0557 6.78983 12.7905C6.78341 12.8449 6.75874 12.8951 6.72038 12.9315C6.68203 12.968 6.6326 12.9883 6.58131 12.9887H5.62587C5.57448 12.9886 5.52488 12.9685 5.48645 12.9319C5.44803 12.8954 5.42345 12.8451 5.41736 12.7905C5.32667 12.0557 4.72314 11.446 3.9842 11.446C3.24526 11.446 2.64173 12.0557 2.55104 12.7905C2.54631 12.8479 2.5213 12.9012 2.48111 12.9396C2.44092 12.9779 2.38858 12.9985 2.33474 12.997H1.35752C1.30832 12.9967 1.26075 12.9781 1.22298 12.9444C1.18521 12.9106 1.1596 12.8639 1.15056 12.8121C0.599705 9.74129 1.61739 7.31659 3.27462 6.05428L3.9283 6.92921C2.62098 7.95001 2.05638 9.61718 2.07692 11.2598C2.54324 10.6943 3.24732 10.345 3.9842 10.345C4.84173 10.345 5.65 10.8189 6.10359 11.5568C6.55718 10.8189 7.36545 10.345 8.22298 10.345C8.9401 10.345 9.62563 10.6743 10.0922 11.2147C10.3086 10.0032 10.801 8.7758 11.7725 7.99722C12.3156 7.56238 12.727 7.15255 13.036 6.77432C12.0139 7.04342 11.0374 6.48966 10.1654 6.01444C9.26576 5.52413 8.33792 5.05654 7.30498 4.97078C6.5797 4.91056 5.71735 5.01882 4.67473 5.49911C4.82936 5.85158 5.39688 7.77692 5.82984 7.90415Z" fill="#090909"/>
</svg>
