<svg width="16" height="16" viewBox="0 0 16 16" fill="none" xmlns="http://www.w3.org/2000/svg">
<path fill-rule="evenodd" clip-rule="evenodd" d="M2 8C2 11.3137 4.68629 14 8 14C11.3137 14 14 11.3137 14 8C14 4.68629 11.3137 2 8 2C4.68629 2 2 4.68629 2 8ZM8 13C5.23858 13 3 10.7614 3 8C3 5.23858 5.23858 3 8 3C10.7614 3 13 5.23858 13 8C13 10.7614 10.7614 13 8 13Z" fill="#0870E4" fill-opacity="0.25"/>
<path fill-rule="evenodd" clip-rule="evenodd" d="M8.46237 3.01957C8.44691 3.01701 8.43165 3.01385 8.41661 3.01009C8.18086 2.95121 8 2.74761 8 2.49979C8 2.22383 8.22414 1.99795 8.49915 2.02089C8.53232 2.02366 8.56545 2.0267 8.59853 2.03002C8.60582 2.03075 8.61311 2.0315 8.6204 2.03225C9.98372 2.17394 11.2646 2.77945 12.2426 3.75747C13.3679 4.88269 14 6.40881 14 8.00011C14 9.59141 13.3679 11.1175 12.2426 12.2428C11.2646 13.2208 9.98372 13.8263 8.6204 13.968C8.61311 13.9687 8.60582 13.9695 8.59853 13.9702C8.56545 13.9735 8.53232 13.9766 8.49915 13.9793C8.22414 14.0023 8 13.7764 8 13.5004C8 13.2526 8.18086 13.049 8.41661 12.9901C8.43165 12.9864 8.44691 12.9832 8.46237 12.9807C8.47442 12.9787 8.4866 12.977 8.49887 12.9758C9.64191 12.8613 10.7165 12.3556 11.536 11.5361C12.4738 10.5983 13.0006 9.32636 13.0006 8.00011C13.0006 6.67386 12.4738 5.40193 11.536 4.46413C10.7165 3.64465 9.64191 3.13897 8.49887 3.0244C8.4866 3.02317 8.47442 3.02156 8.46237 3.01957Z" fill="#0870E4"/>
</svg>
