<svg width="13" height="14" viewBox="0 0 13 14" fill="none" xmlns="http://www.w3.org/2000/svg">
<path fill-rule="evenodd" clip-rule="evenodd" d="M10.375 2.5H2.625C2.27982 2.5 2 2.77982 2 3.125V10.875C2 11.2202 2.27982 11.5 2.625 11.5H10.375C10.7202 11.5 11 11.2202 11 10.875V3.125C11 2.77982 10.7202 2.5 10.375 2.5ZM2.625 1.5C1.72754 1.5 1 2.22754 1 3.125V10.875C1 11.7725 1.72754 12.5 2.625 12.5H10.375C11.2725 12.5 12 11.7725 12 10.875V3.125C12 2.22754 11.2725 1.5 10.375 1.5H2.625ZM5.6875 3.49536H7.3125V5.12036H5.6875V3.49536ZM7.2313 6.5H5.7688V10H7.2313V6.5Z" fill="#090909"/>
</svg>
