<svg width="16" height="16" viewBox="0 0 16 16" fill="none" xmlns="http://www.w3.org/2000/svg">
<path fill-rule="evenodd" clip-rule="evenodd" d="M3 4H13C13.5523 4 14 4.44772 14 5V11C14 11.5523 13.5523 12 13 12H3C2.44772 12 2 11.5523 2 11V5C2 4.44772 2.44772 4 3 4ZM1 5C1 3.89543 1.89543 3 3 3H13C14.1046 3 15 3.89543 15 5V11C15 12.1046 14.1046 13 13 13H3C1.89543 13 1 12.1046 1 11V5ZM7.46665 5H6.06665V6.4H7.46665V5ZM3.59998 5H4.99998V6.4H3.59998V5ZM9.93332 5H8.53333V6.4H9.93332V5ZM11 5H12.4V6.4H11V5ZM7.46665 7.40002H6.06665V8.80002H7.46665V7.40002ZM3.59998 7.40002H4.99998V8.80002H3.59998V7.40002ZM9.93332 7.40002H8.53333V8.80002H9.93332V7.40002ZM11 7.40002H12.4V8.80002H11V7.40002ZM11 10H5V11H11V10Z" fill="#090909"/>
</svg>
