<svg width="16" height="16" viewBox="0 0 16 16" fill="none" xmlns="http://www.w3.org/2000/svg">
<rect x="-0.407227" y="8" width="11.89" height="11.89" rx="1" transform="rotate(-45 -0.407227 8)" fill="#E59408"/>
<path d="M8.09015 12.11C7.57682 12.11 7.12582 12.0147 6.73715 11.824C6.35582 11.626 6.05882 11.351 5.84615 10.999C5.64082 10.6397 5.53815 10.218 5.53815 9.734V6.236C5.53815 5.74467 5.64082 5.323 5.84615 4.971C6.05882 4.619 6.35582 4.34767 6.73715 4.157C7.12582 3.959 7.57682 3.86 8.09015 3.86C8.61082 3.86 9.05815 3.959 9.43215 4.157C9.81348 4.34767 10.1105 4.62267 10.3231 4.982C10.5358 5.334 10.6421 5.752 10.6421 6.236H9.25615C9.25615 5.85467 9.15348 5.565 8.94815 5.367C8.75015 5.169 8.46415 5.07 8.09015 5.07C7.71615 5.07 7.42648 5.169 7.22115 5.367C7.01582 5.565 6.91315 5.85467 6.91315 6.236V9.734C6.91315 10.108 7.01582 10.3977 7.22115 10.603C7.42648 10.801 7.71615 10.9 8.09015 10.9C8.46415 10.9 8.75015 10.801 8.94815 10.603C9.15348 10.3977 9.25615 10.108 9.25615 9.734H10.6421C10.6421 10.2107 10.5358 10.6287 10.3231 10.988C10.1105 11.3473 9.81348 11.626 9.43215 11.824C9.05815 12.0147 8.61082 12.11 8.09015 12.11Z" fill="white"/>
</svg>
