<svg width="16" height="16" viewBox="0 0 16 16" fill="none" xmlns="http://www.w3.org/2000/svg">
<circle cx="8" cy="8" r="6.5" fill="#E59408"/>
<path d="M7.74915 11.099C7.27248 11.099 6.85815 11.0257 6.50615 10.879C6.16148 10.7323 5.89382 10.5233 5.70315 10.252C5.51248 9.98067 5.41715 9.658 5.41715 9.284H6.77015C6.77015 9.51867 6.85448 9.69833 7.02315 9.823C7.19915 9.94767 7.44115 10.01 7.74915 10.01H8.23315C8.56315 10.01 8.81615 9.94767 8.99215 9.823C9.17548 9.691 9.26715 9.51133 9.26715 9.284C9.26715 9.064 9.20482 8.899 9.08015 8.789C8.95548 8.679 8.76482 8.60933 8.50815 8.58L7.00115 8.382C6.51715 8.32333 6.14315 8.13633 5.87915 7.821C5.62248 7.50567 5.49415 7.106 5.49415 6.622C5.49415 6.05 5.68482 5.61367 6.06615 5.313C6.44748 5.005 6.99748 4.851 7.71615 4.851H8.22215C8.89682 4.851 9.43948 5.005 9.85015 5.313C10.2608 5.621 10.4735 6.03167 10.4881 6.545H9.12415C9.11682 6.35433 9.03248 6.204 8.87115 6.094C8.70982 5.97667 8.49348 5.918 8.22215 5.918H7.71615C7.42282 5.918 7.19915 5.98033 7.04515 6.105C6.89115 6.22233 6.81415 6.38367 6.81415 6.589C6.81415 6.77233 6.86915 6.908 6.97915 6.996C7.09648 7.07667 7.26515 7.13167 7.48515 7.161L8.90415 7.359C9.46148 7.43233 9.87948 7.634 10.1581 7.964C10.4441 8.28667 10.5871 8.71933 10.5871 9.262C10.5871 9.84867 10.3855 10.3033 9.98215 10.626C9.58615 10.9413 9.00315 11.099 8.23315 11.099H7.74915Z" fill="white"/>
</svg>
