<svg width="16" height="16" viewBox="0 0 16 16" fill="none" xmlns="http://www.w3.org/2000/svg">
<circle cx="8" cy="8" r="6.5" fill="#169068"/>
<path fill-rule="evenodd" clip-rule="evenodd" d="M13.5737 11.3461C13.455 11.3566 13.3335 11.362 13.2095 11.362C11.9345 11.362 10.9199 10.8462 10.3751 10.0012C9.86135 10.8502 8.89763 11.3919 7.73238 11.3919C5.88673 11.3919 4.5 9.93534 4.5 7.99991C4.5 6.06447 5.88673 4.60791 7.73238 4.60791C8.77991 4.60791 9.57204 5.08578 10 5.91483H10.0369V4.70767H11.1842V8.34909C11.1842 9.42654 12.0422 10.1648 13.2095 10.1648C13.5753 10.1648 13.9131 10.0859 14.2047 9.94283C14.0495 10.4388 13.8366 10.9092 13.5737 11.3461ZM7.842 10.2945C6.64482 10.2945 5.74694 9.30683 5.74694 7.99991C5.74694 6.69299 6.64482 5.70532 7.842 5.70532C9.03917 5.70532 9.93706 6.69299 9.93706 7.99991C9.93706 9.30683 9.03917 10.2945 7.842 10.2945Z" fill="white"/>
</svg>
