<svg width="16" height="16" viewBox="0 0 16 16" fill="none" xmlns="http://www.w3.org/2000/svg">
<path fill-rule="evenodd" clip-rule="evenodd" d="M11.4561 4.63979L13.1907 11H2.80916L4.54376 4.63979C4.96882 3.08124 6.38443 2 7.99991 2C9.61539 2 11.031 3.08124 11.4561 4.63979ZM3.579 4.37667C4.12271 2.38306 5.93348 1 7.99991 1C10.0663 1 11.8771 2.38306 12.4208 4.37667L14.1554 10.7369C14.3289 11.373 13.85 12 13.1907 12H2.80916C2.14979 12 1.6709 11.373 1.8444 10.7369L3.579 4.37667ZM5.99991 13C5.99991 13.3541 6.09382 13.6985 6.26785 14C6.35451 14.1501 6.46102 14.2895 6.5857 14.4142C6.96077 14.7893 7.46948 15 7.99991 15C8.53034 15 9.03905 14.7893 9.41412 14.4142C9.5388 14.2895 9.64531 14.1501 9.73197 14C9.906 13.6985 9.99991 13.3541 9.99991 13H8.99991H6.99991H5.99991Z" fill="#090909"/>
</svg>
