<svg width="16" height="16" viewBox="0 0 16 16" fill="none" xmlns="http://www.w3.org/2000/svg">
<path fill-rule="evenodd" clip-rule="evenodd" d="M12.0271 6.73385L13.1906 11H7.74475L6.74095 12H13.1906C13.85 12 14.3289 11.373 14.1554 10.7369L12.8422 5.92186L12.0271 6.73385ZM4.08298 11H2.80914L4.54374 4.63979C4.9688 3.08124 6.38441 2 7.99989 2C9.35686 2 10.5728 2.76289 11.1791 3.93075L4.08298 11ZM3.07918 12L1.00342 14.0679L1.70918 14.7763L14.7854 1.74973L14.0796 1.04128L11.914 3.1987C11.098 1.85892 9.62835 1 7.99989 1C5.93346 1 4.12269 2.38306 3.57898 4.37667L1.84437 10.7369C1.67088 11.373 2.14976 12 2.80914 12H3.07918ZM6.2678 14C6.09377 13.6985 5.99985 13.3541 5.99985 13H6.99985H8.99985H9.99985C9.99985 13.3541 9.90594 13.6985 9.73191 14C9.64526 14.1501 9.53874 14.2895 9.41407 14.4142C9.03899 14.7893 8.53029 15 7.99985 15C7.46942 15 6.96071 14.7893 6.58564 14.4142C6.46096 14.2895 6.35445 14.1501 6.2678 14Z" fill="#090909"/>
</svg>
