<svg width="16" height="16" viewBox="0 0 16 16" fill="none" xmlns="http://www.w3.org/2000/svg">
<g id="pin">
<path id="pin_2" d="M5.5 6.36722L3.65137 9.60232C3.4228 10.0023 3.71162 10.5 4.17232 10.5H11.8277C12.2884 10.5 12.5772 10.0023 12.3486 9.60232L10.5 6.36722V3.5C10.5 2.94772 10.0523 2.5 9.5 2.5H6.5C5.94772 2.5 5.5 2.94772 5.5 3.5V6.36722Z" stroke="#090909"/>
<g id="Rectangle 2646">
<mask id="path-2-inside-1_12769_34342" fill="white">
<path d="M7.5 11H8.5V14.5C8.5 14.7761 8.27614 15 8 15C7.72386 15 7.5 14.7761 7.5 14.5V11Z"/>
</mask>
<path d="M7.5 11H8.5V14.5C8.5 14.7761 8.27614 15 8 15C7.72386 15 7.5 14.7761 7.5 14.5V11Z" fill="#090909"/>
<path d="M7.5 11V10H6.5V11H7.5ZM8.5 11H9.5V10H8.5V11ZM7.5 12H8.5V10H7.5V12ZM7.5 11V14.5H9.5V11H7.5ZM8.5 14.5V11H6.5V14.5H8.5ZM8 14C8.27614 14 8.5 14.2239 8.5 14.5H6.5C6.5 15.3284 7.17157 16 8 16V14ZM7.5 14.5C7.5 14.2239 7.72386 14 8 14V16C8.82843 16 9.5 15.3284 9.5 14.5H7.5Z" fill="#090909" mask="url(#path-2-inside-1_12769_34342)"/>
</g>
</g>
</svg>
