<svg width="32" height="32" viewBox="0 0 32 32" fill="none" xmlns="http://www.w3.org/2000/svg">
<path fill-rule="evenodd" clip-rule="evenodd" d="M20.053 5.70879L19.704 6.97403L14.5316 25.724L14.1826 26.9893L11.6521 26.2912L12.0011 25.026L17.1735 6.27597L17.5226 5.01073L20.053 5.70879ZM12.0185 12.2768L10.9504 13.0397L5.88316 16.6592L10.9504 20.2787L12.0185 21.0415L10.4927 23.1776L9.42468 22.4147L2.86218 17.7272L1.36694 16.6592L2.86218 15.5912L9.42468 10.9037L10.4927 10.1408L12.0185 12.2768ZM21.0496 13.0397L19.9816 12.2768L21.5073 10.1408L22.5753 10.9037L29.1378 15.5912L30.6331 16.6592L29.1378 17.7272L22.5753 22.4147L21.5073 23.1776L19.9816 21.0415L21.0496 20.2787L26.1169 16.6592L21.0496 13.0397Z" fill="#E59408"/>
</svg>
