<svg width="16" height="16" viewBox="0 0 16 16" fill="none" xmlns="http://www.w3.org/2000/svg">
<path fill-rule="evenodd" clip-rule="evenodd" d="M2.93421 3.25196C2.7972 3.0122 2.49177 2.9289 2.25202 3.0659C2.01226 3.20291 1.92896 3.50834 2.06596 3.74809L3.14687 5.63967C1.71222 6.73602 0.65943 8.30676 0.222701 10.1177C0.0771252 10.7213 0 11.3517 0 12H16C16 11.3094 15.9125 10.6392 15.748 10C15.2947 8.23878 14.2567 6.71229 12.8533 5.63976L13.9342 3.74809C14.0712 3.50834 13.9879 3.20291 13.7482 3.0659C13.5084 2.9289 13.203 3.0122 13.066 3.25196L12.0202 5.082C10.839 4.39406 9.46551 4 8 4C6.53455 4 5.16113 4.39403 3.9799 5.08192L2.93421 3.25196ZM11 10C11.5523 10 12 9.55228 12 9C12 8.44772 11.5523 8 11 8C10.4477 8 10 8.44772 10 9C10 9.55228 10.4477 10 11 10ZM5 10C5.55228 10 6 9.55228 6 9C6 8.44772 5.55228 8 5 8C4.44772 8 4 8.44772 4 9C4 9.55228 4.44772 10 5 10Z" fill="#169068"/>
</svg>
