<svg width="16" height="16" viewBox="0 0 16 16" fill="none" xmlns="http://www.w3.org/2000/svg">
<path fill-rule="evenodd" clip-rule="evenodd" d="M8.49614 1.43525L13.4961 4.2924C13.5193 4.30565 13.5419 4.31975 13.5637 4.33465L11.5396 5.5033C11.4517 5.41882 11.3528 5.34438 11.2442 5.28235L8.74414 3.85373C8.283 3.59022 7.71688 3.59022 7.25573 3.85373L4.75564 5.28235C4.64289 5.34678 4.54055 5.42459 4.45017 5.51314L2.42388 4.34326C2.44957 4.32516 2.47625 4.30818 2.50386 4.2924L7.50386 1.43525C7.81129 1.25958 8.18871 1.25958 8.49614 1.43525ZM11.9885 6.39881L14 5.23746V9.28313L15 9.86048V5.16064C15 4.44293 14.6154 3.78024 13.9923 3.42415L8.99228 0.567011C8.37741 0.215659 7.62259 0.21566 7.00772 0.567011L2.00772 3.42415C1.38457 3.78024 1 4.44293 1 5.16064V10.8394C1 11.5571 1.38457 12.2198 2.00772 12.5758L7.00772 15.433C7.48261 15.7043 8.04099 15.7661 8.5539 15.6183C8.51872 15.4577 8.50001 15.2893 8.50001 15.1144V14.5625L8.5 14.5625V12.2581C8.5 12.2581 8.50001 12.2581 8.50001 12.2581V11.134L8.24801 11.278C8.09429 11.3659 7.90558 11.3659 7.75187 11.278L5.25178 9.8494C5.09599 9.76038 4.99985 9.59471 4.99985 9.41528V6.58472C4.99985 6.40529 5.09599 6.23962 5.25178 6.1506L7.75187 4.72198C7.90558 4.63414 8.09429 4.63414 8.248 4.72198L10.7481 6.1506C10.9039 6.23962 11 6.40529 11 6.58472V7.79659C11.3197 7.82465 11.6426 7.92207 11.95 8.09957L12 8.12844V6.58472C12 6.52209 11.9961 6.46002 11.9885 6.39881ZM11.9424 9.82722L11.2 9.39861C11.1349 9.36099 11.0677 9.33371 11 9.31593V9.41528C11 9.59471 10.9039 9.76038 10.7481 9.8494L10 10.2769V11.4286L11.2442 10.7176C11.5889 10.5207 11.8363 10.1986 11.9424 9.82722ZM10 13.7054V14.8571L13.9923 12.5758C14.4097 12.3373 14.7201 11.9611 14.8796 11.523L13.9859 11.007C13.9362 11.2992 13.7584 11.5577 13.4961 11.7076L10 13.7054ZM2 5.25323V10.8394C2 11.1982 2.19229 11.5296 2.50386 11.7076L7.5 14.5625V12.2582C7.41621 12.2285 7.33444 12.1912 7.25573 12.1463L4.75564 10.7176C4.28828 10.4506 3.99985 9.95357 3.99985 9.41528V6.58472C3.99985 6.52709 4.00315 6.46994 4.00963 6.41349L2 5.25323Z" fill="#090909"/>
<path d="M15.5502 11.9101C16.0835 12.218 16.0835 12.9878 15.5502 13.2957L11.2002 15.8072C10.6669 16.1151 10.0002 15.7302 10.0002 15.1144L10.0002 10.0914C10.0002 9.47557 10.6669 9.09068 11.2002 9.3986L15.5502 11.9101Z" fill="#169068"/>
</svg>
