<svg width="16" height="16" viewBox="0 0 16 16" fill="none" xmlns="http://www.w3.org/2000/svg">
<path fill-rule="evenodd" clip-rule="evenodd" d="M7.14251 5.0145L7.43381 5.5H8H14V9H15V5.5V4.5H14H8L6.5 2H2H1V3V12C1 13.1046 1.89543 14 3 14H4V13H3C2.44772 13 2 12.5523 2 12V3H5.93381L7.14251 5.0145Z" fill="#090909"/>
<path fill-rule="evenodd" clip-rule="evenodd" d="M10.5 9C9.50227 9 8.64021 9.56984 8.23908 10.3957L8.13192 10.6164L7.88182 10.6277C6.55616 10.6877 5.5 11.7549 5.5 13.0625C5.5 14.4087 6.61929 15.5 8 15.5H13.4167C14.5673 15.5 15.5 14.5906 15.5 13.4688C15.5 12.3473 14.5679 11.4381 13.4178 11.4375L13.4167 11.4375L13.0261 11.4397L12.9747 11.0889C12.8015 9.90798 11.7591 9 10.5 9Z" stroke="#090909"/>
</svg>
