<svg width="16" height="16" viewBox="0 0 16 16" fill="none" xmlns="http://www.w3.org/2000/svg">
<path d="M3.5 6.5H2L3 9L5.5 9.5H7.5L5.5 12.5H7.5L10 9.5H11.6749C12.2236 9.5 12.771 9.4458 13.3091 9.33818L13.6195 9.27611C14.1073 9.17854 14.2194 8.53162 13.7928 8.27566C12.9468 7.76811 11.9789 7.5 10.9924 7.5L4 7.5L3.5 6.5Z" stroke="#090909"/>
<path fill-rule="evenodd" clip-rule="evenodd" d="M8.0432 4H5L6.25 6.5H7.36803L6.61803 5H7.57483L8.82483 6.5H10.1265L8.0432 4ZM10.5432 7H9.2415L9.92491 7.82009L10.6931 7.17991L10.5432 7ZM7.61803 7H6.5L6.8618 7.72361L7.75623 7.27639L7.61803 7Z" fill="#090909"/>
</svg>
