<svg width="32" height="32" viewBox="0 0 32 32" fill="none" xmlns="http://www.w3.org/2000/svg">
<g clip-path="url(#clip0_8519_10827)">
<path d="M29.2643 6.05646L16.7253 28.4784C16.4664 28.9414 15.8013 28.9441 15.5385 28.4834L2.75084 6.05862C2.46457 5.55659 2.89385 4.9485 3.46274 5.05019L16.0152 7.29387C16.0953 7.30818 16.1773 7.30804 16.2573 7.29345L28.5473 5.0534C29.1143 4.95006 29.5456 5.55344 29.2643 6.05646Z" fill="url(#paint0_linear_8519_10827)"/>
<path d="M21.9947 2.10729L12.7154 3.92552C12.5629 3.95541 12.45 4.08466 12.4408 4.23977L11.87 13.8802C11.8566 14.1073 12.0651 14.2835 12.2867 14.2324L14.8702 13.6362C15.1119 13.5804 15.3303 13.7933 15.2807 14.0364L14.5131 17.7949C14.4615 18.0479 14.6989 18.2642 14.946 18.1892L16.5417 17.7044C16.789 17.6293 17.0267 17.8462 16.9744 18.0993L15.7546 24.0032C15.6783 24.3725 16.1695 24.5739 16.3744 24.2572L16.5112 24.0458L24.0725 8.95597C24.1991 8.70331 23.9807 8.41522 23.7032 8.46877L21.044 8.982C20.7941 9.03018 20.5815 8.79746 20.652 8.55297L22.3876 2.53611C22.4582 2.2912 22.2449 2.05827 21.9947 2.10729Z" fill="url(#paint1_linear_8519_10827)"/>
</g>
<defs>
<linearGradient id="paint0_linear_8519_10827" x1="2.43862" y1="4.24886" x2="18.0444" y2="25.4428" gradientUnits="userSpaceOnUse">
<stop stop-color="#41D1FF"/>
<stop offset="1" stop-color="#BD34FE"/>
</linearGradient>
<linearGradient id="paint1_linear_8519_10827" x1="15.2948" y1="2.60094" x2="18.1179" y2="21.9665" gradientUnits="userSpaceOnUse">
<stop stop-color="#FFEA83"/>
<stop offset="0.0833333" stop-color="#FFDD35"/>
<stop offset="1" stop-color="#FFA800"/>
</linearGradient>
<clipPath id="clip0_8519_10827">
<rect width="27.9406" height="27.5317" fill="white" transform="translate(2.02979 2)"/>
</clipPath>
</defs>
</svg>
