<svg width="16" height="16" viewBox="0 0 16 16" fill="none" xmlns="http://www.w3.org/2000/svg">
<path d="M8.03737 12.0671C8.03208 12.0672 8.02681 12.0677 8.02153 12.0677C7.87684 12.0689 7.73168 12.0327 7.60141 11.9592L4.64852 10.2913C4.47518 10.1937 4.36755 10.0108 4.36561 9.81203L4.36556 6.42057C4.36411 6.27583 4.39272 6.13631 4.45144 6.01336L2.14273 4.71996C2.04553 4.92312 1.99819 5.15374 2.00057 5.39301L2.00065 10.9911C2.00384 11.3192 2.1815 11.6211 2.46764 11.7821L7.34181 14.5353C7.55685 14.6567 7.79645 14.7164 8.03528 14.7145L8.03534 14.7105C8.04079 14.3614 8.03908 12.9532 8.03737 12.0671Z" fill="#083042"/>
<path d="M4.45153 6.01296C4.51479 5.88067 4.61301 5.76774 4.74672 5.68876L7.52655 4.04887C7.78516 3.89605 8.10554 3.89311 8.36713 4.0408L11.1774 5.62805C11.3027 5.6989 11.4124 5.79891 11.4927 5.91727C11.493 5.91774 11.4933 5.91823 11.4936 5.91869L13.7651 4.56215C13.6325 4.36677 13.4514 4.20169 13.2446 4.08475L8.60586 1.46475C8.17406 1.22097 7.64523 1.22583 7.21837 1.47808L2.62984 4.18495C2.40912 4.31533 2.24702 4.50173 2.14258 4.72009L4.45129 6.01349C4.45138 6.01332 4.45144 6.01313 4.45153 6.01296Z" fill="#3DDC84"/>
<path d="M13.7651 4.56219L11.4936 5.91874C11.5806 6.04697 11.6336 6.19617 11.6351 6.35195L11.6351 9.5794C11.6378 9.87991 11.4803 10.1588 11.2217 10.3114L8.44184 11.9515C8.31685 12.0254 8.17739 12.0635 8.03723 12.0673C8.03894 12.9533 8.04066 14.3616 8.03521 14.7107L8.03516 14.7147C8.27529 14.7127 8.51508 14.6491 8.72917 14.5226L13.3177 11.8153C13.7446 11.5634 14.0045 11.103 14 10.607L14.0001 5.27962C13.9976 5.02155 13.9096 4.77438 13.7651 4.56219Z" fill="#4285F4"/>
<path d="M5.61113 6.69303C5.58798 6.74821 5.57253 6.80735 5.56657 6.86926C5.56429 6.89299 5.56327 6.91706 5.56351 6.94135L5.56354 9.21468C5.56372 9.23133 5.56498 9.24782 5.5673 9.26405C5.57427 9.31274 5.59073 9.35912 5.61527 9.40073C5.63163 9.42847 5.65158 9.45409 5.67471 9.47686C5.69783 9.49963 5.72413 9.51956 5.75318 9.53591L7.73252 10.6539C7.81984 10.7032 7.91714 10.7275 8.01413 10.7267C8.02116 10.7266 8.02818 10.7262 8.0352 10.7258C8.12562 10.7218 8.21529 10.6964 8.29596 10.6487L10.1593 9.54928C10.1701 9.54289 10.1807 9.53617 10.191 9.52913C10.2116 9.51506 10.2311 9.49973 10.2494 9.48329C10.2769 9.45862 10.3017 9.43144 10.3236 9.40221C10.3383 9.38272 10.3516 9.36232 10.3635 9.34114C10.3714 9.3273 10.3784 9.31302 10.385 9.29856C10.3922 9.2828 10.3987 9.26672 10.4045 9.25031C10.4065 9.24459 10.4084 9.23885 10.4102 9.23306C10.4277 9.17742 10.4369 9.1187 10.4364 9.05862L10.4364 6.89524C10.436 6.85594 10.4308 6.81726 10.4212 6.77972C10.4149 6.75469 10.4066 6.73017 10.3967 6.70631C10.3917 6.69438 10.3863 6.68262 10.3805 6.67103C10.3737 6.65741 10.3661 6.64414 10.3582 6.63106C10.3527 6.62189 10.347 6.61277 10.341 6.6039C10.3275 6.58406 10.3128 6.565 10.2971 6.54681C10.2497 6.49226 10.1926 6.44565 10.1296 6.41003L8.24589 5.34608C8.21301 5.32752 8.17875 5.31251 8.14363 5.30104C8.09681 5.28575 8.04847 5.27677 7.99989 5.27409C7.98774 5.27341 7.97558 5.27313 7.96342 5.27325C7.95008 5.27337 7.93676 5.27408 7.92346 5.27515C7.89061 5.2778 7.85797 5.28342 7.82589 5.29184C7.81989 5.29341 7.81394 5.29515 7.80799 5.29693C7.76462 5.30986 7.7224 5.32788 7.68245 5.35149L5.8191 6.45072C5.76308 6.48381 5.71636 6.52579 5.67884 6.57427C5.66383 6.59366 5.6503 6.61409 5.63823 6.63541C5.6322 6.64607 5.62653 6.65695 5.62123 6.66804C5.61737 6.67611 5.61461 6.68475 5.61113 6.69303Z" fill="#D6F0FF"/>
<path d="M8.03534 10.7259C8.02832 10.7263 8.0213 10.7267 8.01427 10.7268C7.91729 10.7276 7.81998 10.7033 7.73266 10.654L5.75332 9.53601C5.72427 9.51966 5.69798 9.49974 5.67485 9.47696C5.65173 9.45419 5.63178 9.42857 5.61541 9.40083C5.59087 9.35922 5.57441 9.31284 5.56744 9.26415C5.56512 9.24792 5.56385 9.23144 5.56368 9.21478L5.56365 6.94146C5.56342 6.91717 5.56444 6.8931 5.56671 6.86936C5.57267 6.80746 5.58812 6.74831 5.61127 6.69314L5.0768 6.36406L4.45117 6.01357C4.39245 6.13652 4.36384 6.27603 4.36529 6.42078L4.36534 9.81224C4.36728 10.011 4.47491 10.1939 4.64825 10.2915L7.60114 11.9594C7.73141 12.0329 7.87657 12.0691 8.02126 12.0679C8.02654 12.0679 8.03181 12.0674 8.0371 12.0673C8.03626 11.635 8.03543 11.327 8.03543 11.327L8.03534 10.7259Z" fill="#083042"/>
<path d="M8.03534 10.7259C8.02832 10.7263 8.0213 10.7267 8.01427 10.7268C7.91729 10.7276 7.81998 10.7033 7.73266 10.654L5.75332 9.53601C5.72427 9.51966 5.69798 9.49974 5.67485 9.47696C5.65173 9.45419 5.63178 9.42857 5.61541 9.40083C5.59087 9.35922 5.57441 9.31284 5.56744 9.26415C5.56512 9.24792 5.56385 9.23144 5.56368 9.21478L5.56365 6.94146C5.56342 6.91717 5.56444 6.8931 5.56671 6.86936C5.57267 6.80746 5.58812 6.74831 5.61127 6.69314L5.0768 6.36406L4.45117 6.01357C4.39245 6.13652 4.36384 6.27603 4.36529 6.42078L4.36534 9.81224C4.36728 10.011 4.47491 10.1939 4.64825 10.2915L7.60114 11.9594C7.73141 12.0329 7.87657 12.0691 8.02126 12.0679C8.02654 12.0679 8.03181 12.0674 8.0371 12.0673C8.03626 11.635 8.03543 11.327 8.03543 11.327L8.03534 10.7259Z" fill="#041619"/>
<path d="M11.1773 5.6281L8.36701 4.04085C8.10541 3.89316 7.78503 3.89611 7.52643 4.04892L4.74659 5.68881C4.61288 5.76779 4.51467 5.88073 4.4514 6.01301C4.45132 6.01318 4.45126 6.01337 4.45117 6.01355L5.0768 6.36404L5.61127 6.69312C5.61475 6.68483 5.61752 6.6762 5.62138 6.66812C5.62668 6.65704 5.63235 6.64616 5.63839 6.6355C5.65045 6.61418 5.66399 6.59375 5.67899 6.57435C5.71651 6.52588 5.76323 6.4839 5.81925 6.45081L7.6826 5.35158C7.72256 5.32797 7.76477 5.30994 7.80815 5.29701C7.8141 5.29524 7.82005 5.2935 7.82604 5.29193C7.85812 5.28351 7.89076 5.27789 7.92361 5.27524C7.93691 5.27416 7.95023 5.27346 7.96357 5.27334C7.97573 5.27322 7.98789 5.27351 8.00004 5.27417C8.04863 5.27686 8.09696 5.28584 8.14378 5.30113C8.1789 5.3126 8.21316 5.32761 8.24604 5.34617L10.1298 6.41012C10.1928 6.44573 10.2499 6.49235 10.2972 6.5469C10.313 6.56508 10.3277 6.58415 10.3411 6.60399C10.3472 6.61286 10.3528 6.62197 10.3584 6.63114L10.8389 6.30967L11.4935 5.91875C11.4932 5.91828 11.4929 5.91779 11.4926 5.91733C11.4123 5.79896 11.3026 5.69895 11.1773 5.6281Z" fill="#3DDB85"/>
<path d="M11.1773 5.6281L8.36701 4.04085C8.10541 3.89316 7.78503 3.89611 7.52643 4.04892L4.74659 5.68881C4.61288 5.76779 4.51467 5.88073 4.4514 6.01301C4.45132 6.01318 4.45126 6.01337 4.45117 6.01355L5.0768 6.36404L5.61127 6.69312C5.61475 6.68483 5.61752 6.6762 5.62138 6.66812C5.62668 6.65704 5.63235 6.64616 5.63839 6.6355C5.65045 6.61418 5.66399 6.59375 5.67899 6.57435C5.71651 6.52588 5.76323 6.4839 5.81925 6.45081L7.6826 5.35158C7.72256 5.32797 7.76477 5.30994 7.80815 5.29701C7.8141 5.29524 7.82005 5.2935 7.82604 5.29193C7.85812 5.28351 7.89076 5.27789 7.92361 5.27524C7.93691 5.27416 7.95023 5.27346 7.96357 5.27334C7.97573 5.27322 7.98789 5.27351 8.00004 5.27417C8.04863 5.27686 8.09696 5.28584 8.14378 5.30113C8.1789 5.3126 8.21316 5.32761 8.24604 5.34617L10.1298 6.41012C10.1928 6.44573 10.2499 6.49235 10.2972 6.5469C10.313 6.56508 10.3277 6.58415 10.3411 6.60399C10.3472 6.61286 10.3528 6.62197 10.3584 6.63114L10.8389 6.30967L11.4935 5.91875C11.4932 5.91828 11.4929 5.91779 11.4926 5.91733C11.4123 5.79896 11.3026 5.69895 11.1773 5.6281Z" fill="#37BF6E"/>
<path d="M10.3587 6.63103C10.3666 6.64412 10.3741 6.65739 10.381 6.67101C10.3868 6.6826 10.3922 6.69436 10.3971 6.70629C10.4071 6.73016 10.4153 6.75467 10.4217 6.7797C10.4312 6.81724 10.4365 6.85592 10.4369 6.89522L10.4368 9.0586C10.4374 9.11868 10.4282 9.1774 10.4107 9.23304C10.4088 9.23883 10.4069 9.24458 10.4049 9.2503C10.3992 9.2667 10.3926 9.28279 10.3854 9.29855C10.3788 9.31301 10.3718 9.32728 10.364 9.34112C10.352 9.3623 10.3387 9.3827 10.3241 9.40219C10.3022 9.43142 10.2773 9.4586 10.2498 9.48327C10.2315 9.49972 10.212 9.51504 10.1915 9.52911C10.1812 9.53615 10.1706 9.54287 10.1598 9.54926L8.2964 10.6487C8.21573 10.6964 8.12606 10.7217 8.03564 10.7258L8.03573 11.3268C8.03573 11.3268 8.03656 11.6349 8.0374 12.0672C8.17756 12.0634 8.31702 12.0253 8.44201 11.9514L11.2219 10.3113C11.4804 10.1587 11.638 9.87981 11.6352 9.57931L11.6353 6.35186C11.6337 6.19607 11.5808 6.04688 11.4938 5.91864L10.8392 6.30956L10.3587 6.63103Z" fill="#4285F4"/>
<path d="M10.3587 6.63103C10.3666 6.64412 10.3741 6.65739 10.381 6.67101C10.3868 6.6826 10.3922 6.69436 10.3971 6.70629C10.4071 6.73016 10.4153 6.75467 10.4217 6.7797C10.4312 6.81724 10.4365 6.85592 10.4369 6.89522L10.4368 9.0586C10.4374 9.11868 10.4282 9.1774 10.4107 9.23304C10.4088 9.23883 10.4069 9.24458 10.4049 9.2503C10.3992 9.2667 10.3926 9.28279 10.3854 9.29855C10.3788 9.31301 10.3718 9.32728 10.364 9.34112C10.352 9.3623 10.3387 9.3827 10.3241 9.40219C10.3022 9.43142 10.2773 9.4586 10.2498 9.48327C10.2315 9.49972 10.212 9.51504 10.1915 9.52911C10.1812 9.53615 10.1706 9.54287 10.1598 9.54926L8.2964 10.6487C8.21573 10.6964 8.12606 10.7217 8.03564 10.7258L8.03573 11.3268C8.03573 11.3268 8.03656 11.6349 8.0374 12.0672C8.17756 12.0634 8.31702 12.0253 8.44201 11.9514L11.2219 10.3113C11.4804 10.1587 11.638 9.87981 11.6352 9.57931L11.6353 6.35186C11.6337 6.19607 11.5808 6.04688 11.4938 5.91864L10.8392 6.30956L10.3587 6.63103Z" fill="#3870B2"/>
</svg>
