<svg width="32" height="32" viewBox="0 0 32 32" fill="none" xmlns="http://www.w3.org/2000/svg">
<path d="M16.1141 3.84326L3.93018 16.028L16.0633 28.1619L28.2472 15.9772L16.1141 3.84326Z" fill="#019833" stroke="black" stroke-width="0.0711205"/>
<path d="M16.0635 3.89426V2.82809L2.81348 16.079H3.93033L16.0635 3.89426Z" fill="#66FE98" stroke="black" stroke-width="0.0711205"/>
<path d="M16.033 3.89411V2.82794L29.2829 16.0788H28.1661L16.033 3.89411Z" fill="#45FE02" stroke="black" stroke-width="0.0711205"/>
<path d="M16.0632 28.233V29.2992L2.81323 16.0483H3.93009L16.0632 28.233Z" fill="#017D17" stroke="black" stroke-width="0.0711205"/>
<path d="M5.27158 4.17352H13.8151L14.3356 4.69407V6.2916L13.9228 6.79419H12.9895V14.728L21.0304 6.79419H19.7022L19.2356 6.2916V4.60432L19.6663 4.20942H28.3176L28.7483 4.64022V6.2198L9.18438 26.2877H6.95875L6.31454 25.9157V6.72239H5.23569L4.84082 6.3275V4.64022L5.27158 4.17352Z" stroke="black" stroke-width="1.42241"/>
<path d="M16.033 28.233V29.2992L29.2829 16.0483H28.1661L16.033 28.233Z" fill="#005D04" stroke="black" stroke-width="0.0711205"/>
<path d="M16.0276 2.72968L2.72778 16.0304L15.9722 29.2757L29.272 15.975L16.0276 2.72968Z" stroke="black" stroke-width="0.426723"/>
<path d="M13.906 4.98552L14.3883 4.73167L13.8933 4.23666H5.27575L4.83789 4.67455V6.33091L5.32334 6.8164L5.55496 6.33091L5.25037 6.02629V4.85859L5.47881 4.65551H13.7029L13.906 4.98552Z" fill="#FEFEFE" stroke="black" stroke-width="0.0711205"/>
<path d="M19.9985 4.60437L19.6942 4.90867V6.02592L19.9607 6.29246H21.3689V7.37195L12.0539 16.8142V6.30579H13.6019L13.9195 5.98816V4.85758L13.6264 4.63102H5.47966L5.21313 4.89757V6.05258L5.4841 6.32356H6.90111V25.6744L7.16763 25.941H8.77788L28.2984 5.79714V4.90867L27.9942 4.60437H19.9985Z" stroke="black" stroke-width="0.0711205"/>
<path d="M6.88684 6.29166V25.6774L7.13812 25.9646L6.94106 26.3402L6.38428 25.7851V6.79425L6.88684 6.29166Z" fill="#FEFEFE" stroke="black" stroke-width="0.0711205"/>
<path d="M5.49469 6.29166L5.35107 6.75903H6.39228L6.96674 6.29166H5.49469Z" fill="#808080" stroke="black" stroke-width="0.0711205"/>
<path d="M19.7948 6.8158L20.0233 6.34618L19.6933 6.04156V5.00078L20.074 4.62001H28.019L28.3236 5.02617L28.7551 4.72155L28.3109 4.27731H19.7694L19.3443 4.70251V6.37156L19.7853 6.78724M12.8827 14.8016L12.053 16.8149L21.4193 7.4225V6.30556L12.8827 14.8016Z" fill="#FEFEFE"/>
<path d="M19.7948 6.8158L20.0233 6.34618L19.6933 6.04156V5.00078L20.074 4.62001H28.019L28.3236 5.02617L28.7551 4.72155L28.3109 4.27731H19.7694L19.3443 4.70251V6.37156L19.7853 6.78724M12.8827 14.8016L12.053 16.8149L21.4193 7.4225V6.30556L12.8827 14.8016Z" stroke="black" stroke-width="0.0711205"/>
<path d="M13.8869 4.92748L14.2997 4.65823V6.29166L13.8241 6.76733H12.8997V14.8178L12.0562 16.8102V6.29166H13.5997L13.8869 6.05832V4.92748Z" fill="#808080" stroke="black" stroke-width="0.0711205"/>
<path d="M19.9985 4.60437L19.6942 4.90867V6.02592L19.9607 6.29246H21.3689V7.37195L12.0539 16.8142V6.30579H13.6019L13.9195 5.98816V4.85758L13.6264 4.63102H5.47966L5.21313 4.89757V6.05258L5.4841 6.32356H6.90111V25.6744L7.16763 25.941H8.77788L28.2984 5.79714V4.90867L27.9942 4.60437H19.9985Z" fill="#CCCCCC" stroke="black" stroke-width="0.0711205"/>
<path d="M28.3233 4.9348L28.7569 4.68448V6.25482L9.09283 26.3498H7.00513L7.20459 25.9535H8.80372L28.298 5.82327L28.3233 4.9348Z" fill="#808080" stroke="black" stroke-width="0.0711205"/>
<path d="M21.3805 6.31854L20.9407 6.77693H19.7917L20.061 6.31854C20.07 6.31854 21.3805 6.31854 21.3805 6.31854Z" fill="#808080" stroke="black" stroke-width="0.0711205"/>
<path d="M16.6912 17.6481C16.6764 17.6512 16.6626 17.6581 16.6512 17.6681L16.2737 17.9924C16.2624 18.0027 16.254 18.0157 16.2492 18.0302L15.8717 19.0874C15.8661 19.103 15.865 19.1198 15.8685 19.1359C15.8721 19.152 15.8801 19.1668 15.8917 19.1785L16.1804 19.4673C16.1971 19.4833 16.2194 19.4921 16.2426 19.4917H17.4086C17.4318 19.4921 17.4541 19.4833 17.4708 19.4673L17.7751 19.1607C17.7856 19.1502 17.7932 19.1373 17.7973 19.123L18.1216 18.0102C18.126 17.9951 18.1262 17.9791 18.1223 17.9638C18.1184 17.9486 18.1105 17.9347 18.0994 17.9236L17.8484 17.6726C17.8317 17.6565 17.8093 17.6477 17.7862 17.6481H16.709C16.7031 17.6475 16.6971 17.6475 16.6912 17.6481ZM14.5546 20.6289C14.5386 20.6324 14.5239 20.6402 14.5121 20.6516C14.5003 20.663 14.4919 20.6775 14.488 20.6934L14.3436 21.2664C14.3404 21.2793 14.3402 21.2927 14.3429 21.3057C14.3456 21.3187 14.3513 21.3308 14.3594 21.3413C14.3675 21.3518 14.3779 21.3603 14.3898 21.3662C14.4017 21.3721 14.4147 21.3752 14.428 21.3753H15.1143L13.413 26.233C13.4086 26.2461 13.4074 26.26 13.4094 26.2737C13.4114 26.2874 13.4167 26.3004 13.4247 26.3116C13.4327 26.3229 13.4433 26.3321 13.4555 26.3385C13.4678 26.3449 13.4814 26.3483 13.4952 26.3485H15.9716C15.9902 26.3487 16.0084 26.3431 16.0236 26.3323C16.0388 26.3215 16.0501 26.3062 16.056 26.2885L16.2181 25.7665C16.2222 25.7534 16.223 25.7395 16.2207 25.7259C16.2183 25.7123 16.2128 25.6995 16.2046 25.6885C16.1964 25.6775 16.1857 25.6685 16.1734 25.6624C16.1611 25.6563 16.1475 25.6531 16.1337 25.6532H15.5741L17.2576 20.7444C17.262 20.7313 17.2632 20.7174 17.2612 20.7037C17.2592 20.69 17.2539 20.677 17.2459 20.6658C17.2379 20.6545 17.2273 20.6453 17.2151 20.6389C17.2028 20.6325 17.1892 20.6291 17.1754 20.6289H14.5724C14.5665 20.6283 14.5605 20.6283 14.5546 20.6289ZM22.4348 20.6467C22.4158 20.6506 22.3986 20.6608 22.3859 20.6756L21.8707 21.2575H21.0511L20.5047 20.6911C20.4966 20.6828 20.487 20.6761 20.4763 20.6716C20.4656 20.667 20.4541 20.6646 20.4425 20.6645H18.4858C18.4678 20.6645 18.4503 20.6701 18.4356 20.6804C18.4209 20.6907 18.4098 20.7053 18.4036 20.7222L18.2237 21.2598C18.2193 21.2729 18.2181 21.2868 18.2201 21.3005C18.2222 21.3142 18.2274 21.3272 18.2354 21.3384C18.2434 21.3497 18.254 21.3589 18.2662 21.3653C18.2785 21.3717 18.2921 21.3751 18.3059 21.3753H18.8301L17.1998 26.1797C17.1954 26.1928 17.1942 26.2067 17.1962 26.2204C17.1983 26.2341 17.2035 26.2471 17.2115 26.2583C17.2195 26.2696 17.2301 26.2788 17.2424 26.2852C17.2546 26.2916 17.2682 26.295 17.282 26.2952H19.3653C19.3833 26.2951 19.4008 26.2896 19.4155 26.2792C19.4302 26.2689 19.4414 26.2543 19.4475 26.2374L19.6074 25.7687C19.6118 25.7556 19.6131 25.7417 19.611 25.728C19.609 25.7143 19.6038 25.7013 19.5957 25.6901C19.5877 25.6788 19.5772 25.6696 19.5649 25.6632C19.5527 25.6568 19.5391 25.6534 19.5253 25.6532H19.161L20.2004 22.3814H22.0816L20.8956 26.1819C20.8916 26.195 20.8907 26.2089 20.8931 26.2225C20.8954 26.236 20.9009 26.2489 20.9091 26.2599C20.9174 26.2709 20.9281 26.2799 20.9404 26.286C20.9527 26.2921 20.9663 26.2953 20.98 26.2952H22.99C23.0071 26.295 23.0238 26.2899 23.038 26.2804C23.0522 26.271 23.0633 26.2576 23.07 26.2419L23.2499 25.8109C23.2551 25.7978 23.2571 25.7835 23.2556 25.7694C23.2541 25.7553 23.2492 25.7418 23.2414 25.73C23.2335 25.7182 23.2229 25.7085 23.2105 25.7017C23.198 25.6949 23.1841 25.6912 23.17 25.691H22.8057L23.8629 22.3637H25.6531L24.4493 26.1819C24.4452 26.195 24.4444 26.2089 24.4467 26.2225C24.4491 26.236 24.4546 26.2489 24.4628 26.2599C24.471 26.2709 24.4817 26.2799 24.494 26.286C24.5063 26.2921 24.5199 26.2953 24.5337 26.2952H26.7414C26.7591 26.2953 26.7764 26.2901 26.7911 26.2801C26.8057 26.2702 26.817 26.2561 26.8235 26.2396L27.0034 25.771C27.0083 25.7577 27.0098 25.7435 27.008 25.7296C27.0062 25.7156 27.001 25.7023 26.993 25.6907C26.9849 25.6792 26.9742 25.6697 26.9617 25.6632C26.9492 25.6567 26.9353 25.6533 26.9213 25.6532H26.4837L27.8141 21.3331C27.8185 21.3196 27.8196 21.3054 27.8172 21.2914C27.8149 21.2775 27.8093 21.2644 27.8008 21.2531L27.3877 20.6978C27.3792 20.6871 27.3684 20.6785 27.3561 20.6727C27.3437 20.667 27.3302 20.6641 27.3166 20.6645H25.7375C25.7255 20.6643 25.7136 20.6665 25.7025 20.6711C25.6914 20.6757 25.6814 20.6825 25.673 20.6911L25.1755 21.2375H24.3049L23.7896 20.6734C23.7813 20.6648 23.7713 20.6579 23.7602 20.6534C23.7491 20.6488 23.7372 20.6465 23.7252 20.6467H22.4526C22.4467 20.6461 22.4407 20.6461 22.4348 20.6467Z" fill="#CCCCCC" stroke="black" stroke-width="0.568964" stroke-miterlimit="10"/>
<path d="M16.7092 17.7348L16.3316 18.0591L15.954 19.1164L16.2428 19.4051H17.4088L17.7131 19.0986L18.0374 17.9858L17.7864 17.7348H16.7092ZM14.5726 20.7156L14.4282 21.2887H15.2366L13.4954 26.2619H15.9718L16.1339 25.7399H15.4521L17.1756 20.7156H14.5726ZM22.4527 20.7334L21.913 21.3442H21.0157L20.4427 20.7512H18.486L18.3061 21.2887H18.9524L17.2822 26.2086H19.3655L19.5254 25.7399H19.0413L20.1362 22.2949H22.2018L20.9802 26.2086H22.9902L23.1701 25.7777H22.686L23.7987 22.2771H25.7732L24.5338 26.2086H26.7415L26.9214 25.7399H26.364L27.7299 21.3065L27.3168 20.7512H25.7376L25.2157 21.3242H24.2651L23.7254 20.7334H22.4527Z" fill="#CCCCCC" stroke="black" stroke-width="0.0711205" stroke-miterlimit="10"/>
</svg>
