<svg width="16" height="16" viewBox="0 0 16 16" fill="none" xmlns="http://www.w3.org/2000/svg">
<g clip-path="url(#clip0_8861_11056)">
<path d="M11.0364 10.0303L3.96295 5.9465M11.0364 10.0303L13.4272 9.38972M11.0364 10.0303L11.677 12.4212M3.96295 5.9465L3.32233 3.55566M3.96295 5.9465L1.57211 6.58713M7.49971 12.0722L7.49971 3.90449M7.49971 12.0722L9.24995 13.8225M7.49971 12.0722L5.74951 13.8225M7.49971 3.90449L9.24987 2.15446M7.49971 3.90449L5.74943 2.15446M11.0364 5.9465L3.96295 10.0303M11.0364 5.9465L11.677 3.55566M11.0364 5.9465L13.4272 6.58713M3.96295 10.0303L1.57211 9.38972M3.96295 10.0303L3.32233 12.4212" stroke="#090909" stroke-linecap="round" stroke-linejoin="round"/>
</g>
<defs>
<clipPath id="clip0_8861_11056">
<rect width="16" height="16" fill="white"/>
</clipPath>
</defs>
</svg>
