<svg width="16" height="16" viewBox="0 0 16 16" fill="none" xmlns="http://www.w3.org/2000/svg">
<path d="M9 4H8.5C8.5 4.27614 8.72386 4.5 9 4.5V4ZM12 7H11.5C11.5 7.27614 11.7239 7.5 12 7.5V7ZM12 11V10.5C11.7239 10.5 11.5 10.7239 11.5 11H12ZM5 4V4.5C5.27614 4.5 5.5 4.27614 5.5 4H5ZM2 7H1.5C1.5 7.27614 1.72386 7.5 2 7.5V7ZM2 11V10.5C1.72386 10.5 1.5 10.7239 1.5 11H2ZM7 0.5C5.61929 0.5 4.5 1.61929 4.5 3H5.5C5.5 2.17157 6.17157 1.5 7 1.5V0.5ZM9.5 3C9.5 1.61929 8.38071 0.5 7 0.5V1.5C7.82843 1.5 8.5 2.17157 8.5 3H9.5ZM9.5 4V3H8.5V4H9.5ZM11 3.5H9V4.5H11V3.5ZM12.5 7V5H11.5V7H12.5ZM12 7.5H13V6.5H12V7.5ZM13 7.5C13.8284 7.5 14.5 8.17157 14.5 9H15.5C15.5 7.61929 14.3807 6.5 13 6.5V7.5ZM14.5 9C14.5 9.82843 13.8284 10.5 13 10.5V11.5C14.3807 11.5 15.5 10.3807 15.5 9H14.5ZM13 10.5H12V11.5H13V10.5ZM12.5 13V11H11.5V13H12.5ZM3 14.5H11V13.5H3V14.5ZM5 3.5H3V4.5H5V3.5ZM4.5 3V4H5.5V3H4.5ZM1.5 5V7H2.5V5H1.5ZM1.5 11V13H2.5V11H1.5ZM2 7.5H3V6.5H2V7.5ZM3 10.5H2V11.5H3V10.5ZM4.5 9C4.5 9.82843 3.82843 10.5 3 10.5V11.5C4.38071 11.5 5.5 10.3807 5.5 9H4.5ZM3 3.5C2.17157 3.5 1.5 4.17157 1.5 5H2.5C2.5 4.72386 2.72386 4.5 3 4.5V3.5ZM3 7.5C3.82843 7.5 4.5 8.17157 4.5 9H5.5C5.5 7.61929 4.38071 6.5 3 6.5V7.5ZM3 13.5C2.72386 13.5 2.5 13.2761 2.5 13H1.5C1.5 13.8284 2.17157 14.5 3 14.5V13.5ZM11.5 13C11.5 13.2761 11.2761 13.5 11 13.5V14.5C11.8284 14.5 12.5 13.8284 12.5 13H11.5ZM11 4.5C11.2761 4.5 11.5 4.72386 11.5 5H12.5C12.5 4.17157 11.8284 3.5 11 3.5V4.5Z" fill="#090909"/>
</svg>
