<svg width="32" height="32" viewBox="0 0 32 32" fill="none" xmlns="http://www.w3.org/2000/svg">
<g clip-path="url(#clip0_8519_10759)">
<path fill-rule="evenodd" clip-rule="evenodd" d="M21.4199 30.71C20.8899 30.71 20.3799 30.59 19.9499 30.36C19.3899 30.06 18.9999 29.59 18.8199 29.01C18.4099 28.83 17.3299 28.43 15.8899 28.43C14.8399 28.43 14.3099 28.54 14.0499 28.61C13.7399 29.53 12.9099 30.28 11.9699 30.45C11.7799 30.49 11.5799 30.5 11.3899 30.5C10.5799 30.5 9.84992 30.21 9.13992 29.94C8.65992 29.75 8.20992 29.58 7.75992 29.49C6.82992 29.32 5.83992 29.12 4.87992 28.78C4.48992 28.65 4.01992 28.44 3.77992 28.01C3.62992 27.74 3.54992 27.47 3.55992 27.19C3.55992 26.89 3.64992 26.6 3.72992 26.33C3.76992 26.21 3.79992 26.09 3.82992 25.97C3.90992 25.63 3.87992 25.18 3.83992 24.75C3.78992 24.13 3.73992 23.48 4.00992 22.96C4.31992 22.3 5.13992 22.14 5.48992 22.08C5.89992 22 6.31992 21.92 6.43992 21.78C6.57992 21.63 6.69992 21.44 6.81992 21.24C6.93992 21.04 7.06992 20.83 7.22992 20.64C7.22992 20.11 7.23992 19.67 7.28992 19.33C7.37992 18.71 7.63992 17.73 7.96992 17.05C8.48992 15.97 9.42992 14.65 10.1199 13.68L10.3599 13.35C10.8099 12.72 11.1299 12.27 11.4399 11.53C11.7699 10.73 11.8299 10.54 11.8799 9.93C11.9399 9.26 11.9199 9.03 11.8999 8.61C11.8699 8.15 11.8299 7.46 11.8599 5.76C11.8699 4.98 12.0399 4.28 12.3399 3.66C13.2199 1.87 15.0699 1.33 15.6999 1.27C15.8099 1.27 15.9699 1.25 16.1499 1.25C16.7699 1.25 17.9499 1.35 18.8399 2.04C20.1399 3.05 20.7299 4.58 20.6699 6.84C20.6899 8.4 20.7499 9.39 20.8599 9.76L20.9299 9.99C21.0499 10.41 21.2299 10.98 21.4299 11.39C21.5999 11.73 21.9599 12.23 22.3399 12.75C22.5099 12.98 22.6799 13.22 22.8399 13.45C22.9499 13.61 23.0799 13.78 23.2099 13.97C24.0899 15.19 25.2999 16.85 25.5099 19.07C25.5699 19.7 25.5099 20.21 25.3899 20.79C25.6299 20.88 25.8799 21.03 26.0899 21.33C26.3399 21.69 26.3999 22.05 26.4599 22.44C26.4799 22.54 26.4899 22.65 26.5099 22.77C26.5699 23.11 26.8099 23.37 27.2099 23.72L27.3499 23.84C27.8699 24.29 28.4099 24.75 28.4599 25.39C28.4699 25.62 28.4299 25.85 28.3199 26.06C28.0899 26.54 27.5899 26.88 27.1899 27.15C27.1899 27.15 26.5299 27.6 26.2599 27.78C25.3299 28.41 24.4499 29 23.6499 29.73C23.2599 30.09 22.7899 30.52 21.9399 30.65C21.7599 30.68 21.5899 30.69 21.4199 30.69V30.71Z" fill="white"/>
<path fill-rule="evenodd" clip-rule="evenodd" d="M12.7898 3.89C12.5398 4.39 12.3698 5.01 12.3598 5.77C12.2998 8.99 12.4998 8.49 12.3798 9.97C12.3198 10.65 12.2498 10.9 11.9098 11.72C11.5398 12.61 11.1398 13.12 10.5898 13.9C9.89981 14.87 8.95981 16.2 8.43981 17.26C8.13981 17.86 7.89981 18.79 7.79981 19.4C7.73981 19.81 7.72981 20.34 7.74981 20.83C7.38981 21.15 7.19981 21.69 6.81981 22.1C6.57981 22.37 6.10981 22.45 5.58981 22.55C5.18981 22.63 4.64981 22.77 4.45981 23.17C4.08981 23.9 4.53981 25.15 4.31981 26.08C4.22981 26.47 4.05981 26.84 4.05981 27.18C4.05981 27.36 4.09981 27.54 4.21981 27.75C4.34981 27.98 4.63981 28.15 5.04981 28.29C5.95981 28.61 6.90981 28.81 7.84981 28.98C9.18981 29.22 10.4598 30.2 11.8798 29.94C12.7098 29.79 13.4498 29.04 13.6298 28.22C13.8598 28.1 14.4398 27.93 15.7998 27.91C17.8598 27.89 19.2298 28.64 19.2298 28.64V28.62C19.3298 29.19 19.6698 29.63 20.1698 29.9C20.5998 30.13 21.1898 30.26 21.8498 30.16C22.5398 30.06 22.9098 29.72 23.2898 29.37C24.3598 28.39 25.5898 27.63 26.7698 26.81C27.1398 26.55 27.6598 26.23 27.8598 25.82C27.9298 25.69 27.9598 25.55 27.9498 25.41C27.9198 24.94 27.3698 24.51 26.8798 24.09C26.4898 23.75 26.1198 23.38 26.0198 22.86C25.9198 22.34 25.9298 21.96 25.6798 21.62C25.4398 21.29 25.1598 21.22 24.7798 21.16C24.9998 20.33 25.0798 19.81 25.0098 19.12C24.7798 16.7 23.2598 14.94 22.4198 13.74C21.8798 12.96 21.2498 12.15 20.9798 11.62C20.7098 11.09 20.5098 10.34 20.3698 9.91C20.2398 9.48 20.1698 8.47 20.1498 6.83C20.2098 4.32 19.4398 3.16 18.5098 2.43C17.5798 1.71 16.2098 1.72 15.7198 1.76C15.3098 1.8 13.5698 2.22 12.7598 3.87L12.7898 3.89Z" fill="#191919"/>
<mask id="mask0_8519_10759" style="mask-type:luminance" maskUnits="userSpaceOnUse" x="0" y="0" width="32" height="32">
<path d="M32 0H0V32H32V0Z" fill="white"/>
</mask>
<g mask="url(#mask0_8519_10759)">
<path fill-rule="evenodd" clip-rule="evenodd" d="M12.78 3.87C12.53 4.37 12.36 4.99 12.35 5.75C12.29 8.97 12.49 8.47 12.37 9.95C12.31 10.63 12.24 10.88 11.9 11.7C11.53 12.59 11.13 13.1 10.58 13.88C9.89005 14.85 8.95005 16.18 8.43005 17.24C8.13005 17.84 7.89005 18.77 7.79005 19.38C7.73005 19.79 7.72005 20.32 7.74005 20.81C7.38005 21.13 7.19005 21.67 6.81005 22.08C6.57005 22.35 6.10005 22.43 5.58005 22.53C5.18005 22.61 4.64005 22.75 4.45005 23.15C4.08005 23.88 4.53005 25.13 4.31005 26.06C4.22005 26.45 4.05005 26.82 4.05005 27.16C4.05005 27.34 4.09005 27.52 4.21005 27.73C4.34005 27.96 4.63005 28.13 5.04005 28.27C5.95005 28.59 6.90005 28.79 7.84005 28.96C9.18005 29.2 10.45 30.18 11.87 29.92C12.7 29.77 13.44 29.02 13.62 28.2C13.85 28.08 14.43 27.91 15.79 27.89C17.85 27.87 19.22 28.62 19.22 28.62V28.6C19.32 29.17 19.66 29.61 20.16 29.88C20.59 30.11 21.18 30.24 21.84 30.14C22.5301 30.04 22.9 29.7 23.28 29.35C24.35 28.37 25.58 27.61 26.76 26.79C27.13 26.53 27.65 26.21 27.85 25.8C27.92 25.67 27.95 25.53 27.94 25.39C27.91 24.92 27.36 24.49 26.87 24.07C26.48 23.73 26.11 23.36 26.01 22.84C25.91 22.32 25.92 21.94 25.67 21.6C25.43 21.27 25.15 21.2 24.7701 21.14C24.99 20.31 25.07 19.79 25 19.1C24.7701 16.68 23.25 14.92 22.41 13.72C21.87 12.94 21.24 12.13 20.97 11.6C20.7 11.07 20.5 10.32 20.3601 9.89C20.2301 9.46 20.16 8.45 20.14 6.81C20.2 4.3 19.43 3.14 18.5 2.41C17.57 1.69 16.2 1.7 15.71 1.74C15.3 1.78 13.56 2.2 12.75 3.85L12.78 3.87Z" fill="#191919"/>
<path fill-rule="evenodd" clip-rule="evenodd" d="M5.88013 22.76C6.15013 22.7 6.42013 22.65 6.60013 22.56C7.07013 22.33 7.25013 21.99 7.41013 21.67C7.60013 21.31 7.77013 20.98 8.34013 20.88C8.69013 20.82 9.11013 21.01 9.62013 21.78C9.94013 22.26 10.2901 22.76 10.6501 23.29C11.1301 23.98 11.6301 24.71 12.1201 25.46C12.3101 25.75 12.5001 25.96 12.6801 26.17C12.9501 26.47 13.1801 26.74 13.3301 27.15C13.4001 27.35 13.4301 27.69 13.4201 28.01C13.3901 28.56 12.8701 29.13 12.5501 29.38C11.6901 30.06 10.3701 29.6 9.43013 29.23C8.42013 28.83 8.28013 28.8 7.89013 28.74C7.70013 28.71 7.44013 28.66 6.99013 28.55C6.84013 28.51 6.70013 28.48 6.56013 28.45C5.43013 28.18 4.62013 27.99 4.41013 27.63C4.18013 27.23 4.23013 27.06 4.39013 26.6C4.59013 26.04 4.59013 25.52 4.59013 25.05C4.59013 24.86 4.57013 24.67 4.56013 24.49C4.52013 24.05 4.48013 23.65 4.70013 23.28C4.87013 22.98 5.39013 22.87 5.87013 22.77L5.88013 22.76ZM19.9101 22.99C19.9101 22.44 19.9101 21.72 20.3001 21.44C20.5301 21.29 20.8601 21.35 21.2001 21.41C21.3101 21.43 21.4301 21.45 21.5401 21.46C22.3201 21.57 22.5301 21.55 22.7201 21.54C22.8401 21.54 22.9501 21.53 23.1901 21.55C23.4201 21.57 23.6001 21.52 23.8001 21.47C24.0901 21.39 24.4201 21.3 25.0001 21.42C25.1801 21.46 25.3001 21.55 25.4501 21.72C25.6501 21.92 25.6901 22.18 25.7401 22.49C25.8201 22.97 25.9101 23.57 26.6501 24.19C27.1201 24.58 27.5501 25.01 27.6701 25.29C27.7901 25.57 27.6701 25.75 27.5101 25.96C27.3401 26.17 26.1601 26.95 25.4201 27.43C24.9101 27.76 24.4701 28.11 24.0701 28.43C23.9001 28.57 23.7301 28.7 23.5601 28.83C23.4101 28.94 23.2801 29.06 23.1501 29.18C22.7901 29.51 22.4501 29.82 21.8201 29.91C20.9601 30.04 20.2701 29.76 19.8701 29.39C19.4801 29.02 19.4301 28.65 19.3801 28.01C19.3501 27.63 19.4901 26.99 19.6301 26.41C19.7201 26.02 19.8001 25.65 19.8201 25.41C19.8301 25.23 19.8401 24.93 19.8501 24.56C19.8601 24.18 19.8701 23.73 19.8901 23.31C19.8901 23.21 19.8901 23.09 19.8901 22.97L19.9101 22.99Z" fill="#FCC624"/>
<path fill-rule="evenodd" clip-rule="evenodd" d="M12.34 13.64C11.9 14.6 11.93 14.28 11.63 15.28C11.22 15.65 10.78 16.65 10.49 17.52C10.12 18.77 9.82997 20.06 10.18 21.56C10.32 21.71 10.43 21.86 10.56 21.98C10.76 22.17 10.98 22.33 11.24 22.53C12.17 23.25 12.83 23.63 12.96 24.09C13.13 24.71 12.75 25.12 12.27 25.38C12.62 25.73 13.74 26.46 15.78 26.37C17.58 26.29 18.7 25.6 19.66 24.42C19.66 24.15 19.7 23.69 19.71 23.2C19.72 22.73 19.73 22.26 19.8 21.89C19.82 21.8 19.85 21.72 19.88 21.65C20 21.36 20.31 21.16 20.61 21.14C20.77 21.14 20.94 21.12 21.1 21.15C21.34 19.22 21.15 17.89 20.19 15.85C20.12 15.71 19.76 15.1 19.55 14.93C19.38 14.11 19.36 14.15 19.03 13.39C18.53 12.25 18.34 10.92 18.19 10.15C18.08 10.21 17.9 10.28 17.62 10.5C16.97 11.01 16.25 11.72 15.36 11.74C14.59 11.78 14.22 11.59 13.87 11.22C13.61 10.95 13.42 10.61 13.11 10.39C13.11 10.49 12.78 12.67 12.35 13.63L12.34 13.64ZM15.8 7.89C15.78 7.68 15.77 7.28 15.92 6.79C16.15 6.03 16.97 5.52 17.66 5.88C18.36 6.24 18.48 7.17 18.32 7.69C18.22 8.01 17.97 8.39 17.79 8.62C17.65 8.56 17.47 8.5 17.25 8.42C17.38 8.35 17.49 8.23 17.57 8.08C17.8 7.66 17.72 7.1 17.39 6.85C17.06 6.59 16.61 6.73 16.38 7.15C16.22 7.45 16.21 7.8 16.33 8.08C16.13 8 15.96 7.94 15.8 7.89ZM13.25 6.07C13.9 5.84 14.29 6.39 14.45 7.18C14.5 7.42 14.5 7.67 14.47 7.89C14.38 7.92 14.28 7.97 14.17 8.03C14.18 7.98 14.19 7.92 14.2 7.87C14.25 7.43 14.05 6.97 13.74 6.85C13.43 6.73 13.14 6.99 13.09 7.43C13.04 7.85 13.23 8.29 13.51 8.43C13.43 8.49 13.34 8.55 13.26 8.61C13.03 8.39 12.88 8.03 12.8 7.66C12.64 6.98 12.81 6.23 13.25 6.07Z" fill="#F5F5F5"/>
<path d="M13.06 10.16C13.06 10.16 13.06 10.13 13.04 10.11L13.36 10.3C13.67 10.48 13.84 10.56 14.12 10.66C14.42 10.76 14.71 10.8 15.05 10.78C15.42 10.76 15.98 10.58 16.3 10.43C16.62 10.28 17.11 9.96 17.55 9.63C17.64 9.56 17.89 9.46 17.89 9.41C17.89 9.34 17.69 9.32 17.62 9.35C17.55 9.39 17.43 9.5 17.37 9.55C16.97 9.86 16.56 10.12 16.22 10.28C15.89 10.44 15.43 10.57 15.01 10.6C14.49 10.63 13.91 10.47 13.4 10.17C13.09 9.98 12.77 9.82 12.77 9.82C12.65 9.66 12.77 9.38 12.86 9.25C13 9.02 13.24 8.8 13.48 8.63C13.48 8.63 14.19 8.17 14.47 8.05C14.74 7.93 14.87 7.94 15.03 7.93C15.49 7.91 15.83 8.04 16.33 8.24L18.04 8.91C18.19 9.01 18.24 9.1 18.27 9.24C18.3 9.42 18.25 9.81 18.13 9.96C18.02 10.1 17.91 10.08 17.54 10.36C17.32 10.53 16.93 10.87 16.65 11.06C16.06 11.45 15.53 11.65 14.83 11.56C14.47 11.51 14.22 11.39 13.96 11.14C13.82 11.01 13.66 10.79 13.5 10.6C13.35 10.43 13.19 10.29 13.04 10.15L13.06 10.16Z" fill="#FCC624"/>
<path fill-rule="evenodd" clip-rule="evenodd" d="M24.2602 21.29C24.2602 21.29 24.3102 21.13 24.3102 21.1C24.3702 20.45 23.1302 20.31 22.1602 20.34C21.7202 20.35 21.3802 20.41 21.1702 20.47C20.8102 20.58 20.6402 20.82 20.6002 21.13C20.5202 21.75 20.7002 23.06 21.3102 23.34C21.9402 23.64 22.8902 23.21 23.4502 22.58C23.8302 22.15 24.0702 21.65 24.2602 21.29Z" fill="#191919"/>
</g>
</g>
<defs>
<clipPath id="clip0_8519_10759">
<rect width="32" height="32" fill="white"/>
</clipPath>
</defs>
</svg>
