<svg width="32" height="32" viewBox="0 0 32 32" fill="none" xmlns="http://www.w3.org/2000/svg">
<path fill-rule="evenodd" clip-rule="evenodd" d="M6 5C3.79086 5 2 6.79086 2 9V24C2 25.6569 3.34315 27 5 27H10V25H5C4.44772 25 4 24.5523 4 24V13H28V18H30V13V11V9C30 6.79086 28.2091 5 26 5H6ZM28 11V9C28 7.89543 27.1046 7 26 7H6C4.89543 7 4 7.89543 4 9V11H28Z" fill="#090909"/>
<path fill-rule="evenodd" clip-rule="evenodd" d="M12.01 25.7911C11.9352 25.8694 11.9155 26.0178 12.0131 26.1155C12.7324 26.8244 13.7428 27.2289 14.7636 27.2289C16.4676 27.2289 17.5762 26.1896 17.5762 24.8731C17.5762 24.2979 17.402 23.8508 17.1117 23.4994C16.8231 23.1501 16.4246 22.9012 15.9845 22.7115L15.0095 22.3057C14.9712 22.2899 14.9325 22.2744 14.8937 22.2588C14.6782 22.1721 14.4574 22.0833 14.2692 21.9487C14.1047 21.8309 14.0214 21.703 14.0214 21.5221C14.0214 21.3383 14.0927 21.1938 14.2309 21.092C14.3731 20.9873 14.5954 20.9212 14.9058 20.9212C15.456 20.9212 15.8717 21.1167 16.3075 21.4785C16.4236 21.5753 16.5742 21.5326 16.6466 21.442L17.289 20.6353C17.372 20.5467 17.3602 20.3993 17.2735 20.3125C16.675 19.7133 15.7963 19.3414 14.9058 19.3414C13.4121 19.3414 12.2682 20.2911 12.2682 21.5878C12.2682 22.7757 13.1135 23.3931 13.8495 23.7057L14.8338 24.1328L14.8367 24.134C15.1743 24.2781 15.416 24.3821 15.5764 24.5075C15.6543 24.5684 15.7091 24.6317 15.7451 24.7035C15.7811 24.7752 15.8012 24.8612 15.8012 24.9716C15.8012 25.1746 15.7278 25.3407 15.5736 25.459C15.4158 25.5802 15.1617 25.6601 14.7855 25.6601C14.205 25.6601 13.5721 25.3572 13.0929 24.9094L13.0886 24.9058C12.984 24.8185 12.8326 24.8289 12.7508 24.9295L12.01 25.7911ZM17.8007 26.1155C17.7031 26.0178 17.7228 25.8694 17.7976 25.7911L18.5384 24.9295C18.6202 24.8289 18.7715 24.8185 18.8761 24.9058L18.8805 24.9094C19.3597 25.3572 19.9926 25.6601 20.5731 25.6601C20.9492 25.6601 21.2033 25.5802 21.3612 25.459C21.5153 25.3407 21.5887 25.1746 21.5887 24.9716C21.5887 24.8612 21.5686 24.7752 21.5327 24.7035C21.4967 24.6317 21.4418 24.5684 21.364 24.5075C21.2036 24.3821 20.9619 24.2781 20.6242 24.134L20.6213 24.1328L19.6371 23.7057C18.9011 23.3931 18.0558 22.7757 18.0558 21.5878C18.0558 20.2911 19.1996 19.3414 20.6934 19.3414C21.5839 19.3414 22.4625 19.7133 23.0611 20.3125C23.1478 20.3993 23.1596 20.5467 23.0766 20.6353L22.4342 21.442C22.3618 21.5326 22.2112 21.5753 22.0951 21.4785C21.6592 21.1167 21.2436 20.9212 20.6934 20.9212C20.383 20.9212 20.1606 20.9873 20.0185 21.092C19.8803 21.1938 19.809 21.3383 19.809 21.5221C19.809 21.703 19.8922 21.8309 20.0568 21.9487C20.245 22.0833 20.4657 22.1721 20.6812 22.2588C20.7201 22.2744 20.7588 22.2899 20.797 22.3057L21.772 22.7115C22.2122 22.9012 22.6107 23.1501 22.8992 23.4994C23.1896 23.8508 23.3638 24.2979 23.3638 24.8731C23.3638 26.1896 22.2551 27.2289 20.5512 27.2289C19.5304 27.2289 18.52 26.8244 17.8007 26.1155ZM24.2452 27.0211C24.2063 26.98 24.1795 26.9235 24.1795 26.8661V19.7043C24.1795 19.623 24.2214 19.5628 24.2695 19.5262C24.3149 19.4915 24.3716 19.4729 24.4217 19.4729H25.6905C25.8488 19.4729 25.9218 19.6112 25.9218 19.7043V22.342H28.3578V19.7043C28.3578 19.5461 28.4958 19.4729 28.589 19.4729H29.8578C29.9327 19.4729 29.9935 19.5061 30.0344 19.5493C30.0732 19.5903 30.1 19.6469 30.1 19.7043V26.8661C30.1 26.9474 30.0581 27.0076 30.0101 27.0442C29.9646 27.0789 29.9079 27.0975 29.8578 27.0975H28.589C28.4308 27.0975 28.3578 26.9592 28.3578 26.8661V23.9218H25.9218V26.8661C25.9218 27.0243 25.7838 27.0975 25.6905 27.0975H24.4217C24.3469 27.0975 24.286 27.0643 24.2452 27.0211Z" fill="#090909"/>
</svg>
