<svg width="32" height="32" viewBox="0 0 32 32" fill="none" xmlns="http://www.w3.org/2000/svg">
<path d="M15.0212 6.76758C16.2341 6.79362 17.1914 7.13558 17.9008 7.73212C18.3832 8.1378 18.7285 8.6423 18.9624 9.19868C20.8308 7.69558 22.6162 6.75797 25.3565 6.75797C26.3672 6.75797 27.208 6.97096 27.8839 7.3686C28.5622 7.76773 29.0437 8.33505 29.3597 8.99226C29.9823 10.2871 29.962 11.9208 29.6238 13.3982L29.6233 13.4003L27.2183 24.2942C26.9768 25.3885 25.8686 26.0493 24.7774 25.8308C23.6795 25.611 22.933 24.5671 23.1765 23.4634L25.444 13.1619L25.4451 13.1568C25.7742 11.7271 25.207 10.5916 23.6488 10.5858C22.2234 10.5805 20.3715 11.4309 19.273 12.9051L16.7319 24.3022C16.49 25.3962 15.382 26.0573 14.2909 25.8388C13.1801 25.6163 12.413 24.5768 12.6589 23.4631L14.9352 13.1544L14.9367 13.1479C15.2244 11.9165 14.8609 10.7826 13.491 10.6112C12.047 10.4585 9.97732 11.3129 8.78485 12.9154L6.23233 24.3146C5.98823 25.4083 4.87869 26.0667 3.78797 25.8459C2.69034 25.6237 1.94626 24.578 2.19248 23.4748L5.50596 8.62841C5.75006 7.53472 6.85959 6.87627 7.95031 7.09707C8.77851 7.26473 9.27921 7.81618 9.47383 8.46555C11.0735 7.385 12.9254 6.65491 15.0212 6.76758Z" fill="#2A7DEB"/>
</svg>
