<svg width="16" height="16" viewBox="0 0 16 16" fill="none" xmlns="http://www.w3.org/2000/svg">
<rect x="8.5" y="8.5" width="6" height="6" rx="1.5" stroke="#090909"/>
<path fill-rule="evenodd" clip-rule="evenodd" d="M5.35359 10.6465L3.85359 9.14652L3.50004 8.79297L3.14648 9.14652L1.64648 10.6465L2.35359 11.3536L3.00004 10.7072V12.0001C3.00004 13.6569 4.34318 15.0001 6.00004 15.0001V14.0001C4.89547 14.0001 4.00004 13.1046 4.00004 12.0001V10.7072L4.64648 11.3536L5.35359 10.6465Z" fill="#090909"/>
<path fill-rule="evenodd" clip-rule="evenodd" d="M13 4C13 2.34315 11.6569 1 10 1V2C11.1046 2 12 2.89543 12 4V5.29289L11.3536 4.64645L10.6464 5.35355L12.1464 6.85355L12.5 7.20711L12.8536 6.85355L14.3536 5.35355L13.6464 4.64645L13 5.29289V4Z" fill="#090909"/>
<path fill-rule="evenodd" clip-rule="evenodd" d="M3 2H4.05891L2 3.18871V3C2 2.44772 2.44772 2 3 2ZM2 4.34341L6.05622 2.00155C6.41991 2.02171 6.73177 2.23621 6.88967 2.54293L2 5.36598V4.34341ZM2.85585 6.98969C2.5302 6.94267 2.25531 6.73874 2.1103 6.457L7 3.63393V4.59706L2.85585 6.98969ZM7 5.75176V6C7 6.55228 6.55228 7 6 7H4.83799L7 5.75176ZM1 3C1 1.89543 1.89543 1 3 1H6C7.10457 1 8 1.89543 8 3V6C8 7.10457 7.10457 8 6 8H3C1.89543 8 1 7.10457 1 6V3Z" fill="#090909"/>
</svg>
