<svg width="16" height="16" viewBox="0 0 16 16" fill="none" xmlns="http://www.w3.org/2000/svg">
<path d="M2.5 10.5L2.5 12C2.5 12.2761 2.72386 12.5 3 12.5H4C4.27614 12.5 4.5 12.2761 4.5 12V11" stroke="#090909"/>
<path d="M3.5 6.5L4.31063 3.25746C4.42193 2.8123 4.82191 2.5 5.28078 2.5H10.7192C11.1781 2.5 11.5781 2.8123 11.6894 3.25746L12.5 6.5" stroke="#090909"/>
<path d="M11.5 11V12C11.5 12.2761 11.7239 12.5 12 12.5H13C13.2761 12.5 13.5 12.2761 13.5 12V10.5" stroke="#090909"/>
<path d="M2.5 8C2.5 7.17157 3.17157 6.5 4 6.5H12C12.8284 6.5 13.5 7.17157 13.5 8V10.5H2.5V8Z" stroke="#090909"/>
<rect x="3.68701" y="7.68713" width="1.62573" height="1.62573" rx="0.812866" fill="#090909"/>
<rect x="10.7065" y="7.68713" width="1.62573" height="1.62573" rx="0.812866" fill="#090909"/>
</svg>
