<svg width="16" height="16" viewBox="0 0 16 16" fill="none" xmlns="http://www.w3.org/2000/svg">
<rect x="9" y="14" width="7" height="1" fill="#A660D4"/>
<path fill-rule="evenodd" clip-rule="evenodd" d="M9 9.5C9 8.67157 9.67157 8 10.5 8H14.5C15.3284 8 16 8.67157 16 9.5V11.5C16 12.3284 15.3284 13 14.5 13H10.5C9.67157 13 9 12.3284 9 11.5V9.5ZM10.5 9C10.2239 9 10 9.22386 10 9.5V11.5C10 11.7761 10.2239 12 10.5 12H14.5C14.7761 12 15 11.7761 15 11.5V9.5C15 9.22386 14.7761 9 14.5 9H10.5Z" fill="#A660D4"/>
<path fill-rule="evenodd" clip-rule="evenodd" d="M6.13829 3.3581C6.7137 3.12711 7.34201 3 8 3C8.658 3 9.28631 3.12711 9.86172 3.3581L9.5901 2L6.40991 2L6.13829 3.3581ZM11.0001 3.99971C11 3.96747 10.9969 3.93476 10.9903 3.90194L10.5707 1.80388C10.4772 1.33646 10.0668 1 9.5901 1H6.40991C5.93323 1 5.52281 1.33646 5.42933 1.80388L5.00971 3.90194C5.00315 3.93476 4.99996 3.96747 4.99991 3.99971C3.78551 4.91192 3 6.36423 3 8C3 9.63578 3.78551 11.0881 4.99991 12.0003C4.99996 12.0325 5.00315 12.0653 5.00971 12.0981L5.42933 14.1961C5.52281 14.6635 5.93323 15 6.40991 15H8V14H6.40991L6.13829 12.6419C6.7137 12.8729 7.34201 13 8 13V12C5.79086 12 4 10.2091 4 8C4 5.79087 5.79086 4 8 4C9.86384 4 11.4299 5.27478 11.874 7H12.9C12.6523 5.77979 11.9602 4.72094 11.0001 3.99971Z" fill="#090909"/>
</svg>
