<svg width="16" height="16" viewBox="0 0 16 16" fill="none" xmlns="http://www.w3.org/2000/svg">
<path fill-rule="evenodd" clip-rule="evenodd" d="M5.78241 10.3571L2.3881 9.68088C2.0023 9.60403 1.85226 9.13235 2.12274 8.84672L9.57036 0.982127C9.88961 0.644999 10.456 0.887168 10.4328 1.35089L10.2182 5.64311L13.6125 6.31931C13.9983 6.39617 14.1483 6.86785 13.8778 7.15347L6.43023 15.0181C6.11097 15.3552 5.54462 15.113 5.5678 14.6493L5.78241 10.3571ZM9.17632 6.45521L9.28328 4.31602L9.81279 1.47382L8.23638 3.84514L3.47128 8.87702L6.82427 9.54499L6.71731 11.6841L6.18779 14.5264L7.76416 12.1551L12.5293 7.12317L9.17632 6.45521Z" fill="#090909"/>
</svg>
