<svg width="16" height="16" viewBox="0 0 16 16" fill="none" xmlns="http://www.w3.org/2000/svg">
<path d="M8.98115 12C8.58515 12 8.23682 11.9193 7.93615 11.758C7.64282 11.5967 7.41182 11.3693 7.24315 11.076C7.07448 10.7753 6.99015 10.4307 6.99015 10.042V5.213H4.99915V3.97H8.36515V10.009C8.36515 10.2363 8.42748 10.4197 8.55215 10.559C8.68415 10.691 8.86015 10.757 9.08015 10.757H10.8511V12H8.98115Z" fill="white"/>
<circle cx="8" cy="8" r="6.5" fill="#A660D4"/>
<path d="M8.03515 12.11C7.49248 12.11 7.01582 12.0147 6.60515 11.824C6.20182 11.6333 5.88648 11.3583 5.65915 10.999C5.43915 10.6397 5.32915 10.218 5.32915 9.734H6.68215C6.68215 10.0933 6.80315 10.3793 7.04515 10.592C7.29448 10.8047 7.62448 10.911 8.03515 10.911C8.43115 10.911 8.74282 10.8047 8.97015 10.592C9.20482 10.3793 9.32215 10.1007 9.32215 9.756C9.32215 9.492 9.24882 9.25733 9.10215 9.052C8.95548 8.84667 8.73915 8.711 8.45315 8.645L7.37515 8.37C6.79582 8.22333 6.33748 7.94833 6.00015 7.545C5.66282 7.14167 5.49415 6.66133 5.49415 6.104C5.49415 5.64933 5.59315 5.25333 5.79115 4.916C5.99648 4.57867 6.28248 4.31833 6.64915 4.135C7.02315 3.95167 7.45948 3.86 7.95815 3.86C8.46415 3.86 8.90415 3.95167 9.27815 4.135C9.65215 4.31833 9.94182 4.57867 10.1471 4.916C10.3598 5.246 10.4661 5.63467 10.4661 6.082H9.12415C9.12415 5.76667 9.01782 5.51733 8.80515 5.334C8.59248 5.14333 8.31015 5.048 7.95815 5.048C7.61348 5.048 7.33848 5.14333 7.13315 5.334C6.93515 5.51733 6.83615 5.75933 6.83615 6.06C6.83615 6.30933 6.90582 6.51467 7.04515 6.676C7.19182 6.83733 7.39348 6.95467 7.65015 7.028L8.76115 7.303C9.35515 7.44967 9.82082 7.743 10.1581 8.183C10.5028 8.623 10.6751 9.14733 10.6751 9.756C10.6751 10.2327 10.5651 10.647 10.3451 10.999C10.1325 11.351 9.82815 11.626 9.43215 11.824C9.03615 12.0147 8.57048 12.11 8.03515 12.11Z" fill="white"/>
</svg>
