<svg width="16" height="16" viewBox="0 0 16 16" fill="none" xmlns="http://www.w3.org/2000/svg">
<circle cx="8" cy="8" r="6.5" fill="#E59408"/>
<path d="M7.45215 12.11C6.86548 12.11 6.38882 11.901 6.02215 11.483C5.66282 11.065 5.48315 10.504 5.48315 9.8V8.161C5.48315 7.44967 5.66282 6.885 6.02215 6.467C6.38882 6.049 6.86548 5.84 7.45215 5.84C7.99482 5.84 8.42382 6.01233 8.73915 6.357C9.05448 6.69433 9.21215 7.15633 9.21215 7.743L8.80515 7.171H9.12415L9.08015 5.664V3.97H10.4551V12H9.11315V10.779H8.80515L9.20115 10.207C9.20115 10.7937 9.04348 11.2593 8.72815 11.604C8.42015 11.9413 7.99482 12.11 7.45215 12.11ZM7.96915 10.922C8.32115 10.922 8.59248 10.8157 8.78315 10.603C8.98115 10.3903 9.08015 10.0897 9.08015 9.701V8.249C9.08015 7.86033 8.98115 7.55967 8.78315 7.347C8.59248 7.13433 8.32115 7.028 7.96915 7.028C7.61715 7.028 7.34215 7.12333 7.14415 7.314C6.95348 7.50467 6.85815 7.798 6.85815 8.194V9.756C6.85815 10.1447 6.95348 10.438 7.14415 10.636C7.34215 10.8267 7.61715 10.922 7.96915 10.922Z" fill="white"/>
</svg>
