<svg width="16" height="16" viewBox="0 0 16 16" fill="none" xmlns="http://www.w3.org/2000/svg">
<path d="M8.98115 12C8.58515 12 8.23682 11.9193 7.93615 11.758C7.64282 11.5967 7.41182 11.3693 7.24315 11.076C7.07448 10.7753 6.99015 10.4307 6.99015 10.042V5.213H4.99915V3.97H8.36515V10.009C8.36515 10.2363 8.42748 10.4197 8.55215 10.559C8.68415 10.691 8.86015 10.757 9.08015 10.757H10.8511V12H8.98115Z" fill="white"/>
<circle cx="8" cy="8" r="6.5" fill="#E1465E"/>
<path d="M8.00215 12.11C7.23215 12.11 6.61982 11.89 6.16515 11.45C5.71782 11.01 5.49415 10.4013 5.49415 9.624V6.346C5.49415 5.56133 5.71782 4.95267 6.16515 4.52C6.61982 4.08 7.23215 3.86 8.00215 3.86C8.77215 3.86 9.38082 4.08 9.82815 4.52C10.2828 4.95267 10.5101 5.55767 10.5101 6.335V9.624C10.5101 10.4013 10.2828 11.01 9.82815 11.45C9.38082 11.89 8.77215 12.11 8.00215 12.11ZM8.00215 10.9C8.37615 10.9 8.65848 10.801 8.84915 10.603C9.03982 10.3977 9.13515 10.108 9.13515 9.734V6.236C9.13515 5.85467 9.03982 5.565 8.84915 5.367C8.65848 5.169 8.37615 5.07 8.00215 5.07C7.62815 5.07 7.34582 5.169 7.15515 5.367C6.96448 5.565 6.86915 5.85467 6.86915 6.236V9.734C6.86915 10.108 6.96448 10.3977 7.15515 10.603C7.35315 10.801 7.63548 10.9 8.00215 10.9Z" fill="white"/>
</svg>
