<svg width="16" height="16" viewBox="0 0 16 16" fill="none" xmlns="http://www.w3.org/2000/svg">
<path d="M13 4H14V9H13V4Z" fill="#090909"/>
<path d="M11 7L11 6L16 6L16 7L11 7Z" fill="#090909"/>
<path d="M1.54653 13.1541C1.95121 11.0057 3.92363 9.46875 6.5 9.46875C9.07637 9.46875 11.0488 11.0057 11.4535 13.1541C11.4712 13.2484 11.4438 13.3326 11.3776 13.4026C11.3075 13.4769 11.1946 13.5312 11.0625 13.5312H1.9375C1.80544 13.5312 1.69252 13.4769 1.62236 13.4026C1.55622 13.3326 1.52876 13.2484 1.54653 13.1541Z" stroke="#090909" stroke-width="0.9375"/>
<circle cx="6.5" cy="5" r="2.5" stroke="#090909"/>
</svg>
