<svg width="16" height="16" viewBox="0 0 16 16" fill="none" xmlns="http://www.w3.org/2000/svg">
<path fill-rule="evenodd" clip-rule="evenodd" d="M6 4C6 4.82843 5.32843 5.5 4.5 5.5C3.67157 5.5 3 4.82843 3 4C3 3.17157 3.67157 2.5 4.5 2.5C5.32843 2.5 6 3.17157 6 4ZM5 6.44999C6.14112 6.21836 7 5.20948 7 4C7 2.61929 5.88071 1.5 4.5 1.5C3.11929 1.5 2 2.61929 2 4C2 5.20948 2.85888 6.21836 4 6.44999L4 14V14.5H5L5 14V11H5.00714H5.01819H5.02922H5.04025H5.05126H5.06227H5.07326H5.08425H5.09522H5.10619H5.11714H5.12809H5.13902H5.14995H5.16086H5.17177H5.18266H5.19355H5.20442H5.21529H5.22614H5.23699H5.24783H5.25865H5.26947H5.28027H5.29107H5.30185H5.31263H5.32339H5.33415H5.34489H5.35563H5.36636H5.37707H5.38778H5.39847H5.40916H5.41983H5.4305H5.44115H5.4518H5.46243H5.47305H5.48367H5.49427H5.50487H5.51545H5.52602H5.53659H5.54714H5.55769H5.56822H5.57874H5.58925H5.59976H5.61025H5.62073H5.6312H5.64167H5.65212H5.66256H5.67299H5.68341H5.69382H5.70422H5.71462H5.725H5.73537H5.74573H5.75607H5.76641H5.77674H5.78706H5.79737H5.80767H5.81796H5.82824H5.8385H5.84876H5.85901H5.86924H5.87947H5.88969H5.89989H5.91009H5.92027H5.93045H5.94061H5.95076H5.96091H5.97104H5.98116H5.99128H6.00138H6.01147H6.02155H6.03162H6.04168H6.05173H6.06177H6.0718H6.08182H6.09183H6.10183H6.11182H6.12179H6.13176H6.14172H6.15166H6.1616H6.17152H6.18144H6.19134H6.20123H6.21112H6.22099H6.23085H6.2407H6.25054H6.26037H6.2702H6.28H6.2898H6.29959H6.30937H6.31914H6.32889H6.33864H6.34838H6.3581H6.36782H6.37752H6.38721H6.3969H6.40657H6.41623H6.42588H6.43552H6.44515H6.45477H6.46438H6.47398H6.48356H6.49314H6.50271H6.51226H6.52181H6.53134H6.54086H6.55038H6.55988H6.56937H6.57885H6.58832H6.59778H6.60723H6.61667H6.6261H6.63551H6.64492H6.65431H6.6637H6.67307H6.68243H6.69179H6.70113H6.71046H6.71978H6.72909H6.73839H6.74767H6.75695H6.76622H6.77547H6.78472H6.79395H6.80317H6.81238H6.82158H6.83078H6.83995H6.84912H6.85828H6.86743H6.87656H6.88569H6.8948H6.90391H6.913H6.92208H6.93115H6.94021H6.94926H6.9583H6.96733H6.97634H6.98535H6.99434H7.00333H7.0123H7.02126H7.03021H7.03915H7.04808H7.057H7.06591H7.0748H7.08369H7.09256H7.10142H7.11028H7.11912H7.12795H7.13677H7.14557H7.15437H7.16316H7.17193H7.1807H7.18945H7.19819H7.20692H7.21564H7.22435H7.23305H7.24173H7.25041H7.25907H7.26773H7.27637H7.285H7.29362H7.30223H7.31083H7.31942H7.32799H7.33656H7.34511H7.35365H7.36218H7.3707H7.37921H7.38771H7.39619H7.40467H7.41313H7.42159H7.43003H7.43846H7.44688H7.45529H7.46368H7.47207H7.48044H7.48881H7.49716H7.5055H7.51383H7.52215H7.53046H7.53875H7.54704H7.55531H7.56357H7.57182H7.58006H7.58829H7.59651H7.60471H7.61291H7.62109H7.62926H7.63742H7.64557H7.65371H7.66184H7.66995H7.67805H7.68615H7.69423H7.7023H7.71036H7.7184H7.72644H7.73446H7.74248H7.75048H7.75847H7.76645H7.77441H7.78237H7.79031H7.79825H7.80617H7.81408H7.82198H7.82986H7.83774H7.8456H7.85346H7.8613H7.86913H7.87695H7.88476H7.89255H7.90033H7.90811H7.91587H7.92362H7.93136H7.93908H7.9468H7.9545H7.96219H7.96987H7.97754H7.9852H7.99285H8.00048H8.0081H8.01571H8.02331H8.0309H8.03848H8.04604H8.05359H8.06114H8.06867H8.07618H8.08369H8.09119H8.09867H8.10614H8.1136H8.12105H8.12849H8.13591H8.14333H8.15073H8.15812H8.1655H8.17286H8.18022H8.18756H8.19489H8.20222H8.20952H8.21682H8.2241H8.23138H8.23864H8.24589H8.25313H8.26035H8.26757H8.27477H8.28196H8.28914H8.29631H8.30347H8.31061H8.31774H8.32486H8.33197H8.33907H8.34615H8.35323H8.36029H8.36734H8.37437H8.3814H8.38842H8.39542H8.40241H8.40939H8.41635H8.42331H8.43025H8.43718H8.4441H8.45101H8.4579H8.46479H8.47166H8.47852H8.48537H8.4922H8.49903H8.50584H8.51264H8.51943H8.5262H8.53297H8.53972H8.54646H8.55319H8.55991H8.56661H8.5733H8.57998H8.58665H8.59331H8.59995H8.60658H8.6132H8.61981H8.62641H8.63299H8.63957H8.64613H8.65268H8.65921H8.66574H8.67225H8.67875H8.68524H8.69171H8.69818H8.70463H8.71107H8.7175H8.72391H8.73031H8.73671H8.74308H8.74945H8.75581H8.76215H8.76848H8.7748H8.78111H8.7874H8.79368H8.79995H8.80621H8.81245H8.81869H8.82491H8.83112H8.83732H8.8435H8.84967H8.85583H8.86198H8.86812H8.87424H8.88035H8.88645H8.89254H8.89861H8.90467H8.91072H8.91676H8.92279H8.9288H8.9348H8.94079H8.94677H8.95273H8.95868H8.96462H8.97055H8.97646H8.98237H8.98826H8.99413H9C10.5429 11 12 9.80268 12 8V7.99707V7.99413V7.99118V7.98823V7.98528V7.98231V7.97934V7.97637V7.97339V7.9704V7.96741V7.96441V7.96141V7.9584V7.95538V7.95236V7.94933V7.9463V7.94326V7.94021V7.93716V7.9341V7.93104V7.92797V7.9249V7.92182V7.91873V7.91564V7.91254V7.90944V7.90633V7.90322V7.9001V7.89697V7.89384V7.8907V7.88756V7.88441V7.88126V7.8781V7.87494V7.87177V7.86859V7.86541V7.86222V7.85903V7.85584V7.85263V7.84942V7.84621V7.84299V7.83977V7.83654V7.8333V7.83006V7.82682V7.82356V7.82031V7.81705V7.81378V7.81051V7.80723V7.80395V7.80066V7.79736V7.79407V7.79076V7.78745V7.78414V7.78082V7.77749V7.77417V7.77083V7.76749V7.76415V7.7608V7.75744V7.75408V7.75072V7.74735V7.74397V7.74059V7.73721V7.73382V7.73042V7.72702V7.72362V7.72021V7.71679V7.71337V7.70995V7.70652V7.70308V7.69964V7.6962V7.69275V7.6893V7.68584V7.68238V7.67891V7.67544V7.67196V7.66848V7.66499V7.6615V7.658V7.6545V7.651V7.64749V7.64397V7.64045V7.63693V7.6334V7.62987V7.62633V7.62279V7.61924V7.61569V7.61213V7.60857V7.60501V7.60144V7.59787V7.59429V7.59071V7.58712V7.58353V7.57993V7.57633V7.57273V7.56912V7.56551V7.56189V7.55827V7.55464V7.55101V7.54738V7.54374V7.54009V7.53645V7.53279V7.52914V7.52548V7.52182V7.51815V7.51447V7.5108V7.50712V7.50343V7.49974V7.49605V7.49235V7.48865V7.48495V7.48124V7.47752V7.47381V7.47009V7.46636V7.46263V7.4589V7.45516V7.45142V7.44767V7.44393V7.44017V7.43642V7.43266V7.42889V7.42512V7.42135V7.41758V7.4138V7.41001V7.40623V7.40243V7.39864V7.39484V7.39104V7.38723V7.38342V7.37961V7.37579V7.37197V7.36815V7.36432V7.36049V7.35666V7.35282V7.34897V7.34513V7.34128V7.33743V7.33357V7.32971V7.32585V7.32198V7.31811V7.31424V7.31036V7.30648V7.3026V7.29871V7.29482V7.29092V7.28703V7.28312V7.27922V7.27531V7.2714V7.26749V7.26357V7.25965V7.25573V7.2518V7.24787V7.24393V7.24V7.23606V7.23211V7.22817V7.22422V7.22027V7.21631V7.21235V7.20839V7.20442V7.20046V7.19648V7.19251V7.18853V7.18455V7.18057V7.17658V7.17259V7.1686V7.16461V7.16061V7.15661V7.1526V7.1486V7.14459V7.14057V7.13656V7.13254V7.12852V7.12449V7.12047V7.11644V7.11241V7.10837V7.10433V7.10029V7.09625V7.0922V7.08815V7.0841V7.08005V7.07599V7.07193V7.06787V7.0638V7.05974V7.05567V7.05159V7.04752V7.04344V7.03936V7.03528V7.03119V7.02711V7.02302V7.01892V7.01483V7.01073V7.00663V7.00253V6.99842V6.99431V6.9902V6.98609V6.98198V6.97786V6.97374V6.96962V6.9655V6.96137V6.95724V6.95311V6.94898V6.94484V6.94071V6.93657V6.93243V6.92828V6.92413V6.91999V6.91584V6.91168V6.90753V6.90337V6.89921V6.89505V6.89089V6.88672V6.88256V6.87839V6.87422V6.87004V6.86587V6.86169V6.85751V6.85333V6.84915V6.84496V6.84077V6.83659V6.8324V6.8282V6.82401V6.81981V6.81561V6.81141V6.80721V6.80301V6.7988V6.7946V6.79039V6.78618V6.78196V6.77775V6.77353V6.76932V6.7651V6.76088V6.75665V6.75243V6.74821V6.74398V6.73975V6.73552V6.73129V6.72705V6.72282V6.71858V6.71434V6.7101V6.70586V6.70162V6.69738V6.69313V6.68888V6.68463V6.68038V6.67613V6.67188V6.66763V6.66337V6.65911V6.65486V6.6506V6.64634V6.64207V6.63781V6.63355V6.62928V6.62501V6.62075V6.61648V6.61221V6.60793V6.60366V6.59939V6.59511V6.59083V6.58656V6.58228V6.578V6.57372V6.56944V6.56515V6.56087V6.55658V6.5523V6.54801V6.54372V6.53943V6.53514V6.53085V6.52656V6.52227V6.51797V6.51368V6.50938V6.50509V6.50079V6.49649V6.49219V6.48789V6.48359V6.47929V6.47499V6.47069V6.46638V6.46208V6.45777V6.45347V6.44999C13.1411 6.21836 14 5.20948 14 4C14 2.61929 12.8807 1.5 11.5 1.5C10.1193 1.5 9 2.61929 9 4C9 5.20948 9.85888 6.21836 11 6.44999V6.45347V6.45777V6.46208V6.46638V6.47069V6.47499V6.47929V6.48359V6.48789V6.49219V6.49649V6.50079V6.50509V6.50938V6.51368V6.51797V6.52227V6.52656V6.53085V6.53514V6.53943V6.54372V6.54801V6.5523V6.55658V6.56087V6.56515V6.56944V6.57372V6.578V6.58228V6.58656V6.59083V6.59511V6.59939V6.60366V6.60793V6.61221V6.61648V6.62075V6.62501V6.62928V6.63355V6.63781V6.64207V6.64634V6.6506V6.65486V6.65911V6.66337V6.66763V6.67188V6.67613V6.68038V6.68463V6.68888V6.69313V6.69738V6.70162V6.70586V6.7101V6.71434V6.71858V6.72282V6.72705V6.73129V6.73552V6.73975V6.74398V6.74821V6.75243V6.75665V6.76088V6.7651V6.76932V6.77353V6.77775V6.78196V6.78618V6.79039V6.7946V6.7988V6.80301V6.80721V6.81141V6.81561V6.81981V6.82401V6.8282V6.8324V6.83659V6.84077V6.84496V6.84915V6.85333V6.85751V6.86169V6.86587V6.87004V6.87422V6.87839V6.88256V6.88672V6.89089V6.89505V6.89921V6.90337V6.90753V6.91168V6.91584V6.91999V6.92413V6.92828V6.93243V6.93657V6.94071V6.94484V6.94898V6.95311V6.95724V6.96137V6.9655V6.96962V6.97374V6.97786V6.98198V6.98609V6.9902V6.99431V6.99842V7.00253V7.00663V7.01073V7.01483V7.01892V7.02302V7.02711V7.03119V7.03528V7.03936V7.04344V7.04752V7.05159V7.05567V7.05974V7.0638V7.06787V7.07193V7.07599V7.08005V7.0841V7.08815V7.0922V7.09625V7.10029V7.10433V7.10837V7.11241V7.11644V7.12047V7.12449V7.12852V7.13254V7.13656V7.14057V7.14459V7.1486V7.1526V7.15661V7.16061V7.16461V7.1686V7.17259V7.17658V7.18057V7.18455V7.18853V7.19251V7.19648V7.20046V7.20442V7.20839V7.21235V7.21631V7.22027V7.22422V7.22817V7.23211V7.23606V7.24V7.24393V7.24787V7.2518V7.25573V7.25965V7.26357V7.26749V7.2714V7.27531V7.27922V7.28312V7.28703V7.29092V7.29482V7.29871V7.3026V7.30648V7.31036V7.31424V7.31811V7.32198V7.32585V7.32971V7.33357V7.33743V7.34128V7.34513V7.34897V7.35282V7.35666V7.36049V7.36432V7.36815V7.37197V7.37579V7.37961V7.38342V7.38723V7.39104V7.39484V7.39864V7.40243V7.40623V7.41001V7.4138V7.41758V7.42135V7.42512V7.42889V7.43266V7.43642V7.44017V7.44393V7.44767V7.45142V7.45516V7.4589V7.46263V7.46636V7.47009V7.47381V7.47752V7.48124V7.48495V7.48865V7.49235V7.49605V7.49974V7.50343V7.50712V7.5108V7.51447V7.51815V7.52182V7.52548V7.52914V7.53279V7.53645V7.54009V7.54374V7.54738V7.55101V7.55464V7.55827V7.56189V7.56551V7.56912V7.57273V7.57633V7.57993V7.58353V7.58712V7.59071V7.59429V7.59787V7.60144V7.60501V7.60857V7.61213V7.61569V7.61924V7.62279V7.62633V7.62987V7.6334V7.63693V7.64045V7.64397V7.64749V7.651V7.6545V7.658V7.6615V7.66499V7.66848V7.67196V7.67544V7.67891V7.68238V7.68584V7.6893V7.69275V7.6962V7.69964V7.70308V7.70652V7.70995V7.71337V7.71679V7.72021V7.72362V7.72702V7.73042V7.73382V7.73721V7.74059V7.74397V7.74735V7.75072V7.75408V7.75744V7.7608V7.76415V7.76749V7.77083V7.77417V7.77749V7.78082V7.78414V7.78745V7.79076V7.79407V7.79736V7.80066V7.80395V7.80723V7.81051V7.81378V7.81705V7.82031V7.82356V7.82682V7.83006V7.8333V7.83654V7.83977V7.84299V7.84621V7.84942V7.85263V7.85584V7.85903V7.86222V7.86541V7.86859V7.87177V7.87494V7.8781V7.88126V7.88441V7.88756V7.8907V7.89384V7.89697V7.9001V7.90322V7.90633V7.90944V7.91254V7.91564V7.91873V7.92182V7.9249V7.92797V7.93104V7.9341V7.93716V7.94021V7.94326V7.9463V7.94933V7.95236V7.95538V7.9584V7.96141V7.96441V7.96741V7.9704V7.97339V7.97637V7.97934V7.98231V7.98528V7.98823V7.99118V7.99413V7.99707V8C11 9.19732 10.0453 10 9 10H8.99413H8.98826H8.98237H8.97646H8.97055H8.96462H8.95868H8.95273H8.94677H8.94079H8.9348H8.9288H8.92279H8.91676H8.91072H8.90467H8.89861H8.89254H8.88645H8.88035H8.87424H8.86812H8.86198H8.85583H8.84967H8.8435H8.83732H8.83112H8.82491H8.81869H8.81245H8.80621H8.79995H8.79368H8.7874H8.78111H8.7748H8.76848H8.76215H8.75581H8.74945H8.74308H8.73671H8.73031H8.72391H8.7175H8.71107H8.70463H8.69818H8.69171H8.68524H8.67875H8.67225H8.66574H8.65921H8.65268H8.64613H8.63957H8.63299H8.62641H8.61981H8.6132H8.60658H8.59995H8.59331H8.58665H8.57998H8.5733H8.56661H8.55991H8.55319H8.54646H8.53972H8.53297H8.5262H8.51943H8.51264H8.50584H8.49903H8.4922H8.48537H8.47852H8.47166H8.46479H8.4579H8.45101H8.4441H8.43718H8.43025H8.42331H8.41635H8.40939H8.40241H8.39542H8.38842H8.3814H8.37437H8.36734H8.36029H8.35323H8.34615H8.33907H8.33197H8.32486H8.31774H8.31061H8.30347H8.29631H8.28914H8.28196H8.27477H8.26757H8.26035H8.25313H8.24589H8.23864H8.23138H8.2241H8.21682H8.20952H8.20222H8.19489H8.18756H8.18022H8.17286H8.1655H8.15812H8.15073H8.14333H8.13591H8.12849H8.12105H8.1136H8.10614H8.09867H8.09119H8.08369H8.07618H8.06867H8.06114H8.05359H8.04604H8.03848H8.0309H8.02331H8.01571H8.0081H8.00048H7.99285H7.9852H7.97754H7.96987H7.96219H7.9545H7.9468H7.93908H7.93136H7.92362H7.91587H7.90811H7.90033H7.89255H7.88476H7.87695H7.86913H7.8613H7.85346H7.8456H7.83774H7.82986H7.82198H7.81408H7.80617H7.79825H7.79031H7.78237H7.77441H7.76645H7.75847H7.75048H7.74248H7.73446H7.72644H7.7184H7.71036H7.7023H7.69423H7.68615H7.67805H7.66995H7.66184H7.65371H7.64557H7.63742H7.62926H7.62109H7.61291H7.60471H7.59651H7.58829H7.58006H7.57182H7.56357H7.55531H7.54704H7.53875H7.53046H7.52215H7.51383H7.5055H7.49716H7.48881H7.48044H7.47207H7.46368H7.45529H7.44688H7.43846H7.43003H7.42159H7.41313H7.40467H7.39619H7.38771H7.37921H7.3707H7.36218H7.35365H7.34511H7.33656H7.32799H7.31942H7.31083H7.30223H7.29362H7.285H7.27637H7.26773H7.25907H7.25041H7.24173H7.23305H7.22435H7.21564H7.20692H7.19819H7.18945H7.1807H7.17193H7.16316H7.15437H7.14557H7.13677H7.12795H7.11912H7.11028H7.10142H7.09256H7.08369H7.0748H7.06591H7.057H7.04808H7.03915H7.03021H7.02126H7.0123H7.00333H6.99434H6.98535H6.97634H6.96733H6.9583H6.94926H6.94021H6.93115H6.92208H6.913H6.90391H6.8948H6.88569H6.87656H6.86743H6.85828H6.84912H6.83995H6.83078H6.82158H6.81238H6.80317H6.79395H6.78472H6.77547H6.76622H6.75695H6.74767H6.73839H6.72909H6.71978H6.71046H6.70113H6.69179H6.68243H6.67307H6.6637H6.65431H6.64492H6.63551H6.6261H6.61667H6.60723H6.59778H6.58832H6.57885H6.56937H6.55988H6.55038H6.54086H6.53134H6.52181H6.51226H6.50271H6.49314H6.48356H6.47398H6.46438H6.45477H6.44515H6.43552H6.42588H6.41623H6.40657H6.3969H6.38721H6.37752H6.36782H6.3581H6.34838H6.33864H6.32889H6.31914H6.30937H6.29959H6.2898H6.28H6.2702H6.26037H6.25054H6.2407H6.23085H6.22099H6.21112H6.20123H6.19134H6.18144H6.17152H6.1616H6.15166H6.14172H6.13176H6.12179H6.11182H6.10183H6.09183H6.08182H6.0718H6.06177H6.05173H6.04168H6.03162H6.02155H6.01147H6.00138H5.99128H5.98116H5.97104H5.96091H5.95076H5.94061H5.93045H5.92027H5.91009H5.89989H5.88969H5.87947H5.86924H5.85901H5.84876H5.8385H5.82824H5.81796H5.80767H5.79737H5.78706H5.77674H5.76641H5.75607H5.74573H5.73537H5.725H5.71462H5.70422H5.69382H5.68341H5.67299H5.66256H5.65212H5.64167H5.6312H5.62073H5.61025H5.59976H5.58925H5.57874H5.56822H5.55769H5.54714H5.53659H5.52602H5.51545H5.50487H5.49427H5.48367H5.47305H5.46243H5.4518H5.44115H5.4305H5.41983H5.40916H5.39847H5.38778H5.37707H5.36636H5.35563H5.34489H5.33415H5.32339H5.31263H5.30185H5.29107H5.28027H5.26947H5.25865H5.24783H5.23699H5.22614H5.21529H5.20442H5.19355H5.18266H5.17177H5.16086H5.14995H5.13902H5.12809H5.11714H5.10619H5.09522H5.08425H5.07326H5.06227H5.05126H5.04025H5.02922H5.01819H5.00714H5V6.44999ZM13 4C13 4.82843 12.3284 5.5 11.5 5.5C10.6716 5.5 10 4.82843 10 4C10 3.17157 10.6716 2.5 11.5 2.5C12.3284 2.5 13 3.17157 13 4Z" fill="#090909"/>
</svg>
