<svg width="16" height="16" viewBox="0 0 16 16" fill="none" xmlns="http://www.w3.org/2000/svg">
<path fill-rule="evenodd" clip-rule="evenodd" d="M10.1036 1.85355C10.2988 1.65829 10.2988 1.34171 10.1036 1.14645C9.90829 0.951184 9.59171 0.951184 9.39645 1.14645L7.39645 3.14645L7.04289 3.5L7.39645 3.85355L9.39645 5.85355C9.59171 6.04882 9.90829 6.04882 10.1036 5.85355C10.2988 5.65829 10.2988 5.34171 10.1036 5.14645L8.95711 4H10.9C11.5075 4 12 4.49249 12 5.1V10.05C10.8589 10.2816 10 11.2905 10 12.5C10 13.8807 11.1193 15 12.5 15C13.8807 15 15 13.8807 15 12.5C15 11.2905 14.1411 10.2816 13 10.05V5.1C13 3.9402 12.0598 3 10.9 3H8.95711L10.1036 1.85355ZM2 3.5C2 2.67157 2.67157 2 3.5 2C4.32843 2 5 2.67157 5 3.5C5 4.32843 4.32843 5 3.5 5C2.67157 5 2 4.32843 2 3.5ZM3.5 1C2.11929 1 1 2.11929 1 3.5C1 4.70948 1.85888 5.71836 3 5.94999L3 10.05C1.85888 10.2816 1 11.2905 1 12.5C1 13.8807 2.11929 15 3.5 15C4.88071 15 6 13.8807 6 12.5C6 11.2905 5.14112 10.2816 4 10.05L4 5.94999C5.14112 5.71836 6 4.70948 6 3.5C6 2.11929 4.88071 1 3.5 1ZM2 12.5C2 11.6716 2.67157 11 3.5 11C4.32843 11 5 11.6716 5 12.5C5 13.3284 4.32843 14 3.5 14C2.67157 14 2 13.3284 2 12.5ZM11 12.5C11 11.6716 11.6716 11 12.5 11C13.3284 11 14 11.6716 14 12.5C14 13.3284 13.3284 14 12.5 14C11.6716 14 11 13.3284 11 12.5Z" fill="#090909"/>
</svg>
