<svg width="16" height="16" viewBox="0 0 16 16" fill="none" xmlns="http://www.w3.org/2000/svg">
<path fill-rule="evenodd" clip-rule="evenodd" d="M5.99965 2C6.82808 2 7.49965 2.67157 7.49965 3.5V4H4.73617C4.5219 3.72283 4.45031 3.40749 4.49537 3.06529C4.52117 2.86945 4.62276 2.60362 4.84381 2.39052C5.05464 2.18728 5.40686 2 5.99965 2ZM11.2631 4H8.49965V3.5C8.49965 2.67157 9.17123 2 9.99965 2C10.5925 2 10.9447 2.18728 11.1555 2.39052C11.3765 2.60362 11.4781 2.86945 11.5039 3.06529C11.549 3.40749 11.4774 3.72283 11.2631 4ZM13.5 4H12.3906C12.5082 3.67036 12.545 3.31166 12.4954 2.93471C12.4441 2.54537 12.2547 2.06119 11.8495 1.67059C11.4341 1.27013 10.8249 1 9.99965 1C9.18185 1 8.45577 1.39267 7.99966 1.99976C7.54354 1.39267 6.81745 1 5.99965 1C5.17441 1 4.56516 1.27013 4.14977 1.67059C3.74459 2.06119 3.55521 2.54537 3.50393 2.93471C3.45429 3.31166 3.49111 3.67036 3.60874 4H2.5C1.67157 4 1 4.67157 1 5.5V7.5C1 8.15311 1.4174 8.70873 2 8.91465V13.5C2 14.3284 2.67157 15 3.5 15H12.5C13.3284 15 14 14.3284 14 13.5V8.91465C14.5826 8.70873 15 8.15311 15 7.5V5.5C15 4.67157 14.3284 4 13.5 4ZM7.5 9H3V13.5C3 13.7761 3.22386 14 3.5 14H7.5V9ZM7.5 8H2.5C2.22386 8 2 7.77614 2 7.5V5.5C2 5.22386 2.22386 5 2.5 5H7.5V8ZM8.5 9V14H12.5C12.7761 14 13 13.7761 13 13.5V9H8.5ZM8.5 8V5H13.5C13.7761 5 14 5.22386 14 5.5V7.5C14 7.77614 13.7761 8 13.5 8H8.5Z" fill="#090909"/>
</svg>
