<svg width="16" height="16" viewBox="0 0 16 16" fill="none" xmlns="http://www.w3.org/2000/svg">
<path fill-rule="evenodd" clip-rule="evenodd" d="M3 3H13C13.5523 3 14 3.44772 14 4V6H2V4C2 3.44772 2.44772 3 3 3ZM1 7V6V4C1 2.89543 1.89543 2 3 2H13C14.1046 2 15 2.89543 15 4V6V7V8H14V7H2V12C2 12.5523 2.44772 13 3 13H8V14H3C1.89543 14 1 13.1046 1 12V7ZM3 4H4V5H3V4ZM6 4H5V5H6V4ZM12.0001 9.64328L10 10.7516V13.2483L12.0001 14.3567L14 13.2483V10.7516L12.0001 9.64328ZM15 10.1624L12.0001 8.5L9 10.1624V13.8374L12.0001 15.5L15 13.8374V10.1624ZM13 12C13 12.5523 12.5523 13 12 13C11.4477 13 11 12.5523 11 12C11 11.4477 11.4477 11 12 11C12.5523 11 13 11.4477 13 12Z" fill="#090909"/>
</svg>
